<?xml version="1.0" standalone="no"?>
<!DOCTYPE svg PUBLIC "-//W3C//DTD SVG 1.1//EN" "http://www.w3.org/Graphics/SVG/1.1/DTD/svg11.dtd" >
<svg xmlns="http://www.w3.org/2000/svg" xmlns:xlink="http://www.w3.org/1999/xlink" version="1.1">
<metadata>
Created by FontForge 20201107 at Fri Mar  5 00:19:26 2021
 By Unknown
Copyright (c) 2021 by 177Studio.com. All rights reserved.
</metadata>
<defs>
<font id="ArethaBridge-Regular" horiz-adv-x="575" >
  <font-face 
    font-family="Aretha Bridge"
    font-weight="400"
    font-stretch="normal"
    units-per-em="1000"
    panose-1="2 0 5 3 6 0 0 2 0 3"
    ascent="800"
    descent="-200"
    x-height="474"
    cap-height="699"
    bbox="-872 -389 6105.08 947"
    underline-thickness="0"
    underline-position="0"
    unicode-range="U+000A-FB02"
  />
<missing-glyph horiz-adv-x="481" 
d="M454 700v-700h-427v700h427zM240 371l186 309h-371zM48 650v-601l180 301zM56 21h370l-185 308zM434 47v605l-181 -302z" />
    <glyph glyph-name="uniF466" unicode="Aretha&#x20;Bridge" horiz-adv-x="6121" 
d="M440 -386q-91 0 -170.5 26.5t-138.5 74.5t-93 113.5t-34 143.5q0 68 25.5 130t72.5 110.5t113 80t148 39.5q29 63 59 126.5t55 116.5t41.5 88t19.5 41q11 -23 33.5 -70.5t51.5 -107t61.5 -126t62.5 -129t55 -114t40 -81.5q13 -27 22.5 -42t27.5 -28v-6h-143v6
q19 11 27.5 29t-2.5 41q-13 27 -28 58t-29 62q-12 22 -39 44t-64.5 39.5t-84 28.5t-95.5 11q-33 0 -67 -6q-14 -29 -29 -62t-30 -64.5t-28.5 -60t-23.5 -49.5q-6 -13 -3 -25t10 -22t16.5 -16.5t17.5 -7.5v-6h-143v6q23 5 48 21t41 50q1 2 10 21.5t24 51.5t34.5 73t40.5 87
q-61 -13 -113 -44.5t-89.5 -77.5t-57.5 -103.5t-18 -123.5q1 -72 30.5 -132t76.5 -104t107 -70t122 -29q121 -6 221 16t189.5 59t174 81.5t176 83.5t194.5 65.5t229 26.5q104 0 197.5 -18.5t189.5 -57.5l-2 -81q-21 24 -48 44t-55.5 35t-56.5 24.5t-52 13.5q-62 9 -119 9
q-99 0 -191.5 -23t-183.5 -58t-184 -75.5t-194 -75.5t-213 -58t-242 -23zM514 625q-38 -82 -63 -135t-40.5 -85.5t-23 -48t-10.5 -23.5q41 3 84.5 -1t85.5 -15.5t80.5 -30.5t68.5 -46q-19 39 -28 58.5t-15.5 33t-13 28t-21 44t-39 81.5t-65.5 140zM967 403q-1 20 -11.5 37.5
t-28.5 28.5v6q26 5 51.5 14.5t50.5 22.5v-290q25 118 69.5 180t92.5 76q19 3 36 3q31 0 49.5 -10t29.5 -22q12 -14 17 -32h-70q-2 12 -7 22q-5 8 -14.5 15t-26.5 7q-10 0 -23 -3q-23 -10 -45.5 -31.5t-42.5 -57.5t-36.5 -87t-28.5 -120v-86q0 -22 11 -40.5t29 -29.5v-6h-142
v6q18 11 28.5 29.5t11.5 39.5v328zM1277 214q-5 49 10 97t49 86t87.5 61.5t127.5 23.5q53 0 96 -15.5t73 -39.5t46.5 -53.5t16.5 -57.5q1 -20 -10.5 -34.5t-27.5 -24.5q-23 -14 -56.5 -24.5t-70.5 -21t-75 -21.5t-69 -26t-51.5 -35.5t-24.5 -48.5q34 -38 79.5 -55.5
t93.5 -17.5q57 0 109 21t83 58l8 -6q-20 -27 -53 -47q-28 -18 -71 -32.5t-103 -13.5q-62 0 -110 19.5t-82 51t-52.5 72t-22.5 84.5zM1538 469q-42 0 -79.5 -18.5t-64.5 -50t-42 -73t-13 -87.5q3 -49 16.5 -86.5t35.5 -65.5q2 27 20 47.5t45.5 35.5t61 26.5t67 22.5t62.5 22
t47 25q17 13 23.5 33.5t1.5 40.5q-16 60 -61.5 94t-119.5 34zM1787 452v11h126q-29 5 -51.5 20t-38 33.5t-23.5 36.5t-9 29h70l0.5 -19t10 -41t32 -40.5t66.5 -18.5h6v-11h-88v-375q0 -22 3 -35t8 -19.5t12 -8.5t15 -3q25 -2 47 17t42 51v551q-3 42 -41 64v6q26 5 51.5 14.5
t50.5 22.5v-527q9 25 17.5 53t16.5 53q30 81 71 120t82 44q24 3 54 -3t57 -22t47.5 -42.5t27.5 -65.5q4 -21 1 -46q-4 -44 -8 -86q-4 -37 -8 -78t-7 -74q0 -40 35 -56v-6h-142v6q17 10 30 24.5t16 32.5q2 26 5.5 58t6.5 64q5 46 8 83t4 46q2 30 -6.5 57.5t-24 47.5t-37.5 32
t-47 12q-23 0 -47.5 -12t-48 -38.5t-44 -69.5t-36.5 -105q-10 -27 -21 -56.5t-24.5 -57t-29.5 -52.5t-36 -44q-15 -14 -31.5 -22.5t-35.5 -9.5q-14 0 -30.5 3t-30.5 11t-23.5 22t-9.5 35v384h-40zM1974 2q32 20 57.5 59t44.5 82v-74q5 -41 40 -62v-6h-142v1zM2476 102
q0 26 25.5 44.5t63.5 34.5t82 31.5t82 36t63 49t24 69.5q-6 50 -29.5 77t-83.5 26q-33 -1 -51.5 -10t-27.5 -20q-11 -13 -13 -30h-67l4 9.5t17 21t38.5 22.5t67.5 15q9 1 19.5 1.5t21.5 0.5q48 0 80 -11t50.5 -34t26 -57.5t7.5 -80.5v-331q0 -30 2 -61t11 -56t26.5 -42.5
t47.5 -20.5q58 -7 106.5 9.5t99.5 45t112 62.5t145 63q72 24 137 24q70 0 132.5 -26t122.5 -75l-25 -65q-40 63 -88 103t-113 40q-24 0 -49 -6q-66 -15 -120 -36t-101.5 -43.5t-91 -43.5t-87 -36t-89 -22t-98.5 -1q-72 8 -104.5 53.5t-32.5 131.5v87q-8 -5 -25.5 -16
t-42 -21.5t-54.5 -18.5t-61 -8q-32 0 -61 6.5t-51 20.5t-35 36t-13 52zM2819 321q-14 -31 -41 -52t-58.5 -37t-64.5 -28t-59.5 -25.5t-42.5 -29.5t-14 -40q2 -28 12 -47.5t25.5 -31.5t35 -17t41.5 -5t46 5t46 13t41 18.5t33 21.5v255zM3500 699q42 0 83.5 -7t74 -24
t52.5 -44.5t20 -68.5q0 -34 -13 -56.5t-33 -37.5t-45 -23.5t-50 -14.5q72 -5 122 -27t82 -52t47 -63.5t17 -62.5q3 -45 -10 -79.5t-37 -60t-57.5 -42.5t-72.5 -26q-29 -8 -60 -11t-63 -3q-39 0 -79 12.5t-72 36t-52 57.5t-20 78q0 40 13.5 70.5t36 52t52.5 34t62 17.5
q43 6 85.5 0t74.5 -23v-73q-10 26 -29 45q-20 20 -49.5 31.5t-67.5 7.5q-19 -2 -39.5 -15t-37.5 -34.5t-28 -52t-11 -67.5t12 -67t33 -51.5t48.5 -34t58.5 -13.5q58 -3 103.5 13t77 45t47 69t12.5 84q-3 46 -24.5 80.5t-53.5 58.5t-72.5 38.5t-80.5 20.5q-42 -9 -78 -22
t-51 -45q-22 -9 -39.5 -21t-31.5 -23q-16 -13 -28 -26v10q20 25 28 51t8 48v236q-1 21 -11.5 39.5t-28.5 29.5v6h175zM3427 364q15 25 40.5 37t54.5 20q30 7 56.5 15.5t46.5 22.5t31.5 36.5t11.5 59.5q0 39 -14.5 64.5t-38.5 41t-54 21.5t-61 6h-73v-324zM3900 403
q-1 20 -11.5 37.5t-28.5 28.5v6q26 5 51.5 14.5t50.5 22.5v-290q25 118 69.5 180t92.5 76q19 3 36 3q31 0 49.5 -10t29.5 -22q12 -14 17 -32h-70q-2 12 -7 22q-5 8 -14.5 15t-26.5 7q-10 0 -23 -3q-23 -10 -45.5 -31.5t-42.5 -57.5t-36.5 -87t-28.5 -120v-86q0 -22 11 -40.5
t29 -29.5v-6h-142v6q18 11 28.5 29.5t11.5 39.5v328zM4339 528q-17 0 -29.5 11t-12.5 26q0 14 12.5 25.5t29.5 11.5t29.5 -11.5t12.5 -25.5q0 -15 -12.5 -26t-29.5 -11zM4434 206q0 53 23 86t59.5 53.5t82.5 32.5t91.5 22.5t87 23.5t69.5 37q19 16 28.5 38t7.5 46v192
q26 -13 51.5 -22.5t52.5 -15.5v-6q-38 -22 -41 -63v-558q0 -65 18.5 -113t48.5 -82.5t67 -56.5t74 -34.5t69.5 -17.5t53.5 -5q30 0 69.5 4t75.5 15.5t60.5 31.5t24.5 52q0 39 -33.5 58t-83.5 28t-109 13t-109 11.5t-83.5 24t-33.5 51.5q0 9 1 17t5.5 18t13.5 23t24 33
q-35 25 -60.5 62t-25.5 82q0 44 22 80.5t58 62.5t83.5 40.5t98.5 14.5q22 0 43.5 -2.5t42.5 -8.5q0 1 2 3q22 26 62.5 45.5t102.5 15.5v-64q-40 26 -74 29q-28 3 -47 -6.5t-31 -22.5l-2 -4q80 -26 123 -77.5t43 -105.5q0 -45 -22.5 -81.5t-59 -62.5t-84 -40.5t-97.5 -14.5
q-34 0 -68 7.5t-65 22.5q-17 7 -34 18l-8 -10q-9 -10 -15 -21q-6 -9 -10.5 -20.5t-4.5 -21.5q-1 -25 20.5 -39t57 -21.5t81 -10.5t93 -5.5t93 -7.5t81 -16.5t57.5 -31.5t22 -53q0 -35 -29 -59t-74.5 -39.5t-100.5 -22.5t-107 -7q-17 0 -52 2.5t-77.5 12.5t-87 29.5t-81 53
t-60 83.5t-23.5 121v44q-9 -15 -23 -32.5t-35 -33.5t-50 -28t-67 -15q-52 -4 -101.5 3t-88.5 31.5t-62.5 69t-23.5 115.5zM4884 483q-20 -36 -58 -56t-82.5 -33.5t-90.5 -25.5t-82 -33t-57.5 -56t-16.5 -93q4 -52 19 -87.5t40 -57t59.5 -31.5t76.5 -10q39 0 74 13.5
t61.5 38.5t42 58.5t15.5 74.5v278q-1 5 -1 10v10zM5128 159q30 -27 69 -40t80 -13q27 0 54 5.5t50 15.5q36 15 60 41.5t35 59t8.5 68.5t-19.5 70q-36 70 -99 95zM5186 450q-36 -15 -62 -42.5t-39.5 -61t-12.5 -70t19 -70.5q5 -11 12 -20.5t15 -17.5q32 42 88.5 112.5
t147.5 184.5q-29 9 -61 9q-52 0 -107 -24zM4270 468h143v-6q-17 -8 -28.5 -25.5t-11.5 -39.5v-329q5 -41 40 -62l-1 -6h-142l1 6q17 10 28.5 26.5t11.5 36.5v329q-1 20 -12 36.5t-29 27.5v6zM5599 214q-5 49 10 97t49 86t87.5 61.5t127.5 23.5q53 0 96 -15.5t73 -39.5
t46.5 -53.5t16.5 -57.5q1 -20 -10.5 -34.5t-27.5 -24.5q-23 -14 -56.5 -24.5t-70.5 -21t-75 -21.5t-69 -26t-51.5 -35.5t-24.5 -48.5q34 -38 79.5 -55.5t93.5 -17.5q57 0 109 21t83 58l8 -6q-20 -27 -53 -47q-28 -18 -71 -32.5t-103 -13.5q-62 0 -110 19.5t-82 51t-52.5 72
t-22.5 84.5zM5860 469q-42 0 -79.5 -18.5t-64.5 -50t-42 -73t-13 -87.5q3 -49 16.5 -86.5t35.5 -65.5q2 27 20 47.5t45.5 35.5t61 26.5t67 22.5t62.5 22t47 25q17 13 23.5 33.5t1.5 40.5q-16 60 -61.5 94t-119.5 34z" />
    <glyph glyph-name="uniF401" unicode="ah" horiz-adv-x="1005" 
d="M15 102q0 26 25.5 45t63.5 34.5t82 31t82 36.5t63 49t24 69q-6 50 -29.5 77t-83.5 26q-33 -1 -51.5 -10t-27.5 -20q-11 -13 -13 -30h-67q0 1 4 10t17 20.5t38.5 22.5t67.5 15q9 1 19.5 1.5t21.5 0.5q48 0 80 -11t50.5 -34t26 -57.5t7.5 -80.5v-171q29 32 57.5 69.5
t57.5 75.5v359q-1 20 -12 36t-29 27v7q26 5 51.5 14.5t51.5 22.5v-388q45 54 91 91t96 40q24 1 53.5 -5t56.5 -22t48 -42t27 -64q2 -12 2.5 -23.5t-0.5 -23.5q-5 -44 -9 -86q-4 -36 -8 -77t-7 -74q0 -41 36 -57v-6h-143v6q17 10 30 24.5t16 33.5q2 26 5.5 57.5t6.5 63.5
q5 47 8.5 83.5t4.5 45.5q2 32 -7.5 60.5t-27 49t-41 32t-49.5 8.5q-46 -5 -86.5 -32.5t-78 -68t-73 -89t-71 -95t-72 -86.5t-75.5 -62q-27 -15 -66 -29.5t-84 -14.5q-32 0 -61 6.5t-51 20.5t-35 36t-13 52zM358 321q-14 -31 -41 -52t-58.5 -37t-64.5 -28t-59.5 -25.5
t-42.5 -29.5t-14 -40q2 -28 12 -47.5t25.5 -31.5t35 -17t40.5 -5q45 0 89 16t78 45v252zM489 6q18 11 29 27.5t12 36.5v170q15 20 30.5 40t31.5 39v-250q3 -41 40 -63v-6h-143v6zM359 39q15 11 28.5 24.5t27.5 28.5v-16q2 -46 40 -70v-6h-46q-18 0 -31.5 11t-18.5 28z" />
    <glyph glyph-name="uniF402" unicode="ag" horiz-adv-x="1022" 
d="M175 -13q-32 0 -61 6.5t-51 20.5t-35 36t-13 52q0 26 25.5 45t63.5 34.5t82 31t82 36.5t63 49t24 69q-6 50 -29.5 77t-83.5 26q-33 -1 -51.5 -10t-27.5 -20q-11 -13 -13 -30h-67q0 1 4 10t17 20.5t38.5 22.5t67.5 15q9 1 19.5 1.5t21.5 0.5q48 0 80 -11t50.5 -34
t26 -57.5t7.5 -80.5v-225q0 -65 18.5 -113t47.5 -82.5t65.5 -56.5t72.5 -34.5t68.5 -17.5t53.5 -5q30 0 70 4t75.5 15.5t60 31.5t24.5 52q0 39 -33.5 58t-83.5 28t-109 13t-109 11.5t-83.5 24t-33.5 51.5q0 9 1.5 17t6 18t13 23t23.5 33q-35 27 -60 61.5t-25 82.5
q0 44 22 80.5t58 62.5t83.5 40.5t98.5 14.5q21 0 42.5 -2.5t42.5 -8.5q1 1 1 1.5t1 1.5q22 26 63 45.5t103 15.5v-64q-22 14 -40.5 20.5t-33.5 8.5q-28 3 -47.5 -6.5t-30.5 -22.5l-3 -4q40 -13 71 -33t52.5 -44.5t32.5 -51.5t11 -54q0 -45 -22.5 -81.5t-59.5 -62.5
t-84.5 -40.5t-97.5 -14.5q-34 0 -68 7.5t-65 22.5q-17 7 -34 18l-8 -10q-9 -10 -15 -21q-5 -9 -10 -20.5t-5 -21.5q-1 -25 20.5 -39t57 -21.5t81 -10.5t93 -5.5t93.5 -7.5t81.5 -16.5t57.5 -31.5t22 -53q0 -35 -29 -59t-74.5 -39.5t-101 -22.5t-107.5 -7q-17 0 -51 2.5
t-75.5 12.5t-85 29t-79 52.5t-58.5 83.5t-23 121q-8 -5 -25.5 -16t-42 -21.5t-54.5 -18.5t-61 -8zM592 159q30 -27 69 -40t80 -13q28 0 54.5 5.5t50.5 15.5q36 15 59.5 41.5t34.5 59t8.5 68.5t-19.5 70q-36 70 -98 95zM358 321q-14 -31 -41 -52t-58.5 -37t-64.5 -28
t-59.5 -25.5t-42.5 -29.5t-14 -40q2 -28 12 -47.5t25.5 -31.5t35 -17t40.5 -5q23 0 46.5 5t46 13t41.5 19t33 22v254zM650 450q-36 -15 -62 -42.5t-39.5 -61t-12.5 -70t19 -70.5q13 -22 27 -38q32 42 89 112.5t147 184.5q-29 9 -60 9q-53 0 -108 -24z" />
    <glyph glyph-name="uniF403" unicode="as" horiz-adv-x="913" 
d="M175 -13q-32 0 -61 6.5t-51 20.5t-35 36t-13 52q0 26 25.5 45t63.5 34.5t82 31t82 36.5t63 49t24 69q-6 50 -29.5 77t-83.5 26q-33 -1 -51.5 -10t-27.5 -20q-11 -13 -13 -30h-67q0 1 4 10t17 20.5t38.5 22.5t67.5 15q9 1 19.5 1.5t21.5 0.5q48 0 80 -11t50.5 -34
t26 -57.5t7.5 -80.5v-189q0 -44 18 -73t46.5 -46.5t64 -25t71.5 -7.5q16 0 31.5 1.5t31.5 3.5q29 5 57 19.5t50 35.5t35.5 46.5t14.5 52.5q1 23 -26 40.5t-67.5 33t-87.5 32t-87.5 36.5t-67.5 46t-27 62q0 34 17 58.5t44.5 40t61.5 22.5t67 7q63 0 101 -11t59 -24
q25 -16 35 -35h-70q-3 18 -19 31q-14 11 -41 20.5t-77 8.5q-23 0 -47.5 -6t-44.5 -18t-33.5 -29t-13.5 -40v-1q0 -28 27.5 -48.5t68.5 -38t88.5 -34t89 -35.5t70 -43t30.5 -56t-10 -59t-34 -48q-48 -48 -113.5 -68t-131.5 -20q-38 0 -77.5 5.5t-73 18.5t-57 34.5t-30.5 53.5
q-8 -5 -25.5 -16t-42 -21.5t-54.5 -18.5t-61 -8zM358 321q-14 -31 -41 -52t-58.5 -37t-64.5 -28t-59.5 -25.5t-42.5 -29.5t-14 -40q2 -28 12 -47.5t25.5 -31.5t35 -17t40.5 -5q23 0 46.5 5t46 13t41.5 19t33 22v254z" />
    <glyph glyph-name="uniF404" unicode="am" horiz-adv-x="1361" 
d="M15 102q0 26 25.5 45t63.5 34.5t82 31t82 36.5t63 49t24 69q-6 50 -29.5 77t-83.5 26q-33 -1 -51.5 -10t-27.5 -20q-11 -13 -13 -30h-67q0 1 4 10t17 20.5t38.5 22.5t67.5 15q9 1 19.5 1.5t21.5 0.5q48 0 80 -11t50.5 -34t26 -57.5t7.5 -80.5v-171q29 32 57.5 69.5
t57.5 75.5v136q-1 20 -12 36.5t-29 27.5v6q26 5 51.5 14.5t51.5 22.5v-165q45 54 91 91t96 40q24 1 53.5 -5t56.5 -22t48 -42t27 -64q2 -12 2.5 -23.5t-0.5 -23.5q0 -6 -1 -13q-1 -6 -2 -14.5t-2 -19.5q29 112 77 167t97 60q24 3 53.5 -3.5t56.5 -22.5t48 -42.5t27 -64.5
q2 -12 2.5 -23.5t-0.5 -23.5q-5 -44 -9 -86q-4 -36 -8 -77t-7 -74q0 -41 36 -57v-6h-143v6q17 11 30 25.5t16 32.5q3 32 7 72.5t8 77.5t6.5 64.5t3.5 35.5q3 51 -20 90.5t-61 53.5q-17 6 -34 6q-28 0 -57.5 -17.5t-56.5 -57t-49 -103.5t-35 -158q-2 -17 -3.5 -34t-3.5 -31
q0 -41 36 -57v-6h-143v6q17 10 30 24.5t16 33.5q2 26 5.5 57.5t6.5 63.5q5 47 8.5 83.5t4.5 45.5q2 32 -7.5 60.5t-27 49t-41 32t-49.5 8.5q-46 -5 -86.5 -32.5t-78 -68t-73 -89t-71 -95t-72 -86.5t-75.5 -62q-27 -15 -66 -29.5t-84 -14.5q-32 0 -61 6.5t-51 20.5t-35 36
t-13 52zM358 321q-14 -31 -41 -52t-58.5 -37t-64.5 -28t-59.5 -25.5t-42.5 -29.5t-14 -40q2 -28 12 -47.5t25.5 -31.5t35 -17t40.5 -5q45 0 89 16t78 45v252zM489 6q18 11 29 27.5t12 36.5v170q15 20 30.5 40t31.5 39v-250q3 -41 40 -63v-6h-143v6zM360 39q14 11 27.5 24.5
t27.5 28.5v-16q2 -46 40 -70v-6h-46q-18 0 -31.5 11t-17.5 28z" />
    <glyph glyph-name="uniF405" unicode="an" horiz-adv-x="1005" 
d="M15 102q0 26 25.5 45t63.5 34.5t82 31t82 36.5t63 49t24 69q-6 50 -29.5 77t-83.5 26q-33 -1 -51.5 -10t-27.5 -20q-11 -13 -13 -30h-67q0 1 4 10t17 20.5t38.5 22.5t67.5 15q9 1 19.5 1.5t21.5 0.5q48 0 80 -11t50.5 -34t26 -57.5t7.5 -80.5v-171q29 32 57.5 69.5
t57.5 75.5v136q-1 20 -12 36.5t-29 27.5v6q26 5 51.5 14.5t51.5 22.5v-165q45 54 91 91t96 40q24 1 53.5 -5t56.5 -22t48 -42t27 -64q2 -12 2.5 -23.5t-0.5 -23.5q-5 -44 -9 -86q-4 -36 -8 -77t-7 -74q0 -41 36 -57v-6h-143v6q17 10 30 24.5t16 33.5q2 26 5.5 57.5t6.5 63.5
q5 47 8.5 83.5t4.5 45.5q2 32 -7.5 60.5t-27 49t-41 32t-49.5 8.5q-46 -5 -86.5 -32.5t-78 -68t-73 -89t-71 -95t-72 -86.5t-75.5 -62q-27 -15 -66 -29.5t-84 -14.5q-32 0 -61 6.5t-51 20.5t-35 36t-13 52zM358 321q-14 -31 -41 -52t-58.5 -37t-64.5 -28t-59.5 -25.5
t-42.5 -29.5t-14 -40q2 -28 12 -47.5t25.5 -31.5t35 -17t40.5 -5q45 0 89 16t78 45v252zM489 6q18 11 29 27.5t12 36.5v170q15 20 30.5 40t31.5 39v-250q3 -41 40 -63v-6h-143v6zM360 39q14 11 27.5 24.5t27.5 28.5v-16q2 -46 40 -70v-6h-46q-18 0 -31.5 11t-17.5 28z" />
    <glyph glyph-name="uniF406" unicode="cc" horiz-adv-x="1021" 
d="M335 -205q-23 3 -56 13.5t-68.5 30.5t-70.5 52t-62.5 78t-45 106.5t-17.5 139.5q0 66 24 118t64.5 88t94 54.5t113.5 18.5q54 0 89.5 -11t55.5 -24q24 -16 37 -35h-66q-7 16 -24 28q-14 11 -41 19.5t-72 8.5q-43 0 -81 -14.5t-66 -46t-44.5 -80t-16.5 -117.5
q0 -102 29.5 -179t70.5 -129.5t86 -80t75 -31.5q44 -5 89.5 7.5t92.5 34.5t96 49t100.5 50.5t105.5 39.5t111 16q61 0 125.5 -23t133.5 -80l-24 -65q-40 63 -87.5 103t-112.5 40q-23 0 -50 -6q-66 -15 -120 -35.5t-101.5 -41.5t-91 -41t-87 -34.5t-89.5 -20.5t-99 0z
M507 247q0 49 23.5 94t64 78.5t94.5 53.5t114 20q55 0 90 -11t56 -24q24 -16 37 -35h-66q-7 16 -24 28q-15 11 -42 20t-72 9q-43 0 -81 -15.5t-66 -45t-44.5 -70.5t-16.5 -92q0 -59 19.5 -104t52.5 -75.5t75.5 -46.5t88.5 -16q20 0 43 4t45.5 11.5t42 18.5t33.5 25l8 -5
q-32 -32 -82 -50.5t-113 -18.5q-57 0 -108 16.5t-89 48.5t-60.5 77.5t-22.5 104.5z" />
    <glyph glyph-name="uniF407" unicode="cd" horiz-adv-x="1010" 
d="M708 -13q-53 -4 -102.5 3t-88.5 31.5t-62.5 69t-23.5 115.5q0 53 23 86t59.5 53.5t82.5 32.5t92 22.5t87.5 23.5t69.5 37q18 16 27.5 38t8.5 46v192q50 -26 103 -38v-6q-17 -11 -28 -27t-13 -36v-558q2 -20 12.5 -37.5t27.5 -28.5v-6h-46q-19 0 -35.5 12.5t-19.5 31.5v52
q-8 -15 -22.5 -32.5t-35.5 -33.5t-50 -28t-66 -15zM882 483q-21 -36 -59 -56t-82.5 -33.5t-90.5 -25.5t-82 -33t-57.5 -56t-16.5 -93q4 -52 19 -87.5t40 -57t59.5 -31.5t76.5 -10q39 0 74 13.5t61.5 38.5t42 58.5t15.5 74.5v298zM335 -209q-23 3 -56 13t-68.5 30.5
t-70.5 52.5t-62.5 77.5t-45 106.5t-17.5 139q0 67 24 119t64.5 87.5t94 54t113.5 18.5q54 0 89.5 -11t55.5 -24q24 -16 37 -35h-66q-7 16 -24 28q-14 11 -41 20t-72 9q-43 0 -81 -14.5t-66 -46t-44.5 -80t-16.5 -117.5q0 -102 29.5 -179.5t70.5 -129.5t86 -80t75 -31
q44 -5 89.5 7.5t92.5 34.5t96 49t100.5 50.5t105.5 39.5t111 16q61 0 125.5 -23t133.5 -80l-24 -65q-40 63 -88 103t-113 40q-24 0 -49 -6q-66 -15 -120 -35.5t-101.5 -41.5t-91 -41t-87 -34.5t-89.5 -20.5t-99 0z" />
    <glyph glyph-name="uniF408" unicode="ce" horiz-adv-x="1054" 
d="M523 222q-4 49 10.5 96.5t49 85.5t88 61.5t127.5 23.5q53 0 96 -15.5t73 -39.5t46.5 -53t16.5 -57q0 -20 -11 -35t-27 -25q-23 -14 -56.5 -24.5t-71 -21t-75.5 -21.5t-69 -25.5t-51.5 -35t-24.5 -48.5q34 -39 80 -56.5t94 -17.5q57 0 108.5 21t82.5 58l9 -5
q-21 -26 -54 -47q-28 -18 -71 -33t-103 -14q-62 0 -110 19.5t-81.5 51.5t-52.5 72.5t-23 84.5zM784 477q-42 0 -79.5 -18.5t-64.5 -50t-41.5 -73t-12.5 -87.5q2 -50 16 -87.5t35 -64.5q2 27 20 47.5t45.5 35.5t61 26.5t67 22t62.5 21.5t47 25q17 14 23.5 34t1.5 41
q-16 59 -61.5 93.5t-119.5 34.5zM335 -209q-23 3 -56 13t-68.5 30.5t-70.5 52.5t-62.5 77.5t-45 106.5t-17.5 139q0 67 24 119t64.5 87.5t94 54t113.5 18.5q54 0 89.5 -11t55.5 -24q24 -16 37 -35h-66q-7 16 -24 28q-14 11 -41 20t-72 9q-43 0 -81 -14.5t-66 -46t-44.5 -80
t-16.5 -117.5q0 -102 29.5 -179.5t70.5 -129.5t86 -80t75 -31q44 -5 89.5 7.5t92.5 34.5t96 49t100.5 50.5t105.5 39.5t111 16q61 0 125.5 -23t133.5 -80l-24 -65q-40 63 -88 103t-113 40q-24 0 -49 -6q-66 -15 -120 -35.5t-101.5 -41.5t-91 -41t-87 -34.5t-89.5 -20.5
t-99 0z" />
    <glyph glyph-name="uniF409" unicode="cg" horiz-adv-x="1056" 
d="M534 -217q-24 4 -71.5 15.5t-105 33t-118 54t-110.5 78.5t-82 107t-32 139q0 67 24 119t64.5 87.5t94 54t113.5 18.5q54 0 89.5 -11t55.5 -24q24 -16 37 -35h-66q-7 16 -24 28q-14 11 -41 20t-72 9q-43 0 -81 -14.5t-66 -46t-44.5 -80.5t-16.5 -118q0 -68 29 -124
t74.5 -101t100.5 -79t107.5 -57.5t95 -37t62.5 -17.5q32 -7 65.5 -12t64.5 -8t56.5 -4.5t41.5 -1.5q30 0 69.5 4t75.5 15.5t60.5 31.5t24.5 52q0 36 -30 54.5t-76 27t-101 11.5t-105 8q-29 3 -54.5 8t-44.5 14t-30 22t-11 32q0 9 1 17t5.5 17.5t13.5 23t24 33.5
q-38 26 -61.5 62.5t-23.5 81.5q0 44 22 80.5t58 62.5t83 40.5t98 14.5q22 0 43.5 -2.5t42.5 -8.5q0 1 2 3q22 26 62.5 45.5t102.5 15.5v-64q-40 26 -74 29q-27 3 -46.5 -6.5t-30.5 -22.5l-3 -4q80 -26 123 -77.5t43 -105.5q0 -45 -22.5 -81.5t-59 -62.5t-84 -40.5
t-97.5 -14.5q-34 0 -68 7.5t-65 22.5q-17 7 -34 18l-8 -10q-9 -10 -15 -21q-5 -9 -10 -20.5t-5 -21.5q-1 -25 20.5 -38.5t57 -20.5t81 -9t93 -4t93.5 -6t81.5 -15t57.5 -30.5t22 -52.5q0 -35 -29 -59t-74.5 -39.5t-101 -22.5t-107.5 -7q-12 0 -36.5 1t-56 3t-68 6.5
t-73.5 10.5zM630 162q30 -27 69 -40t80 -13q27 0 54 5.5t50 15.5q36 15 60 41.5t35 59t8.5 68.5t-19.5 70q-36 70 -99 95zM688 453q-36 -15 -62 -42.5t-39.5 -61t-12.5 -70t19 -70.5q13 -22 27 -38q32 42 88.5 112.5t147.5 184.5q-29 9 -61 9q-52 0 -107 -24z" />
    <glyph glyph-name="uniF410" unicode="ch" horiz-adv-x="1053" 
d="M295 -7q-57 0 -108 17t-89 48.5t-60.5 77.5t-22.5 104q0 49 23.5 94t64 78.5t94.5 53.5t114 20q54 0 89.5 -11t55.5 -24q24 -16 37 -35h-66q-7 16 -24 28q-14 11 -41 20t-72 9q-43 0 -81 -15.5t-66 -45t-44.5 -70.5t-16.5 -92q0 -58 19.5 -103t52.5 -75.5t75.5 -46.5
t88.5 -16q29 0 62.5 8t62.5 23q21 12 40 32t36 43.5t32.5 47.5t27.5 44v423q-3 41 -41 63v7q26 5 51.5 14.5t50.5 22.5v-434q22 34 45 65t46 55t47 39.5t49 17.5t54.5 -4t56.5 -22t47.5 -42.5t27.5 -64.5q4 -22 1 -47q-4 -44 -8 -86q-4 -36 -8 -77t-7 -74q0 -41 35 -57v-6
h-142v6q17 10 30 24.5t16 33.5q2 26 5.5 57.5t6.5 63.5q5 47 8 83.5t4 45.5q2 31 -7 59.5t-25.5 49.5t-39.5 32.5t-49 8.5q-38 -4 -72 -32.5t-65.5 -70.5t-62 -92t-61.5 -97t-63.5 -86.5t-68.5 -59.5q-30 -16 -66.5 -24.5t-78.5 -8.5zM538 6q18 11 29 27.5t12 36.5v94
q16 23 31 49t30 50v-194q5 -41 40 -63v-6h-142v6z" />
    <glyph glyph-name="uniF411" unicode="cm" horiz-adv-x="1426" 
d="M555 6q38 24 41 64v328q-3 42 -41 64v6q26 5 51.5 15t50.5 22v-315q13 72 33.5 125.5t45.5 89t53 54t55 21.5q24 3 54 -3.5t57 -22.5t47.5 -42.5t27.5 -64.5q4 -22 1 -47q0 -6 -1 -13q-1 -6 -2 -15t-2 -20q15 56 35 98t43 70t47.5 42.5t48.5 17.5t54 -3.5t57 -22.5
t47.5 -42.5t27.5 -64.5q4 -22 1 -47q-4 -44 -8 -86q-4 -36 -8 -77t-7 -74q0 -41 35 -57v-6h-142v6q17 10 30 24.5t16 33.5q3 32 7 72.5t7.5 77.5t6.5 64.5t3 35.5q2 25 -3.5 48t-16.5 42t-26.5 33t-33.5 21q-17 6 -35 6q-28 0 -57.5 -17.5t-56.5 -57t-49 -104.5t-35 -159
q-3 -35 -6 -63q-2 -41 35 -57v-6h-142v6q17 10 30 24.5t15 33.5q3 32 7.5 72.5t8 77.5t6.5 64.5t3 35.5q2 31 -6.5 58t-24 47.5t-37.5 32.5t-47 12q-28 0 -58 -17.5t-57 -58t-49 -105.5t-35 -161v-53q5 -41 40 -63v-6h-142v6zM335 -208q-23 3 -56 13.5t-68.5 31t-70.5 52.5
t-62.5 77.5t-45 106.5t-17.5 139q0 66 24 118t64.5 88t94 54.5t113.5 18.5q54 0 89.5 -11t55.5 -24q24 -16 37 -35h-66q-7 16 -24 28q-14 11 -41 20t-72 9q-43 0 -81 -14.5t-66 -46t-44.5 -80.5t-16.5 -118q0 -102 29.5 -179t70.5 -129.5t86 -80t75 -30.5q44 -5 89.5 7.5
t92.5 34.5t96 49t100.5 50.5t105.5 39.5t111 16q61 0 125.5 -23t133.5 -80l-24 -65q-40 63 -88 103t-113 40q-24 0 -49 -6q-66 -15 -120 -35.5t-101.5 -42t-91 -41.5t-87 -34t-89.5 -20.5t-99 -0.5z" />
    <glyph glyph-name="uniF412" unicode="cn" horiz-adv-x="1061" 
d="M296 -7q-52 0 -102.5 15t-90 46t-64 77t-24.5 109q0 49 23.5 94t64 78.5t94.5 53.5t114 20q54 0 89.5 -11t55.5 -24q24 -16 37 -35h-66q-7 16 -24 28q-14 11 -41 20t-72 9q-43 0 -81 -15.5t-66 -45t-44.5 -70.5t-16.5 -92q0 -58 19.5 -103t52.5 -75.5t75.5 -46.5
t88.5 -16q52 0 91 15.5t69.5 42.5t56.5 63t52 77v200q-3 40 -41 64v6q26 5 51.5 14.5t50.5 22.5v-211q22 34 45 65t46 55t47 39.5t49 17.5t54.5 -4t56.5 -22t47.5 -42.5t27.5 -64.5q4 -22 1 -47q-4 -44 -8 -86q-4 -36 -8 -77t-7 -74q0 -41 35 -57v-6h-142v6q17 10 30 24.5
t16 33.5q2 26 5.5 57.5t6.5 63.5q5 47 8 83.5t4 45.5q2 31 -7 59.5t-25.5 49.5t-39.5 32.5t-49 8.5q-38 -4 -72.5 -32.5t-67 -70.5t-64 -92t-63.5 -97t-65 -86.5t-69 -59.5q-32 -17 -69 -25t-75 -8zM546 6q18 11 29 27.5t12 36.5v103q16 23 31 47l30 48v-199q5 -41 40 -63
v-6h-142v6z" />
    <glyph glyph-name="uniF413" unicode="cp" horiz-adv-x="1103" 
d="M293 -11q-57 0 -107.5 17.5t-88.5 50t-60 79t-22 104.5q0 49 23.5 94t64 78.5t94.5 53.5t114 20q54 0 89.5 -11t55.5 -24q24 -16 37 -35h-66q-7 16 -24 28q-14 11 -41 20t-72 9q-43 0 -81 -15.5t-66 -45t-44.5 -70.5t-16.5 -92t16 -94t45.5 -74.5t71 -49.5t92.5 -18
q56 0 100 22t89 62q23 22 41.5 49t37.5 56v198q-2 20 -12.5 37.5t-27.5 28.5v6q26 5 51 14.5t50 22.5v-211q22 34 46 66.5t48 59t49 43t50 19.5q33 4 66.5 1.5t64 -13t56 -29t42.5 -45.5q16 -26 23.5 -58.5t5.5 -74.5q-5 -60 -36.5 -95t-77 -55.5t-99.5 -32.5t-102 -25
q-30 -9 -55.5 -19.5t-44 -26t-28.5 -36.5t-8 -51v-93q1 -21 11.5 -40t28.5 -30v-6h-143v6q19 11 30 30t12 40v328q14 22 30 45.5t31 46.5v-264q21 36 57.5 56t79.5 33.5t87.5 26t81 33t59.5 55t23 93.5q0 44 -11 76.5t-32 55t-50 35t-64 17.5q-50 6 -92 -22
q-41 -27 -75.5 -75.5t-68 -104t-69.5 -110t-80 -93.5q-12 -11 -27.5 -24t-38 -25t-53 -20t-70.5 -8z" />
    <glyph glyph-name="uniF414" unicode="cr" horiz-adv-x="929" 
d="M293 -12q-56 0 -106.5 17.5t-88.5 49.5t-60.5 78.5t-22.5 105.5q0 49 23.5 93.5t64 78t94.5 53.5t114 20q54 0 89.5 -11t55.5 -24q24 -15 37 -34h-66q-7 16 -24 28q-14 11 -41 19.5t-72 8.5q-43 0 -81 -15.5t-66 -45t-44.5 -70.5t-16.5 -92t16 -94t45.5 -74.5t71 -49.5
t92.5 -18q48 0 83.5 14.5t64.5 39.5t54 58.5t54 71.5v200q-2 20 -12.5 37.5t-27.5 28.5v6q26 5 51.5 14.5t50.5 22.5q0 -8 -0.5 -16.5t-0.5 -29.5v-61.5v-111.5q29 44 55.5 83t55.5 68q14 13 26 21.5t26 12.5q19 3 36 3q31 0 49.5 -10t29.5 -22q12 -14 17 -32h-70l-1.5 7
t-6.5 15t-14.5 15t-26.5 7q-10 0 -23 -3q-5 -2 -8.5 -4.5t-8.5 -5.5q-39 -30 -73 -76.5t-67 -98t-66.5 -103t-72.5 -92t-85 -64t-103 -19.5zM523 6q18 11 28.5 30t11.5 40v83q17 22 32 44t29 45q0 -12 0.5 -32.5t0.5 -43.5v-45v-37v-14q0 -21 10.5 -40t29.5 -30v-6h-142v6z
" />
    <glyph glyph-name="uniF415" unicode="cs" horiz-adv-x="965" 
d="M565 -66q-142 0 -245.5 26.5t-171 69.5t-100.5 98.5t-33 114.5q0 49 23.5 93.5t64 78t94.5 53.5t114 20q54 0 89.5 -11t55.5 -24q24 -15 37 -34h-66q-7 16 -24 28q-14 11 -41 19.5t-72 8.5q-43 0 -81 -15.5t-66 -45t-44.5 -70.5t-16.5 -92q0 -58 28.5 -113.5t88.5 -98.5
t153.5 -69.5t224.5 -26.5q27 1 61 3t70 8t70 16t60.5 27t43 42t17.5 61q1 23 -26 41t-67.5 33.5t-87.5 31.5t-87.5 36t-67.5 46t-27 62q0 35 17.5 59.5t44.5 40t61 22.5t67 7q63 0 101.5 -11t59.5 -24q25 -16 35 -35h-70q-4 18 -20 31q-14 11 -41 20.5t-77 8.5
q-22 0 -46.5 -6.5t-44.5 -18t-33.5 -29t-13.5 -40.5q0 -28 27.5 -48.5t69.5 -38.5t90 -34t90 -35t69.5 -43t27.5 -56q0 -89 -93.5 -138t-291.5 -49z" />
    <glyph glyph-name="uniF416" unicode="dh" horiz-adv-x="1116" 
d="M285 -13q-51 -4 -100 4t-86.5 32.5t-60.5 69t-23 113.5q0 53 23 86t59.5 53.5t82.5 32.5t91.5 22.5t87 23.5t69.5 37q19 16 28.5 38t7.5 46v192q26 -13 51.5 -22.5t52.5 -15.5v-6q-38 -22 -41 -63v-504q29 33 57.5 70t57.5 75v359q-3 41 -41 63v7q26 5 51.5 14.5
t50.5 22.5v-388q45 54 91.5 91t95.5 40q25 1 54.5 -5t56.5 -22t47.5 -42t27.5 -64q4 -22 1 -47q-4 -44 -8 -86q-4 -36 -8 -77t-7 -74q0 -41 35 -57v-6h-142v6q17 10 30 24.5t16 33.5q2 26 5.5 57.5t6.5 63.5q5 47 8 83.5t4 45.5q2 32 -7 60.5t-26.5 49t-41 32t-49.5 8.5
q-46 -5 -87 -32.5t-78.5 -68t-73 -89t-71 -95t-72 -86.5t-75.5 -62q-26 -15 -64.5 -28.5t-86.5 -15.5zM192 354q-26 -10 -48 -24t-38 -33.5t-23.5 -46.5t-4.5 -64q6 -86 51 -135t138 -49q24 0 51 4t53.5 12t50.5 20t44 28v417q-18 -32 -50 -50.5t-69.5 -31.5t-78 -23
t-76.5 -24zM601 0v6q18 11 29 27.5t12 36.5v170q15 20 30.5 40t30.5 39v-250q5 -41 40 -63v-6h-142zM471 39q29 23 56 53v-16q0 -22 11 -40.5t29 -29.5v-6h-46q-18 0 -31.5 11t-18.5 28z" />
    <glyph glyph-name="uniF417" unicode="dg" horiz-adv-x="1135" 
d="M15 206q0 53 23 86t59.5 53.5t82.5 32.5t91.5 22.5t87 23.5t69.5 37q19 16 28.5 38t7.5 46v192q26 -13 51.5 -22.5t52.5 -15.5v-6q-38 -22 -41 -63v-558q0 -65 18.5 -113t48.5 -82.5t67 -56.5t74 -34.5t69.5 -17.5t53.5 -5q30 0 69.5 4t75.5 15.5t60.5 31.5t24.5 52
q0 39 -33.5 58t-83.5 28t-109 13t-109 11.5t-83.5 24t-33.5 51.5q0 9 1 17t5.5 18t13.5 23t24 33q-35 25 -60.5 62t-25.5 82q0 44 22 80.5t58 62.5t83.5 40.5t98.5 14.5q22 0 43.5 -2.5t42.5 -8.5q0 1 2 3q22 26 62.5 45.5t102.5 15.5v-64q-40 26 -74 29q-28 3 -47 -6.5
t-31 -22.5l-2 -4q80 -26 123 -77.5t43 -105.5q0 -45 -22.5 -81.5t-59 -62.5t-84 -40.5t-97.5 -14.5q-34 0 -68 7.5t-65 22.5q-17 7 -34 18l-8 -10q-9 -10 -15 -21q-6 -9 -10.5 -20.5t-4.5 -21.5q-1 -25 20.5 -39t57 -21.5t81 -10.5t93 -5.5t93 -7.5t81 -16.5t57.5 -31.5
t22 -53q0 -35 -29 -59t-74.5 -39.5t-100.5 -22.5t-107 -7q-17 0 -52 2.5t-77.5 12.5t-87 29.5t-81 53t-60 83.5t-23.5 121v44q-9 -15 -23 -32.5t-35 -33.5t-50 -28t-67 -15q-52 -4 -101.5 3t-88.5 31.5t-62.5 69t-23.5 115.5zM465 483q-21 -36 -58.5 -56t-82 -33.5
t-90.5 -25.5t-82 -33t-57.5 -56t-16.5 -93q4 -52 19 -87.5t40 -57t59.5 -31.5t76.5 -10q39 0 74 13.5t61.5 38.5t42 58.5t15.5 74.5v278q-1 5 -1 10v10zM709 159q30 -27 69 -40t80 -13q27 0 54 5.5t50 15.5q36 15 60 41.5t35 59t8.5 68.5t-19.5 70q-36 70 -99 95zM767 450
q-36 -15 -62 -42.5t-39.5 -61t-12.5 -70t19 -70.5q5 -11 12 -20.5t15 -17.5q32 42 88.5 112.5t147.5 184.5q-29 9 -61 9q-52 0 -107 -24z" />
    <glyph glyph-name="uniF418" unicode="ds" horiz-adv-x="1019" 
d="M15 206q0 53 23 86t59.5 53.5t82.5 32.5t91.5 22.5t87 23.5t69.5 37q19 16 28.5 38t7.5 46v192q26 -13 51.5 -22.5t52.5 -15.5v-6q-38 -22 -41 -63v-522q0 -41 17 -70t45.5 -47t65.5 -26.5t77 -8.5q16 0 32 1.5t31 3.5q29 5 57 19.5t50 35.5t36 46.5t14 52.5
q0 23 -26.5 40.5t-67 33t-87.5 32t-87.5 36.5t-67.5 46t-27 62q0 34 17 58.5t44.5 40t61.5 22.5t67 7q63 0 101 -11t59 -24q25 -16 35 -35h-69q-4 18 -20 31q-14 11 -41 20.5t-77 8.5q-22 0 -46.5 -6t-45 -18t-34 -29t-13.5 -40v-1q0 -28 27.5 -48.5t68.5 -38t88.5 -34
t89.5 -35.5t70.5 -43t30.5 -56t-10.5 -59t-34.5 -48q-23 -24 -52 -40.5t-61.5 -27t-66 -15.5t-65.5 -5q-43 0 -87 6.5t-79.5 21.5t-58 38.5t-22.5 57.5v33q-9 -15 -23 -32.5t-35 -33.5t-50 -28t-67 -15q-52 -4 -101.5 3t-88.5 31.5t-62.5 69t-23.5 115.5zM465 483
q-21 -36 -58.5 -56t-82 -33.5t-90.5 -25.5t-82 -33t-57.5 -56t-16.5 -93q4 -52 19 -87.5t40 -57t59.5 -31.5t76.5 -10q39 0 74 13.5t61.5 38.5t42 58.5t15.5 74.5v278q-1 5 -1 10v10z" />
    <glyph glyph-name="uniF419" unicode="dm" horiz-adv-x="1472" 
d="M15 206q0 53 23 86t59.5 53.5t82.5 32.5t91.5 22.5t87 23.5t69.5 37q19 16 28.5 38t7.5 46v192q26 -13 51.5 -22.5t52.5 -15.5v-6q-38 -22 -41 -63v-504q29 33 57.5 70t57.5 75v136q-3 40 -41 64v6q26 5 51.5 14.5t50.5 22.5v-165q45 54 91.5 91t95.5 40q25 1 54.5 -5
t56.5 -22t47.5 -42t27.5 -64q4 -22 1 -47q0 -6 -1 -13q-1 -11 -3 -34q29 112 77 167t96 60q24 3 54 -3.5t57 -22.5t47.5 -42.5t27.5 -64.5q4 -22 1 -47q-4 -44 -8 -86q-4 -36 -8 -77t-7 -74q0 -41 35 -57v-6h-142v6q17 11 30 25.5t16 32.5q3 32 7 72.5t7.5 77.5t6.5 64.5
t3 35.5q2 25 -3.5 48t-16.5 42t-26.5 33t-33.5 21q-17 6 -35 6q-28 0 -57.5 -17.5t-56.5 -57t-49 -103.5t-35 -158q-2 -17 -3 -34t-3 -31q0 -41 35 -57v-6h-142v6q17 10 30 24.5t16 33.5q2 26 5.5 57.5t6.5 63.5q5 47 8 83.5t4 45.5q2 31 -6.5 58t-24 47.5t-37.5 32.5
t-47 12h-9q-46 -5 -87 -32.5t-78.5 -68t-73 -89t-71 -95t-72 -86.5t-75.5 -62q-26 -15 -64.5 -28.5t-86.5 -15.5q-51 -4 -100 4t-86.5 32.5t-60.5 69t-23 113.5zM192 354q-26 -10 -48 -24t-38 -33.5t-23.5 -46.5t-4.5 -64q6 -86 51 -135t138 -49q24 0 51 4t53.5 12t50.5 20
t44 28v417q-18 -32 -50 -50.5t-69.5 -31.5t-78 -23t-76.5 -24zM601 6q18 11 29 27.5t12 36.5v170q15 20 30.5 40t30.5 39v-250q5 -41 40 -63v-6h-142v6zM521 0q-18 0 -31.5 11t-18.5 28q29 23 56 53v-16q0 -22 11 -40.5t29 -29.5v-6h-46z" />
    <glyph glyph-name="uniF420" unicode="dn" horiz-adv-x="1116" 
d="M285 -13q-51 -4 -100 4t-86.5 32.5t-60.5 69t-23 113.5q0 42 15 71t39.5 49.5t57.5 33.5t69 22.5t73 17.5t71 18q26 8 48.5 18.5t39.5 24.5q19 16 28.5 38t7.5 46v192q26 -13 51.5 -22.5t52.5 -15.5v-6q-38 -22 -41 -63v-504q29 33 57.5 70t57.5 75v136q-3 40 -41 64v6
q26 5 51.5 14.5t50.5 22.5v-165q45 54 91.5 91t95.5 40q25 1 54.5 -5t56.5 -22t47.5 -42t27.5 -64q4 -22 1 -47q-5 -60 -11 -118.5t-12 -118.5q0 -41 35 -57v-6h-142v6q17 10 30 24.5t16 33.5q2 26 5.5 57.5t6.5 63.5q5 47 8 83.5t4 45.5q2 32 -7 60.5t-26.5 49t-41 32
t-49.5 8.5q-46 -5 -87 -32.5t-78.5 -68t-73 -89t-71 -95t-72 -86.5t-75.5 -62q-26 -15 -64.5 -28.5t-86.5 -15.5zM192 354q-26 -10 -48 -24t-38 -33.5t-23.5 -46.5t-4.5 -64q6 -86 51 -135t138 -49q24 0 51 4t53.5 12t50.5 20t44 28v417q-18 -32 -50 -50.5t-69.5 -31.5
t-78 -23t-76.5 -24zM601 0v6q18 11 29 27.5t12 36.5v170q15 20 30.5 40t30.5 39v-250q5 -41 40 -63v-6h-142zM471 39q29 23 56 53v-16q0 -22 11 -40.5t29 -29.5v-6h-46q-18 0 -31.5 11t-18.5 28z" />
    <glyph glyph-name="uniF421" unicode="ee" horiz-adv-x="1095" 
d="M16 230q-2 47 14.5 92.5t50.5 81.5t86.5 58t123.5 22q53 0 96 -15.5t73 -39.5t46.5 -53.5t16.5 -57.5q1 -20 -10.5 -34.5t-27.5 -24.5q-23 -14 -57 -25t-73 -22t-78.5 -24t-73 -29.5t-57 -39t-29.5 -53.5q28 -63 60.5 -108.5t70.5 -76t80.5 -48t89.5 -23.5q44 -6 87 5.5
t86 31.5t87 45.5t90 47.5t95 37t102 15q58 0 121.5 -23.5t134.5 -81.5l-25 -65q-40 63 -88 103t-113 40q-24 0 -49 -6q-65 -15 -115.5 -34.5t-92 -39t-78 -37.5t-74 -31t-79.5 -18.5t-95 0.5q-29 3 -68.5 14.5t-83 34t-86.5 56t-77.5 80.5t-56.5 108t-24 138zM567 218
q-5 49 10 97t49 86t87.5 61.5t127.5 23.5q53 0 96 -15.5t73 -39.5t46.5 -53.5t16.5 -57.5q1 -20 -10.5 -35t-27.5 -25q-23 -14 -56.5 -24.5t-70.5 -21t-75 -21.5t-69 -25.5t-51.5 -35t-24.5 -48.5q34 -39 80 -56.5t94 -17.5q57 0 108.5 21t82.5 58l8 -5q-20 -26 -53 -47
q-28 -18 -71 -33t-103 -14q-62 0 -110 19.5t-82 51.5t-52.5 72.5t-22.5 84.5zM278 471q-42 0 -79.5 -18.5t-64.5 -50t-42 -73t-13 -87.5q0 -45 9 -86t23 -77q4 28 24.5 49t50.5 37.5t65.5 29.5t70 25t64.5 23.5t48 25.5q17 13 23.5 33.5t1.5 40.5q-16 60 -61.5 94t-119.5 34
zM828 473q-42 0 -79.5 -18.5t-64.5 -50t-42 -73t-13 -87.5q3 -50 16.5 -87.5t35.5 -64.5q2 27 20 47.5t45.5 35.5t61 26.5t67 22.5t62.5 22t47 25q17 13 23.5 33.5t1.5 40.5q-16 60 -61.5 94t-119.5 34z" />
    <glyph glyph-name="uniF422" unicode="eg" horiz-adv-x="1112" 
d="M16 230q-2 47 14.5 92.5t50.5 81.5t86.5 58t123.5 22q53 0 96 -15.5t73 -39.5t46.5 -53.5t16.5 -57.5q1 -20 -10.5 -34.5t-27.5 -24.5q-23 -14 -57 -25t-73 -22t-78.5 -24t-73 -29.5t-57 -39t-29.5 -53.5q27 -61 74.5 -106t108 -77t129.5 -53t139.5 -33t138.5 -16.5
t125 -4.5q30 0 69.5 4.5t75 16t60 31.5t24.5 52q0 29 -19.5 46t-51 27t-72.5 14t-83 7t-83 6.5t-72.5 12t-51 23.5t-19.5 41q0 9 1.5 16.5t6 17.5t13.5 23.5t24 33.5q-38 26 -62 62.5t-24 81.5q0 44 22 80.5t58 62.5t83.5 40.5t98.5 14.5q21 0 42.5 -2.5t42.5 -8.5l2 2
q22 27 63 46.5t103 15.5v-65q-22 14 -40 21t-34 9q-28 3 -47.5 -6.5t-30.5 -23.5l-3 -3q40 -13 71 -33t52.5 -45t32.5 -52t11 -53q0 -45 -22.5 -81.5t-59.5 -63t-84.5 -41t-97.5 -14.5q-43 0 -86.5 12t-79.5 37l-8 -10q-9 -11 -15 -22q-6 -10 -10.5 -20.5t-4.5 -20.5
q-1 -9 1.5 -16t7.5 -13q18 -21 61.5 -29t98.5 -11t114.5 -5t108.5 -11.5t81 -30t32 -60.5q0 -35 -29 -59.5t-74.5 -40t-100.5 -22.5t-107 -7q-17 0 -55 1t-89.5 6t-113.5 15t-126.5 28.5t-129 46t-120.5 67.5q-35 27 -66 59t-54 69.5t-36.5 81t-14.5 93.5zM278 471
q-42 0 -79.5 -18.5t-64.5 -50t-42 -73t-13 -87.5q0 -45 9 -86t23 -77q4 28 24.5 49t50.5 37.5t65.5 29.5t70 25t64.5 23.5t48 25.5q17 13 23.5 33.5t1.5 40.5q-16 60 -61.5 94t-119.5 34zM682 163q30 -27 68.5 -39.5t80.5 -12.5q57 0 105 21q36 15 59.5 41.5t34.5 59
t8.5 68.5t-19.5 70q-18 35 -43 58.5t-55 35.5zM740 455q-36 -15 -62 -42.5t-39 -61t-12 -70t19 -70.5q11 -22 27 -38q32 42 88.5 112.5t146.5 184.5q-29 9 -59 9q-52 0 -109 -24z" />
    <glyph glyph-name="uniF423" unicode="eh" horiz-adv-x="1046" 
d="M17 221q-5 49 10 97t49 86t87.5 61.5t127.5 23.5q53 0 96 -15.5t73 -39.5t46.5 -53.5t16.5 -57.5q1 -20 -10.5 -34.5t-27.5 -24.5q-23 -14 -56.5 -24.5t-70.5 -21t-75 -21.5t-69 -26t-51.5 -35.5t-24.5 -48.5q31 -35 73 -52t90 -17q47 0 85 14.5t70.5 40t60.5 60t55 74.5
v423q-3 41 -41 63v7q26 5 51.5 14.5t50.5 22.5v-434q22 34 45 65t46 55t47 39.5t49 17.5q24 2 54 -4t57 -22t47.5 -42.5t27.5 -64.5q4 -22 1 -47q-5 -44 -9 -86q-4 -36 -7.5 -77t-6.5 -74q-2 -41 35 -57v-6h-142v6q17 10 30 24.5t15 33.5q8 63 14 125t11 125q2 31 -7 59.5
t-25.5 49.5t-39.5 32.5t-49 8.5q-45 -5 -82 -41.5t-72.5 -89t-72.5 -112t-82 -110t-102 -84.5t-131 -34q-62 1 -110 20.5t-82 51t-52.5 72t-22.5 84.5zM278 476q-42 0 -79.5 -18.5t-64.5 -50t-42 -73t-13 -87.5q3 -49 16.5 -86.5t35.5 -65.5q2 27 20 47.5t45.5 35.5t61 26.5
t67 22.5t62.5 22t47 25q17 13 23.5 33.5t1.5 40.5q-16 60 -61.5 94t-119.5 34zM531 0v6q38 24 41 64v96q15 23 30.5 45.5t30.5 46.5v-189q5 -41 40 -63v-6h-142z" />
    <glyph glyph-name="uniF424" unicode="em" horiz-adv-x="1407" 
d="M17 221q-5 49 10 97t49 86t87.5 61.5t127.5 23.5q53 0 96 -15.5t73 -39.5t46.5 -53.5t16.5 -57.5q1 -20 -10.5 -34.5t-27.5 -24.5q-23 -14 -56.5 -24.5t-70.5 -21t-75 -21.5t-69 -26t-51.5 -35.5t-24.5 -48.5q31 -35 73 -52t90 -17q47 0 86 14.5t72.5 40t62.5 60t56 74.5
v200q-3 40 -41 64v6q26 5 51.5 14.5t50.5 22.5v-211q22 34 45 65t46 55t47 39.5t49 17.5q24 2 54 -4t57 -22t47.5 -42.5t27.5 -64.5q4 -22 1 -47q0 -5 -1 -11q-1 -9 -3 -31q29 109 77 163t95 59q24 3 54 -3.5t57 -22.5t47.5 -42.5t27.5 -64.5q4 -22 1 -47q-4 -44 -8 -86
q-4 -36 -8 -77t-7 -74q0 -41 35 -57v-6h-142v6q17 10 30 24.5t16 33.5q3 32 7 72.5t7.5 77.5t6.5 64.5t3 35.5q4 51 -19.5 90t-60.5 53q-19 7 -35 7q-27 0 -56 -16.5t-55 -54t-48 -98.5t-36 -149q-2 -23 -4 -44t-4 -39q-2 -41 35 -57v-6h-142v6q17 10 30 24.5t15 33.5
q8 63 14 125t11 125q2 31 -7 59.5t-25.5 49.5t-39.5 32.5t-49 8.5q-36 -4 -66.5 -27t-58.5 -58t-55 -78.5t-56 -87.5t-60.5 -85.5t-69.5 -72.5t-82.5 -48.5t-99.5 -13.5q-62 1 -110 20.5t-82 51t-52.5 72t-22.5 84.5zM278 476q-42 0 -79.5 -18.5t-64.5 -50t-42 -73
t-13 -87.5q3 -49 16.5 -86.5t35.5 -65.5q2 27 20 47.5t45.5 35.5t61 26.5t67 22.5t62.5 22t47 25q17 13 23.5 33.5t1.5 40.5q-16 60 -61.5 94t-119.5 34zM537 0v6q38 24 41 64v96q15 23 30.5 45.5t30.5 46.5v-189q5 -41 40 -63v-6h-142z" />
    <glyph glyph-name="uniF425" unicode="en" horiz-adv-x="1051" 
d="M17 221q-5 49 10 97t49 86t87.5 61.5t127.5 23.5q53 0 96 -15.5t73 -39.5t46.5 -53.5t16.5 -57.5q1 -20 -10.5 -34.5t-27.5 -24.5q-23 -14 -56.5 -24.5t-70.5 -21t-75 -21.5t-69 -26t-51.5 -35.5t-24.5 -48.5q31 -35 73 -52t90 -17q47 0 86 14.5t72.5 40t62 60t55.5 74.5
v200q-3 40 -41 64v6q26 5 51.5 14.5t50.5 22.5v-211q22 34 45 65t46 55t47 39.5t49 17.5q24 2 54 -4t57 -22t47.5 -42.5t27.5 -64.5q4 -22 1 -47q-5 -44 -9 -86q-4 -36 -7.5 -77t-6.5 -74q0 -42 35 -57v-6h-142v6q17 10 30 24.5t16 33.5q2 26 5.5 57.5t6.5 63.5q5 47 8 83.5
t4 45.5q2 31 -7 59.5t-25.5 49.5t-39.5 32.5t-49 8.5q-47 -5 -85 -42.5t-73.5 -91t-71.5 -113.5t-81 -110.5t-102.5 -83t-133.5 -30.5q-62 1 -110 20.5t-82 51t-52.5 72t-22.5 84.5zM278 476q-42 0 -79.5 -18.5t-64.5 -50t-42 -73t-13 -87.5q3 -49 16.5 -86.5t35.5 -65.5
q2 27 20 47.5t45.5 35.5t61 26.5t67 22.5t62.5 22t47 25q17 13 23.5 33.5t1.5 40.5q-16 60 -61.5 94t-119.5 34zM536 6q38 24 41 64v96q15 23 30.5 45.5t30.5 46.5v-189q5 -41 40 -63v-6h-142v6z" />
    <glyph glyph-name="uniF426" unicode="ep" horiz-adv-x="1107" 
d="M17 221q-5 49 10 97t49 86t87.5 61.5t127.5 23.5q53 0 96 -15.5t73 -39.5t46.5 -53.5t16.5 -57.5q1 -20 -10.5 -34.5t-27.5 -24.5q-23 -14 -56.5 -24.5t-70.5 -21t-75 -21.5t-69 -26t-51.5 -35.5t-24.5 -48.5q31 -35 73 -52t90 -17t87.5 15t73 41t61.5 60t54 73v198
q-2 20 -12.5 37.5t-27.5 28.5v6q26 5 51.5 14.5t50.5 22.5v-211q22 34 45.5 66.5t48 59t49 43t49.5 19.5q49 6 97 -2.5t85.5 -34.5t59 -70.5t16.5 -111.5q-4 -60 -35.5 -95t-77.5 -55.5t-99.5 -32.5t-101.5 -25q-30 -9 -55.5 -19.5t-44 -26t-29 -36.5t-8.5 -51v-93
q1 -21 11.5 -40t28.5 -30v-6h-142v6q18 11 29 30t12 40v328q15 23 31 46t31 46v-264q21 37 57.5 56.5t79.5 33t87.5 26t80.5 33t59 55t24 93.5q0 44 -11.5 76.5t-32.5 55t-50 35t-64 17.5q-24 3 -47.5 -2.5t-43.5 -19.5q-40 -28 -73 -73t-64.5 -96.5t-65.5 -103.5t-75.5 -94
t-94 -68t-121.5 -25q-62 1 -110 20.5t-82 51t-52.5 72t-22.5 84.5zM278 476q-42 0 -79.5 -18.5t-64.5 -50t-42 -73t-13 -87.5q3 -49 16.5 -86.5t35.5 -65.5q2 27 20 47.5t45.5 35.5t61 26.5t67 22.5t62.5 22t47 25q17 13 23.5 33.5t1.5 40.5q-16 60 -61.5 94t-119.5 34z" />
    <glyph glyph-name="uniF427" unicode="er" horiz-adv-x="938" 
d="M17 218q-5 49 10 97t49 86t87.5 61.5t127.5 23.5q53 0 96 -15.5t73 -39.5t46.5 -53.5t16.5 -57.5q1 -20 -10.5 -34.5t-27.5 -24.5q-23 -14 -56.5 -24.5t-70.5 -21t-75 -21.5t-69 -26t-51.5 -35.5t-24.5 -48.5q31 -35 73 -51.5t89 -16.5q46 0 84 13.5t70 36.5t59.5 54
t54.5 67q2 2 2.5 3t2.5 3v203q-2 20 -12.5 37.5t-27.5 28.5v6q26 5 51 14.5t50 22.5v-223q29 43 55 82.5t54 69.5q20 20 44 31.5t53 9.5t46.5 -12t26.5 -22q11 -14 15 -31h-69l-1.5 6.5t-6 14.5t-13.5 15t-25 8q-20 2 -35 -8t-28 -22q-36 -36 -66.5 -82t-61 -94.5t-63 -95
t-72.5 -82.5t-89.5 -58t-113.5 -21q-53 1 -99.5 16.5t-81.5 45t-57.5 71t-28.5 94.5zM278 474q-42 0 -79.5 -18.5t-64.5 -50t-42 -73.5t-13 -88q3 -49 16.5 -86.5t35.5 -65.5q2 28 20 48t45.5 35.5t61 27t67 22t62.5 21.5t47 25q17 13 23.5 33.5t1.5 41.5q-16 59 -61.5 93.5
t-119.5 34.5zM532 6q19 10 29 30t12 40v77q17 21 32 45t29 47v-169q0 -21 11 -40t30 -30v-6h-143v6z" />
    <glyph glyph-name="uniF428" unicode="es" horiz-adv-x="991" 
d="M16 239q0 46 16.5 91t50.5 79.5t86 56t122 21.5q53 0 96 -15.5t73 -39.5t46.5 -53.5t16.5 -57.5q1 -20 -10.5 -34.5t-27.5 -25.5q-34 -20 -89 -34.5t-110 -30.5q-27 -9 -52.5 -19t-45.5 -22.5t-33 -28.5t-17 -37q27 -32 67 -58.5t96 -45.5t130.5 -30t171.5 -11q27 0 61 2
t70 8t70 17t60.5 28t43 42t17.5 60q0 23 -26.5 41t-67 33.5t-87.5 31.5t-87.5 36t-67.5 46t-27 62q0 35 17.5 59.5t44.5 40t61 22.5t67 7q63 0 101.5 -11t59.5 -24q25 -16 35 -35h-70q-4 18 -20 31q-14 11 -41 20.5t-77 8.5q-22 0 -46.5 -6.5t-44.5 -18t-33.5 -29
t-13.5 -40.5q0 -28 27.5 -48.5t69.5 -38.5t90 -34t90 -35t69.5 -43t27.5 -56q0 -89 -93.5 -138t-291.5 -49q-164 0 -274.5 25.5t-177 68.5t-95 97.5t-28.5 113.5zM278 474q-42 0 -78.5 -18t-63.5 -48.5t-42.5 -71t-14.5 -85.5q0 -41 12.5 -80t39.5 -74q3 27 22 46.5t46.5 34
t61 26t66 22t61 21.5t46.5 25q17 13 23.5 33.5t1.5 40.5q-16 60 -61.5 94t-119.5 34z" />
    <glyph glyph-name="uniF429" unicode="fh" horiz-adv-x="747" 
d="M50 487q-17 39 -19.5 81t10 77.5t39.5 59.5t69 26q32 2 58 -2.5t47 -13.5q37 -15 58.5 -49t21.5 -75v-401q7 38 21 86t36.5 92t54.5 75.5t75 36.5q24 3 54 -3.5t57 -22.5t47.5 -42.5t27.5 -64.5q4 -22 1 -47q-5 -44 -9 -86q-4 -36 -7.5 -77t-6.5 -74q0 -42 35 -57v-6
h-142v6q17 10 30 24.5t16 33.5q2 26 5.5 57.5t6.5 63.5q5 47 8 83.5t4 45.5q2 31 -6.5 58t-24 47.5t-37.5 32.5t-47 12q-28 0 -58 -17.5t-57 -58t-49 -105.5t-35 -161v-53q5 -41 40 -63v-6h-142v6q38 24 41 64v525q0 24 -8.5 47t-24 40.5t-36.5 28t-46 11.5q-30 0 -50 -20
t-29.5 -51t-8 -68t15.5 -71q6 -14 11.5 -25.5t10.5 -22.5h91v-11h-86q7 -15 13.5 -31t10.5 -35.5t6.5 -44t2.5 -57.5v-214q3 -43 40 -65v-6h-142v6q39 24 41 68v231q0 30 -1 51.5t-3.5 38t-6 30.5t-9.5 28h-38v11h34q-2 5 -5 11z" />
    <glyph glyph-name="uniF430" unicode="fb" horiz-adv-x="800" 
d="M50 487q-17 39 -19.5 81t10 77.5t39.5 59.5t69 26q32 2 58 -2.5t47 -13.5q35 -14 57.5 -45.5t24.5 -69.5v-55q-2 -24 7.5 -46t28.5 -38q28 -24 69.5 -37t87 -23.5t91.5 -22.5t82.5 -32.5t59.5 -53.5t23 -86q0 -71 -23.5 -115.5t-62.5 -69t-88.5 -31.5t-101.5 -3
q-38 3 -66.5 15t-49.5 28t-35.5 33.5t-22.5 32.5v-52q-4 -19 -20 -31.5t-36 -12.5h-46v6q18 11 28 28.5t12 37.5v522q0 34 -12.5 57.5t-35.5 46.5q-13 10 -29.5 16.5t-37.5 7.5q-30 0 -50 -20t-29.5 -51t-8 -68t15.5 -71q6 -14 11.5 -25.5t10.5 -22.5h91v-11h-86
q7 -15 13.5 -31t10.5 -35.5t6.5 -44t2.5 -57.5v-214q3 -43 40 -65v-6h-142v6q39 24 41 68v231q0 30 -1 51.5t-3.5 38t-6 30.5t-9.5 28h-38v11h34q-2 5 -5 11zM335 185q0 -41 15.5 -74.5t41.5 -58.5t61 -38.5t74 -13.5q42 0 76.5 10t59.5 31.5t40.5 57t19.5 87.5q4 58 -17 93
t-57.5 56t-82 33t-90 25.5t-82.5 33.5t-59 56v-298z" />
    <glyph glyph-name="uniF431" unicode="fk" horiz-adv-x="790" 
d="M50 487q-17 39 -19.5 81t10 77.5t39.5 59.5t69 26q32 2 58 -2.5t47 -13.5q35 -15 56.5 -47t23.5 -70v-503l226 291q13 17 12 38t-28 38v6h142v-6q-30 -8 -55.5 -22.5t-45.5 -40.5q-23 -29 -47.5 -61t-50.5 -64q38 6 64 -7t49.5 -41t48.5 -68.5t62 -90.5l2 -2
q15 -19 33 -34t34 -25v-6h-160v6q19 10 23.5 29.5t-9.5 39.5l-9.5 14t-21 30t-20.5 29l-9 13q-8 12 -17.5 24t-20 22t-21.5 16.5t-22 7.5q-20 2 -35 -6t-28 -25l-52.5 -67.5t-43.5 -56.5v-7q0 -14 10.5 -33t29.5 -30v-6h-142v6q17 11 28 27t13 36v532q-3 48 -34 83.5
t-81 37.5q-30 0 -50 -20t-29.5 -51t-8 -68t15.5 -71q6 -14 11.5 -25.5t10.5 -22.5h91v-11h-86q7 -15 13.5 -31t10.5 -35.5t6.5 -44t2.5 -57.5v-214q3 -43 40 -65v-6h-142v6q39 24 41 68v231q0 30 -1 51.5t-3.5 38t-6 30.5t-9.5 28h-38v11h34q-2 5 -5 11z" />
    <glyph glyph-name="uniF432" unicode="gi" horiz-adv-x="766" 
d="M93 -106q0 -32 22.5 -54.5t56.5 -36t72.5 -19.5t70.5 -6q30 0 69.5 4.5t75 16t60 31.5t24.5 52q0 29 -19.5 46t-51 27t-72.5 14t-83 7t-83 6.5t-72.5 12t-51 23.5t-19.5 41q0 9 1.5 16.5t6 17.5t13.5 23.5t24 33.5q-38 26 -62 62.5t-24 81.5q0 44 22 80.5t58 62.5
t83.5 40.5t98.5 14.5q21 0 42.5 -2.5t42.5 -8.5q8 10 26 28t42 38.5t52 41.5t56 37.5t54 26.5t46 9q15 -2 26.5 -12.5t11.5 -24.5t-12.5 -25.5t-29.5 -11.5t-29.5 11.5t-12.5 25.5q0 12 8 22q-18 -4 -47 -21.5t-60.5 -42.5t-62.5 -52.5t-52 -50.5l-3 -3q40 -13 71 -33
t52.5 -45t32.5 -52t11 -53q0 -44 -22.5 -81t-59 -63t-84 -40.5t-97.5 -14.5q-45 0 -87.5 12t-80.5 36l-7 -10q-8 -10 -15 -21q-6 -9 -11 -20.5t-5 -21.5q-1 -25 20.5 -38.5t57 -20.5t81 -9t93 -4t93.5 -6.5t81.5 -15t57.5 -30t22 -52.5q0 -35 -29 -59.5t-74.5 -40
t-101 -22.5t-107.5 -7q-17 0 -44 2t-57.5 7t-62 14t-56.5 23.5t-40.5 34.5t-15.5 48h66zM165 165q30 -27 68.5 -39.5t79.5 -12.5q58 0 106 21q36 15 59.5 41.5t34.5 59t8.5 68.5t-19.5 70q-18 35 -43 58.5t-55 36.5zM223 457q-36 -15 -62 -42.5t-39.5 -61t-12.5 -70
t19 -70.5q13 -23 28 -38q32 42 88.5 112.5t146.5 184.5q-29 9 -59 9q-52 0 -109 -24zM637 398q-1 20 -12 36.5t-29 27.5v6h143v-6q-17 -8 -28.5 -25.5t-11.5 -39.5v-329q5 -40 40 -62l-1 -6h-142l1 6q18 11 31 31q4 8 6.5 16t2.5 17v328z" />
    <glyph glyph-name="uniF433" unicode="gj" horiz-adv-x="785" 
d="M93 -106q0 -32 22.5 -54.5t56.5 -36t72.5 -19.5t70.5 -6q30 0 69.5 4.5t75 16t60 31.5t24.5 52q0 29 -19.5 46t-51 27t-72.5 14t-83 7t-83 6.5t-72.5 12t-51 23.5t-19.5 41q0 9 1.5 16.5t6 17.5t13.5 23.5t24 33.5q-38 26 -62 62.5t-24 81.5q0 44 22 80.5t58 62.5
t83.5 40.5t98.5 14.5q21 0 42.5 -2.5t42.5 -8.5q8 10 27.5 28t45.5 38.5t56.5 41.5t60.5 37.5t57.5 26.5t47.5 9q15 -2 26.5 -12.5t11.5 -24.5t-12.5 -25.5t-29.5 -11.5t-29.5 11.5t-12.5 25.5q0 12 8 22q-18 -4 -50 -21.5t-67 -42.5t-69 -52.5t-55 -50.5l-3 -3
q40 -13 71 -33t52.5 -45t32.5 -52t11 -53q0 -44 -22.5 -81t-59 -63t-84 -40.5t-97.5 -14.5q-45 0 -87.5 12t-80.5 36l-7 -10q-8 -10 -15 -21q-6 -9 -11 -20.5t-5 -21.5q-1 -25 20.5 -38.5t57 -20.5t81 -9t93 -4t93.5 -6.5t81.5 -15t57.5 -30t22 -52.5q0 -35 -29 -59.5
t-74.5 -40t-101 -22.5t-107.5 -7q-17 0 -44 2t-57.5 7t-62 14t-56.5 23.5t-40.5 34.5t-15.5 48h66zM165 165q30 -27 68.5 -39.5t79.5 -12.5q58 0 106 21q36 15 59.5 41.5t34.5 59t8.5 68.5t-19.5 70q-18 35 -43 58.5t-55 36.5zM223 457q-36 -15 -62 -42.5t-39.5 -61
t-12.5 -70t19 -70.5q13 -23 28 -38q32 42 88.5 112.5t146.5 184.5q-29 9 -59 9q-52 0 -109 -24zM603 -173q13 0 22.5 17t16.5 37q7 19 10.5 47.5t3.5 70.5v401q-2 20 -12.5 35.5t-27.5 26.5v6h142v-6q-17 -10 -27.5 -26.5t-12.5 -35.5v-401q0 -53 -11 -87t-27.5 -53.5
t-36.5 -26t-40 -5.5z" />
    <glyph glyph-name="uniF434" unicode="hg" horiz-adv-x="1102" 
d="M27 700q26 5 51.5 14.5t50.5 22.5v-547q13 72 33.5 125.5t45.5 89t53 54t55 21.5q24 3 54 -3.5t57 -22.5t47.5 -42.5t27.5 -64.5q4 -22 1 -47l-8 -80q-3 -35 -7 -74.5t-7 -72.5q-2 -22 -5 -53t1 -65t18.5 -67.5t48 -60.5t90 -43.5t144.5 -16.5q30 0 76.5 4.5t90.5 16
t75.5 31.5t31.5 52q0 29 -19.5 46t-51 27t-72.5 14t-83 7t-83 6.5t-72.5 12t-51 23.5t-19.5 41q0 9 1.5 16.5t6 17.5t13.5 23.5t24 33.5q-38 26 -62 62.5t-24 81.5q0 44 22 80.5t58 62.5t83.5 40.5t98.5 14.5q21 0 42.5 -2.5t42.5 -8.5q2 0 2 2q22 27 63 46.5t103 15.5v-65
q-22 14 -40 21t-34 9q-28 3 -47.5 -6.5t-30.5 -23.5l-3 -3q40 -13 71 -33t52.5 -45t32.5 -52t11 -53q0 -45 -22.5 -81.5t-59.5 -63t-84.5 -41t-97.5 -14.5q-89 0 -167 49l-7 -10l-4.5 -6.5t-10.5 -15.5t-11 -20t-5 -21q-1 -25 20.5 -38.5t57 -20.5t81 -9t93 -4t93.5 -6.5
t81.5 -15t57.5 -30t22 -52.5q0 -27 -20.5 -47t-53.5 -34.5t-73.5 -23.5t-80 -14.5t-74 -7.5t-54.5 -2q-83 0 -142 13.5t-98.5 36.5t-62.5 54t-34 66.5t-12.5 72.5t1.5 73q8 61 13.5 122t10.5 122q2 31 -6.5 58t-24 47.5t-37.5 32.5t-47 12q-28 0 -58 -17.5t-57 -58
t-49 -105.5t-35 -161v-53q5 -41 40 -63v-6h-142v6q38 24 41 64v560q-3 41 -41 63v7zM673 154q30 -27 68.5 -39.5t79.5 -12.5q58 0 106 21q36 15 59.5 41.5t34.5 59t8.5 68.5t-19.5 70q-18 35 -43 58.5t-55 35.5zM731 446q-36 -15 -62 -42.5t-39.5 -61t-12.5 -70t19 -70.5
q13 -23 28 -38q32 42 88.5 112.5t146.5 184.5q-29 9 -59 9q-52 0 -109 -24z" />
    <glyph glyph-name="uniF435" unicode="hs" horiz-adv-x="987" 
d="M27 6q38 24 41 64v560q-3 41 -41 63v6q51 12 102 38v-547q13 72 33.5 125.5t45.5 89t53 54t55 21.5q35 4 70.5 -7t63 -34.5t42.5 -58.5t11 -80q-3 -27 -6 -57q-3 -26 -6 -58l-6 -64q-5 -47 9.5 -81.5t43.5 -56t70.5 -31.5t89.5 -8q65 2 108 13.5t68.5 31t36 46t10.5 58.5
q0 23 -26.5 41.5t-67 36t-87.5 35.5t-87.5 39.5t-67.5 48.5t-27 63q0 34 17 58.5t44.5 40t61.5 22.5t67 7q63 0 101.5 -11t59.5 -24q25 -16 35 -35h-70q-4 18 -20 31q-14 11 -41 20.5t-77 8.5q-22 0 -46.5 -6t-44.5 -18t-33.5 -29t-13.5 -40q0 -28 27.5 -50t69.5 -41t90 -37
t90 -38.5t69.5 -45.5t27.5 -57q0 -49 -19.5 -83t-56 -55.5t-90 -31t-121.5 -9.5q-53 0 -102.5 10t-86.5 32.5t-57.5 58.5t-14.5 89q2 19 5 48.5t6 58.5t5.5 52t2.5 31q2 31 -6.5 58t-24 47.5t-37.5 32.5t-47 12q-28 0 -58 -17.5t-57 -58t-49 -105.5t-35 -161v-53
q5 -41 40 -63v-6h-142v6z" />
    <glyph glyph-name="uniF436" unicode="jb" horiz-adv-x="784" 
d="M101 588q-17 0 -29.5 11.5t-12.5 25.5q0 17 17 29q14 11 43 18.5t63.5 15.5t71 19t65.5 30v-192q-1 -24 8.5 -46t27.5 -38q28 -24 69.5 -37t87.5 -23.5t92 -22.5t82.5 -32.5t59.5 -53.5t23 -86q0 -71 -23.5 -115.5t-62.5 -69t-89 -31.5t-102 -3q-38 3 -66.5 15t-49.5 28
t-35.5 33.5t-22.5 32.5v-52q-3 -19 -19.5 -31.5t-35.5 -12.5h-46v6q17 11 27.5 28.5t12.5 37.5v558q0 25 -20 35.5t-49 10.5q-18 0 -39 -4t-41 -10q14 -3 24.5 -13t10.5 -24t-12.5 -25.5t-29.5 -11.5zM706 186q4 58 -17 93t-57 56t-82 33t-90.5 25.5t-82.5 33.5t-59 56v-298
q0 -41 15.5 -74.5t42 -58.5t61.5 -38.5t74 -13.5q42 0 76.5 10t59.5 31.5t40 57t19 87.5zM15 -168q-7 0 -12 1.5t-10 3.5l-10 4l5 8q3 -2 7 -4q6 -3 19 -3q20 0 31 20t16 46t6 52.5t1 38.5v401q-2 20 -12.5 36t-27.5 27v6h142v-6q-35 -22 -40 -63v-401q0 -56 -10.5 -89.5
t-27 -51t-37 -22.5t-40.5 -4z" />
    <glyph glyph-name="uniF437" unicode="jh" horiz-adv-x="729" 
d="M57 626q0 17 16 28q14 11 43 18.5t63.5 15.5t70.5 19t66 30v-547q12 72 32.5 125.5t46 89t53.5 54t55 21.5q24 3 53.5 -3.5t56.5 -22.5t48 -42.5t27 -64.5q2 -12 2.5 -23.5t-0.5 -23.5q-5 -44 -9 -86q-4 -36 -8 -77t-7 -74q0 -41 36 -57v-6h-143v6q17 10 30 24.5t16 33.5
q7 63 13.5 125t11.5 125q2 31 -6.5 58t-24.5 47.5t-37.5 32.5t-46.5 12q-28 0 -58 -17.5t-57 -58t-49 -105.5t-35 -161v-53q2 -20 12.5 -36t27.5 -27v-6h-143v6q18 11 29 27.5t12 36.5v560q0 25 -19.5 35.5t-48.5 10.5q-38 0 -80 -14q14 -2 24.5 -12.5t10.5 -23.5
q0 -15 -12.5 -26t-29.5 -11t-29.5 11t-12.5 26zM-14 -151q3 -2 7 -4q6 -3 19 -3q20 0 31 20t16 46t6 52.5t1 38.5v401q-2 20 -12.5 35.5t-27.5 26.5v6h142v-6q-17 -10 -27.5 -26.5t-12.5 -35.5v-401q0 -56 -10.5 -89.5t-27 -51t-37 -22.5t-40.5 -4q-7 0 -12 1.5t-10 3.5
l-10 4z" />
    <glyph glyph-name="uniF438" unicode="jk" horiz-adv-x="772" 
d="M99 588q-17 0 -29.5 11.5t-12.5 25.5q0 18 16 29q14 11 43 18t63.5 15t70.5 19t66 30v-641l226 291q13 17 11.5 38t-27.5 38v6h142v-6q-30 -8 -55.5 -22t-45.5 -40q-23 -29 -47.5 -61.5t-50.5 -64.5q38 6 64 -7t49 -41t48.5 -68.5t62.5 -90.5l2 -2q15 -19 33 -34t34 -25
v-6h-160v6q19 10 23.5 29.5t-9.5 39.5l-9.5 14t-21 30t-20.5 29l-9 13q-8 12 -17.5 24.5t-20 22.5t-22 16.5t-21.5 6.5q-21 2 -35.5 -6t-27.5 -25l-52.5 -67.5t-43.5 -56.5v-7q0 -14 10.5 -33t29.5 -30v-6h-142v6q17 11 28 27t12 36v561q0 24 -19 34.5t-48 10.5
q-39 0 -81 -14q14 -2 24.5 -12t10.5 -24t-12.5 -25.5t-29.5 -11.5zM13 -168q-7 0 -12 1.5t-10 3.5l-10 4l5 8q3 -2 7 -4q6 -3 19 -3q20 0 31 20t16 46t6 52.5t1 38.5v401q-2 20 -12.5 35.5t-27.5 26.5v6h142v-6q-17 -10 -27.5 -26.5t-12.5 -35.5v-401q0 -56 -10.5 -89.5
t-27 -51t-37 -22.5t-40.5 -4z" />
    <glyph glyph-name="uniF439" unicode="jl" horiz-adv-x="383" 
d="M99 588q-17 0 -29.5 11.5t-12.5 25.5q0 9 4.5 16.5t11.5 12.5q14 11 43 18t63.5 15t70.5 19t66 30v-667q0 -14 10.5 -33t29.5 -30v-6h-142v6q17 11 28 27t12 36v561q0 24 -19 34.5t-48 10.5q-39 0 -81 -14q14 -2 24.5 -12t10.5 -24t-12.5 -25.5t-29.5 -11.5zM-14 -152
q3 -2 7 -3q6 -3 19 -3q20 0 31 19.5t16 46t6 52.5t1 38v402q-3 40 -40 62v6h142v-6q-17 -10 -27.5 -26.5t-12.5 -36.5v-401q0 -56 -10.5 -89.5t-27 -51t-37 -22.5t-40.5 -4q-7 0 -12 1.5t-10 3.5t-10 5z" />
    <glyph glyph-name="uniF440" unicode="ig" horiz-adv-x="732" 
d="M169 468v-6q-17 -8 -28 -25t-11 -40v-329q1 -23 3.5 -54t11 -64t26 -65t48 -57.5t77 -41.5t113.5 -16q20 0 48.5 2t59 6.5t60.5 12t54 19t38.5 27.5t14.5 37q0 38 -33.5 56.5t-84 27t-109 11t-109 9t-84 22.5t-33.5 51q0 9 1.5 16.5t6 17.5t13.5 23.5t24 33.5
q-38 26 -62 62.5t-24 81.5q0 44 22 80.5t58 62.5t83.5 40.5t98.5 14.5q22 0 43.5 -2.5t42.5 -8.5l2 2q22 27 62.5 46.5t102.5 15.5v-65q-21 14 -39.5 21t-34.5 9q-28 3 -47 -6.5t-31 -23.5l-2 -3q40 -13 71 -33t52 -45t32 -52t11 -53q0 -45 -22.5 -81.5t-59 -63t-84 -41
t-97.5 -14.5q-43 0 -87.5 12t-79.5 37l-8 -10l-4.5 -6.5t-10.5 -15.5t-10.5 -20t-4.5 -21q-1 -25 20.5 -38.5t57 -20.5t81 -9t93 -4t93 -6.5t81 -15t57.5 -30t22 -52.5q0 -27 -20.5 -47t-53.5 -34.5t-73.5 -23.5t-80 -14.5t-74 -7.5t-54.5 -2q-93 0 -156 29.5t-102 76
t-55.5 103.5t-16.5 112v320q-1 20 -12 36.5t-29 27.5v6h142zM305 157q30 -27 68.5 -39.5t79.5 -12.5q57 0 105 21q36 15 60 41.5t35 59t8.5 68.5t-19.5 70q-18 35 -43.5 58.5t-55.5 35.5zM362 449q-36 -15 -61.5 -42.5t-39 -61t-12.5 -70t19 -70.5q11 -22 27 -38
q32 42 88.5 112.5t147.5 184.5q-29 9 -59 9q-53 0 -110 -24zM58 625q0 15 12.5 26t29.5 11t29.5 -11t12.5 -26q0 -14 -12.5 -25.5t-29.5 -11.5t-29.5 11.5t-12.5 25.5z" />
    <glyph glyph-name="uniF441" unicode="is" horiz-adv-x="634" 
d="M169 468v-6q-17 -8 -28 -25.5t-11 -39.5v-264q0 -31 18 -64t48.5 -60t72.5 -44t90 -16q56 1 94.5 14t61.5 32.5t32.5 42.5t8.5 46t-28.5 42.5t-67.5 37.5t-87 37t-87 41.5t-66.5 50.5t-26.5 64q0 25 9 43q10 23 29 39t44 26.5t53 15t55 4.5q63 0 101 -11t59 -24
q25 -16 35 -35h-69q-4 18 -20 31q-14 11 -41 20.5t-77 8.5q-23 0 -47.5 -6t-44.5 -18t-33.5 -29t-13.5 -40q0 -28 28 -50.5t69.5 -42.5t90 -39t90 -41t69.5 -47.5t28 -57.5q0 -44 -18.5 -75.5t-52.5 -51.5t-82 -29t-107 -9q-60 0 -111.5 17.5t-89 43.5t-58.5 57t-20 57v284
q-1 20 -12 36.5t-29 27.5v6h142zM58 625q0 15 13 26t30 11t29 -11t12 -26q0 -14 -12 -25.5t-29 -11.5t-30 11.5t-13 25.5z" />
    <glyph glyph-name="uniF442" unicode="ib" horiz-adv-x="783" 
d="M59 625q0 18 16 29q14 11 43 18.5t64 15.5t71.5 19t65.5 30v-192q-1 -24 8 -46t28 -38q28 -24 69.5 -37t87 -23.5t91.5 -22.5t82.5 -32.5t59.5 -53.5t23 -86q0 -71 -23.5 -115.5t-62.5 -69t-88.5 -31.5t-101.5 -3q-38 3 -66.5 15t-49.5 28t-35.5 33.5t-22.5 32.5v-52
q-4 -19 -20 -31.5t-36 -12.5h-46v6q18 11 28.5 28.5t11.5 37.5v558q0 25 -20 35.5t-49 10.5q-18 0 -38.5 -4t-40.5 -10q14 -3 24.5 -13t10.5 -24t-12.5 -25.5t-29.5 -11.5t-29.5 11.5t-12.5 25.5zM318 185q0 -41 15.5 -74.5t42 -58.5t61.5 -38.5t74 -13.5q42 0 76 10
t59 31.5t40.5 57t19.5 87.5q4 58 -17 93t-57 56t-82 33t-90.5 25.5t-82.5 33.5t-59 56v-298zM170 468v-6q-17 -8 -28.5 -25.5t-11.5 -39.5v-329q5 -40 40 -62l-1 -6h-142l1 6q18 11 31 31q4 8 6.5 16t2.5 17v328q-1 20 -12 36.5t-29 27.5v6h143z" />
    <glyph glyph-name="uniF443" unicode="ih" horiz-adv-x="731" 
d="M101 589q-17 0 -29.5 11t-12.5 26q0 17 16 28q14 11 43 18.5t63.5 15.5t70.5 19t66 30v-547q12 72 32.5 125.5t46 89t53.5 54t55 21.5q24 3 54 -3.5t57 -22.5t47.5 -42.5t27.5 -64.5q2 -12 2 -23.5t-1 -23.5q-5 -44 -9 -86q-4 -36 -8 -77t-7 -74q0 -41 36 -57v-6h-142v6
q16 10 29.5 24.5t15.5 33.5q7 63 13.5 125t11.5 125q2 31 -6.5 58t-24.5 47.5t-37.5 32.5t-46.5 12q-28 0 -58 -17.5t-57 -58t-49 -105.5t-35 -161v-53q2 -20 12.5 -36t27.5 -27v-6h-143v6q18 11 29 27.5t12 36.5v560q0 25 -19.5 35.5t-48.5 10.5q-38 0 -80 -14
q14 -2 24.5 -12.5t10.5 -23.5q0 -15 -12.5 -26t-29.5 -11zM68 398q-1 21 -12 37t-29 27v6h143v-6q-17 -8 -28.5 -25t-11.5 -40v-329q5 -40 40 -62q-1 -2 -1 -3v-3h-142v3q0 1 1 3q18 11 31 31q4 8 6.5 16t2.5 17v328z" />
    <glyph glyph-name="uniF444" unicode="ik" horiz-adv-x="774" 
d="M59 625q0 18 16 29q14 11 43 18t63.5 15t70.5 19t66 30v-641l225 291q14 17 12.5 38t-28.5 38v6h143v-6q-30 -8 -55.5 -22t-45.5 -40q-23 -29 -47.5 -61.5t-50.5 -64.5q38 6 64 -7t49 -41t48.5 -68.5t62.5 -90.5l2 -2q15 -19 33 -34t34 -25v-6h-160v6q19 10 23 29.5
t-10 39.5l-9 14t-20.5 30t-20.5 29l-9 13q-8 12 -17.5 24.5t-20 22.5t-22 16.5t-21.5 6.5q-21 2 -35.5 -6t-27.5 -25l-52.5 -67.5t-43.5 -56.5v-7q0 -14 10.5 -33t29.5 -30v-6h-142v6q17 11 28 27t12 36v561q0 24 -19 34.5t-48 10.5q-39 0 -81 -14q14 -2 24.5 -12t10.5 -24
t-12.5 -25.5t-29.5 -11.5t-29.5 11.5t-12.5 25.5zM27 0l1 6q19 12 31 31q4 8 6.5 16t2.5 17v328q-1 20 -12 36.5t-29 27.5v6h143v-6q-17 -8 -28.5 -25.5t-11.5 -39.5v-329q5 -41 40 -62l-1 -6h-142z" />
    <glyph glyph-name="uniF445" unicode="il" horiz-adv-x="385" 
d="M59 625q0 18 16 29q14 11 43 18t63.5 15t70.5 19t66 30v-667q0 -14 10.5 -33t29.5 -30v-6h-142v6q17 11 28 27t12 36v561q0 24 -19 34.5t-48 10.5q-39 0 -81 -14q14 -2 24.5 -12t10.5 -24t-12.5 -25.5t-29.5 -11.5t-29.5 11.5t-12.5 25.5zM27 0l1 6q19 12 31 31
q4 8 6.5 16t2.5 17v328q-1 20 -12 36.5t-29 27.5v6h143v-6q-17 -8 -28.5 -25.5t-11.5 -39.5v-329q5 -41 40 -62l-1 -6h-142z" />
    <glyph glyph-name="uniF446" unicode="kg" horiz-adv-x="1089" 
d="M27 0v6q17 11 28 27t13 36v561q-2 20 -13 36.5t-28 27.5v6q26 5 51.5 14.5t50.5 22.5v-642l226 291q13 17 12 38t-28 38v6h142v-6q-30 -8 -55.5 -22t-45.5 -40q-23 -29 -47.5 -61.5t-49.5 -64.5q33 5 56 -4t43.5 -29.5t40.5 -51t46 -68.5q16 -26 34 -62.5t40 -75
t48.5 -76.5t59 -68.5t71.5 -49t87 -18.5q30 0 69.5 4t75 15.5t60 31.5t24.5 52q0 39 -33.5 57.5t-83.5 26.5t-109 10.5t-109 9.5t-83.5 22.5t-33.5 50.5q0 9 1.5 17t6 18t13.5 23t24 33q-38 26 -62 62.5t-24 81.5q0 44 22 80.5t58 62.5t83.5 40.5t98.5 14.5q21 0 42.5 -2.5
t42.5 -8.5q2 2 2 3q22 26 63 45.5t103 15.5v-64q-42 26 -74 29q-28 3 -47.5 -6.5t-30.5 -22.5l-3 -4q40 -13 71 -33t52.5 -44.5t32.5 -51.5t11 -54q0 -45 -22.5 -81.5t-59.5 -62.5t-84.5 -40.5t-97.5 -14.5q-44 0 -87 12.5t-80 35.5l-7 -10q-8 -10 -15 -21q-6 -9 -11 -20.5
t-5 -21.5q-1 -25 20.5 -38.5t57 -20.5t81 -9t93 -4t93.5 -6t81.5 -15t57.5 -30.5t22 -52.5q0 -28 -18 -48.5t-46 -34.5t-63.5 -23t-70 -14t-65 -6.5t-49.5 -1.5q-60 0 -108 19t-86 49.5t-67.5 69t-52.5 77.5t-41.5 74t-34.5 60q-14 18 -25 36q-6 9 -13 18q-7 12 -16.5 24.5
t-20 22.5t-22 16.5t-22.5 6.5q-20 2 -35 -6t-28 -25l-52.5 -67.5t-43.5 -56.5v-7q0 -14 10.5 -33t29.5 -30v-6h-142zM659 158q30 -27 69 -40t80 -13q28 0 54.5 5.5t50.5 15.5q36 15 59.5 41.5t34.5 59t8.5 68.5t-19.5 70q-36 70 -98 95zM717 449q-36 -15 -62 -42.5
t-39.5 -61t-12.5 -70t19 -70.5q13 -23 28 -38q32 42 88.5 112.5t146.5 184.5q-29 9 -60 9q-53 0 -108 -24z" />
    <glyph glyph-name="uniF447" unicode="ks" horiz-adv-x="946" 
d="M27 0v6q17 11 28 27t13 36v561q-2 20 -13 36.5t-28 27.5v6q26 5 51.5 14.5t50.5 22.5v-642l226 291q13 17 12 38t-28 38v6h142v-6q-30 -8 -55.5 -22t-45.5 -40q-23 -29 -47.5 -61.5t-49.5 -64.5q37 6 63 -7t48.5 -40t47 -66.5t60.5 -87.5q4 -5 18 -25.5t38.5 -42.5
t59.5 -39t83 -16q52 1 86 13.5t54.5 32.5t29 45.5t9.5 52.5q0 23 -26.5 41.5t-67 36t-87.5 35.5t-87.5 39.5t-67.5 48.5t-27 63q0 34 17 58.5t44.5 40t61.5 22.5t67 7q63 0 101 -11t59 -24q25 -16 35 -35h-70q-3 17 -19 31q-14 11 -41 21t-77 8q-23 0 -47.5 -6t-44.5 -18
t-33.5 -29t-13.5 -40q0 -28 28 -50t69.5 -41t90 -37t90 -38.5t69.5 -45.5t28 -57q0 -44 -17.5 -77t-49.5 -54.5t-77 -32t-99 -10.5q-73 0 -120.5 18.5t-78.5 45.5t-50.5 56.5t-35.5 51.5q-6 9 -12 17.5t-11 15.5q-6 8 -11 16q-6 10 -15 21.5t-20 22t-22.5 18t-23.5 8.5
q-20 2 -35 -6t-28 -25l-52.5 -67.5t-43.5 -56.5v-7q0 -14 10.5 -33t29.5 -30v-6h-142z" />
    <glyph glyph-name="uniF448" unicode="lg" horiz-adv-x="727" 
d="M27 703q27 5 52.5 15t51.5 23v-665q0 -65 17.5 -113t46 -82.5t64 -56.5t71 -34.5t67 -17.5t52.5 -5q30 0 70 4t75.5 15.5t60 31.5t24.5 52q0 39 -33.5 58t-83.5 28t-109 13t-109 11.5t-83.5 24t-33.5 51.5q0 9 1.5 16.5t6 17.5t13 23.5t23.5 33.5q-35 28 -60 62t-25 82
q0 44 22 80.5t58 62.5t83.5 40.5t98.5 14.5q21 0 42.5 -2.5t42.5 -8.5l2 2q22 27 63 46.5t103 15.5v-64q-21 13 -41 21q-20 7 -33 8q-28 3 -47.5 -6.5t-30.5 -22.5l-3 -4q40 -13 71 -33t52.5 -45t32.5 -52t11 -53q0 -45 -22.5 -81.5t-59.5 -62.5t-84.5 -40.5t-97.5 -14.5
q-34 0 -68 7.5t-65 22.5q-17 7 -34 18l-7 -10l-5 -6t-10.5 -15.5t-10.5 -20.5t-5 -21q-1 -25 20.5 -39t57 -21.5t81 -10.5t93 -5.5t93.5 -7.5t81.5 -16.5t57.5 -31.5t22 -53q0 -35 -29 -59.5t-74.5 -39.5t-101 -22t-107.5 -7q-17 0 -51 2.5t-75 12.5t-84.5 29.5t-79 53
t-58 83.5t-22.5 121v578q-2 20 -13 36t-28 27v6zM300 163q30 -28 68.5 -40.5t80.5 -12.5q27 0 54 5t51 16q36 15 59.5 41.5t34.5 59t8.5 68.5t-19.5 70q-18 35 -43 58.5t-55 36.5zM358 454q-36 -15 -62 -42.5t-39.5 -61t-12.5 -70t19 -70.5q13 -22 27 -38q33 42 89.5 112.5
t146.5 184.5q-29 9 -59 9q-52 0 -109 -24z" />
    <glyph glyph-name="uniF449" unicode="li" horiz-adv-x="385" 
d="M27 7q19 11 29.5 30t10.5 33v667q30 -19 66 -30t70.5 -19t63.5 -15t43 -18q7 -5 11.5 -13t4.5 -16q0 -15 -12.5 -26t-29.5 -11t-29.5 11t-12.5 26q0 13 10.5 23.5t24.5 12.5q-42 14 -80 14q-29 0 -48.5 -10.5t-19.5 -35.5v-560q1 -20 12 -36t28 -27v-6h-142v6zM216 0
q-1 0 -1 1v2v3q35 22 40 62v330q0 22 -11.5 39.5t-28.5 25.5v6h143v-6q-18 -11 -29 -27.5t-12 -37.5v-328q0 -9 2.5 -17t6.5 -16q11 -19 31 -31v-3v-2q0 -1 1 -1h-142z" />
    <glyph glyph-name="uniF450" unicode="ls" horiz-adv-x="619" 
d="M27 703q27 5 52.5 15t51.5 23v-629q0 -41 16.5 -70t44.5 -47t64.5 -26.5t76.5 -8.5q16 0 32 1.5t31 3.5q29 5 57 19.5t50 35.5t35.5 46t14.5 52q1 23 -26 41t-67.5 33.5t-88 31.5t-88 36.5t-67.5 46.5t-27 62q0 34 17.5 58.5t45 40t61.5 22.5t67 7q66 0 105 -12t59 -26
q9 -6 14.5 -11.5t9.5 -10.5t7 -10h-70q-4 18 -20 31q-14 11 -41 20.5t-77 8.5q-22 0 -46.5 -6.5t-44.5 -18t-33.5 -29t-13.5 -40.5q0 -28 27.5 -49t68.5 -38.5t88.5 -33.5t89 -35t70 -43t30.5 -56t-10 -59t-34 -48q-48 -48 -114 -68t-132 -20q-43 0 -86.5 6.5t-79 21.5
t-57.5 38.5t-22 57.5v568q-2 20 -13 35.5t-28 26.5v6v0z" />
    <glyph glyph-name="uniF451" unicode="mg" horiz-adv-x="1464" 
d="M27 469q26 5 51.5 14.5t50.5 22.5v-315q13 72 33.5 125t45.5 88.5t53 54t55 21.5q24 3 54 -3t57 -22t47.5 -42.5t27.5 -65.5q4 -21 1 -46q0 -6 -1 -14q-1 -13 -3 -35q29 113 77 168t96 60q25 3 54.5 -3t56.5 -22t47.5 -42.5t27.5 -65.5q4 -21 1 -46q-5 -45 -9 -89
q-4 -38 -8 -81.5t-8 -79.5q-6 -63 7 -115.5t47.5 -90.5t91 -59.5t135.5 -21.5q20 0 50 2t63.5 6.5t67 12t60.5 19t43.5 27.5t16.5 37q0 38 -33.5 56.5t-84 27t-109 11t-109 9t-84 22.5t-33.5 51q0 9 1.5 16.5t6 17.5t13.5 23.5t24 33.5q-38 26 -62 62.5t-24 81.5
q0 44 22 80.5t58.5 62.5t84 40.5t98.5 14.5q41 0 85 -11l2 2q11 13 26.5 25t36 21t46 13.5t56.5 2.5v-65q-21 14 -39.5 21t-34.5 9q-28 3 -47 -6.5t-31 -23.5l-2 -3q40 -13 71 -33t52 -45t32 -52t11 -53q0 -45 -22.5 -81.5t-59 -63t-84 -41t-97.5 -14.5q-89 0 -167 49
l-8 -10l-4.5 -6.5t-10.5 -15.5t-10.5 -20t-4.5 -21q-1 -25 20.5 -38.5t57 -20.5t81 -9t93 -4t93 -6.5t81 -15.5t57.5 -30.5t22 -52.5q0 -23 -18.5 -41.5t-49.5 -32.5t-71 -24.5t-82.5 -17t-84 -9.5t-76.5 -3q-17 0 -46 1t-64.5 7.5t-72 21.5t-68 42.5t-53.5 70.5t-27 106
q-2 14 -1.5 28t1.5 28q3 27 7.5 68.5t8.5 81.5t7 71t3 38q2 25 -3.5 47.5t-16.5 41.5t-26.5 33t-33.5 21q-17 6 -35 6q-28 0 -57.5 -17.5t-56.5 -57t-49 -104.5t-35 -159q-2 -17 -3 -33t-3 -30q0 -40 35 -56v-6h-142v6q17 10 30 24.5t16 32.5q3 32 7 72.5t7.5 77.5t6.5 65
t3 36q2 30 -6.5 57.5t-24 48t-37.5 32.5t-47 12q-28 0 -58 -17.5t-57 -58t-49 -106t-35 -161.5v-53q5 -41 40 -62v-6h-142v6q18 11 29 27.5t12 36.5v328q-3 40 -41 64v6zM1037 151q30 -27 68.5 -39.5t79.5 -12.5q57 0 105 21q36 15 60 41.5t35 59t8.5 68.5t-19.5 70
q-35 69 -99 94zM1094 443q-36 -15 -61.5 -42.5t-39 -61t-12.5 -70t19 -70.5q11 -22 27 -38q32 42 88.5 112.5t147.5 184.5q-29 9 -59 9q-53 0 -110 -24z" />
    <glyph glyph-name="uniF452" unicode="ms" horiz-adv-x="1344" 
d="M27 1v6q18 11 29 27.5t12 36.5v328q-3 40 -41 64v6q26 5 51.5 14.5t50.5 22.5v-315q13 72 33.5 125t45.5 88.5t53 54t55 21.5q24 3 54 -3t57 -22t47.5 -42.5t27.5 -65.5q4 -21 1 -46q0 -6 -1 -14q-1 -13 -3 -35q29 113 77 168t96 60q25 3 54.5 -3t56.5 -22t47.5 -42.5
t27.5 -65.5q4 -21 1 -46q-3 -33 -7 -67q-3 -29 -6 -64.5t-6 -67.5q-2 -44 14 -76t45.5 -52t69 -29t86.5 -7q65 2 108 13.5t68.5 31t36 46t10.5 58.5q0 23 -26.5 41.5t-67 36t-87.5 35t-87.5 39t-67.5 48.5t-27 63q0 35 17 59.5t44.5 40t61.5 22.5t67 7q63 0 101.5 -11
t59.5 -24q25 -16 35 -35h-70q-4 18 -20 31q-14 11 -41 20.5t-77 8.5q-22 0 -46.5 -6.5t-44.5 -18t-33.5 -29t-13.5 -40.5q0 -28 27.5 -49.5t69.5 -40.5t90 -37t90 -38.5t69.5 -45.5t27.5 -58q0 -48 -19.5 -82t-56 -55.5t-90 -31t-121.5 -9.5q-53 0 -102.5 9.5t-87 32
t-57.5 58.5t-15 89q3 31 6 63.5t6 60t5 48t2 26.5q2 25 -3.5 47.5t-16.5 41.5t-26.5 33t-33.5 21q-19 7 -35 7q-33 0 -59 -18t-47 -46.5t-37 -65.5t-27 -74.5t-18 -73t-10 -61.5q-2 -17 -3 -33t-3 -30q0 -40 35 -56v-6h-142v6q17 10 30 24.5t16 32.5q3 32 7 72.5t7.5 77.5
t6.5 65t3 36q2 30 -6.5 57.5t-24 48t-37.5 32.5t-47 12q-28 0 -58 -17.5t-57 -58t-49 -106t-35 -161.5v-53q5 -41 40 -62v-6h-142z" />
    <glyph glyph-name="uniF453" unicode="ng" horiz-adv-x="1107" 
d="M27 7q18 11 29 27.5t12 36.5v328q-3 40 -41 64v6q26 5 51.5 14.5t50.5 22.5v-315q13 72 33.5 125t45.5 88.5t53 54t55 21.5q24 3 54 -3t57 -22t47.5 -42.5t27.5 -65.5q4 -21 1 -46q0 -6 -1 -14q-1 -13 -3 -35q-2 -19 -4.5 -43t-5 -49.5t-5 -50.5t-4.5 -46
q-6 -65 5.5 -119.5t44.5 -93.5t88.5 -61t135.5 -22q20 0 50.5 1.5t63.5 6t66.5 12t60.5 19t43.5 27.5t16.5 37q0 39 -33.5 57.5t-83.5 26.5t-109 10.5t-109 9.5t-83.5 22.5t-33.5 50.5q0 9 1.5 17t6 18t13 23t23.5 33q-38 26 -61.5 62.5t-23.5 81.5q0 44 22 80.5t58 62.5
t83.5 40.5t98.5 14.5q21 0 42.5 -2.5t42.5 -8.5q2 2 2 3q22 26 63 45.5t103 15.5v-64q-42 26 -74 29q-28 3 -47.5 -6t-30.5 -23l-3 -4q40 -13 71 -33t52.5 -44.5t32.5 -51.5t11 -54q0 -45 -22.5 -81.5t-59.5 -62.5t-84.5 -40.5t-97.5 -14.5q-34 0 -68 7.5t-65 22.5
q-17 7 -34 18l-7 -10l-5 -6t-10.5 -15.5t-10.5 -20.5t-5 -21q-1 -25 20.5 -38.5t57 -20.5t81 -9t93 -4t93.5 -6t81.5 -15t57.5 -30.5t22 -52.5q0 -23 -18.5 -41.5t-49.5 -32.5t-71 -24.5t-82.5 -17t-84.5 -9.5t-77 -3q-18 0 -50.5 1t-70 9.5t-76 27.5t-69 54t-47.5 89.5
t-11 134.5q3 32 7 71.5t8 75.5t6.5 63t2.5 35q2 30 -6.5 57.5t-24 48t-37.5 32.5t-47 12q-28 0 -58 -17.5t-57 -58t-49 -106t-35 -161.5v-53q5 -41 40 -62v-6h-142v6zM676 154q30 -27 69 -40t80 -13q28 0 54.5 5.5t50.5 15.5q36 15 59.5 42t34.5 59.5t8.5 68t-19.5 69.5
q-36 70 -98 95zM734 445q-36 -15 -62 -42.5t-39.5 -61t-12.5 -70t19 -70.5q13 -22 27 -38q33 42 89.5 112.5t146.5 184.5q-29 9 -60 9q-53 0 -108 -24z" />
    <glyph glyph-name="uniF454" unicode="ns" horiz-adv-x="997" 
d="M27 469q26 5 51.5 14.5t50.5 22.5v-315q13 72 33.5 125t45.5 88.5t53 54t55 21.5q38 4 73.5 -8.5t62.5 -37t41.5 -59t9.5 -74.5q0 -6 -1 -14q-1 -13 -3 -35q-4 -29 -8 -71t-7 -80q-2 -43 18.5 -74.5t55.5 -51.5t68.5 -29.5t80.5 -7.5q66 2 108.5 13.5t68 31t36 46
t11.5 58.5q0 23 -26.5 41.5t-67 36t-87.5 35t-87.5 39t-67.5 48.5t-27 63q0 35 17 59.5t44.5 39.5t61.5 22t67 7q63 0 101 -11t59 -24q25 -15 35 -34h-69q-4 18 -20 31q-14 11 -41 20.5t-77 8.5q-22 0 -46.5 -6.5t-45 -18t-34 -29t-13.5 -40.5q0 -28 28 -49.5t69.5 -40.5
t90 -37t90 -38.5t69.5 -45.5t28 -58q0 -48 -19.5 -82t-56.5 -55.5t-90.5 -31t-120.5 -9.5q-53 0 -103 9.5t-88.5 31t-61 56t-19.5 85.5q3 31 6.5 64.5t6.5 62.5t5 50t2 28q2 30 -6.5 57.5t-24 48t-37.5 32.5t-47 12q-28 0 -58 -17.5t-57 -58t-49 -106t-35 -161.5v-53
q5 -41 40 -62v-6h-142v6q18 11 29 27.5t12 36.5v328q-3 40 -41 64v6v0z" />
    <glyph glyph-name="uniF455" unicode="oh" horiz-adv-x="1084" 
d="M401 248q-42 0 -69.5 12.5t-42 32.5t-17 43.5t7 45t30 38.5t51.5 23q27 6 54 -1.5t49 -24.5q27 -20 44 -45q14 -18 23.5 -35t15.5 -39q20 12 32.5 21.5t30.5 23.5l-1 287q-1 20 -12 36.5t-29 27.5v6q26 5 51.5 14.5t51.5 22.5v-350q43 32 87.5 58t98.5 35q25 3 54.5 -3
t56.5 -22t48 -42.5t27 -65.5q2 -11 2.5 -23t-0.5 -23q-5 -44 -9 -86q-4 -37 -8 -78t-7 -74q0 -40 36 -56v-6h-143v6q17 10 30 24.5t16 32.5q2 26 5.5 58t6.5 64q5 46 8.5 83t4.5 46q2 31 -7 58.5t-25 47.5t-38.5 32t-47.5 11q-39 -2 -76 -19t-73.5 -41t-74 -51t-76 -50.5
t-80 -39t-86.5 -15.5zM289 -13q-51 0 -101 18t-89 50.5t-63 78t-24 100.5q0 51 20 95t55 75.5t82.5 49.5t101.5 18q29 0 61 -6q-29 4 -59 0t-58.5 -16.5t-54.5 -33t-46 -48.5q-28 -39 -40.5 -83t-8 -88t26.5 -85t61 -73q25 -20 54.5 -30t60.5 -10q49 0 92 21t75 56t50 80
t18 93q12 4 24.5 8.5t26.5 10.5q3 -17 3 -34q0 -51 -20.5 -96t-56.5 -78.5t-85 -53t-106 -19.5zM395 428q-33 7 -57 -3t-37.5 -29t-15.5 -43t9.5 -45t37.5 -35.5t69 -14.5q9 0 22.5 1.5t28 3.5t28 5.5t21.5 7.5q-2 21 -10.5 45.5t-22 47t-32.5 38.5t-41 21zM568 7
q18 11 29 27.5t12 36.5v238q16 10 31.5 20.5t30.5 20.5v-281q2 -20 12.5 -36t27.5 -26v-6h-143v6z" />
    <glyph glyph-name="uniF456" unicode="om" horiz-adv-x="1457" 
d="M404 248q-42 1 -69.5 14.5t-42 33t-17 42.5t7 44.5t30 38t51.5 22.5q27 6 54 -1.5t49 -24.5q27 -20 44 -45q29 -37 41 -79q21 11 39 23t37 28v55q-1 20 -12 36t-29 27v6q50 11 103 38v-119q45 29 87.5 54t78.5 35q5 2 10 2.5t10 1.5q25 3 54.5 -3t56.5 -22t48 -42.5
t27 -65.5q2 -11 2.5 -23t-0.5 -23q0 -5 -1 -10q-2 -11 -3 -27q29 106 76.5 158.5t94.5 57.5q24 3 54 -3t57 -22t47.5 -42.5t27.5 -65.5q2 -11 2 -23t-1 -23q-5 -44 -9 -86q-4 -37 -8 -78t-7 -74q0 -40 36 -56v-6h-142v6q16 10 29.5 24.5t15.5 32.5q3 32 7 72.5t8 77.5
t6.5 65t3.5 36q3 50 -20 89.5t-60 53.5q-9 3 -17.5 5t-17.5 2q-27 0 -55 -16t-54 -52t-48 -94t-36 -143q-3 -26 -5.5 -50.5t-4.5 -46.5q0 -40 36 -56v-6h-143v6q17 10 30 24.5t16 32.5q2 26 5.5 58t6.5 64q5 46 8.5 83t4.5 46q2 31 -7 58.5t-25 47.5t-38.5 32t-47.5 11
q-41 -6 -80.5 -24.5t-78 -43t-77 -51t-78.5 -48.5t-82 -36t-86 -13zM15 234q0 51 20 95t55 75.5t82.5 49.5t101.5 18q29 0 61 -6q-29 4 -59 0t-58.5 -16.5t-54.5 -33t-46 -48.5q-28 -39 -40.5 -83t-8 -88t26.5 -85t61 -73q25 -20 54.5 -30t60.5 -10q49 0 92 21t75 56t50 80
t18 93q12 4 24.5 8.5t26.5 10.5q3 -17 3 -34q0 -51 -20.5 -96t-56.5 -78.5t-85 -53t-106 -19.5q-51 0 -101 18t-89 50.5t-63 78t-24 100.5zM398 428q-32 7 -56.5 -3t-38 -29t-15.5 -43t9.5 -45t37.5 -35.5t69 -14.5q9 0 22.5 1.5t28 3.5t28 5.5t21.5 7.5q-2 21 -10.5 45.5
t-22 47t-32.5 38.5t-41 21zM587 7q18 11 29 27.5t12 36.5v249q16 10 31.5 19.5t30.5 19.5v-290q2 -20 12.5 -36t27.5 -26v-6h-143v6z" />
    <glyph glyph-name="uniF457" unicode="on" horiz-adv-x="1102" 
d="M404 248q-42 2 -69.5 15.5t-42 33t-17 42.5t7 44t30 37.5t51.5 22.5q27 6 54 -1.5t49 -24.5q27 -20 44 -45q29 -37 41 -79q26 14 40.5 25t34.5 27v54q-1 20 -12 36t-29 27v6q50 11 103 38v-119q45 29 87.5 54t78.5 35q5 2 10 2.5t10 1.5q25 3 54.5 -3t56.5 -22t48 -42.5
t27 -65.5q2 -11 2.5 -23t-0.5 -23q-5 -44 -9 -86q-4 -37 -8 -78t-7 -74q0 -40 36 -56v-6h-143v6q17 10 30 24.5t16 32.5q2 26 5.5 58t6.5 64q5 46 8.5 83t4.5 46q2 31 -7 58.5t-25 47.5t-38.5 32t-47.5 11q-35 -4 -72.5 -22t-77 -43t-80 -52t-82.5 -50t-84.5 -37t-84.5 -12z
M15 234q0 51 20 95t55 75.5t82.5 49.5t101.5 18q29 0 61 -6q-29 4 -59 0t-58.5 -16.5t-54.5 -33t-46 -48.5q-28 -39 -40.5 -83t-8 -88t26.5 -85t61 -73q25 -20 54.5 -30t60.5 -10q49 0 92 21t75 56t50 80t18 93q12 4 24.5 8.5t26.5 10.5q3 -17 3 -34q0 -51 -20.5 -96
t-56.5 -78.5t-85 -53t-106 -19.5q-51 0 -101 18t-89 50.5t-63 78t-24 100.5zM398 428q-32 7 -56.5 -3t-38 -29t-15.5 -43t9.5 -45t37.5 -35.5t69 -14.5q9 0 22.5 1.5t28 3.5t28 5.5t21.5 7.5q-2 21 -10.5 45.5t-22 47t-32.5 38.5t-41 21zM586 7q18 11 29 27.5t12 36.5v241
q16 10 31.5 19.5t30.5 19.5v-282q2 -20 12.5 -36t27.5 -26v-6h-143v6z" />
    <glyph glyph-name="uniF458" unicode="op" horiz-adv-x="1149" 
d="M404 248q-42 0 -69.5 13t-42 32.5t-17 43t7 45t30 38.5t51.5 23q27 6 54 -1.5t49 -24.5q27 -20 44 -45q14 -18 24 -35.5t16 -39.5q13 6 22 11.5t16.5 11t15 12t16.5 13.5v32q0 30 -6.5 49.5t-34.5 35.5v6q50 11 103 38v-119q45 29 87.5 54t78.5 35l15 3q52 3 102 -4.5
t89 -31.5t61 -67.5t17 -112.5q-3 -40 -18 -68t-39.5 -48t-55.5 -33.5t-65 -23.5t-69 -18t-67 -17q-30 -8 -55.5 -18.5t-44 -26t-28.5 -37t-9 -51.5v-93q1 -21 12 -39.5t29 -29.5v-6h-143v6q19 11 30 29.5t11 40.5v486q2 1 12 6.5t21 13.5q13 8 29 19v-370q21 36 57.5 56
t79.5 33.5t87.5 26t81 33.5t59.5 55.5t23 93.5q0 49 -14.5 83.5t-41 56t-62.5 31.5t-78 10q-42 -3 -79.5 -20.5t-74 -42t-73 -51.5t-75 -49.5t-80 -37.5t-89.5 -15zM15 234q0 51 20 95t55 75.5t82.5 49.5t101.5 18q29 0 61 -6q-29 4 -59 0t-58.5 -16.5t-54.5 -33t-46 -48.5
q-28 -39 -40.5 -83t-8 -88t26.5 -85t61 -73q25 -20 54.5 -30t60.5 -10q49 0 92 21t75 56t50 80t18 93q12 4 24.5 8.5t26.5 10.5q3 -17 3 -34q0 -51 -20.5 -96t-56.5 -78.5t-85 -53t-106 -19.5q-51 0 -101 18t-89 50.5t-63 78t-24 100.5zM398 428q-32 7 -56.5 -3t-38 -29
t-15.5 -43t9.5 -45t37.5 -35.5t69 -14.5q9 0 22.5 1.5t28 3.5t28 5.5t21.5 7.5q-2 21 -10.5 45.5t-22 47t-32.5 38.5t-41 21z" />
    <glyph glyph-name="uniF459" unicode="or" horiz-adv-x="988" 
d="M404 248q-42 1 -69.5 13.5t-42 32t-17 43t7 45t30 38.5t51.5 23q27 6 54 -1.5t49 -24.5q27 -20 44 -45q5 -5 9 -11t7 -12q16 -26 25 -56q22 11 41 26.5t29 24.5v55q-1 20 -12 36t-29 27v6q50 11 103 38v-119q45 29 87.5 54t78.5 35q10 3 19 3q35 2 57 -7t33 -22
q13 -15 19 -35h-70l-1.5 7t-6.5 15.5t-15 15.5t-27 7q-10 0 -22 -3q-37 -10 -70.5 -29.5t-66 -43t-65 -48t-68 -44t-75.5 -32.5t-87 -12zM292 -13q-51 0 -101 18t-89 50.5t-63 78t-24 100.5q0 51 20 95t55 75.5t82.5 49.5t101.5 18q29 0 61 -6q-29 4 -59 0t-58.5 -16.5
t-54.5 -33t-46 -48.5q-28 -39 -40.5 -83t-8 -88t26.5 -85t61 -73q25 -20 54.5 -30t60.5 -10q49 0 92 21t75 56t50 80t18 93q12 4 24.5 8.5t26.5 10.5q3 -17 3 -34q0 -51 -20.5 -96t-56.5 -78.5t-85 -53t-106 -19.5zM398 428q-32 7 -56.5 -3t-38 -29t-15.5 -43t9.5 -45
t37.5 -35.5t69 -14.5q9 0 22.5 1.5t28 3.5t28 5.5t21.5 7.5q-2 21 -10.5 45.5t-22 47t-32.5 38.5t-41 21zM581 7q18 11 29 27.5t12 36.5v249q16 10 31.5 19.5t30.5 19.5v-290q2 -20 12.5 -36t27.5 -26v-6h-143v6z" />
    <glyph glyph-name="uniF460" unicode="ra" horiz-adv-x="670" 
d="M203 103q0 26 25.5 44.5t63.5 34t82 31.5t82 36.5t63 49t24 69.5q-6 49 -34 77t-88 28q51 0 86 -8t56.5 -27.5t30.5 -54t9 -86.5v-221q0 -21 11 -39.5t29 -29.5v-6h-46q-21 0 -36 15t-15 36q-38 -29 -86.5 -46.5t-96.5 -17.5q-32 0 -61 6.5t-51 20.5t-35 35.5t-13 52.5z
M546 321q-14 -31 -41 -52t-59 -36.5t-64.5 -27.5t-59 -25.5t-43 -30t-14.5 -40.5q5 -56 37.5 -78t75.5 -22q23 0 47 5t46 13t41.5 18.5t33.5 21.5v254zM67 391q-2 44 -40 66v6q26 6 51.5 15.5t50.5 21.5v-289q25 117 70 179.5t92 76.5q19 3 35 3q32 0 50.5 -10.5t29.5 -22.5
q12 -14 17 -32h-70l-1 7t-6 15.5t-14.5 15t-26.5 6.5q-10 0 -23 -3q-23 -9 -45.5 -30.5t-42.5 -57.5t-36.5 -87.5t-28.5 -120.5v-78q0 -22 11 -41t29 -30v-6h-142v6q18 11 28.5 30t11.5 40v320z" />
    <glyph glyph-name="uniF461" unicode="ss" horiz-adv-x="915" 
d="M378 105q0 23 -26.5 41t-67 33.5t-87.5 31.5t-87.5 36t-67.5 46t-27 62q0 35 17 59.5t44.5 39.5t61.5 22t67 7q63 0 99.5 -10t56.5 -24q12 -8 26 -35t30 -64.5t33.5 -81t36.5 -86t40 -80t43 -61.5q11 -14 39 -27.5t83 -12.5q30 0 58 6.5t49.5 19t35 32t14.5 46.5
q1 23 -26 41t-67.5 33.5t-87.5 31.5t-87.5 36t-67.5 46t-27 62q0 35 17 59.5t44.5 39.5t61.5 22t67 7q63 0 101 -11t59 -24q25 -15 35 -34h-69q-4 18 -20 31q-14 11 -41 20.5t-77 8.5q-23 0 -47.5 -6.5t-44.5 -18t-33.5 -29t-13.5 -40.5q0 -28 28 -48.5t69.5 -38.5t90 -34
t90 -35t69.5 -43t28 -56q0 -44 -22.5 -70.5t-55.5 -40.5t-71.5 -18.5t-70.5 -4.5q-54 0 -89.5 10t-57.5 23q-25 19 -46.5 54t-41 77.5t-37.5 88.5t-35.5 87.5t-35 73.5t-35.5 47q-15 10 -41 16.5t-68 5.5q-22 0 -46.5 -6.5t-44.5 -18t-33.5 -29t-13.5 -40.5
q0 -28 27.5 -48.5t69.5 -38.5t90 -34t90 -35t69.5 -43t27.5 -56q0 -44 -22.5 -70.5t-55.5 -40.5t-71.5 -18.5t-70.5 -4.5q-58 0 -95 12t-59 26q-26 17 -39 38h70q4 -19 20 -34q14 -13 40.5 -23t74.5 -9q30 0 58 6.5t50 19t35.5 32t13.5 46.5z" />
    <glyph glyph-name="uniF462" unicode="th" horiz-adv-x="729" 
d="M27 452v11h126q-29 5 -51.5 20t-38 33.5t-23.5 36.5t-9 29h70l0.5 -19t10 -41t32 -40.5t66.5 -18.5h6v-11h-88v-375q0 -22 3 -35t8 -19.5t12 -8.5t15 -3q25 -2 47 17t42 51v551q-3 42 -41 64v6q26 5 51.5 14.5t50.5 22.5v-527q9 25 17.5 53t16.5 53q30 81 71 120t82 44
q24 3 54 -3t57 -22t47.5 -42.5t27.5 -65.5q4 -21 1 -46q-4 -44 -8 -86q-4 -37 -8 -78t-7 -74q0 -40 35 -56v-6h-142v6q17 10 30 24.5t16 32.5q2 26 5.5 58t6.5 64q5 46 8 83t4 46q2 30 -6.5 57.5t-24 47.5t-37.5 32t-47 12q-23 0 -47.5 -12t-48 -38.5t-44 -69.5t-36.5 -105
q-10 -27 -21 -56.5t-24.5 -57t-29.5 -52.5t-36 -44q-15 -14 -31.5 -22.5t-35.5 -9.5q-14 0 -30.5 3t-30.5 11t-23.5 22t-9.5 35v384h-40zM214 2q32 20 57.5 59t44.5 82v-74q5 -41 40 -62v-6h-142v1z" />
    <glyph glyph-name="uniF463" unicode="tt" horiz-adv-x="424" 
d="M153 463q-29 5 -51.5 20t-38 33.5t-23.5 36.5t-9 29h70l0.5 -19t10 -41t32 -40.5t66.5 -18.5h124q-29 5 -51.5 20t-38 33.5t-23.5 36.5t-8 29h70q0 -57 27 -88t87 -31v-11h-87v-375q0 -44 12.5 -57.5t29.5 -13.5q11 0 19 3l8 4l5 -7q-2 -2 -16 -5.5t-34 -3.5q-15 0 -30 3
t-27.5 11t-20.5 22t-8 35v384h-120v-375q0 -44 12.5 -57.5t29.5 -13.5q11 0 19 3l8 4l5 -7q-2 -2 -16 -5.5t-33 -3.5q-15 0 -30 3t-27.5 11t-20.5 22t-8 35v384h-40v11h126z" />
    <glyph glyph-name="uniF464" unicode="ug" horiz-adv-x="1087" 
d="M130 469q-4 -37 -9 -88t-10 -99t-8.5 -84t-3.5 -43q-2 -31 6.5 -58t24.5 -47.5t37.5 -32.5t46.5 -12q28 0 58 17.5t57 58t49 105.5t35 161v53q-5 41 -40 63v6h102v-434q0 -64 16 -109t41.5 -75.5t57.5 -47.5t64.5 -26t62.5 -11t51 -2q30 0 75 4t87.5 15.5t72.5 31.5
t30 52q0 39 -33.5 57.5t-83.5 26.5t-109 10.5t-109 9.5t-83.5 22.5t-33.5 50.5q0 9 1.5 17t6 18t13 23t23.5 33q-38 26 -61.5 62.5t-23.5 81.5q0 44 22 80.5t58 62.5t83.5 40.5t98.5 14.5q21 0 42.5 -2.5t42.5 -8.5q2 2 2 3q22 26 63 45.5t103 15.5v-64q-42 26 -74 29
q-28 3 -47.5 -6t-30.5 -23l-3 -4q40 -13 71 -33t52.5 -44.5t32.5 -51.5t11 -54q0 -45 -22.5 -81.5t-59.5 -62.5t-84.5 -40.5t-97.5 -14.5q-34 0 -68 7.5t-65 22.5q-17 7 -34 18l-7 -10l-5 -6t-10.5 -15.5t-10.5 -20.5t-5 -21q-1 -24 19.5 -37.5t54 -20t77 -9t89.5 -4.5
t91 -5.5t81.5 -12.5t61.5 -26t30 -45q1 -4 1.5 -7.5t0.5 -8.5q0 -35 -34.5 -59t-86.5 -39.5t-113 -22.5t-113 -7q-17 0 -49.5 2t-70.5 10t-78 24.5t-72.5 46t-53 74t-20.5 109.5v261q-12 -72 -32.5 -125t-46 -88.5t-53.5 -54t-55 -21.5q-24 -3 -54 3.5t-57 22.5t-47.5 42.5
t-27.5 64.5q-2 12 -2.5 23.5t1.5 23.5q0 6 1 13q1 6 1.5 15t2.5 20q1 8 1.5 15.5t1.5 16.5q4 37 8 80t8 77q0 41 -36 57v6h103zM654 151q30 -27 69 -40t80 -13q28 0 54.5 5.5t50.5 15.5q36 15 59.5 42t34.5 59.5t8.5 68t-19.5 69.5q-36 70 -98 95zM712 442
q-36 -15 -62 -42.5t-39.5 -61t-12.5 -70t19 -70.5q13 -22 27 -38q33 42 89.5 112.5t146.5 184.5q-29 9 -60 9q-53 0 -108 -24z" />
    <glyph glyph-name="uniF465" unicode="us" horiz-adv-x="976" 
d="M130 469q-3 -25 -6 -56t-6.5 -64.5t-6.5 -66t-5.5 -59.5t-4.5 -45.5t-2 -23.5q-2 -30 6.5 -57.5t24.5 -47.5t37.5 -32t46.5 -12q28 0 57.5 17.5t56.5 58t49.5 105.5t35.5 161v53q-5 41 -40 63v6h102v-352q0 -20 2 -39.5t8 -36t17.5 -30t29.5 -22.5q26 -14 64 -23t91 -8
q48 1 88.5 13.5t70.5 32.5t47 46t18 53q0 23 -26.5 40.5t-67 33t-88 32t-88 36.5t-67.5 46t-27 62q0 34 17.5 58.5t45 40t61.5 22.5t67 7q63 0 101 -11t59 -24q25 -16 35 -35h-70q-3 18 -19 31q-14 11 -41.5 20.5t-77.5 8.5q-22 0 -46.5 -6t-44.5 -18t-33.5 -29t-13.5 -40
q0 -28 27.5 -49t69.5 -38.5t90 -33.5t90 -35t69.5 -43t27.5 -57q0 -44 -26 -76.5t-67.5 -54.5t-92.5 -32.5t-100 -10.5q-39 0 -68 4.5t-51.5 11.5t-40.5 16t-34 19l-2 1q-31 20 -48.5 51.5t-17.5 68.5v158q-12 -72 -32.5 -125t-46 -88.5t-53.5 -54t-55 -21.5q-24 -3 -54 3.5
t-57 22.5t-47.5 42.5t-27.5 64.5q-2 12 -2.5 23.5t1.5 23.5q0 6 1 13q1 6 1.5 15t2.5 20q1 8 1.5 15.5t1.5 16.5q4 37 8 80t8 77q0 41 -36 57v6h103z" />
    <glyph glyph-name=".notdef" horiz-adv-x="481" 
d="M454 700v-700h-427v700h427zM240 371l186 309h-371zM48 650v-601l180 301zM56 21h370l-185 308zM434 47v605l-181 -302z" />
    <glyph glyph-name="uni0000" horiz-adv-x="0" 
 />
    <glyph glyph-name="uni000D" unicode="&#xd;" horiz-adv-x="0" 
 />
    <glyph glyph-name="space" unicode=" " horiz-adv-x="366" 
 />
    <glyph glyph-name="uni000A" unicode="&#xa;" horiz-adv-x="0" 
 />
    <glyph glyph-name="zero" unicode="0" horiz-adv-x="701" 
d="M317 -11q-69 6 -127 40t-99 87t-61 121t-13 143t35.5 138.5t76 108.5t112 68t142.5 16q69 -6 127 -40t99 -87t61.5 -120.5t13.5 -142.5q-7 -72 -37 -135.5t-78 -109.5t-112.5 -70t-139.5 -17zM74 372q-4 -70 12.5 -133t49.5 -111.5t81 -80.5t107 -40q51 -8 102 15t93 67
t70.5 105.5t34.5 130.5q7 78 -9.5 142.5t-51 112t-84 77t-107.5 37.5q-53 7 -104.5 -16t-93 -68t-69 -107t-31.5 -131z" />
    <glyph glyph-name="one" unicode="1" horiz-adv-x="196" 
d="M27 7q18 11 29 28t12 38v592h-26v6l87 42v-642q2 -20 12.5 -37t27.5 -27v-6h-142v6v0z" />
    <glyph glyph-name="two" unicode="2" horiz-adv-x="597" 
d="M10 20q72 87 149 167.5t141.5 148t107.5 119.5t48 83q4 30 -4 59.5t-30.5 52.5t-60 37.5t-91.5 13.5q-31 0 -54 -6.5t-39.5 -16.5t-27.5 -23t-18 -26q-16 -32 -15 -71h-66v3q0 4 1 7q8 42 31 70t55 44.5t70 23.5t77 7q74 0 119.5 -19.5t69.5 -49t30 -63.5t1 -63
q-5 -28 -18.5 -52.5t-36.5 -52.5t-57.5 -62t-80.5 -81t-105 -110.5t-132 -148.5h169q35 1 76 2.5t82 7t78 17.5t64 33q5 -11 9.5 -23.5t8.5 -23.5q4 -12 9 -24h-560v20z" />
    <glyph glyph-name="three" unicode="3" horiz-adv-x="630" 
d="M34 76q-15 20 -20 34q-4 8 -4 14h65q6 -36 30 -63q20 -23 60 -42.5t111 -18.5q31 0 68 12t67.5 40t48.5 73t13 111q-3 47 -24 81t-53.5 55t-73.5 29.5t-86 5.5v40l298 242h-176q-35 -1 -76 -2.5t-82 -7.5t-78.5 -18.5t-64.5 -34.5q-4 12 -8.5 24.5t-8.5 23t-6.5 17.5
t-2.5 9h584q-13 -10 -40.5 -31.5t-61.5 -48t-72.5 -56.5t-72.5 -56.5t-61.5 -48t-40.5 -31.5q55 3 102.5 -9t83 -38t57 -65t26.5 -90q5 -44 -9 -80q-13 -39 -41.5 -68.5t-66 -50t-81.5 -30.5t-89 -10q-66 0 -123.5 22t-90.5 67z" />
    <glyph glyph-name="four" unicode="4" horiz-adv-x="596" 
d="M27 209v11q60 125 108 226q21 43 41 85.5t36.5 77.5t28 59t14.5 31q5 -6 21 -21.5t30 -29.5q-36 -18 -65.5 -54.5t-58.5 -90t-61.5 -124t-73.5 -156.5l-2 -3h303v28v13.5v7v8.5t0.5 18t0.5 36q0 52 12 98.5t39.5 80t73 49.5t112.5 9v-64q-33 22 -58 31.5t-44 9.5
q-32 0 -47 -23.5t-21 -59t-5.5 -78t-0.5 -79.5v-85h34v-11h-34v-131q0 -22 10.5 -41t29.5 -30v-6h-142v6q19 11 29.5 30t10.5 41v131h-321z" />
    <glyph glyph-name="five" unicode="5" horiz-adv-x="593" 
d="M275 -13q-77 0 -125.5 20t-75.5 44q-32 28 -47 65h71q7 -33 30 -59q20 -23 58 -41t104 -17q30 0 68.5 10.5t72 36t55 70t17.5 112.5q-3 49 -25.5 86t-58 62.5t-80.5 38.5t-92 13q-53 0 -104 -17t-91 -52l-13 1q29 83 49.5 167.5t33.5 172.5h206q52 0 97 -10t76.5 -34.5
t46.5 -67.5t8 -110h-64q29 46 36.5 77t-1 51t-30.5 30.5t-51 15.5t-62.5 5.5t-65.5 0.5h-192q-11 -71 -27 -139t-40 -137q45 31 99 46.5t111 15.5q55 0 107 -14.5t93 -43t67 -71t29 -98.5q1 -41 -17 -80.5t-53 -72t-86.5 -53t-115.5 -23.5q-5 -1 -9 -1h-9z" />
    <glyph glyph-name="six" unicode="6" horiz-adv-x="612" 
d="M302 -13q-107 0 -174 48t-94 122t-13.5 162t67 169t148 142.5t230.5 82.5v-10q-64 -15 -123 -44.5t-108.5 -71.5t-87 -96t-59.5 -119q8 10 24 24.5t42.5 28t64 22.5t88.5 9q64 0 117.5 -16.5t92 -46t59.5 -71.5t21 -93q0 -50 -20 -94t-58 -77t-93 -52t-124 -19zM298 440
q-34 0 -75 -12t-76 -39t-56 -70t-15 -105q6 -43 23 -82t46.5 -68t72 -46t98.5 -16q60 0 102 22t68.5 55.5t39 73.5t12.5 77q0 36 -15 74t-45 68.5t-75 49.5t-105 18z" />
    <glyph glyph-name="seven" unicode="7" horiz-adv-x="569" 
d="M252 653h-62t-60 -4t-50 -12t-33 -25t-8.5 -43t23.5 -65q4 -6 7.5 -12.5t8.5 -13.5h-65q-8 67 7.5 110t47 67.5t76.5 34.5t98 10h317v-21q-11 -12 -34 -41t-52 -71.5t-61 -96.5t-61.5 -117.5t-53.5 -133.5t-36 -144q-4 -22 0.5 -39.5t23.5 -29.5v-6h-142v6q18 11 27 30
t14 40q15 72 49 151.5t78.5 156t95 146t98.5 123.5h-253v0z" />
    <glyph glyph-name="eight" unicode="8" horiz-adv-x="632" 
d="M317 -13q-75 0 -133 18t-96.5 46.5t-57 64t-14.5 71.5q3 29 17.5 53.5t36 44.5t47 35.5t50 27.5t46 19t34.5 11q-4 1 -7 2l-6 2q-62 25 -111 53.5t-65 70.5q-11 29 -2.5 65t39.5 67.5t84 53t131 21.5q71 0 122.5 -13t85.5 -35.5t50 -53t16 -65.5t-22 -64t-53 -51
t-63 -37.5t-52 -22.5l8 -3q41 -16 77.5 -32t65 -35.5t46.5 -43t23 -54.5q9 -63 -16.5 -104.5t-70 -66.5t-101 -35t-109.5 -10zM66 187q-2 -32 15 -64.5t51 -59t83.5 -43t112.5 -15.5q51 1 94 12.5t74 32t48 48t17 59.5t-15.5 57t-51 49t-93.5 50t-142 59q-19 -6 -50.5 -18.5
t-62 -34.5t-54 -54.5t-26.5 -77.5zM307 701q-27 0 -63 -6.5t-68.5 -22t-55.5 -43.5t-23 -71q0 -27 16 -47.5t50 -40.5t88 -42t130 -52q19 8 45.5 21.5t51 33t41.5 46t17 60.5q0 42 -20 73.5t-52 51.5t-73 30t-84 9z" />
    <glyph glyph-name="nine" unicode="9" horiz-adv-x="602" 
d="M10 463q0 49 20 93t58 77t93 52t124 19q80 0 138 -28t93 -74t48 -106t3 -124t-43 -127.5t-88.5 -117.5t-134 -93.5t-180.5 -54.5v9q64 16 123 45t108.5 71t87 96t59.5 119q-8 -10 -24 -24.5t-42.5 -27.5t-64 -22.5t-88.5 -9.5q-64 0 -117.5 16.5t-91.5 46.5t-59.5 72
t-21.5 93zM69 462q0 -36 15 -73.5t45 -68t75 -49.5t105 -19q28 0 69 12t77 38.5t59.5 69.5t16.5 106q-6 43 -23 81.5t-46.5 67.5t-71.5 46t-98 17q-60 0 -102.5 -22t-69 -55.5t-39 -73.5t-12.5 -77z" />
    <glyph glyph-name="A" unicode="A" horiz-adv-x="758" 
d="M10 0v6q23 5 47.5 21t41.5 51q3 6 19.5 41t41 88t54.5 116.5t60 126.5q22 48 43 92t37.5 78.5t27 57t12.5 26.5q10 -21 28.5 -60t43 -90t52.5 -109.5t57 -116.5q35 -72 67 -138t55 -114q14 -26 23.5 -41t27.5 -29v-6h-143v6q19 11 27.5 29.5t-2.5 41.5q-14 27 -28.5 58
t-28.5 62q-26 36 -66 62.5t-85.5 43.5t-94.5 25t-93 8q-14 -30 -31 -65.5t-33.5 -71t-31.5 -67.5t-26 -55q-6 -13 -3.5 -25t10 -22t17 -16.5t16.5 -7.5v-6h-142zM280 434q-10 -20 -22 -46t-20 -42q40 0 84 -6.5t86 -20t80 -35t67 -50.5q-11 23 -20 43.5t-17 35.5
q-9 18 -16 33l-5 11q-25 53 -48 100.5t-40 85.5q-21 43 -39 82q-17 -37 -30 -65t-23 -48q-13 -26 -20 -41.5t-11 -23.5q-4 -10 -6 -13z" />
    <glyph glyph-name="B" unicode="B" 
d="M27 699h175q42 0 83.5 -7t74 -23.5t52.5 -44t20 -68.5q0 -34 -13 -56.5t-33 -37.5t-45 -24t-50 -15q72 -5 122 -26.5t82 -51.5t47 -64t17 -62q4 -67 -25 -109.5t-78 -67t-113 -33.5t-131 -9h-185v6q19 11 29.5 30t10.5 42v546q-1 22 -11.5 40t-28.5 29v6zM212 11
q77 0 131 15t88 42t48 65.5t11 85.5q-3 44 -24 79t-54 59.5t-73 39.5t-80 19q-21 -5 -41.5 -10t-38 -12.5t-30.5 -19t-20 -29.5v-334h83zM129 364q15 25 40.5 37t54.5 20q8 2 13 4q25 6 48.5 13.5t42.5 21.5t30.5 36.5t11.5 59.5q0 39 -14.5 64.5t-38.5 40.5t-54 21t-61 6
h-73v-324z" />
    <glyph glyph-name="C" unicode="C" horiz-adv-x="730" 
d="M15 349q0 78 34 143.5t93 113.5t138.5 74.5t170.5 26.5q80 0 130.5 -13.5t80.5 -30.5q34 -19 53 -43h-70q-16 22 -46 40q-26 14 -69 25.5t-109 9.5q-62 -3 -120.5 -28.5t-104 -70t-73.5 -104.5t-30 -132q-2 -70 21.5 -134.5t70 -114t114.5 -79.5t155 -30q32 0 67.5 7
t69.5 19t63.5 29t50.5 37l10 -6q-50 -48 -126 -74.5t-168 -26.5t-167 29.5t-128 79t-82 115.5t-29 138z" />
    <glyph glyph-name="D" unicode="D" horiz-adv-x="663" 
d="M27 6q19 11 29.5 30.5t10.5 41.5v544q0 22 -10.5 41t-29.5 30v6h190q115 0 196.5 -26.5t133.5 -73.5t76.5 -110.5t24.5 -138.5q0 -85 -44.5 -162t-135.5 -127q-54 -29 -123 -45t-157 -16h-161v6zM188 11q90 0 162.5 27t123.5 73t79 107.5t29 131.5q1 76 -22.5 138.5
t-71 106.5t-119 68.5t-165.5 24.5h-75v-677h59z" />
    <glyph glyph-name="E" unicode="E" horiz-adv-x="571" 
d="M27 6q19 11 29.5 30.5t10.5 41.5v544q0 22 -10.5 41t-29.5 30v6h517q-5 -12 -9 -24q-4 -11 -8.5 -23.5t-9.5 -23.5q-27 22 -64 34t-78 17.5t-82 7t-76 1.5h-88v-328q79 16 144 28q28 5 55 10t50 9.5t39 7.5t21 4q-6 -17 -13 -34q-4 -9 -6 -17q-17 14 -36 20t-41 2
l-213 -41v-338h87q49 1 107.5 4t110.5 17q23 6 43.5 15t37.5 22l29 -69h-517v6v0z" />
    <glyph glyph-name="F" unicode="F" horiz-adv-x="554" 
d="M27 6q19 11 29.5 30t10.5 42v544q0 22 -10.5 41t-29.5 30v6h517q-5 -12 -9 -24q-4 -11 -8.5 -23.5t-9.5 -23.5q-27 22 -64 34t-78 17.5t-82 7t-76 1.5h-88v-328q79 15 144 27q28 5 55 10.5t49.5 10t38.5 7.5t22 4l-6 -16l-6 -16q-4 -9 -7 -18q-17 12 -34 18t-37 4
q-35 -7 -73.5 -14.5t-70.5 -13.5q-38 -7 -75 -14v-272q0 -22 10.5 -41t29.5 -30v-6h-142v6v0z" />
    <glyph glyph-name="G" unicode="G" horiz-adv-x="760" 
d="M406 -13q-89 0 -158 26t-118 69t-77 99t-35.5 117t6.5 122.5t49.5 114.5t93 94.5t137.5 61.5q36 8 71 12.5t72 4.5q79 0 130.5 -13.5t80.5 -30.5q34 -19 52 -44h-68q-16 22 -46 40q-26 15 -69 26t-111 9q-18 -1 -35.5 -3.5t-34.5 -7.5q-53 -14 -102.5 -45t-87 -75
t-59 -98.5t-19.5 -116.5q3 -70 23.5 -133t62 -110.5t106 -75.5t154.5 -28q40 0 83 14.5t78 38t59 51.5t27 55v162q-33 -7 -74.5 -15t-78.5 -16q-35 -10 -57 -47q-7 7 -13 14q-6 6 -12.5 13t-11.5 12q7 2 32.5 7t59 11.5t71 14t69.5 14t53.5 10.5t23.5 5v-153
q-13 -22 -41 -57t-69 -68t-95.5 -57t-121.5 -24z" />
    <glyph glyph-name="H" unicode="H" horiz-adv-x="738" 
d="M67 623q0 22 -10.5 40.5t-29.5 29.5v6h142v-6q-19 -11 -29.5 -30t-10.5 -41v-275q6 -27 21.5 -44t38 -27t50.5 -13.5t60 -3.5q51 0 104 5t99 5q38 0 67 -7t41 -27v386q0 23 -11 42t-30 30v6h142v-6q-38 -24 -40 -70v-545q0 -23 10.5 -41.5t29.5 -30.5v-6h-142v6
q39 24 41 70v121q-2 37 -35 49.5t-82 12.5q-45 0 -97 -5t-101 -5q-57 0 -102.5 13.5t-63.5 54.5v-239q0 -23 10.5 -42t29.5 -30v-6h-142v6q19 11 29.5 30t10.5 41v546v0z" />
    <glyph glyph-name="I" unicode="I" horiz-adv-x="196" 
d="M27 0v6q39 24 41 70v546q0 22 -11 41t-30 30v6h142v-6q-38 -24 -40 -70v-545q0 -23 11 -42t29 -30v-6h-142z" />
    <glyph glyph-name="J" unicode="J" horiz-adv-x="196" 
d="M-188 -65q28 -10 52 -15.5t44 -7.5q48 -5 78.5 6t48.5 35t25 58t7 75v536q0 22 -10.5 41t-29.5 30v6h142v-6q-19 -11 -29.5 -30.5t-10.5 -41.5v-500q0 -50 -18.5 -96t-55.5 -80.5t-92.5 -55t-128.5 -20.5z" />
    <glyph glyph-name="K" unicode="K" horiz-adv-x="672" 
d="M27 699h142v-6q-38 -24 -40 -70v-521l330 518q11 17 6.5 37t-21.5 31q-2 2 -4 3l-4 2v6h142v-6q-30 -8 -53.5 -22t-42.5 -40q-27 -43 -66.5 -104.5t-82.5 -128.5q40 9 73 -10.5t64.5 -63t64 -108t73.5 -145.5q11 -22 24 -38t30 -27v-6h-142v6q38 24 14 71q-1 1 -2 3
t-2 4.5t-2 5.5q-11 20 -24.5 45.5t-24.5 48.5q-13 26 -27 52q-30 60 -58.5 85.5t-56.5 25.5q-22 0 -45 -14q-30 -47 -57.5 -90.5t-49.5 -78t-37 -57.5t-19 -29q0 -23 11 -42t29 -30v-6h-142v6q39 24 41 70v545q0 23 -11 42t-30 30v6z" />
    <glyph glyph-name="L" unicode="L" horiz-adv-x="553" 
d="M27 0v6q39 24 41 70v545q0 23 -11 42t-30 30v6h142v-6q-38 -24 -40 -70v-612h90q34 0 75 1.5t82 7.5t78.5 18t64.5 33l24 -71h-516z" />
    <glyph glyph-name="M" unicode="M" horiz-adv-x="949" 
d="M27 6q29 6 48.5 23.5t19.5 46.5v623h31l104 -184q22 -39 46 -82t48 -85.5t47 -83.5t43 -77q37 -62 78 -91.5t74 -29.5q19 0 33.5 9.5t22 28.5t7 47t-11.5 65q-10 31 -28 70.5t-36.5 82.5t-32.5 87t-14.5 85t16 76.5t59.5 60.5q32 15 83 20.5t103 5.5q34 0 63.5 -1.5
t51.5 -3.5v-622q1 -21 11.5 -40.5t28.5 -30.5v-6h-142v6q19 11 29.5 30t11.5 40v613q-16 2 -37.5 3t-44.5 1q-42 0 -84.5 -5.5t-68.5 -21.5q-42 -25 -56.5 -60.5t-11.5 -78t19 -88t35.5 -90t39 -84.5t28.5 -70q19 -63 0.5 -105t-58.5 -55q-18 -5 -34 -5q-45 0 -94.5 32.5
t-91.5 105.5q-21 38 -46.5 83.5t-52 93t-52 92.5t-46.5 82.5t-36 64t-20 35.5v-542q0 -26 15.5 -45.5t44.5 -25.5v-6h-142v6v0z" />
    <glyph glyph-name="N" unicode="N" horiz-adv-x="757" 
d="M27 0v6q26 5 47 24t21 47v622h34l527 -646v570q0 26 -20 45t-48 25v6h142v-6q-28 -6 -43.5 -24t-16.5 -43v-626h-34l-527 646v-569q0 -26 15.5 -45.5t44.5 -25.5v-6h-142z" />
    <glyph glyph-name="O" unicode="O" horiz-adv-x="853" 
d="M427 -13q-86 0 -161 28.5t-130.5 77.5t-88 115t-32.5 141t32.5 141t88 115.5t130.5 78t161 28.5q85 0 160 -28.5t130.5 -78t88 -115.5t32.5 -141t-32.5 -141t-88 -115t-130.5 -77.5t-160 -28.5zM94 438q-21 -65 -17 -132t31 -125t75.5 -101.5t116.5 -61.5q46 -13 97 -13
q58 0 114.5 17t105 50t86 81t57.5 109q21 65 17 132t-31 124.5t-75.5 100.5t-117.5 61q-46 13 -98 13q-58 0 -114.5 -17t-104.5 -49.5t-85 -80t-57 -108.5z" />
    <glyph glyph-name="P" unicode="P" horiz-adv-x="521" 
d="M27 6q19 11 29.5 30t11.5 40v548q-1 21 -12 39.5t-29 29.5v6h177q59 0 113.5 -7.5t96.5 -27t67 -53.5t25 -88q0 -47 -15 -76t-40 -45.5t-57 -24.5t-66 -11.5t-67.5 -6t-61.5 -8.5q-31 -7 -50.5 -31.5t-19.5 -56.5v-186q1 -21 11.5 -40.5t28.5 -30.5v-6h-142v6zM129 305
q16 35 45.5 49t65 19t72.5 8t67.5 16t50 41t19.5 85q0 51 -21.5 83t-57 50t-82 25t-96.5 7h-63v-383z" />
    <glyph glyph-name="Q" unicode="Q" horiz-adv-x="853" 
d="M427 -13q-86 0 -161 28.5t-130.5 77.5t-88 115t-32.5 141t32.5 141t88 115.5t130.5 78t161 28.5q76 0 150 -26t132 -73t93.5 -114.5t35.5 -149.5q0 -70 -28 -132t-77 -110t-115.5 -79t-142.5 -39q29 -24 50.5 -32.5t37.5 -8.5q19 0 30 7q5 4 9 8l50 -50q-5 -7 -11 -12
q-5 -5 -14 -8t-21 -3q-23 0 -59 19.5t-87 77.5h-33zM101 462q-26 -63 -26.5 -130.5t22 -127.5t67.5 -107t112 -69q60 -21 124 -21q55 0 108.5 15t100 44.5t84 73t60.5 99.5q25 63 26 129.5t-21.5 126t-68 106t-112.5 69.5q-60 21 -125 21q-54 0 -107.5 -15t-100 -44
t-84 -71.5t-59.5 -98.5z" />
    <glyph glyph-name="R" unicode="R" horiz-adv-x="598" 
d="M27 6q19 11 29.5 30t11.5 40v547q-2 46 -41 70v6h161q96 2 160 -15t102 -45.5t54 -66t16 -76.5q0 -18 -4.5 -41.5t-18 -47.5t-38.5 -46.5t-66 -38.5q32 -45 64.5 -109t71.5 -142q11 -22 24 -38t30 -27v-6h-142v6q38 24 14 71l-6 12t-15 29.5t-20 38t-20 38t-15 29.5
l-6 12q-8 15 -19.5 34.5t-26 36.5t-32.5 28.5t-38 11.5q-31 0 -62.5 -27.5t-65.5 -73.5v-169q1 -22 11.5 -41t28.5 -30v-6h-142v6zM129 262q19 27 36.5 51t34 42.5t32.5 30.5t32 14q32 4 60 -11.5t54 -47.5q26 16 42.5 35.5t26 40t13 41t3.5 38.5q0 51 -21 87.5t-58.5 60
t-89.5 34t-114 10.5h-51v-426z" />
    <glyph glyph-name="S" unicode="S" horiz-adv-x="600" 
d="M12 522q-7 50 13.5 86t59 59t90 34t106.5 11q25 0 49.5 -2t48.5 -6q61 -10 91.5 -28t43 -36t13 -31l0.5 -13l-14 2q-6 1 -13.5 1.5t-15.5 2.5q-5 1 -10 1.5t-9 1.5t-8 1q3 17 -6 34q-8 14 -28.5 28.5t-63.5 23.5q-42 9 -83 9q-45 0 -85 -10.5t-70 -29t-47.5 -45
t-17.5 -59.5q0 -44 39.5 -75t99 -56.5t128.5 -48.5t128.5 -50t99 -62t39.5 -84q0 -52 -29 -89t-75 -60t-103.5 -34t-114.5 -11q-55 0 -101 9q-62 12 -93 31.5t-43 37.5q-14 21 -12 45q11 -2 31 -6t38 -7q-4 -18 4 -35q7 -14 26.5 -29.5t63.5 -25.5q43 -9 87 -9q52 0 99.5 12
t83.5 35t57.5 55t21.5 73q0 37 -37 64t-92.5 50t-121 45t-123 48.5t-98.5 60.5t-47 81z" />
    <glyph glyph-name="T" unicode="T" horiz-adv-x="629" 
d="M619 699q-5 -12 -9 -24q-4 -11 -9 -23.5t-9 -23.5q-22 18 -51.5 29t-62 17.5t-67 9t-66.5 3.5v-610q1 -21 11.5 -40.5t28.5 -30.5v-6h-142v6q19 11 29.5 30.5t11.5 40.5v610q-32 -1 -66.5 -3.5t-67.5 -9t-62 -17.5t-51 -29q-5 11 -9.5 23.5t-8.5 23.5q-4 12 -9 24h609z
" />
    <glyph glyph-name="U" unicode="U" horiz-adv-x="657" 
d="M169 699v-6q-18 -11 -28.5 -30t-11.5 -40v-392q0 -112 63.5 -172t183.5 -59q46 0 89.5 14t77 42.5t53.5 72.5t20 105v287q-2 45 -14 67t-25 31q-16 11 -34 10v70q23 -1 41 -17q16 -14 29.5 -44.5t15.5 -89.5q0 -7 1 -11v-303q0 -17 -3 -42t-12.5 -52.5t-28 -55t-49 -49
t-75 -35t-107.5 -13.5t-109 12t-77.5 32t-51.5 45.5t-30.5 53t-14.5 53.5t-4 48v392q-1 21 -11.5 40t-29.5 30v6h142z" />
    <glyph glyph-name="V" unicode="V" horiz-adv-x="648" 
d="M152 699v-6q-20 -9 -27 -28.5t3 -41.5q11 -24 27.5 -61t36.5 -81.5t41.5 -92.5t42.5 -95q49 -110 104 -234q34 78 69 158q30 69 65 148t67 151q15 37 15 60.5t-6 37.5q-7 16 -22 24q6 10 12 21q5 9 10 18.5t9 15.5q1 2 3 4q1 1 1 2q18 -6 27 -23q8 -14 7 -41.5t-22 -72.5
q-6 -14 -12.5 -29.5t-14.5 -31.5q-17 -39 -35.5 -81t-37 -84.5t-37 -84t-34.5 -78.5q-39 -87 -76 -173h-27q-46 103 -91 203q-19 43 -40 89.5l-42 93t-41 90.5t-37 83q-9 20 -17 38.5t-16 34.5q-9 21 -19.5 36t-27.5 25v6h142z" />
    <glyph glyph-name="W" unicode="W" horiz-adv-x="1073" 
d="M10 699h142v-6q-20 -9 -26.5 -28.5t2.5 -41.5l183 -415q9 -20 23.5 -50t34 -58.5t43.5 -49t51 -20.5q23 0 37 20.5t7 61.5q-9 57 -28.5 110t-31.5 109q-4 18 -7.5 42.5t-3 49t7 47t22.5 37.5q29 26 67 26q26 0 51 -16t41 -54q26 -59 53.5 -121t51.5 -116.5t42.5 -95.5
t26.5 -59q1 -3 2 -5l2 -4t1 -3q34 76 68 154q15 33 31 70t33 75.5t33.5 76.5t32.5 73q12 27 16 47.5t2.5 35t-6.5 24t-10 14.5l-8 8q-2 2 -4 2q3 7 7 13q3 5 7 11.5t8 13.5q2 5 4.5 9t4.5 7q2 4 4 7q18 -6 28 -23q4 -8 6 -18.5t1 -24.5t-6.5 -32.5t-16.5 -42.5
q-17 -38 -37 -82.5t-40.5 -91l-41 -93t-39.5 -89.5q-44 -100 -89 -203h-27q-43 96 -73 164t-51 114.5t-33 74.5t-18.5 42.5t-9 19.5t-2.5 6q-15 39 -35.5 57.5t-40.5 18.5q-23 0 -37 -23q-16 -27 -15.5 -63.5t9.5 -77t23 -83t25.5 -81t16.5 -71t-3 -53.5q-8 -20 -29.5 -31.5
t-49.5 -11.5q-35 0 -62 13.5t-47.5 35t-36 49t-27.5 56.5q-53 117 -104.5 232.5t-103.5 233.5q-10 20 -22 40.5t-29 30.5v6z" />
    <glyph glyph-name="X" unicode="X" horiz-adv-x="816" 
d="M152 700v-6q-10 -5 -10.5 -13t4.5 -18t13.5 -20t17.5 -19l222 -222q19 20 42 42q20 19 44.5 43t51.5 50q33 34 40 58.5t4 39.5q-3 9 -6 16q-2 3 -4 5l55 44q14 -12 17 -30q2 -15 -6 -38t-39 -55q-33 -32 -67 -65t-61 -59q-33 -31 -62 -60l100 -100q43 -43 93 -92.5
t94 -93.5q10 -9 23 -22.5t28 -28t29.5 -27.5t27.5 -21q1 -1 1.5 -1t1.5 -1v-6h-142v6q9 4 10.5 11.5t-2.5 16.5t-12 18.5t-16 18.5q-20 19 -42.5 41.5l-46 46l-47 47l-45.5 45.5l-103 103q-27 -27 -58 -57q-26 -26 -59 -58.5t-68 -65.5q-30 -32 -39 -55.5t-8 -39.5
q1 -18 12 -31l-53 -47q-15 10 -19 28q-4 15 3 38.5t36 56.5q40 39 83.5 81.5t79.5 77.5q42 41 82 80q-50 49 -98 97q-21 20 -43 42.5t-44 44.5l-43 43l-39 39q-19 18 -38.5 36.5t-36.5 29.5v6h142z" />
    <glyph glyph-name="Y" unicode="Y" horiz-adv-x="561" 
d="M152 699v-6q-23 -11 -22.5 -34t13.5 -44l194 -297q2 5 6 10l18 27q19 29 47 72t58 89q24 36 29.5 60.5t1.5 40.5q-4 18 -17 30l45 54q16 -8 22 -25q5 -14 1.5 -38t-27.5 -62q-4 -7 -17 -26.5t-30.5 -46.5t-37.5 -57.5t-38.5 -58t-32.5 -49.5t-20 -31v-230
q1 -21 11.5 -40.5t29.5 -30.5v-6h-143v6q19 11 29 30.5t11 40.5v213q-9 13 -27 42t-41.5 65t-49 75.5t-48.5 74.5t-40 61.5t-24 36.5q-10 16 -20.5 29t-22.5 19v6h142z" />
    <glyph glyph-name="Z" unicode="Z" horiz-adv-x="672" 
d="M565 688h-214q-34 0 -75 -1.5t-81.5 -7t-77.5 -17t-64 -32.5q-8 18 -14 33q-5 13 -9.5 23.5t-3.5 12.5h601v-24l-555 -664h277q34 0 77.5 1.5t86.5 7.5t82.5 18t66.5 33l-27 -71h-625v24z" />
    <glyph glyph-name="a" unicode="a" horiz-adv-x="494" 
d="M187 -13q-32 0 -61 6.5t-51 20.5t-35 35.5t-13 52.5q0 26 25.5 44.5t63.5 34t82 31.5t82 36.5t63 49t24 69.5q-6 49 -29.5 76t-83.5 26q-33 -1 -51.5 -10t-27.5 -20q-11 -13 -13 -29h-67l4 9t17 20.5t38.5 22.5t67.5 15q9 2 19.5 2h21.5q48 0 80 -11t50.5 -34t26 -57.5
t7.5 -80.5v-221q1 -21 11.5 -39.5t28.5 -29.5v-6h-46q-23 0 -36 15q-15 15 -15 36q-8 -5 -25.5 -16t-42 -21.5t-54.5 -18.5t-61 -8zM370 320q-14 -31 -41 -52t-58.5 -36.5t-64.5 -27.5t-59.5 -25.5t-42.5 -30t-14 -40.5q5 -56 37.5 -78t75.5 -22q23 0 46.5 5t46 13
t41.5 18.5t33 21.5v254z" />
    <glyph glyph-name="b" unicode="b" horiz-adv-x="590" 
d="M27 699q27 5 52.5 15t51.5 23v-192q-2 -24 7.5 -46.5t27.5 -37.5q28 -24 69.5 -37t87.5 -24t92 -23t82.5 -32.5t59.5 -53.5t23 -86q0 -70 -23.5 -114.5t-62.5 -69t-88.5 -32t-101.5 -2.5q-38 3 -67 15t-50 28t-35 33.5t-23 32.5v-53q-3 -18 -19 -30.5t-36 -12.5h-46v6
q17 11 27.5 28.5t12.5 37.5v558q-3 41 -41 63v6zM129 184q0 -50 25 -93.5t70 -66.5q23 -12 48.5 -18.5t49.5 -5.5q42 0 76.5 10t59.5 31.5t40 57t19 87.5q4 58 -17 93t-57 55.5t-82 33t-90.5 26t-82.5 33t-59 56.5v-299z" />
    <glyph glyph-name="c" unicode="c" horiz-adv-x="508" 
d="M15 233q0 49 23.5 94t64 78.5t94.5 53.5t114 20q54 0 89.5 -11t55.5 -24q24 -15 37 -34h-66q-7 16 -24 28q-14 11 -41 19.5t-72 8.5q-43 0 -81 -15.5t-66 -45t-44.5 -70.5t-16.5 -92q0 -58 19.5 -103t52.5 -75.5t75.5 -46.5t88.5 -16q20 0 43 4t45 11.5t41.5 18.5
t33.5 25l9 -6q-32 -32 -82 -50t-113 -18q-57 0 -108 16.5t-89 48t-60.5 77.5t-22.5 104z" />
    <glyph glyph-name="d" unicode="d" horiz-adv-x="595" 
d="M15 205q0 53 23 86t59.5 53.5t82.5 32.5t91.5 22.5t87 23.5t69.5 37q19 16 28.5 38.5t7.5 46.5v192q26 -13 51.5 -23t52.5 -15v-6q-38 -22 -41 -63v-558q2 -20 12.5 -37.5t27.5 -28.5v-6h-46q-20 0 -36 12.5t-19 30.5v53q-9 -15 -23 -32.5t-35 -33.5t-50 -28t-67 -15
q-52 -5 -101.5 2.5t-88.5 32t-62.5 69t-23.5 114.5zM465 483q-21 -37 -58.5 -56.5t-82 -33t-90.5 -26t-82 -33t-57.5 -55.5t-16.5 -93q4 -52 19 -87.5t40 -57t59.5 -31.5t76.5 -10q24 -1 49.5 5.5t48.5 18.5q45 23 70 66.5t25 93.5v279q-1 5 -1 10v10z" />
    <glyph glyph-name="e" unicode="e" horiz-adv-x="539" 
d="M17 214q-5 49 10 97t49 86t87.5 61.5t127.5 23.5q53 0 96 -15.5t73 -39.5t46.5 -53.5t16.5 -57.5q1 -20 -10.5 -34.5t-27.5 -24.5q-23 -14 -56.5 -24.5t-70.5 -21t-75 -21.5t-69 -26t-51.5 -35.5t-24.5 -48.5q34 -38 79.5 -55.5t93.5 -17.5q57 0 109 21t83 58l8 -6
q-20 -27 -53 -47q-28 -18 -71 -32.5t-103 -13.5q-62 0 -110 19.5t-82 51t-52.5 72t-22.5 84.5zM278 469q-42 0 -79.5 -18.5t-64.5 -50t-42 -73t-13 -87.5q3 -49 16.5 -86.5t35.5 -65.5q2 27 20 47.5t45.5 35.5t61 26.5t67 22.5t62.5 22t47 25q17 13 23.5 33.5t1.5 40.5
q-16 60 -61.5 94t-119.5 34z" />
    <glyph glyph-name="f" unicode="f" horiz-adv-x="327" 
d="M50 487q-17 39 -19.5 76t10 66.5t39.5 47.5t69 18q23 0 50.5 -3.5t52 -11.5t42.5 -21.5t23 -32.5h-67q-2 16 -13 29q-9 11 -28 20.5t-51 10.5q-30 0 -50 -14.5t-29.5 -39t-8 -56t15.5 -64.5q6 -14 11.5 -26t10.5 -23h91v-11h-86q7 -15 13.5 -31t10.5 -35.5t6.5 -44
t2.5 -56.5v-215q2 -20 12.5 -36.5t27.5 -27.5v-6h-142v6q19 11 29.5 28t11.5 39v231q0 30 -1 52t-3.5 38.5t-6 30t-9.5 27.5h-38v11h34q-2 5 -5 11t-6 13z" />
    <glyph glyph-name="g" unicode="g" horiz-adv-x="559" 
d="M58 -119q0 -32 22.5 -54t56.5 -35.5t72.5 -19.5t70.5 -6q30 0 69.5 4t75 15.5t60 31.5t24.5 52q0 39 -33.5 57.5t-83.5 26.5t-109 10.5t-109 9.5t-83.5 22.5t-33.5 50.5q0 9 1.5 17t6 18t13.5 23t24 33q-38 26 -62 62.5t-24 81.5q0 44 22 80.5t58 62.5t83.5 40.5
t98.5 14.5q21 0 42.5 -2.5t42.5 -8.5q2 2 2 3q22 26 63 45.5t103 15.5v-64q-42 26 -74 29q-28 3 -47.5 -6t-30.5 -23l-3 -4q40 -13 71 -33t52.5 -44.5t32.5 -51.5t11 -54q0 -45 -22.5 -81.5t-59.5 -62.5t-84.5 -40.5t-97.5 -14.5q-44 0 -87 12.5t-80 35.5l-7 -10
q-8 -10 -15 -21q-6 -9 -11 -20.5t-5 -21.5q-1 -25 20.5 -38.5t57 -20.5t81 -9t93 -4t93.5 -6t81.5 -15t57.5 -30.5t22 -52.5q0 -35 -29 -59t-74.5 -39.5t-101 -22.5t-107.5 -7q-17 0 -44 2t-57.5 7t-62 14t-56.5 23t-40.5 34t-15.5 48h66zM130 153q30 -27 69 -40t80 -13
q28 0 54.5 5.5t50.5 15.5q36 15 59.5 42t34.5 59.5t8.5 68t-19.5 69.5q-36 70 -98 95zM188 444q-36 -15 -62 -42.5t-39.5 -61t-12.5 -70t19 -70.5q13 -23 28 -38q32 42 88.5 112.5t146.5 184.5q-29 9 -60 9q-53 0 -108 -24z" />
    <glyph glyph-name="h" unicode="h" horiz-adv-x="542" 
d="M27 6q18 11 29 27.5t12 36.5v559q-3 42 -41 64v6q26 5 51.5 14.5t50.5 22.5v-546q13 72 33.5 125t45.5 88.5t53 54t55 21.5q24 3 54 -3t57 -22t47.5 -42.5t27.5 -65.5q4 -21 1 -46q-4 -44 -8 -86q-4 -37 -8 -78t-7 -74q0 -40 35 -56v-6h-142v6q17 10 30 24.5t16 32.5
q2 26 5.5 58t6.5 64q5 46 8 83t4 46q2 30 -6.5 57.5t-24 48t-37.5 32.5t-47 12q-28 0 -58 -17.5t-57 -58t-49 -106t-35 -161.5v-53q2 -19 12.5 -35.5t27.5 -26.5v-6h-142v6v0z" />
    <glyph glyph-name="i" unicode="i" horiz-adv-x="197" 
d="M27 468h143v-6q-17 -8 -28.5 -25.5t-11.5 -39.5v-329q5 -41 40 -62l-1 -6h-142l1 6q17 10 28.5 26.5t11.5 36.5v329q-1 20 -12 36.5t-29 27.5v6zM101 558q-17 0 -29.5 11t-12.5 26q0 14 12.5 25.5t29.5 11.5t29.5 -11.5t12.5 -25.5q0 -15 -12.5 -26t-29.5 -11z" />
    <glyph glyph-name="j" unicode="j" horiz-adv-x="198" 
d="M-11 -152q3 -2 7 -3q6 -3 19 -3q20 0 31 19.5t16 45.5t6 52t1 39v402q-3 40 -40 62v6h142v-6q-35 -22 -40 -63v-401q0 -56 -10.5 -89.5t-27 -51t-37 -22.5t-40.5 -4q-7 0 -12 1.5t-10 3.5l-10 4zM98 558q-17 0 -29.5 11t-12.5 26q0 14 12.5 25.5t29.5 11.5t29.5 -11.5
t12.5 -25.5q0 -15 -12.5 -26t-29.5 -11z" />
    <glyph glyph-name="k" unicode="k" horiz-adv-x="586" 
d="M68 630q-2 20 -13 36t-28 27v6q26 5 51.5 14.5t50.5 22.5v-641l228 297q13 17 12 38t-28 38v6h142v-6q-30 -8 -55.5 -22.5t-45.5 -40.5q-23 -29 -48.5 -64t-50.5 -68q38 6 63.5 -7t49 -41t49 -68.5t62.5 -89.5q0 -1 0.5 -1.5t0.5 -1.5q16 -18 33.5 -33t34.5 -25v-6h-161
v6q19 9 23.5 29t-9.5 40l-60 86q-7 12 -16.5 24t-20 22t-22 16.5t-22.5 7.5q-20 2 -35 -6t-28 -25q-28 -36 -52 -68t-44 -56v-7q0 -14 10.5 -33t29.5 -30v-6h-142v6q17 11 28 27t13 36v561v0z" />
    <glyph glyph-name="l" unicode="l" horiz-adv-x="196" 
d="M27 6q17 11 28 26t13 35v562q-3 40 -41 64v6q26 5 51.5 14.5t50.5 22.5v-667q0 -14 10.5 -33t29.5 -30v-6h-142v6z" />
    <glyph glyph-name="m" unicode="m" horiz-adv-x="899" 
d="M27 0v6q18 11 29 27.5t12 36.5v334q-3 40 -41 64v6q26 5 51.5 14.5t50.5 22.5v-315q13 72 33.5 125t45.5 88.5t53 54t55 21.5q24 3 54 -3t57 -22t47.5 -42.5t27.5 -65.5q4 -21 1 -46q0 -6 -1 -14q-1 -13 -3 -35q29 113 77 168t96 60q25 3 54.5 -3t56.5 -22t47.5 -42.5
t27.5 -65.5q4 -21 1 -46q-4 -45 -8 -89q-4 -38 -8 -80t-7 -75q0 -40 36 -56v-6h-143v6q17 10 30 24.5t16 32.5q3 32 7 73.5t7.5 79.5t6.5 67t3 37q2 25 -3.5 47.5t-16.5 41.5t-26.5 33t-33.5 21q-17 6 -35 6q-28 0 -57.5 -17.5t-56.5 -57t-49 -104.5t-35 -159q-2 -17 -3 -36
t-3 -33q0 -40 35 -56v-6h-142v6q17 10 30 24.5t16 32.5q3 32 7 73.5t7.5 79.5t6.5 67t3 37q2 30 -6.5 57.5t-24 48t-37.5 32.5t-47 12q-28 0 -58 -17.5t-57 -58t-49 -106t-35 -161.5v-59q2 -19 12.5 -35.5t27.5 -26.5v-6h-142z" />
    <glyph glyph-name="n" unicode="n" horiz-adv-x="542" 
d="M27 474q26 5 51.5 14.5t50.5 22.5v-315q13 72 33.5 125t45.5 88.5t53 54t55 21.5q24 3 54 -3t57 -22t47.5 -42.5t27.5 -65.5q4 -21 1 -46l-12 -122t-11 -122q0 -40 35 -56v-6h-142v6q17 10 30 24.5t16 32.5q3 32 7 73.5t7.5 79.5t6.5 67t3 37q2 30 -6.5 57.5t-24 48
t-37.5 32.5t-47 12q-28 0 -58 -19.5t-57 -61.5t-49 -109t-35 -163v-49q2 -19 12.5 -35.5t27.5 -26.5v-6h-142v6q18 11 29 27.5t12 36.5v334q-3 40 -41 64v6z" />
    <glyph glyph-name="o" unicode="o" 
d="M292 -13q-56 0 -106.5 19t-88.5 52.5t-60 78.5t-22 96t20.5 96t56.5 78t85 52.5t105 19.5q57 0 107.5 -19.5t88.5 -52.5t60 -78t22 -96t-20.5 -96t-56.5 -78.5t-85 -52.5t-106 -19zM196 429q-42 -22 -73 -56t-47 -75t-15 -87.5t22 -92.5q23 -53 73.5 -81.5t109.5 -28.5
q56 0 110 27q43 22 74 56t47 75.5t16 87.5t-20 93q-23 53 -73 81.5t-110 28.5q-59 0 -114 -28z" />
    <glyph glyph-name="p" unicode="p" horiz-adv-x="596" 
d="M27 -241q19 11 30 29.5t11 40.5v573q-3 43 -40 66v6q26 5 51.5 14.5t50.5 22.5v-133q26 46 70 75t104 34q52 4 103.5 -3.5t91.5 -32t63 -69t18 -114.5q-4 -60 -35.5 -95.5t-77.5 -57.5t-99.5 -34.5t-101.5 -26.5q-30 -8 -55.5 -18.5t-44 -26t-29 -37t-8.5 -51.5v-93
q1 -21 11.5 -39.5t28.5 -29.5v-6h-142v6zM130 -16q21 36 57.5 56.5t79.5 35t87.5 27.5t80.5 34.5t59 56.5t24 94q0 49 -14.5 84.5t-41 58t-62.5 33t-78 10.5q-39 0 -73.5 -13.5t-61 -38t-42 -58.5t-15.5 -75v-305z" />
    <glyph glyph-name="q" unicode="q" horiz-adv-x="596" 
d="M16 267q-5 70 18 114.5t63 69t91.5 32t103.5 3.5q60 -5 104 -34t70 -75v133q25 -13 50.5 -22.5t51.5 -14.5v-6q-37 -23 -40 -66v-572q0 -22 11 -40.5t30 -29.5v-6h-142v6q18 11 28.5 29.5t11.5 39.5v93q1 30 -9 51.5t-28.5 37t-44 26t-55.5 18.5q-48 14 -101.5 26.5
t-99.5 34t-77.5 57t-35.5 95.5zM274 473q-42 0 -78 -10.5t-62.5 -33t-41 -58t-14.5 -84.5q0 -59 23.5 -94t59.5 -56.5t80.5 -34.5t87.5 -27t79.5 -34.5t57.5 -56.5v304q0 41 -15.5 75t-42 58.5t-61 38t-73.5 13.5z" />
    <glyph glyph-name="r" unicode="r" horiz-adv-x="433" 
d="M67 403q-1 20 -11.5 37.5t-28.5 28.5v6q26 5 51.5 14.5t50.5 22.5v-290q25 118 69.5 180t92.5 76q19 3 36 3q31 0 49.5 -10t29.5 -22q12 -14 17 -32h-70q-2 12 -7 22q-5 8 -14.5 15t-26.5 7q-10 0 -23 -3q-23 -10 -45.5 -31.5t-42.5 -57.5t-36.5 -87t-28.5 -120v-86
q0 -22 11 -40.5t29 -29.5v-6h-142v6q18 11 28.5 29.5t11.5 39.5v328v0z" />
    <glyph glyph-name="s" unicode="s" horiz-adv-x="444" 
d="M378 101q0 23 -26.5 40.5t-67 34t-87.5 32.5t-87.5 36.5t-67.5 47t-27 62.5q0 34 17 58.5t44.5 40t61.5 22.5t67 7q63 0 101.5 -11t59.5 -24q25 -15 35 -34h-70q-4 18 -20 31q-14 11 -41 20.5t-77 7.5q-22 0 -46.5 -6t-44.5 -18t-33.5 -29t-13.5 -40q0 -28 27.5 -49
t69.5 -39t90 -34.5t90 -36t69.5 -43.5t27.5 -57q0 -44 -22.5 -70t-55.5 -40t-71.5 -18.5t-70.5 -4.5q-58 0 -95 12t-59 26q-26 17 -39 38h70q4 -19 20 -34q14 -13 40.5 -23.5t74.5 -9.5q30 0 58 6.5t50 19.5t35.5 32.5t13.5 46.5z" />
    <glyph glyph-name="t" unicode="t" horiz-adv-x="226" 
d="M27 458v11h126q-29 5 -51.5 20t-38 33.5t-23.5 36t-9 28.5h70l0.5 -18.5t10 -40.5t32 -40.5t66.5 -18.5h6v-11h-88v-380q0 -44 12.5 -57.5t29.5 -13.5q11 0 19 3l8 4l5 -7q-2 -3 -16 -6.5t-34 -3.5q-14 0 -29 3t-27.5 11t-20.5 22t-8 36v389h-40z" />
    <glyph glyph-name="u" unicode="u" horiz-adv-x="542" 
d="M130 475q-4 -37 -9 -89t-10 -101t-8.5 -86.5t-3.5 -44.5q-2 -31 6.5 -58t24.5 -47.5t37.5 -32.5t46.5 -12q28 0 58 18.5t57 60t49 108t35 162.5v53q-5 41 -40 63v6h102v-405q1 -21 12 -37t28 -27v-6h-102v284q-12 -72 -32.5 -126t-46 -91t-53.5 -56.5t-55 -22.5
q-24 -3 -54 3.5t-57 22.5t-47.5 42.5t-27.5 64.5q-2 12 -2.5 23.5t1.5 23.5q0 6 1 13q1 6 1.5 15t2.5 20q1 8 1.5 15.5t1.5 16.5q4 37 8 83.5t8 80.5q0 41 -36 57v6h103z" />
    <glyph glyph-name="v" unicode="v" horiz-adv-x="451" 
d="M152 474v-6q-19 -9 -26 -27t-1 -38q12 -26 26.5 -59.5t29.5 -69t30 -70.5t28 -64q8 -20 15.5 -36.5l12.5 -27.5q6 -14 11 -24q15 35 31 74q14 33 31 73.5t35 82.5q19 42 21.5 67.5t-2.5 40.5q-5 17 -19 25l40 58q13 -7 20 -21q5 -12 5 -34t-16 -57q-4 -8 -8 -19
q-4 -9 -9.5 -21.5t-12.5 -27.5q-13 -29 -29 -66t-33 -77t-34 -79t-31 -71h-28q-5 10 -16 36t-26 61.5t-33 76.5t-36 82.5t-34.5 80t-29.5 68.5q-19 41 -54 63v6h142z" />
    <glyph glyph-name="w" unicode="w" horiz-adv-x="764" 
d="M152 474v-6q-19 -8 -26 -26t0 -39q12 -28 28 -64t32.5 -74t32 -74.5t28.5 -64.5q7 -16 12 -29t10 -22q13 -23 27.5 -33t28.5 -10q16 0 26.5 10t12.5 24q2 24 -7.5 54.5t-22.5 61.5t-26.5 60t-19.5 50q-3 12 -1.5 27.5t8.5 30t20 27t34 18.5q12 4 34 4q21 0 42.5 -7.5
t32.5 -27.5q20 -47 43.5 -100.5t43.5 -101.5q24 -55 47 -110q17 40 35 83q16 36 35 80.5t38 87.5q14 35 13.5 56t-5.5 34q-6 14 -19 22l38 59q14 -7 21 -23q6 -14 5 -38t-19 -62q-5 -11 -9.5 -21.5t-9.5 -21.5q-20 -45 -41 -94.5t-39.5 -93t-32.5 -76t-19 -44.5h-29
q-4 10 -14 33t-23 53t-27.5 64t-28 65.5t-25 58.5t-18.5 42q-8 19 -21 29t-27 14q-19 5 -36.5 0t-24.5 -13q-14 -14 -11 -37.5t14 -51.5t26 -59t25.5 -62t13 -60t-12.5 -52q-8 -12 -23.5 -20.5t-35.5 -8.5q-23 0 -49 16.5t-47 60.5q-15 35 -34.5 79.5t-39.5 91t-39 90
t-33 75.5q-9 20 -22.5 35t-30.5 25v6h142z" />
    <glyph glyph-name="x" unicode="x" horiz-adv-x="601" 
d="M152 474v-6q-15 -5 -10 -19.5t17 -30t25.5 -28.5t16.5 -15l38 -38t33 -34q17 -18 32 -34q5 5 16 18.5t26 28.5q31 29 42 50.5t12 36.5q1 18 -8 30l9 6q6 4 14 10t16 11q9 6 19 12q10 -11 10 -27q0 -14 -9 -34t-36 -46l-34 -34t-30.5 -31.5t-23.5 -25t-13 -14.5
q37 -36 75 -72q32 -31 68.5 -66t66.5 -64q17 -16 35 -30t32 -22v-6h-142v6q9 4 10.5 12t-3 17t-12 18.5t-16.5 18.5q-26 24 -53.5 50.5t-50.5 49.5q-27 26 -53 51q-6 -5 -27 -26t-50 -49q-25 -26 -33 -46t-8 -34q0 -16 9 -27l-57 -40q-10 11 -11 27q-1 14 7 34t36 47
q21 20 41 40l37 37l29 29l17 17q-29 30 -59 60q-26 26 -56 55.5t-56 55.5q-19 19 -41 36.5t-39 28.5v6h142z" />
    <glyph glyph-name="y" unicode="y" horiz-adv-x="447" 
d="M152 474v-6q-22 -11 -21 -31t11 -43q20 -44 44.5 -100t46.5 -107q26 -59 52 -119l103 243q11 30 9.5 49.5t-6.5 31.5q-6 13 -18 21l37 60q13 -6 20 -20q6 -12 6 -34.5t-14 -57.5q-17 -39 -37.5 -87.5t-41.5 -99t-42 -99.5t-38 -89q-11 -26 -20.5 -47.5t-16.5 -36.5
q-8 -18 -14 -32q-18 -42 -33.5 -65.5t-30.5 -34.5t-29.5 -13.5t-30.5 -3.5q2 4 5 14.5t7 21.5q4 13 10 29q12 -5 26 -1q12 3 26.5 13t30.5 36q14 24 28.5 56.5t32.5 75.5q-1 4 -4 10q-2 5 -5.5 12t-7.5 16q-14 30 -34.5 77.5t-43 99.5t-45 102.5t-38.5 87.5
q-5 10 -12.5 20.5t-16.5 19.5t-19 15.5t-18 9.5v6h142z" />
    <glyph glyph-name="z" unicode="z" horiz-adv-x="465" 
d="M10 24q56 68 110 134q23 28 47.5 58.5t49.5 60t48 57.5t43 51q14 17 26.5 31.5t20.5 25.5q10 12 18 21h-33q-34 0 -75 -1.5t-81.5 -7t-77.5 -17t-64 -32.5l-27 69h421v-24q-59 -72 -114 -140q-24 -29 -49.5 -60.5t-50.5 -61.5t-48.5 -58t-42.5 -51q-14 -16 -24 -28
t-18 -21q-9 -11 -16 -19v-1h55q34 1 75 2.5t82 7t78 17t64 32.5q8 -18 14 -33q5 -13 9 -24t4 -12h-444v24v0z" />
    <glyph glyph-name="uni00A0" unicode="&#xa0;" horiz-adv-x="366" 
 />
    <glyph glyph-name="uni00AD" unicode="&#xad;" horiz-adv-x="0" 
 />
    <glyph glyph-name="uniF202" unicode="&#xf202;" 
d="M202 699q42 0 83.5 -7t74 -24t52.5 -44.5t20 -68.5q0 -34 -13 -56.5t-33 -37.5t-45 -23.5t-50 -14.5q72 -5 122 -27t82 -52t47 -63.5t17 -62.5q3 -45 -10 -79.5t-37 -60t-57.5 -42.5t-72.5 -26q-29 -8 -60 -11t-63 -3q-39 0 -79 12.5t-72 36t-52 57.5t-20 78
q0 40 13.5 70.5t36 52t52.5 34t62 17.5q43 6 85.5 0t74.5 -23v-73q-10 26 -29 45q-20 20 -49.5 31.5t-67.5 7.5q-19 -2 -39.5 -15t-37.5 -34.5t-28 -52t-11 -67.5t12 -67t33 -51.5t48.5 -34t58.5 -13.5q58 -3 103.5 13t77 45t47 69t12.5 84q-3 46 -24.5 80.5t-53.5 58.5
t-72.5 38.5t-80.5 20.5q-42 -9 -78 -22t-51 -45q-22 -9 -39.5 -21t-31.5 -23q-16 -13 -28 -26v10q20 25 28 51t8 48v236q-1 21 -11.5 39.5t-28.5 29.5v6h175zM129 364q15 25 40.5 37t54.5 20q30 7 56.5 15.5t46.5 22.5t31.5 36.5t11.5 59.5q0 39 -14.5 64.5t-38.5 41
t-54 21.5t-61 6h-73v-324z" />
    <glyph glyph-name="uniF203" unicode="&#xf203;" horiz-adv-x="748" 
d="M588 -278q-56 0 -120 9t-127.5 31t-122.5 60t-104.5 96t-72.5 139t-27 189q0 104 34 189t93.5 145.5t139 93.5t169.5 33q80 0 130.5 -13.5t80.5 -30.5q34 -19 53 -44h-70q-16 22 -46 40q-26 15 -69 26t-109 9q-62 -2 -121 -34.5t-105 -90t-74 -138t-28 -178.5
q0 -121 40.5 -215.5t104.5 -160.5t144 -102t158 -40q119 -8 217.5 6t187 39.5t171.5 57t170.5 59t185.5 46.5t217 19q115 0 221 -17t212 -61l-2 -82q-19 22 -48.5 43.5t-61.5 39.5t-63.5 30.5t-55.5 16.5q-80 12 -149 12q-92 0 -174.5 -16.5t-164 -41t-167.5 -53.5
t-183.5 -53.5t-211.5 -41t-252 -16.5z" />
    <glyph glyph-name="uniF204" unicode="&#xf204;" horiz-adv-x="725" 
d="M275 0q-50 0 -95 17t-79 45.5t-54 66.5t-20 79q0 43 14.5 78.5t40.5 61.5t60.5 42.5t75.5 21.5q40 4 77.5 -3t66.5 -22v-72q-14 35 -43.5 57.5t-67.5 25.5q-24 2 -53.5 -9.5t-55 -36.5t-42.5 -63t-17 -89q0 -42 14 -76.5t37.5 -59t55 -38.5t67.5 -15q81 -4 151.5 22.5
t122.5 73.5t82.5 110.5t31.5 132.5q1 76 -23 138.5t-71.5 106.5t-118.5 68.5t-165 24.5h-76v-182q1 -22 11.5 -41t29.5 -30v-6q-31 0 -56.5 -7.5t-44.5 -15.5q-22 -10 -41 -22v6q18 12 29 42.5t11 74.5v114q0 32 -21 56q-9 8 -19 16v6h189q115 0 196.5 -26.5t133.5 -73.5
t76.5 -110.5t24.5 -138.5q0 -89 -38.5 -154.5t-100.5 -109t-140 -65t-156 -21.5z" />
    <glyph glyph-name="uniF205" unicode="&#xf205;" 
d="M27 6q19 11 29.5 30t10.5 41v544q0 22 -10.5 41.5t-29.5 30.5v6h517q-5 -12 -9 -24q-4 -11 -8.5 -23.5t-9.5 -23.5q-32 26 -77.5 38t-95.5 17q-34 3 -66 3.5t-61 1.5h-88v-329l309 60q-5 -13 -9.5 -25.5t-9.5 -25.5q-14 11 -29 17q-24 10 -48 4l-213 -41v-301
q43 -8 82 -29.5t77.5 -49t77.5 -57.5t81.5 -53t90 -36t103.5 -8q60 6 122 29t126 48.5t129.5 45.5t132.5 20q66 0 133.5 -26.5t136.5 -94.5l-30 -62q-18 34 -38.5 64t-44.5 52t-52.5 34.5t-63.5 12.5q-9 0 -18 -1t-19 -3q-81 -15 -142.5 -38.5t-118 -46.5t-114 -39.5
t-130.5 -16.5q-70 0 -127.5 17t-107 41.5t-95 53t-91 51.5t-95 36.5t-107.5 8.5v6v0z" />
    <glyph glyph-name="uniF206" unicode="&#xf206;" horiz-adv-x="493" 
d="M-88 748q47 -23 96.5 -38.5t103.5 -15.5q39 0 85 11q61 16 121.5 45.5t122.5 59t127 51.5t135 22q61 0 125.5 -21t136.5 -73l-21 -67q-21 29 -46.5 55t-54 45t-59.5 30t-64 11q-31 0 -60 -10q-77 -27 -134.5 -52.5t-108 -48t-99 -40t-108.5 -27.5q-15 -2 -28.5 -3
t-27.5 -1v-322q49 10 97 19q41 8 86 16t78 15q18 4 30.5 6t17.5 4q-3 -8 -6 -16.5t-6 -16.5q-4 -9 -7 -18q-17 13 -34 19t-37 3q-35 -7 -73.5 -14t-70.5 -13q-38 -7 -75 -15v-271q0 -22 11 -41t29 -31v-6h-142v6q19 12 30 31t11 41v606q-51 6 -96 20.5t-88 34.5z" />
    <glyph glyph-name="uniF207" unicode="&#xf207;" horiz-adv-x="799" 
d="M405 -14q-89 0 -158 26t-118 69t-77 99t-35.5 117t6.5 122.5t49.5 114.5t93 94.5t137.5 61.5q35 10 71 13.5t72 3.5q79 0 130.5 -13.5t80.5 -30.5q34 -19 52 -44h-68q-16 22 -46 40q-26 15 -69.5 26t-111.5 9q-17 0 -34.5 -2.5t-34.5 -7.5q-53 -14 -102.5 -45t-87 -75
t-59 -99t-19.5 -116q3 -70 23.5 -133t62 -110.5t106 -75.5t154.5 -28q40 0 83 14.5t78 37.5t59 51.5t27 55.5v161q-33 -7 -74.5 -15t-78.5 -15q-35 -10 -57 -48q-7 7 -13 14q-6 6 -12.5 13t-11.5 13q7 1 32.5 6.5t59 12t71 14t69.5 13.5t53.5 10.5t23.5 4.5v-94
q0 -121 25.5 -216.5t80.5 -162t142 -102t209 -35.5q83 0 156 16.5t142 42t136.5 54.5t140.5 54.5t154 42t177 16.5q100 0 189 -17.5t179 -61.5l-1 -81q-17 22 -39.5 41.5t-47.5 34.5t-49.5 25.5t-44.5 14.5q-68 13 -136 13q-79 0 -153 -15.5t-147 -38t-147.5 -49.5
t-156.5 -50.5t-173 -39t-196 -16.5q-43 0 -93 2.5t-101.5 14.5t-100.5 36.5t-89.5 68.5t-70 111.5t-40.5 165.5q-21 -24 -49 -47.5t-62 -43t-74.5 -31.5t-86.5 -12z" />
    <glyph glyph-name="uniF208" unicode="&#xf208;" horiz-adv-x="912" 
d="M9 490q1 48 12 90.5t33 75t56 51.5t82 19q41 0 63 -12t33 -26q12 -17 15 -37v-305q6 -27 21.5 -44t38 -26.5t50.5 -13t60 -3.5q51 0 103.5 5t97.5 5q39 0 67.5 -7.5t41.5 -27.5v387q0 22 -10.5 41t-29.5 31v6h142v-6q-18 -11 -28.5 -30t-11.5 -40v-373
q0 -125 23.5 -221.5t77.5 -162t140.5 -99.5t212.5 -34q83 0 156 16.5t142 42t136.5 54.5t140.5 54.5t154 42t177 16.5q100 0 189.5 -18t179.5 -61l-1 -81q-17 22 -39.5 41.5t-47.5 35t-49.5 26t-44.5 14.5q-35 7 -68.5 9.5t-66.5 2.5q-80 0 -155 -15.5t-149.5 -38
t-151 -49.5t-159.5 -50.5t-175 -39t-198 -16.5q-43 0 -94 6.5t-103 23.5t-101.5 47t-89.5 78t-66.5 116t-31.5 161v46q-1 22 -13 34.5t-29.5 18.5t-37.5 7.5t-36 1.5q-45 0 -96.5 -5t-101.5 -5q-57 0 -102.5 13.5t-63.5 54.5v-240q0 -22 10.5 -41t29.5 -30v-6h-142v6
q19 11 29.5 30t10.5 41v573q-1 18 -8 32q-6 12 -18.5 22.5t-35.5 10.5q-34 0 -55.5 -16.5t-33.5 -46t-17 -71t-5 -91.5h-59v0z" />
    <glyph glyph-name="uniF209" unicode="&#xf209;" horiz-adv-x="196" 
d="M27 0v6q39 24 41 70v545q0 22 -11 41.5t-30 30.5v6h142v-6q-18 -11 -28.5 -30t-11.5 -40v-546q0 -22 11 -41t29 -30v-6h-142z" />
    <glyph glyph-name="uniF210" unicode="&#xf210;" horiz-adv-x="195" 
d="M-189 -66q58 -19 96 -23q48 -5 78.5 6.5t48.5 35t25 57.5t7 75v536q0 23 -10.5 42t-29.5 30v6h142v-6q-19 -12 -29.5 -31t-10.5 -42v-499q0 -51 -18.5 -96.5t-55.5 -80.5t-92.5 -55.5t-128.5 -20.5z" />
    <glyph glyph-name="uniF211" unicode="&#xf211;" horiz-adv-x="668" 
d="M27 699h142v-6q-18 -11 -28.5 -30t-11.5 -40v-521l330 518q11 17 6.5 37t-21.5 31q-2 2 -4 2.5t-4 2.5v6h142v-6q-30 -8 -53.5 -22.5t-42.5 -40.5q-27 -42 -66.5 -103.5t-82.5 -128.5q57 12 101 -32.5t91 -131.5q70 -137 125 -229.5t106.5 -149.5t105.5 -83.5t124 -30.5
q105 -8 192.5 5.5t165.5 37.5t151.5 54.5t151.5 57.5t164.5 45.5t191.5 18.5t199.5 -18t189.5 -62l-1 -81q-17 22 -41 41.5t-50 35t-51.5 26t-46.5 14.5q-37 7 -72 9.5t-69 2.5q-84 0 -162.5 -15t-156 -38t-157.5 -49.5t-167 -49.5t-183 -38t-206 -15q-75 0 -131.5 7.5
t-101 25.5t-79.5 47t-66.5 71t-63 99.5t-68.5 131.5q-11 20 -22.5 43l-21.5 43q-11 23 -23 44q-30 60 -58 86t-57 26q-11 0 -22.5 -4t-22.5 -11q-30 -47 -57.5 -90t-49.5 -77.5t-37 -57.5t-19 -29v-1q0 -22 11 -41t29 -30v-6h-142v6q39 24 41 70v545q0 22 -11 41t-30 31v6z
" />
    <glyph glyph-name="uniF212" unicode="&#xf212;" horiz-adv-x="288" 
d="M27 6q39 24 41 70v545q0 22 -11 41.5t-30 30.5v6h142v-6q-18 -11 -28.5 -30t-11.5 -40v-592q63 -2 122 -25t122 -56q57 -29 120 -62t143 -60q29 -10 60 -10q33 0 64 11t59.5 30t54 44.5t46.5 54.5l21 -66q-62 -48 -119 -67t-112 -19q-69 0 -134 24t-129.5 55t-130 61.5
t-135.5 44.5q-39 8 -79 7.5t-75 0.5v7z" />
    <glyph glyph-name="uniF213" unicode="&#xf213;" horiz-adv-x="1318" 
d="M435 -383q-91 0 -170.5 26.5t-138.5 74.5t-93 113.5t-34 143.5q0 69 26.5 132.5t75 112.5t117.5 80t154 36q22 2 44.5 1t45.5 -3v365h31q52 -93 103 -185q22 -39 45.5 -82t47.5 -85.5t47.5 -83.5t43.5 -77q37 -62 78 -91t74 -29q38 0 56 38t-4 112q-10 31 -28.5 70
t-36.5 82t-32 87.5t-14.5 85.5t16 76.5t59.5 60.5q32 15 83 20.5t103 5.5q34 0 63.5 -1.5t51.5 -3.5v-622q0 -22 10.5 -41t29.5 -30v-6h-142v6q18 11 29 29.5t11 40.5v613q-16 2 -37 3t-44 1q-42 0 -84.5 -5.5t-69.5 -21.5q-41 -24 -56 -60t-12 -78.5t19 -88t36 -90
t39.5 -84.5t28.5 -71q9 -32 8.5 -58t-9 -46.5t-23.5 -34.5t-35 -20q-18 -5 -34 -5q-36 0 -66 15t-55 39t-44.5 53.5t-35.5 57.5q-11 19 -33.5 39t-54 37t-70 30t-80.5 18v-242q0 -26 16 -45.5t45 -25.5v-6h-142v6q28 6 48 23.5t20 46.5v244q-28 2 -57 1t-58 -8
q-61 -14 -113 -45.5t-89.5 -77t-57.5 -103t-18 -123.5q1 -72 30.5 -132t76.5 -104t107 -70t122 -29q121 -6 221 16t189.5 59t174 81.5t176 83.5t194.5 65.5t229 26.5q104 0 197.5 -18.5t189.5 -57.5l-2 -81q-21 24 -48 43.5t-55.5 34.5t-56.5 24.5t-52 13.5q-62 9 -119 9
q-99 0 -191.5 -23t-183.5 -58t-184 -75t-194 -75t-213 -58t-242 -23zM475 333q57 -8 111 -27.5t96 -54.5q-32 56 -65.5 116t-63 112.5t-51 90t-27.5 48.5v-285z" />
    <glyph glyph-name="uniF214" unicode="&#xf214;" horiz-adv-x="976" 
d="M4 -29q0 64 23 123.5t65.5 107t103 80.5t135.5 45v372h33l528 -646v570q-1 26 -21 45t-47 25v6h142v-6q-29 -6 -44 -24.5t-17 -43.5v-625h-33l-169 207q-19 20 -47.5 40t-64 35.5t-76.5 25t-86 9.5q-19 0 -38 -1.5t-39 -6.5q-2 0 -8 -2v-230q0 -26 16 -45.5t45 -25.5v-6
h-142v6q25 5 46.5 24t21.5 47v227q-57 -16 -105 -48.5t-82.5 -77t-53 -100t-16.5 -118.5q1 -72 30.5 -132t76.5 -104t107 -70t122 -29q121 -6 221 16t189.5 59t174 81.5t176 83.5t194.5 65.5t229 26.5q104 0 197.5 -18.5t189.5 -57.5l-2 -81q-21 24 -48 44t-55.5 35
t-56.5 24.5t-52 13.5q-62 9 -119 9q-99 0 -191.5 -23t-183.5 -58t-184 -75.5t-194 -75.5t-213 -58t-242 -23q-91 0 -170.5 26.5t-138.5 74.5t-93 113.5t-34 143.5zM377 332q72 5 146 -12t134 -57l-313 382v-316z" />
    <glyph glyph-name="uniF215" unicode="&#xf215;" horiz-adv-x="853" 
d="M424 -14q-86 0 -161 28.5t-130.5 78t-88 115.5t-32.5 141t32.5 141t88 115.5t130.5 78t161 28.5q85 0 160 -28.5t130.5 -78t88 -115.5t32.5 -141t-32.5 -141t-88 -115.5t-130.5 -78t-160 -28.5zM91 438q-21 -65 -17 -132.5t31 -125.5t75.5 -101.5t116.5 -61.5
q46 -12 96 -12q58 0 115 17t105.5 50t86 80.5t57.5 109.5q21 65 17 131.5t-31 124.5t-75.5 101t-117.5 61q-48 12 -97 12q-58 0 -114.5 -17t-105 -49t-85.5 -79.5t-57 -108.5z" />
    <glyph glyph-name="uniF216" unicode="&#xf216;" horiz-adv-x="529" 
d="M68 623q-1 22 -12 40.5t-29 29.5v6h177q59 0 113.5 -7.5t96.5 -27.5t67 -54t25 -88q0 -46 -15 -75t-40 -46t-57 -24.5t-66 -11t-67.5 -6t-61.5 -8.5q-29 -8 -48.5 -31t-21.5 -52q-2 -155 32.5 -255t90.5 -159t125.5 -85t137.5 -32q37 -3 71 -3q83 0 156 16.5t142 42
t136.5 54.5t140.5 54.5t154 42t177 16.5q100 0 189 -17.5t179 -61.5l-1 -81q-17 22 -39.5 41.5t-47.5 35t-49.5 26t-44.5 14.5q-35 7 -68.5 9.5t-66.5 2.5q-80 0 -155 -15.5t-149.5 -38t-151 -49.5t-159.5 -50.5t-175 -39t-197 -16.5q-45 0 -99 6.5t-108.5 24.5t-105 50.5
t-89.5 85.5t-62.5 129t-23.5 181v426zM129 688v-383q16 35 45.5 49t65 19t72.5 8t67.5 15.5t50 40.5t19.5 85q0 51 -21.5 83t-57 50.5t-82 25.5t-96.5 7h-63z" />
    <glyph glyph-name="uniF217" unicode="&#xf217;" horiz-adv-x="858" 
d="M19 349q0 71 29 134t80 112t120 79.5t148 36.5q8 0 17 0.5t18 0.5q76 0 150 -26t132 -73.5t93.5 -114.5t35.5 -149q0 -69 -27.5 -130.5t-75.5 -109.5t-113.5 -79.5t-140.5 -40.5q47 -12 89 -29t87 -37t97 -42.5t119 -45.5q30 -10 61 -10q33 0 64 11t59.5 30t54 44.5
t46.5 54.5l20 -66q-59 -43 -123.5 -68.5t-138.5 -25.5q-70 0 -135 22t-127 51.5t-122.5 59t-121.5 45.5q-5 1 -10.5 2t-11.5 2q-23 5 -44 6q-60 3 -114 -12.5t-105 -41.5l-3 11q42 19 85 33t91 20q-62 18 -114 51.5t-89.5 78.5t-58.5 100t-21 116zM105 461
q-26 -63 -26.5 -130t22 -127t67.5 -107t112 -70q60 -21 124 -21q55 0 108.5 15t100 44.5t84 73t60.5 99.5q25 63 26 130t-21.5 126.5t-68 106t-112.5 69.5q-30 11 -61 15.5t-63 4.5q-55 0 -108.5 -14.5t-100 -43.5t-84 -72t-59.5 -99z" />
    <glyph glyph-name="uniF218" unicode="&#xf218;" horiz-adv-x="586" 
d="M27 6q19 11 29.5 30t11.5 40v547q-2 46 -41 70v6h161q96 2 160 -15t102 -45.5t54 -66t16 -76.5q0 -18 -4.5 -41.5t-18 -47.5t-38.5 -46.5t-66 -38.5q30 -42 61 -102.5t68 -134.5q52 -104 96 -169.5t88.5 -104t92.5 -54.5t108 -19q106 -8 193.5 5.5t165.5 38.5t151.5 56.5
t152 59t165.5 46t192 18.5q104 0 197.5 -18t188.5 -62l-2 -81q-17 22 -41 42.5t-50 37.5t-51.5 28.5t-46.5 15.5q-39 7 -76.5 10t-74.5 3q-72 0 -139.5 -11t-135 -28.5t-135 -39.5t-139.5 -44t-149 -42.5t-163 -34.5q-38 -6 -78 -9.5t-83 -3.5q-74 0 -130 7t-100 24t-79 45
t-66 69.5t-62.5 98t-67.5 130.5q-9 16 -21 39.5t-23 45t-19 37l-8 15.5q-8 15 -19.5 34.5t-26 36.5t-32.5 28.5t-38 11.5q-31 0 -62.5 -27.5t-65.5 -73.5v-169q1 -22 11.5 -41t28.5 -30v-6h-142v6zM129 262q19 27 36.5 51t34 42.5t32.5 30.5t32 14q32 4 60 -11.5t54 -47.5
q26 16 42.5 35.5t26 40t13 41t3.5 38.5q0 51 -21 87.5t-58.5 60t-89.5 34t-114 10.5h-51v-426z" />
    <glyph glyph-name="uniF219" unicode="&#xf219;" horiz-adv-x="624" 
d="M-284 -47q15 2 30 3t30 1q62 0 118 -13.5t106.5 -29.5t96.5 -29.5t88 -13.5q26 0 53 8.5t50 24t39.5 37.5t20.5 50q-17 -2 -34.5 -3t-34.5 -1q-53 0 -98 9q-62 12 -93 31.5t-43 37.5q-15 21 -12 45q4 19 17 33t30.5 23t37.5 13.5t38 4.5q36 0 70.5 -13.5t63 -36.5
t48.5 -54t27 -66q1 -2 1 -3.5t1 -3.5q38 8 70.5 23t56.5 36t37.5 48t13.5 59q0 37 -37 64t-92.5 50t-121 45t-123 48.5t-98.5 60.5t-47 81q-7 50 13.5 86t59 59t90 34t107.5 11q25 0 49.5 -2t48.5 -6q60 -11 90.5 -28.5t43.5 -35.5q15 -21 13 -44l-14 2q-6 1 -13.5 1.5
t-14.5 2.5q-11 1 -19 3q-4 1 -8 1q3 17 -6 34q-8 14 -28.5 28.5t-63.5 23.5q-42 9 -83 9q-46 0 -86 -10.5t-70 -29t-47.5 -45t-17.5 -59.5q0 -44 39.5 -75t99 -56.5t128.5 -48.5t128.5 -50t99 -62t39.5 -84q0 -42 -19.5 -74.5t-52 -55.5t-75.5 -37t-89 -21q3 -43 -18 -80.5
t-59 -55.5q-21 -10 -42 -14t-42 -4q-37 0 -74.5 10.5t-74 24t-71.5 27.5t-68 22q-11 2 -23 3.5t-26 1.5q-44 0 -87.5 -13t-66.5 -36v74zM102 97q-4 -18 4 -35q7 -14 27 -29.5t64 -25.5q21 -5 42.5 -6.5t43.5 -1.5q17 0 33.5 1t32.5 4q0 25 -10 49t-27 44t-39 34t-46 19
q-17 3 -36 2t-36.5 -7.5t-32 -18.5t-20.5 -29z" />
    <glyph glyph-name="uniF220" unicode="&#xf220;" horiz-adv-x="195" 
d="M-371 775q47 -23 96.5 -38.5t103.5 -15.5q39 0 85 11q61 16 121.5 44t122.5 56t127 48.5t135 20.5q74 0 138 -26t124 -68l-21 -67q-21 29 -46.5 55t-54 45t-59.5 30t-64 11q-31 0 -60 -10q-81 -28 -139.5 -54t-109.5 -49v-691q0 -22 10.5 -41t29.5 -30v-6h-143v6
q19 11 29.5 30t11.5 41v665q-32 -12 -66 -17.5t-74 -12.5q-20 -2 -38.5 -3.5t-36.5 -0.5q-64 1 -119 17t-106 40z" />
    <glyph glyph-name="uniF221" unicode="&#xf221;" horiz-adv-x="771" 
d="M9 -26q0 82 36.5 154t102.5 123v371q0 22 -11 41t-29 30v6h142v-6q-18 -11 -28.5 -30t-11.5 -41v-333q74 38 172 46q40 3 83 -1t84 -15t79 -29t69 -45v276q-2 45 -14 67t-25 31q-16 11 -34 10v70q23 -1 41 -17q16 -14 29.5 -44.5t15.5 -89.5v-335q-2 -29 -13 -68.5
t-40.5 -74.5t-82 -59.5t-138.5 -24.5q-80 0 -132.5 19t-84.5 48t-47 64.5t-20 67.5q-37 -45 -56 -101.5t-17 -120.5q1 -72 30.5 -132t76.5 -104.5t107 -70t122 -28.5q91 -5 169.5 6.5t149 34t136 53t130 63t131 64t139.5 56t154 40t176 15.5q103 0 196.5 -18.5t189.5 -57.5
l-2 -82q-21 24 -48 44t-55.5 35t-56.5 24.5t-52 13.5q-62 9 -119 9q-99 0 -191.5 -23t-183.5 -58t-184 -75t-194 -75t-213 -58t-242 -23q-91 0 -170.5 26.5t-138.5 74.5t-93 113.5t-34 143.5zM210 230q0 -112 63.5 -172t183.5 -58q45 0 88 13.5t76 41t53.5 70t22.5 101.5
q-20 18 -48 35t-61.5 30t-72.5 21t-79 8q-61 0 -119.5 -19.5t-106.5 -57.5v-13z" />
    <glyph glyph-name="uniF222" unicode="&#xf222;" horiz-adv-x="917" 
d="M440 -387q-91 0 -170.5 26.5t-138.5 74.5t-93 113.5t-34 143.5q0 69 26.5 132.5t75 112.5t117.5 80t154 36q38 3 77 0q-27 60 -53 118t-49 108q-9 21 -17.5 39.5t-15.5 34.5q-9 20 -19.5 35t-27.5 26v6h142v-6q-20 -10 -27 -29.5t3 -41.5t24.5 -55.5t32.5 -73.5t37.5 -84
t39.5 -88q55 -12 104.5 -36.5t84.5 -62.5q30 68 64.5 146t65.5 148q15 37 15 60.5t-6 37.5q-7 16 -22 24q6 10 12 21q5 8 10 17.5t9 15.5q2 4 3 5t1 2q18 -7 27 -24q8 -14 7 -41.5t-22 -72.5q-6 -14 -12.5 -29t-14.5 -32q-32 -72 -67 -152.5t-67 -152.5q-19 -42 -34.5 -77.5
t-27.5 -61.5q-14 -31 -25 -56h-27q-21 45 -44 97q-20 45 -45.5 101.5t-52.5 118.5q-26 2 -53 0t-55 -8q-61 -13 -113 -44.5t-89.5 -77.5t-57.5 -103.5t-18 -123.5q1 -72 30.5 -132t76.5 -104t107 -70t122 -29q121 -6 220.5 16t189 59t174.5 81.5t176 83.5t194 65.5t229 26.5
q104 0 198 -18.5t190 -57.5l-2 -81q-21 24 -48 44t-55.5 35t-56.5 24.5t-52 13.5q-62 9 -119 9q-99 0 -191.5 -23t-183.5 -58t-184 -75.5t-194 -75.5t-213 -58t-242 -23zM707 207q-23 29 -69.5 56.5t-106.5 42.5q22 -50 42.5 -94t35.5 -79q18 -40 33 -75q7 18 18 42
q8 20 20.5 47.5t26.5 59.5z" />
    <glyph glyph-name="uniF223" unicode="&#xf223;" horiz-adv-x="1084" 
d="M14 699h142v-6q-20 -10 -26.5 -29t2.5 -41q46 -104 91.5 -207.5t91.5 -208.5q9 -20 23.5 -50.5t34 -59t43.5 -48.5t51 -20q23 0 37 20.5t7 62.5q-9 57 -28.5 109.5t-31.5 108.5q-4 19 -7.5 43.5t-3 49t7 47t22.5 36.5q29 26 68 26q26 0 50.5 -15.5t40.5 -53.5
q26 -59 53.5 -121t51.5 -116.5t42.5 -96t26.5 -59.5q1 -3 2 -4.5t2 -3.5t1 -3q34 76 68 154q15 33 31 70t33 75t33.5 76t32.5 74q12 27 16 47t2.5 34.5t-6.5 24t-10 15.5q-6 6 -8 7l-4 2q3 6 7 13q3 6 7 12.5t8 13.5q2 5 4.5 9t4.5 7q2 4 4 7q18 -5 28 -23q4 -8 6 -18.5
t1 -25t-6.5 -33t-16.5 -42.5q-17 -38 -37 -82.5t-40.5 -91l-41 -93t-39.5 -89.5q-44 -100 -89 -202h-27q-43 95 -73 163.5t-51 115t-33 74t-18.5 42.5t-9 19.5t-2.5 5.5q-15 40 -35.5 58.5t-40.5 18.5q-23 0 -37 -23q-16 -28 -15.5 -64.5t9.5 -77t23 -82.5t25.5 -80.5
t16.5 -71t-3 -53.5t-29.5 -32t-49.5 -11q-36 0 -62.5 13.5t-47 35t-35.5 49t-28 56.5l-208 465q-10 21 -22 41t-29 31v6z" />
    <glyph glyph-name="uniF224" unicode="&#xf224;" horiz-adv-x="832" 
d="M19 699h142v-6q-10 -5 -10.5 -13t4.5 -17.5t13.5 -19.5t17.5 -19l222 -222q19 19 42 41q20 19 44.5 43t51.5 50q33 34 40 59t4 40q-3 9 -6 16q-2 3 -4 5l55 43q14 -12 17 -30q2 -15 -6 -37.5t-39 -54.5q-33 -32 -67 -65t-61 -59q-33 -31 -62 -60l287 -287q10 -9 23 -22.5
t28 -27.5t29.5 -27t27.5 -21q2 -2 3 -2v-6h-142v6q9 4 10.5 11.5t-2.5 16.5t-12 18.5t-16 18.5q-36 35 -80 79t-85.5 85t-73 72.5l-41.5 41.5q-59 -15 -109 -54t-86 -92.5t-56 -117t-18 -127.5q2 -72 31.5 -132t76.5 -104t106.5 -70t121.5 -29q91 -5 169.5 7t149 34.5
t136 52.5t130.5 62.5t131.5 64t139 56t153.5 40t176 15.5q104 0 197.5 -18.5t189.5 -57.5l-2 -81q-21 24 -48 43.5t-55.5 34.5t-56.5 24.5t-52 13.5q-59 10 -120 10q-94 0 -181 -20.5t-172.5 -52.5t-172.5 -70t-180 -72t-195 -60.5t-218 -34.5q-42 -3 -88 -3
q-91 0 -170.5 26.5t-138.5 74.5t-93 113.5t-34 143.5q0 64 23 128.5t65.5 118t103.5 92t136 52.5l-19.5 19.5t-38 37.5t-50 49.5t-56 55.5t-56 55t-49.5 50q-19 19 -38.5 37.5t-36.5 28.5v6z" />
    <glyph glyph-name="uniF225" unicode="&#xf225;" horiz-adv-x="570" 
d="M17 699h142v-6q-23 -11 -22.5 -34.5t13.5 -43.5l194 -298q32 50 64.5 99.5t64.5 99.5q24 35 29.5 60t1.5 41q-4 18 -17 29l45 54q16 -8 22 -25q5 -14 1.5 -38t-27.5 -61q-4 -7 -17 -26.5t-30.5 -46.5t-37.5 -57.5t-38.5 -58.5t-32.5 -50t-20 -31v-82q3 -118 30 -209
t82.5 -153t140.5 -94t203 -32q83 0 156 16.5t141.5 41.5t136 53.5t140.5 53.5t153.5 41.5t176.5 16.5q99 0 190.5 -17.5t180.5 -62.5l-2 -81q-16 22 -38.5 41.5t-47.5 35t-49.5 26t-44.5 14.5q-36 7 -70.5 10t-67.5 3q-80 0 -154.5 -15t-149 -37.5t-151 -49t-159 -49
t-174.5 -38t-197 -16.5q-46 0 -98.5 4t-105 19t-101.5 44.5t-88.5 82.5t-64.5 132t-30 192v93q-9 13 -27 41.5t-41.5 65t-49 75.5t-48.5 74.5t-40 62t-24 36.5q-10 15 -20.5 28t-22.5 20v6z" />
    <glyph glyph-name="uniF226" unicode="&#xf226;" horiz-adv-x="653" 
d="M122 -7q-28 8 -53.5 9.5t-51.5 -0.5v22q52 63 108 130q48 57 107 127.5t118 140.5q45 53 84.5 101t70.5 85q36 43 67 80h-214q-34 0 -75 -1.5t-81.5 -7t-77.5 -17t-64 -32.5q-8 18 -14 33q-5 13 -9.5 23.5t-3.5 12.5h601v-24q-120 -143 -225 -269q-45 -54 -90.5 -108.5
t-86.5 -104t-74.5 -89.5t-53.5 -64q8 -1 15 -2t15 -3q60 -13 109 -37t99 -53t107.5 -59.5t135.5 -57.5q29 -10 60 -10q33 0 64 11t59.5 30t54 44.5t46.5 54.5l21 -66q-69 -50 -131.5 -70.5t-121.5 -20.5q-72 0 -138.5 24t-129.5 56t-124 64t-123 48z" />
    <glyph glyph-name="uniF301" unicode="&#xf301;" horiz-adv-x="486" 
d="M19 102q0 26 25.5 44.5t63.5 34.5t82 31.5t82 36t63 49t24 69.5q-6 50 -29.5 77t-83.5 26q-33 -1 -51.5 -10t-27.5 -20q-11 -13 -13 -30h-67l4 9.5t17 21t38.5 22.5t67.5 15q9 1 19.5 1.5t21.5 0.5q48 0 80 -11t50.5 -34t26 -57.5t7.5 -80.5v-331q0 -30 2 -61t11 -56
t26.5 -42.5t47.5 -20.5q58 -7 106.5 9.5t99.5 45t112 62.5t145 63q72 24 137 24q70 0 132.5 -26t122.5 -75l-25 -65q-40 63 -88 103t-113 40q-24 0 -49 -6q-66 -15 -120 -36t-101.5 -43.5t-91 -43.5t-87 -36t-89 -22t-98.5 -1q-72 8 -104.5 53.5t-32.5 131.5v87
q-8 -5 -25.5 -16t-42 -21.5t-54.5 -18.5t-61 -8q-32 0 -61 6.5t-51 20.5t-35 36t-13 52zM362 321q-14 -31 -41 -52t-58.5 -37t-64.5 -28t-59.5 -25.5t-42.5 -29.5t-14 -40q2 -28 12 -47.5t25.5 -31.5t35 -17t41.5 -5t46 5t46 13t41 18.5t33 21.5v255z" />
    <glyph glyph-name="uniF302" unicode="&#xf302;" horiz-adv-x="604" 
d="M-847 663q40 -63 87.5 -103t112.5 -40q23 0 50 6q58 13 106 32.5t89.5 40.5t79.5 41.5t76 37t78.5 26.5t88.5 10q46 0 83 -7t64 -25.5t42.5 -52t17.5 -86.5q-1 -23 8.5 -45t27.5 -37q28 -24 69.5 -37t87 -23.5t91.5 -22.5t82.5 -32.5t59.5 -53.5t23 -86
q0 -70 -23.5 -114.5t-62.5 -69t-88.5 -32t-101.5 -3.5q-38 3 -66.5 15t-49.5 28.5t-35.5 34t-22.5 32.5v-53q-4 -19 -20 -31.5t-36 -12.5h-46v6q38 24 40 67v450q0 30 -1.5 59.5t-9 53.5t-24.5 39.5t-47 17.5h-7q-43 1 -78.5 -5.5t-68.5 -19t-65.5 -29.5t-69.5 -36t-81 -39
t-99 -39q-74 -25 -140 -25q-68 0 -127.5 25t-118.5 73zM127 185q0 -41 15.5 -74.5t42 -58.5t61.5 -38.5t74 -13.5q42 1 76 11t59 31.5t40.5 57t19.5 86.5q4 58 -17 93t-57 56t-82 33t-90.5 25.5t-82.5 33.5t-59 57v-299z" />
    <glyph glyph-name="uniF303" unicode="&#xf303;" horiz-adv-x="527" 
d="M22 201q0 67 24 119t64.5 87.5t94 54t113.5 18.5q54 0 89.5 -11t55.5 -24q24 -16 37 -35h-66q-7 16 -24 28q-14 11 -41 20t-72 9q-43 0 -81 -14.5t-66 -46t-44.5 -80t-16.5 -117.5q0 -102 29.5 -179.5t70.5 -129.5t86 -80t75 -31q44 -5 89.5 7.5t92.5 34.5t96 49
t100.5 50.5t105.5 39.5t111 16q61 0 125.5 -23t133.5 -80l-24 -65q-40 63 -88 103t-113 40q-24 0 -49 -6q-66 -15 -120 -35.5t-101.5 -41.5t-91 -41t-87 -34.5t-89.5 -20.5t-99 0q-23 3 -56 13t-68.5 30.5t-70.5 52.5t-62.5 77.5t-45 106.5t-17.5 139z" />
    <glyph glyph-name="uniF304" unicode="&#xf304;" horiz-adv-x="595" 
d="M-446 654q20 -31 41.5 -57.5t45.5 -45.5t51 -30t59 -11q26 0 53 7q86 24 154.5 56.5t130 62.5t121.5 50.5t130 20.5q47 0 82 -8t58 -28t34.5 -54t12.5 -85l1 -2v-457q2 -43 40 -67v-6h-47q-19 0 -35.5 12.5t-19.5 31.5v53q-8 -15 -22.5 -32.5t-35.5 -34t-50 -28.5
t-66 -15q-53 -4 -102.5 3t-88.5 31.5t-62.5 69t-23.5 115.5q0 53 23 86t59.5 53.5t82.5 32.5t92 22.5t87.5 23.5t69.5 37q18 16 28 38.5t8 46.5q-2 48 -10 81.5t-34 50.5q-12 7 -31 10q-49 5 -98 -7t-99 -34t-100 -49t-102 -50.5t-106 -39.5t-110 -16q-58 0 -119 21.5
t-127 75.5zM466 484q-21 -36 -59 -56.5t-82.5 -34t-90.5 -25.5t-82 -33t-57.5 -56t-16.5 -93q4 -51 19 -86.5t40 -57.5t59.5 -32t76.5 -10q39 0 74 13.5t61.5 38.5t42 58.5t15.5 74.5v299z" />
    <glyph glyph-name="uniF305" unicode="&#xf305;" horiz-adv-x="552" 
d="M20 229q-2 47 14.5 92.5t50.5 81.5t86.5 58t123.5 22q53 0 96 -15.5t73 -39.5t46.5 -53.5t16.5 -57.5q1 -20 -10.5 -34.5t-27.5 -24.5q-22 -14 -56.5 -25t-73.5 -22t-78.5 -24t-73 -29.5t-57 -39t-29.5 -53.5q28 -63 60.5 -108.5t70.5 -76t80.5 -48t89.5 -23.5
q44 -6 87 5t86 31t87 45.5t90 47.5t95 37t102 15q59 0 122 -23t134 -81l-25 -65q-40 63 -87.5 102.5t-112.5 39.5q-23 0 -50 -6q-65 -15 -115.5 -34t-92 -38.5t-78 -37.5t-74 -31t-79.5 -18.5t-95 0.5q-29 3 -68.5 14.5t-83 33.5t-86.5 56t-77.5 81t-56.5 108t-24 138z
M282 470q-42 0 -79.5 -18.5t-64.5 -50t-42 -73t-13 -87.5q0 -45 9 -86t23 -77q4 28 24.5 49t50.5 37.5t65.5 29.5t70 25t64.5 23.5t48 25.5q17 13 23.5 33.5t1.5 40.5q-16 60 -61.5 94t-119.5 34z" />
    <glyph glyph-name="uniF306" unicode="&#xf306;" horiz-adv-x="221" 
d="M50 487q-17 37 -20 73.5t8.5 66t38 49t69.5 22.5q72 6 133.5 -13.5t124.5 -49.5t134.5 -63t165.5 -55q25 -6 49 -6q65 0 113 40t88 103l25 -65q-55 -45 -114 -71t-131 -26q-32 0 -67.5 5.5t-73.5 19.5q-66 22 -132 50.5t-126.5 54t-112 42.5t-87.5 17q-53 0 -66 -44
q-6 -23 -1 -58.5t18 -65.5q6 -14 11.5 -26t10.5 -23h91v-11h-86q7 -15 13.5 -31t10.5 -35.5t6.5 -44t2.5 -56.5v-215q2 -20 12.5 -37t27.5 -28v-6h-142v6q40 25 41 68v231q0 30 -1 51.5t-3.5 38t-6 30.5t-9.5 28h-38v11h34q-2 5 -5 11z" />
    <glyph glyph-name="uniF307" unicode="&#xf307;" horiz-adv-x="573" 
d="M-551 -108q55 45 114 71t131 26q32 0 67.5 -5.5t73.5 -19.5q89 -30 156 -62.5t120 -60.5t96.5 -47.5t86.5 -24.5q9 -1 18 -1.5t18 0.5q30 2 63 8.5t60 18t44.5 30t17.5 44.5q0 30 -20.5 48t-54.5 28.5t-76.5 15t-86 8t-84.5 8t-71.5 14.5t-46.5 27.5t-9 46.5
q3 12 12 27.5t30 44.5q-38 26 -61.5 62.5t-23.5 81.5q0 44 22 80.5t58 62.5t83.5 40.5t98.5 14.5q21 0 42.5 -2.5t42.5 -8.5q2 0 2 2q11 13 27 25t36.5 21t46 13.5t56.5 2.5v-65q-22 14 -40 21t-34 9q-28 3 -47.5 -6.5t-30.5 -23.5l-3 -3q40 -13 71 -33t52.5 -45t32.5 -52
t11 -53q0 -45 -22.5 -81.5t-59.5 -63t-84.5 -41t-97.5 -14.5q-91 0 -167 49l-7 -10l-5 -6.5t-10.5 -15.5t-10.5 -20t-5 -21q0 -23 22 -36t57.5 -20t81 -9.5t92.5 -5.5t92.5 -8t81 -16t57 -30t21.5 -51q0 -33 -27.5 -58.5t-70 -41.5t-95.5 -23.5t-104 -4.5q-73 4 -136 29.5
t-127.5 58.5t-137 67.5t-164.5 55.5q-26 6 -49 6q-65 0 -113 -40t-88 -103zM137 152q30 -27 68.5 -39.5t79.5 -12.5q58 0 106 21q36 15 59.5 41.5t34.5 59t8.5 68.5t-19.5 70q-18 35 -43 58.5t-55 35.5zM195 444q-36 -15 -62 -42.5t-39.5 -61t-12.5 -70t19 -70.5
q13 -23 28 -38q32 42 88.5 112.5t146.5 184.5q-29 9 -59 9q-52 0 -109 -24z" />
    <glyph glyph-name="uniF308" unicode="&#xf308;" horiz-adv-x="557" 
d="M27 0v6q18 11 29 27.5t12 37.5v559q-3 40 -41 64v6q26 5 51.5 14.5t50.5 22.5v-546q13 72 33.5 125t45.5 88.5t53 54t55 21.5q35 4 70.5 -7t63 -34t42.5 -58t11 -80q-3 -33 -7 -67q-3 -29 -6 -65t-6 -68q-2 -22 -4.5 -52.5t-3 -63.5t2.5 -65.5t12 -58.5t25 -43t42 -18
q66 -3 116 12t100.5 40t109.5 56t143 60q74 25 140 25q68 0 127.5 -25t118.5 -73l-25 -65q-40 63 -88 103t-113 40q-24 0 -49 -6q-59 -13 -107 -32.5t-89.5 -40.5t-79 -41.5t-75.5 -37t-78.5 -26.5t-88.5 -10q-32 0 -69 6q-50 8 -79.5 27.5t-43 54t-14.5 85t5 120.5
q2 17 6 54t7.5 76t7 71.5t3.5 41.5q4 49 -19 88t-59 54q-19 8 -37 8q-28 0 -58 -17.5t-57 -58t-49 -106t-35 -161.5v-53q5 -41 40 -63v-6h-142z" />
    <glyph glyph-name="uniF309" unicode="&#xf309;" horiz-adv-x="195" 
d="M169 476v-6q-17 -11 -28 -27t-13 -37v-343q0 -30 1.5 -73t9.5 -83t25 -69.5t47 -33.5q49 -7 97 6t102.5 37.5t120 55t149.5 59.5q76 26 141 26q67 0 126.5 -25t117.5 -73q-2 -6 -4 -11t-4 -10.5t-4 -11.5l-12 -32q-20 31 -42 57.5t-46.5 45.5t-52 29.5t-60.5 10.5
q-24 0 -49 -6q-89 -20 -155.5 -50.5t-124.5 -58.5t-115.5 -48t-129.5 -20q-15 0 -30.5 1t-32.5 3q-40 5 -66 25.5t-41.5 55t-22 83t-6.5 110.5v342q0 23 -11.5 40t-28.5 25v6h142zM95 568q-17 0 -29.5 11t-12.5 26q0 14 12.5 25.5t29.5 11.5t29.5 -11.5t12.5 -25.5
q0 -15 -12.5 -26t-29.5 -11z" />
    <glyph glyph-name="uniF310" unicode="&#xf310;" horiz-adv-x="193" 
d="M-872 -110q59 48 118.5 73t126.5 25q33 0 68 -6.5t73 -19.5q56 -19 100 -38.5t81.5 -38t70.5 -34.5t66.5 -27t70 -16.5t80.5 -3.5q30 1 47 16.5t24.5 39.5t9 54t1.5 60v432q-1 21 -12 37t-29 27v6h142v-6q-17 -8 -28 -25t-11 -40v-431q0 -57 -11.5 -93.5t-36 -58
t-62 -29.5t-89.5 -8q-72 0 -129.5 20t-116 48t-124.5 58.5t-155 50.5q-26 6 -49 6q-65 0 -113 -40.5t-88 -102.5l-12 32q-3 6 -5 11.5t-4 10.5t-4 11zM56 605q0 14 12.5 25.5t29.5 11.5t29.5 -11.5t12.5 -25.5q0 -15 -12.5 -26t-29.5 -11t-29.5 11t-12.5 26z" />
    <glyph glyph-name="uniF311" unicode="&#xf311;" horiz-adv-x="557" 
d="M27 6q17 11 28 27.5t13 36.5v561q-2 20 -13 36t-28 27v6q26 5 51.5 14.5t50.5 22.5v-642l226 297q13 17 12 38.5t-28 38.5v6h142v-6q-30 -9 -55.5 -23t-45.5 -40q-23 -29 -47.5 -64.5t-49.5 -67.5q30 4 52 -3t40.5 -24t36.5 -42.5t40 -58.5q22 -32 46 -69.5t49.5 -75
t52 -74t53.5 -67.5q29 -32 54.5 -49t63.5 -17q17 0 38 3t47 11q35 9 73.5 28t81.5 41t91 45.5t102 41.5q38 13 73 19.5t68 6.5q67 0 126.5 -25t118.5 -73l-25 -65q-40 63 -88 103t-113 40q-24 0 -49 -6q-90 -21 -160.5 -55t-132 -66t-120.5 -53t-125 -15q-38 3 -69.5 15.5
t-60.5 36.5q-36 30 -74 71t-74 87t-69.5 91.5t-60.5 84.5q-7 12 -16.5 24.5t-20 22.5t-22 16.5t-22.5 7.5q-20 1 -34.5 -6.5t-27.5 -23.5q0 -1 -1 -2q-28 -35 -52 -67t-44 -57v-6q0 -15 10.5 -33.5t29.5 -30.5v-6h-142v6v0z" />
    <glyph glyph-name="uniF312" unicode="&#xf312;" horiz-adv-x="196" 
d="M-845 657q17 -27 37.5 -53t45 -46t53.5 -32t64 -12q23 0 50 6q23 5 45 11.5t42 13.5q65 23 117.5 51.5t101 53t99 41.5t112.5 17q32 0 70 -6q76 -12 105.5 -53t31.5 -120v-460q0 -14 10.5 -32.5t29.5 -30.5v-6h-143v6q38 24 41 63v474q0 27 -3 52.5t-11.5 45t-24.5 32
t-43 14.5q-44 2 -80.5 -4t-70 -18.5t-66.5 -29.5t-70.5 -36t-81.5 -39.5t-100 -39.5q-38 -13 -73 -19.5t-68 -6.5q-67 0 -126.5 25t-118.5 73z" />
    <glyph glyph-name="uniF313" unicode="&#xf313;" horiz-adv-x="920" 
d="M27 6q18 11 29 27.5t12 37.5v334q-3 40 -41 64v6q26 5 51.5 14.5t50.5 22.5v-315q13 72 33.5 125t45.5 88.5t53 54t55 21.5q24 3 54 -3t57 -22t47.5 -42.5t27.5 -65.5q4 -21 1 -46q0 -6 -1 -14q-1 -13 -3 -35q29 113 77 168t96 60q25 3 54.5 -3t56.5 -22t47.5 -42.5
t27.5 -65.5q4 -21 1 -46q-3 -40 -7 -80q-3 -34 -7 -73.5t-7 -72.5q-3 -36 -5.5 -84t3.5 -92t24 -75t54 -33q66 -3 116 12t100.5 40t109.5 56t143 60q74 25 140 25q67 0 127 -24.5t118 -72.5l-24 -66q-40 63 -87.5 103t-112.5 40q-23 0 -50 -6q-59 -13 -107 -32.5
t-89.5 -40.5t-79 -41.5t-75.5 -37t-78.5 -26.5t-88.5 -10q-33 0 -70 6q-50 8 -78.5 27.5t-42.5 53.5t-15 83.5t5 118.5q3 32 7 73t8 79t6.5 67t2.5 37q2 25 -3.5 47.5t-16.5 41.5t-26.5 33t-33.5 21q-17 6 -35 6q-28 0 -57.5 -17.5t-56.5 -57t-49 -104.5t-35 -159
q-2 -17 -3 -36t-3 -33q0 -41 35 -57v-6h-142v6q17 11 30 25.5t16 32.5q3 32 7 73.5t7.5 79.5t6.5 67t3 37q2 30 -6.5 57.5t-24 48t-37.5 32.5t-47 12q-28 0 -58 -17.5t-57 -58t-49 -106t-35 -161.5v-59q5 -41 40 -63v-6h-142v6z" />
    <glyph glyph-name="uniF314" unicode="&#xf314;" horiz-adv-x="560" 
d="M27 0v6q18 11 29 27.5t12 37.5v332q-3 42 -41 64v6q26 5 51.5 15t50.5 22v-312q13 72 33.5 125t45.5 88.5t53 54t55 21.5q35 4 70.5 -7t63 -34t42.5 -58t11 -80q-3 -33 -7 -67q-3 -29 -6 -65t-6 -68q-2 -22 -4.5 -53t-3 -64.5t2.5 -67t12 -60.5t25 -44.5t42 -18.5
q66 -3 116 12t100.5 40t109.5 56t143 60q74 25 140 25q68 0 127.5 -25t118.5 -73l-25 -65q-40 63 -88 103t-113 40q-24 0 -49 -6q-59 -13 -107 -32.5t-89.5 -40.5t-79 -41.5t-75.5 -37t-78.5 -26.5t-88.5 -10q-32 0 -69 6q-50 8 -79.5 27.5t-43 54t-14.5 85t5 120.5
q2 17 6 55t7.5 78.5t7 74t3.5 42.5q4 49 -19 88t-59 54q-19 8 -37 8q-28 0 -58 -17.5t-57 -58t-49 -106t-35 -161.5v-60q5 -41 40 -63v-6h-142z" />
    <glyph glyph-name="uniF315" unicode="&#xf315;" horiz-adv-x="586" 
d="M296 -13q-56 0 -106.5 19.5t-88.5 53t-60 78.5t-22 96t20.5 96t56.5 78t85 52.5t105 19.5q57 0 107.5 -19.5t88.5 -52.5t60 -78t22 -96t-20.5 -96t-56.5 -78.5t-85 -53t-106 -19.5zM200 430q-42 -22 -73 -56t-47 -75t-15 -87.5t22 -92.5q23 -53 73.5 -81.5t109.5 -28.5
q56 0 110 27q43 22 74 56t47 75.5t16 87.5t-20 93q-23 53 -73 81t-110 28q-29 0 -57.5 -6.5t-56.5 -20.5z" />
    <glyph glyph-name="uniF316" unicode="&#xf316;" horiz-adv-x="601" 
d="M27 474q26 5 51.5 14.5t50.5 22.5v-133q26 47 70 75.5t104 33.5q52 4 103.5 -3t91.5 -31.5t63 -69t18 -114.5q-4 -60 -35.5 -96t-77.5 -58t-99.5 -35.5t-101.5 -26.5q-30 -9 -55 -19.5t-43 -26t-28 -36.5t-10 -51q0 -20 0.5 -45t2.5 -52t6.5 -53.5t13.5 -48.5
q9 -25 23.5 -41t35.5 -20q49 -7 97 6t103 37.5t120 55.5t149 60q74 25 141 25t126.5 -24.5t118.5 -72.5q-2 -6 -4 -11t-4.5 -10.5t-4.5 -11.5l-12 -32q-20 31 -42 57.5t-46.5 45.5t-52 29.5t-60.5 10.5q-24 0 -49 -6q-87 -20 -153 -51t-124.5 -60t-115 -49.5t-122.5 -20.5
q-37 0 -72 7q-40 7 -66.5 28t-42 55t-22 82t-6.5 109v483q-2 20 -12 37.5t-28 28.5v6zM321 474q-39 1 -73.5 -12.5t-61 -38t-42 -59t-15.5 -74.5v-307q21 37 57.5 57.5t79.5 34.5t87.5 27.5t80.5 35t59 56.5t24 94q0 50 -14.5 85t-41 57.5t-62.5 33t-78 10.5z" />
    <glyph glyph-name="uniF317" unicode="&#xf317;" horiz-adv-x="609" 
d="M28 267q-5 70 18 114.5t63 69t91.5 31.5t103.5 3q60 -5 104 -33.5t70 -75.5v133q25 -13 50.5 -22.5t51.5 -14.5v-6q-18 -11 -28 -28.5t-12 -37.5v-452v-42t1.5 -59.5t6.5 -65.5t15 -60q9 -25 23.5 -41t36.5 -20q49 -7 97 6t102.5 37.5t120 55.5t149.5 60q74 25 140 25
q67 0 127 -24.5t118 -72.5q-2 -6 -4 -11t-4 -10.5t-4 -11.5q-3 -6 -5 -11.5t-4 -10.5l-4 -10q-20 31 -41.5 57.5t-46 45.5t-52 29.5t-60.5 10.5q-24 0 -49 -6q-87 -20 -153.5 -51t-125 -60t-115 -49.5t-122.5 -20.5q-70 0 -111.5 20.5t-63 57.5t-27.5 89t-6 114v1
q1 30 -9 51t-28.5 36.5t-44 26t-55.5 19.5q-48 13 -101.5 26t-99.5 35t-77.5 57.5t-35.5 95.5zM286 472q-42 0 -78 -10.5t-62.5 -33t-41 -57.5t-14.5 -85q1 -58 24 -93.5t59 -57t80.5 -34t87.5 -27t79.5 -35t57.5 -56.5v305q0 40 -15.5 74.5t-42 59t-61 38t-73.5 12.5z" />
    <glyph glyph-name="uniF318" unicode="&#xf318;" horiz-adv-x="439" 
d="M-580 494q-90 0 -159.5 36t-130.5 108l36 59q17 -41 37.5 -74.5t46.5 -57.5t60 -36t78 -10q79 4 145 21.5t124 36.5t111.5 34t108.5 15q29 0 60 -5.5t64 -19.5q70 -29 100 -80t27 -132v-173q25 117 70 179.5t93 76.5q19 3 35 3q31 0 49.5 -10.5t29.5 -22.5q12 -14 17 -32
h-69l-1.5 7t-6.5 15.5t-14.5 15t-25.5 6.5q-11 0 -24 -3q-23 -9 -45 -30.5t-42.5 -57.5t-37 -87t-28.5 -120v-79q0 -22 11 -41t30 -30v-6h-143v6q18 11 29 30t12 40v260q0 34 -2 70t-7.5 68.5t-17 58t-30.5 40.5q-5 3 -10.5 6t-11.5 5q-25 8 -47.5 11t-44.5 3q-37 0 -71 -8
t-72 -20q-52 -17 -112.5 -37t-143.5 -33q-41 -6 -77 -6z" />
    <glyph glyph-name="uniF319" unicode="&#xf319;" horiz-adv-x="447" 
d="M-217 -81q20 4 45 4q45 0 85.5 -13.5t77.5 -29t70.5 -29t63.5 -13.5q23 0 43.5 10.5t36 27t25.5 38t12 43.5q-24 -3 -48 -3q-20 0 -38 1.5t-35 6.5q-45 12 -67.5 31.5t-31.5 37.5q-11 21 -9 45q5 33 31 54t58 21t58.5 -16.5t46 -41.5t32 -55t16.5 -58q1 -2 1 -6
q20 5 41.5 17.5t39.5 29.5t29.5 38t11.5 43q0 23 -26.5 40.5t-67 33t-87.5 32t-87.5 36.5t-67.5 46t-27 62q0 34 17 58.5t44.5 40t61.5 22.5t67 7q63 0 101 -11t59 -24q25 -16 35 -35h-69q-4 18 -20 31q-14 11 -41 20.5t-77 8.5q-22 0 -46.5 -6t-45 -18t-34 -29t-13.5 -40
q0 -28 28 -49t69.5 -38.5t90.5 -34t90.5 -35.5t69 -43t27.5 -57q2 -32 -13 -58.5t-40 -47t-56.5 -34.5t-62.5 -20q2 -44 -12.5 -81t-43.5 -55q-28 -18 -61 -18q-27 0 -54 10.5t-53.5 24t-52 27.5t-49.5 22q-18 5 -35 5q-32 0 -64 -13t-49 -36v73zM64 64q-3 -18 3 -35
q5 -14 19 -29.5t46 -25.5q33 -9 65 -9q12 0 23.5 1.5t22.5 3.5q0 21 -6 44t-17.5 44t-28 37t-37.5 22q-12 3 -26 2t-26.5 -7.5t-23 -18.5t-14.5 -29z" />
    <glyph glyph-name="uniF320" unicode="&#xf320;" horiz-adv-x="239" 
d="M153 469q-29 5 -51.5 20t-38 33.5t-23.5 36.5t-9 29h70l0.5 -18.5t10 -41t32 -41t66.5 -18.5h6v-10h-88v-361q0 -20 0.5 -49t2 -60t6 -62t13.5 -56.5t24 -42.5t37 -20q49 -7 97 6t102.5 37.5t120 55.5t149.5 60q74 25 140 25q67 0 127 -24.5t118 -72.5l-24 -66
q-40 63 -87.5 103t-112.5 40q-23 0 -50 -6q-87 -20 -153.5 -50.5t-125 -59.5t-115 -49.5t-122.5 -20.5q-37 0 -72 7q-46 8 -73 34.5t-41 64t-18 83t-4 92.5v392h-40v10h126z" />
    <glyph glyph-name="uniF321" unicode="&#xf321;" horiz-adv-x="542" 
d="M130 475q-3 -25 -6 -57t-6.5 -66t-6.5 -68t-5.5 -61.5t-4.5 -46.5t-2 -24q-2 -30 6.5 -57.5t24.5 -48t37.5 -32.5t46.5 -12q28 0 58 19t57 61t49 109t35 163v53q-2 19 -12.5 35.5t-27.5 26.5v6h102v-386q0 -33 1 -79t8.5 -89t24 -75.5t48.5 -36.5q49 -7 97.5 6t103 37.5
t119.5 55t149 59.5q38 13 73 19.5t68 6.5q67 0 126.5 -25t118.5 -73q-2 -6 -4 -11t-4.5 -10.5t-4.5 -11.5l-12 -32q-40 63 -87.5 103t-113.5 40q-24 0 -49 -6q-87 -20 -153 -50.5t-124.5 -59.5t-115 -49.5t-122.5 -20.5q-37 0 -72 7q-46 8 -73 34t-41.5 63.5t-18.5 83.5
t-4 93v217q-12 -72 -32.5 -126.5t-46 -91.5t-53.5 -57t-55 -23q-24 -3 -54 3t-57 22t-47.5 42.5t-27.5 65.5q-2 11 -2.5 23t1.5 23q0 6 1 14q1 7 1.5 15.5t2.5 19.5q1 7 1.5 15t1.5 16q2 18 4 40t4 44.5t4 44t4 38.5q0 40 -36 56v6h103z" />
    <glyph glyph-name="uniF322" unicode="&#xf322;" horiz-adv-x="470" 
d="M161 474v-6q-19 -9 -26 -27t-1 -38q12 -27 26.5 -60.5t29.5 -68.5t30 -69.5t28 -63.5q8 -20 15.5 -36.5l12.5 -27.5q6 -14 11 -24q15 34 31 73q14 32 31 73t35 82q19 42 21.5 68t-2.5 40q-5 17 -19 25l39 59l7.5 -4.5t13.5 -17t5.5 -34.5t-16.5 -57q-4 -7 -8 -18
q-4 -9 -9.5 -21.5t-12.5 -27.5q-13 -29 -29 -66t-33 -77t-34 -79t-31 -71h-28q-5 11 -16 37t-26 61t-33 76t-36 82.5t-34.5 80t-29.5 68.5q-19 41 -54 63v6h142z" />
    <glyph glyph-name="uniF323" unicode="&#xf323;" horiz-adv-x="778" 
d="M151 475v-6q-19 -9 -26 -27t0 -38q12 -28 28 -64t32.5 -74t32 -74.5t28.5 -65.5q7 -15 12 -28t10 -22q13 -23 28 -33t29 -10q15 0 25.5 9.5t12.5 23.5q2 24 -7.5 54.5t-22.5 62t-26.5 60.5t-19.5 50q-3 12 -1.5 27.5t8.5 30t20 27t34 18.5q12 4 34 4q21 0 42.5 -7.5
t32.5 -27.5q20 -47 43.5 -100.5t43.5 -101.5q24 -55 47 -110q17 40 35 83q16 36 35 80.5t38 87.5q14 34 13.5 55.5t-5.5 34.5q-6 15 -19 22l38 59q14 -7 21 -23q6 -14 5 -38t-19 -62q-5 -11 -9.5 -21.5t-9.5 -21.5q-20 -45 -41 -94.5t-39.5 -93t-32.5 -76.5t-19 -45h-29
q-4 10 -14 33t-23 53t-27.5 64.5t-28 66t-25 58t-18.5 41.5q-8 20 -21 30t-27 14q-19 5 -36.5 0t-24.5 -13q-14 -15 -11 -38t14 -51t26 -59t25.5 -62t13 -60t-12.5 -52q-8 -12 -23.5 -20.5t-35.5 -8.5q-23 0 -49 16.5t-47 60.5q-15 34 -34.5 79t-39.5 91t-39 89.5t-33 75.5
q-9 21 -22.5 36t-30.5 25v6h142z" />
    <glyph glyph-name="uniF324" unicode="&#xf324;" horiz-adv-x="617" 
d="M159 474v-6q-15 -5 -10 -19.5t17 -30t25.5 -28.5t16.5 -15q19 -19 38 -37.5t33 -33.5q17 -18 32 -34q5 5 16 18t26 28q31 29 42 50.5t12 36.5q1 18 -8 30l9 6q6 4 14 10t16 11q9 6 19 12q10 -11 10 -27q0 -14 -9 -34t-36 -46l-34 -34t-30.5 -31.5t-23.5 -25t-13 -13.5
q37 -36 75 -72q32 -31 68.5 -66t66.5 -64q17 -16 35 -30t32 -23v-6h-142v6q9 4 10.5 12t-3 17t-12 19t-16.5 19q-26 24 -53.5 50.5t-50.5 49.5q-27 26 -53 51q-6 -5 -27 -26.5t-50 -49.5q-25 -26 -33 -46t-8 -34q0 -16 9 -27l-57 -40q-10 11 -11 27q-1 14 7 34.5t36 47.5
q21 20 41 40l37 37l29 29l17 17l-59 59q-26 26 -56 55.5t-56 55.5q-19 18 -41 36t-39 29v6h142z" />
    <glyph glyph-name="uniF325" unicode="&#xf325;" horiz-adv-x="471" 
d="M159 475v-6q-22 -11 -21 -31t11 -43q20 -44 44.5 -100t46.5 -107q26 -59 52 -119l103 243q11 30 9.5 49.5t-6.5 31.5q-6 13 -18 21l37 60q13 -7 20 -21q6 -12 6 -34.5t-14 -57.5q-17 -39 -37.5 -87.5t-41.5 -98.5t-42 -99t-38 -89q-11 -26 -20.5 -47.5t-16.5 -36.5
q-8 -18 -14 -32q-18 -42 -33.5 -65.5t-30.5 -34.5t-29.5 -13.5t-30.5 -3.5q2 4 5 14.5t7 21.5q4 13 10 29q12 -5 26 -1q12 3 26.5 13t30.5 36q14 24 28.5 56.5t32.5 75.5q-1 4 -4 10q-2 5 -5.5 12t-7.5 16q-14 30 -34.5 77.5t-43 99.5t-45 102.5t-38.5 87.5
q-5 10 -12.5 20.5t-16.5 19.5t-19 15.5t-18 9.5v6h142z" />
    <glyph glyph-name="uniF326" unicode="&#xf326;" horiz-adv-x="460" 
d="M-482 539q70 84 144 117t147 33q59 0 115.5 -16.5t106.5 -39t92.5 -47t73.5 -39.5q32 -16 65 -31t64.5 -26t60.5 -17.5t55 -4.5v-25l-362 -432h66q34 1 73.5 2.5t78.5 7.5t74.5 17t61.5 31q-3 -18 -6 -33q-2 -13 -4.5 -23.5t-2.5 -12.5h-404v25q85 101 157 186
q31 36 61.5 73t57.5 69t47.5 56.5t30.5 36.5q2 2 3.5 4t2.5 4t2 2q-44 1 -89.5 16.5t-93 37.5t-97.5 48t-103 48t-108.5 38t-113.5 18q-72 2 -117 -32t-76 -93q-8 -14 -14 -28t-12 -30z" />
    <glyph glyph-name="exclam" unicode="!" horiz-adv-x="135" 
d="M92 681l-18 -560h-12l-18 560h48zM68 1q-17 0 -29 11t-12 26q0 14 12 24t29 11t28.5 -9.5t11.5 -24.5q0 -16 -11.5 -27t-28.5 -11z" />
    <glyph glyph-name="quotedbl" unicode="&#x22;" horiz-adv-x="170" 
d="M71 698l-18 -150h-9l-17 150h44zM100 698h43l-18 -150h-7z" />
    <glyph glyph-name="numbersign" unicode="#" horiz-adv-x="787" 
d="M32 216h190l80 205h-185l4 10h185l81 205h12l-81 -205h235l81 205h13l-81 -205h194l-4 -10h-194l-81 -205h189l-4 -10h-188l-81 -206h-14l81 206h-233l-81 -206h-13l81 206h-191zM234 216h235l80 205h-234z" />
    <glyph glyph-name="dollar" unicode="$" horiz-adv-x="607" 
d="M289 24q-78 0 -128 15.5t-80 34.5q-35 22 -54 50h65q7 -25 31 -44q20 -17 60 -31t109 -14v319q-42 15 -83 31t-74 34.5t-55 41t-26 50.5q-7 43 11 75.5t51.5 54t79 32.5t93.5 11h3v41h15v-41q78 -2 124 -16.5t72 -31.5q29 -20 41 -45h-69q-5 21 -24 39q-17 15 -50.5 28
t-93.5 15v-283q49 -18 97.5 -36t87.5 -40t63.5 -49.5t24.5 -64.5q0 -50 -28 -83.5t-69 -53.5t-89 -29t-87 -10v-40h-15v40h-3zM526 193q0 28 -18.5 50t-49 40.5t-70 34.5t-81.5 31v-314q43 1 82.5 12.5t70 32t48.5 49.5t18 64zM278 673q-31 0 -63.5 -9t-59 -25.5t-43.5 -41
t-17 -55.5q0 -26 16 -47t43.5 -38.5t63 -32.5t74.5 -29v278h-14z" />
    <glyph glyph-name="percent" unicode="%" horiz-adv-x="608" 
d="M299 196q0 26 10.5 49.5t29.5 41t44 27.5t54 10t55.5 -10t46 -27.5t31 -41t11.5 -49.5t-10.5 -49.5t-29.5 -41t-44 -27.5t-55 -10q-29 0 -55 10t-45.5 27.5t-31 41t-11.5 49.5zM170 400q-29 0 -55 10t-45.5 27t-31 40.5t-11.5 49.5q0 27 10.5 50t29.5 40.5t44 27.5t54 10
t55.5 -10t46 -27.5t31 -40.5t11.5 -50q0 -26 -10.5 -49.5t-29.5 -40.5t-44 -27t-55 -10zM418 316q-22 -2 -40 -13.5t-30 -30t-17.5 -41.5t-2.5 -47q8 -49 44.5 -81t89.5 -27q21 2 39 13.5t30.5 29.5t18 40.5t1.5 46.5q-3 24 -14.5 45t-29 36t-40.5 23t-49 6zM146 647
q-22 -2 -40 -13.5t-30 -29.5t-17.5 -41t-2.5 -48q8 -49 44.5 -80.5t89.5 -26.5q21 2 39 13.5t30.5 29t18 40t1.5 46.5q-3 25 -14.5 46t-29 36t-40.5 22.5t-49 5.5zM532 672h14l-474 -636h-15z" />
    <glyph glyph-name="ampersand" unicode="&#x26;" horiz-adv-x="586" 
d="M43 155q-20 49 -16 90.5t21 74t41 57t45 39.5l-4 4q-42 46 -46 93.5t20.5 85t72 61.5t108.5 24q67 0 104 -22t55 -48q21 -31 25 -70h-54q1 38 -13 67q-12 25 -41.5 45.5t-85.5 19.5q-40 -1 -77 -21t-57.5 -53t-17 -76t45.5 -89t113.5 -129t174.5 -201q41 42 50.5 95
t-1.5 103h51q6 -59 -17 -115t-71 -97q7 -10 23.5 -28t34.5 -29h-68q-1 4 -7 11.5t-16 20.5q-33 -20 -73 -32t-88 -12q-32 0 -66.5 6t-66 20.5t-57.5 40t-42 64.5zM141 408q-33 -28 -51.5 -66.5t-22.5 -80t7 -82t38.5 -73t71 -52.5t104.5 -20q40 0 75 12t64 34
q-23 29 -58.5 70.5t-75.5 87.5t-80 90.5t-72 79.5z" />
    <glyph glyph-name="quotesingle" unicode="'" horiz-adv-x="106" 
d="M79 698l-23 -150h-7l-22 150h52z" />
    <glyph glyph-name="parenleft" unicode="(" horiz-adv-x="241" 
d="M196 26q-48 33 -85 81q-16 20 -31 45.5t-27 56t-19 66t-7 76.5q0 40 7 75.5t19 65.5t27.5 55.5t31.5 45.5q37 48 85 81h17q-41 -33 -74 -81q-28 -41 -50.5 -101.5t-22.5 -141.5t22 -141.5t49 -101.5q31 -48 71 -81h-13v0z" />
    <glyph glyph-name="parenright" unicode=")" horiz-adv-x="241" 
d="M173 350q0 81 -23 141.5t-50 101.5q-33 48 -73 81h17q47 -33 85 -81q16 -20 31 -45.5t27 -55.5t19.5 -65.5t7.5 -75.5q0 -41 -7.5 -76.5t-19.5 -66t-27 -56t-31 -45.5q-37 -48 -84 -81h-13q39 33 70 81q26 41 48.5 101.5t22.5 141.5z" />
    <glyph glyph-name="asterisk" unicode="*" horiz-adv-x="331" 
d="M38 627l127 -51l-23 123h36l-13 -123l127 51l12 -29l-139 -22l97 -89l-29 -20l-68 109l-67 -109l-30 20l97 89l-138 22z" />
    <glyph glyph-name="plus" unicode="+" horiz-adv-x="415" 
d="M27 333v10h175v153h12v-153h174v-10h-174v-154h-12v154h-175z" />
    <glyph glyph-name="comma" unicode="," horiz-adv-x="142" 
d="M115 107l-80 -150h-8l43 150h45z" />
    <glyph glyph-name="hyphen" unicode="-" horiz-adv-x="441" 
d="M27 324v10h387v-10h-387z" />
    <glyph glyph-name="period" unicode="." horiz-adv-x="131" 
d="M27 34q0 14 11.5 24t26.5 10q16 0 27.5 -10t10.5 -24q0 -13 -11 -23t-27 -10q-15 0 -26.5 10t-11.5 23z" />
    <glyph glyph-name="slash" unicode="/" horiz-adv-x="378" 
d="M351 684l-312 -660h-12l311 660h13z" />
    <glyph glyph-name="colon" unicode=":" horiz-adv-x="129" 
d="M27 489q0 14 11 23t26 9q17 0 27.5 -9t10.5 -23t-10.5 -24t-27.5 -10q-15 0 -26 10t-11 24zM64 222q-15 0 -26 9.5t-11 22.5q0 14 11 24t26 10q17 0 27.5 -10t10.5 -24q0 -13 -10.5 -22.5t-27.5 -9.5z" />
    <glyph glyph-name="semicolon" unicode=";" horiz-adv-x="162" 
d="M27 147l39 150h54l-84 -150h-9zM59 491q0 14 11.5 24t26.5 10t26.5 -10t11.5 -24t-11.5 -24t-26.5 -10t-26.5 10t-11.5 24z" />
    <glyph glyph-name="less" unicode="&#x3c;" horiz-adv-x="314" 
d="M54 384l233 -103l-7 -9l-253 112l253 111l7 -9z" />
    <glyph glyph-name="equal" unicode="=" horiz-adv-x="414" 
d="M387 446v-11h-360v11h360zM387 337v-10h-360v10h360z" />
    <glyph glyph-name="greater" unicode="&#x3e;" horiz-adv-x="314" 
d="M287 394l-253 -112l-7 9l233 103l-233 102l7 9z" />
    <glyph glyph-name="question" unicode="?" horiz-adv-x="432" 
d="M27 519q3 39 24 70q9 13 22.5 26t33 23t46.5 16t62 6q56 0 94.5 -18t61 -44.5t30 -56.5t1.5 -54q-7 -29 -25.5 -53.5t-41 -48.5t-47 -49.5t-44.5 -56.5t-33 -69.5t-13 -87.5h-12q0 53 9.5 91.5t25 68t34 53.5t36.5 48.5t33.5 52t24.5 64.5q6 27 0 55t-24 50t-49 34t-74 7
q-47 -5 -70.5 -26t-32.5 -43q-11 -26 -9 -58h-63zM151 36q0 15 12 25.5t29 10.5t29 -10.5t12 -25.5q0 -14 -12 -25t-29 -11t-29 11t-12 25z" />
    <glyph glyph-name="at" unicode="@" horiz-adv-x="822" 
d="M28 338q-1 73 28.5 135.5t82 109t123.5 73t153 27.5q89 1 160 -22t120.5 -64.5t75 -100.5t23.5 -130q-2 -51 -22.5 -90.5t-52 -66.5t-69.5 -41.5t-75 -14.5q-28 0 -49 7q-15 3 -25 14.5t-10 27.5q-6 -5 -21 -14t-35.5 -18t-45.5 -15.5t-52 -6.5t-51 5.5t-42.5 17.5
t-29.5 30t-11 44q0 22 21.5 37.5t53.5 29t69 26.5t69 30t52.5 40.5t20.5 58.5q-5 41 -25 64t-70 22q-28 0 -43 -8t-23 -17q-9 -11 -12 -25h-56q0 1 3.5 8.5t14.5 17.5t32 19t57 12q8 1 16 1.5t18 0.5q41 0 67.5 -9.5t42.5 -28.5t22 -48t6 -68v-178q1 -34 19 -50.5t44 -16.5
q23 0 48.5 13t48 38.5t37.5 63t17 87.5q3 71 -18 128.5t-64.5 98t-109 62t-151.5 21.5q-59 0 -117 -20.5t-105 -59t-78 -94.5t-36 -128q-1 -8 -1 -17v-17q1 -79 32.5 -136t81 -94.5t111.5 -55.5t126 -18q55 0 107.5 13t94.5 39l5 -5q-44 -27 -95 -42t-108 -16
q-81 -1 -153.5 19.5t-127 60.5t-86.5 99t-33 135zM491 428q-12 -26 -34.5 -43.5t-49.5 -30.5t-54.5 -23t-49.5 -21.5t-35.5 -25t-11.5 -33.5q4 -48 31.5 -66.5t63.5 -18.5q19 0 39 4t38.5 11t34.5 16t28 18v213z" />
    <glyph glyph-name="bracketleft" unicode="[" horiz-adv-x="167" 
d="M140 674v-10h-66v-641h66v-10h-113v661h113z" />
    <glyph glyph-name="backslash" unicode="\" horiz-adv-x="387" 
d="M360 13h-22l-311 660h21z" />
    <glyph glyph-name="bracketright" unicode="]" horiz-adv-x="167" 
d="M93 23v640h-66v10h113v-660h-113v10h66z" />
    <glyph glyph-name="asciicircum" unicode="^" horiz-adv-x="316" 
d="M289 461l-20 -4l-98 171l-128 -171l-16 4l132 233z" />
    <glyph glyph-name="underscore" unicode="_" horiz-adv-x="534" 
d="M27 0v19h480v-19h-480z" />
    <glyph glyph-name="grave" unicode="`" horiz-adv-x="226" 
d="M199 529l-6 -5l-166 76l42 40z" />
    <glyph glyph-name="braceleft" unicode="{" horiz-adv-x="254" 
d="M27 345q34 0 51 13.5t23.5 36t6 51t-1 58t1.5 58t14 51t36.5 36t68.5 13.5v-7q-44 0 -61.5 -21.5t-22 -54t-2 -71.5t-1 -74t-19.5 -60.5t-57 -31.5q31 -5 47 -21t23 -39t7.5 -51t0 -56t0.5 -54.5t9 -47t25.5 -33t50.5 -12.5v-7q-44 0 -68.5 13.5t-36.5 36t-14 51t-1.5 58
t1 58t-6 51t-23.5 36t-51 13.5v7v0z" />
    <glyph glyph-name="bar" unicode="|" horiz-adv-x="74" 
d="M27 23v661h20v-661h-20z" />
    <glyph glyph-name="braceright" unicode="}" horiz-adv-x="254" 
d="M190 346q-41 6 -57 31.5t-19.5 60.5t-1 74t-2 71.5t-22 54t-61.5 21.5v7q44 0 68.5 -13.5t36.5 -36t14 -51t1.5 -58t-1 -58t6 -51t23.5 -36t51 -13.5v-7q-34 0 -51 -13.5t-23.5 -36t-6 -51t1 -58t-1.5 -58t-14 -51t-36.5 -36t-68.5 -13.5v7q33 0 50.5 12.5t25.5 33t9 47
t0.5 54.5t0 56t7.5 51t23 39t47 21z" />
    <glyph glyph-name="asciitilde" unicode="~" horiz-adv-x="414" 
d="M27 364q11 11 26 20q13 8 31.5 14t42.5 6q18 0 38.5 -5t44.5 -16q12 -6 23 -13t22 -13t23.5 -10.5t27.5 -4.5t32.5 5t40.5 17l7 -11l-6.5 -5.5t-19 -12t-29 -12t-35.5 -5.5q-17 0 -35 6q-12 4 -27 12.5t-33.5 17.5t-39.5 15.5t-45 6.5q-19 0 -39 -5t-43 -18z" />
    <glyph glyph-name="registered" unicode="&#xae;" horiz-adv-x="804" 
d="M403 37q-78 0 -146.5 26t-119.5 70.5t-80.5 104.5t-29.5 128t29.5 128.5t80.5 105.5t119.5 71t146.5 26q77 0 145 -26t119 -71t80.5 -105.5t29.5 -128.5t-29.5 -128t-80.5 -104.5t-119 -70.5t-145 -26zM39 367q0 -66 28.5 -124.5t78 -102t115.5 -68.5t142 -25
q75 0 141 25t115.5 68.5t78 102t28.5 124.5t-28.5 124.5t-78 102t-115.5 68.5t-141 25q-76 0 -142 -25.5t-115.5 -69t-78 -101.5t-28.5 -124zM250 173q22 14 24 42v323q-2 28 -24 41v4h95q57 1 94.5 -9t60 -27t32 -39t9.5 -45q0 -11 -2.5 -25t-10.5 -28t-23 -27.5t-39 -22.5
q19 -26 38 -64t42 -85q14 -27 32 -38v-3h-84v3q23 14 9 42q-1 0 -8.5 14.5t-16.5 32.5q-11 20 -24 47q-5 9 -11.5 20.5t-15 21.5t-19 17t-22.5 7q-18 0 -37 -16.5t-39 -43.5v-100q0 -28 24 -42v-3h-84v3zM310 325q23 32 41.5 55.5t38.5 25.5q36 4 67 -35q31 19 40.5 45
t9.5 47q0 30 -12.5 52t-34.5 35.5t-52.5 20t-67.5 6.5h-30v-252z" />
    <glyph glyph-name="copyright" unicode="&#xa9;" horiz-adv-x="804" 
d="M403 39q-78 0 -146.5 26t-119.5 71t-80.5 105t-29.5 128t29.5 128t80.5 105t119.5 71t146.5 26q77 0 145 -26t119 -71t80.5 -105t29.5 -128t-29.5 -128t-80.5 -105t-119 -71t-145 -26zM403 689q-76 0 -142 -25t-115.5 -68.5t-78 -101.5t-28.5 -124t28.5 -124.5t78 -102
t115.5 -69t142 -25.5q75 0 141 25.5t115.5 69t78 102t28.5 124.5t-28.5 124.5t-78 101.5t-115.5 68t-141 25zM130 371q0 50 22 92t60 73t89 48t110 17q51 0 83.5 -8.5t52.5 -19.5q22 -12 34 -28h-45q-11 15 -30 26q-17 10 -44.5 17.5t-70.5 5.5q-40 -2 -78.5 -18.5
t-68.5 -45t-49 -67.5t-20 -85q-2 -45 14.5 -86.5t47.5 -74t75.5 -51.5t100.5 -19q21 0 43.5 4.5t44.5 12t41 18.5t33 24l6 -4q-32 -30 -81 -47.5t-109 -17.5q-59 0 -107.5 19t-82.5 51t-52.5 74.5t-18.5 89.5z" />
    <glyph glyph-name="trademark" unicode="&#x2122;" horiz-adv-x="745" 
d="M298 373q13 3 22.5 11t9.5 22v293h14q24 -44 49 -87q20 -37 43.5 -78.5t42.5 -75.5q17 -29 36.5 -43t34.5 -14q18 0 26.5 18t-1.5 53q-7 22 -22 52t-24 60.5t-5 58.5t34 46q12 6 30.5 8.5t39 3t39.5 0t32 -1.5v-292q0 -11 5.5 -20t13.5 -14v-3h-67v3q19 11 19 33v288
q-10 1 -25 1.5t-30.5 0t-30 -3.5t-24.5 -9q-20 -12 -26.5 -28.5t-5.5 -36.5t9 -41.5t17 -42t18 -39.5t14 -33q9 -30 0 -49.5t-28 -25.5q-22 -8 -51 6.5t-52 55.5l-119 212v-254q0 -28 28 -34v-3h-66v3zM313 699q-2 -5 -4 -11q-2 -5 -4.5 -11.5t-4.5 -11.5q-20 17 -52.5 22
t-63.5 6v-286q2 -23 19 -34v-3h-66v3q17 11 19 33v287q-31 -1 -63.5 -6t-52.5 -22q-2 5 -4.5 11.5t-4.5 11.5q-3 6 -4 11h286z" />
    <glyph glyph-name="acute" unicode="&#xb4;" horiz-adv-x="226" 
d="M199 598l-166 -75l-6 5l130 110z" />
    <glyph glyph-name="dieresis" unicode="&#xa8;" horiz-adv-x="312" 
d="M84 520q-25 0 -41 15t-16 35q0 21 17 35.5t40 14.5q24 0 39.5 -14t15.5 -36q0 -20 -15 -35t-40 -15zM176 570q0 21 16.5 35.5t39.5 14.5q24 0 39.5 -14t15.5 -36q0 -20 -15 -35t-40 -15t-40.5 15t-15.5 35z" />
    <glyph glyph-name="plusminus" unicode="&#xb1;" horiz-adv-x="424" 
d="M27 375v19h174v152h20v-152h176v-19h-176v-113h-20v113h-174zM27 211v19h361v-19h-361z" />
    <glyph glyph-name="divide" unicode="&#xf7;" horiz-adv-x="415" 
d="M388 361v-19h-361v19h361zM192 243q0 6 4.5 10t10.5 4q16 0 16 -14q0 -13 -16 -13q-6 0 -10.5 3.5t-4.5 9.5zM207 458q-6 0 -10.5 4t-4.5 10q0 5 4.5 9t10.5 4q16 0 16 -13q0 -14 -16 -14z" />
    <glyph glyph-name="circumflex" unicode="&#x2c6;" horiz-adv-x="307" 
d="M280 529l-11 -3l-95 130l-136 -130l-11 3l126 175z" />
    <glyph glyph-name="tilde" unicode="&#x2dc;" horiz-adv-x="413" 
d="M27 578q15 14 37 25.5t57 11.5q34 0 53.5 -9.5t35.5 -21t34.5 -21t50.5 -9.5q31 0 49 7.5t35 16.5l7 -11q-14 -13 -36.5 -27t-56.5 -14q-35 0 -54 10t-35 22.5t-34.5 22.5t-51.5 10q-31 0 -49 -7t-35 -17z" />
    <glyph glyph-name="caron" unicode="&#x2c7;" horiz-adv-x="307" 
d="M280 694l-127 -174l-126 174l11 3l141 -123l90 123z" />
    <glyph glyph-name="breve" unicode="&#x2d8;" horiz-adv-x="307" 
d="M280 694l-127 -174l-126 174l11 3l141 -123l90 123z" />
    <glyph glyph-name="ring" unicode="&#x2da;" horiz-adv-x="331" 
d="M166 473q-28 0 -53.5 10t-44.5 27t-30 40t-11 49t10.5 48.5t29 39.5t43 27t52.5 10t54 -10t45.5 -27t31 -39.5t11.5 -48.5t-10.5 -49t-29 -40t-44 -27t-54.5 -10zM143 716q-21 -2 -38.5 -13t-29.5 -29t-17.5 -40.5t-2.5 -46.5q4 -24 15.5 -44.5t28.5 -35t39.5 -22
t48.5 -4.5q21 2 38.5 13.5t29.5 29t17 39.5t2 46q-4 24 -15.5 44.5t-28.5 35t-39.5 22t-47.5 5.5z" />
    <glyph glyph-name="cedilla" unicode="&#xb8;" horiz-adv-x="247" 
d="M106 -193q-22 0 -43 4.5t-36 12.5l21 59q16 -8 46 -15.5t57 -7.5q20 0 33 5t13 19q0 10 -13.5 17t-33 12t-42.5 7.5t-43 4.5l53 83h61l-50 -52q43 -2 67 -21t24 -47q0 -22 -10 -37.5t-26 -25t-36.5 -14t-41.5 -4.5z" />
    <glyph glyph-name="hungarumlaut" unicode="&#x2dd;" horiz-adv-x="370" 
d="M199 599l-166 -75l-6 5l130 110zM340 599l-166 -75l-6 5l130 110z" />
    <glyph glyph-name="dotaccent" unicode="&#x2d9;" horiz-adv-x="166" 
d="M27 571q0 21 17 35.5t40 14.5q24 0 39.5 -14t15.5 -36q0 -20 -15 -35t-40 -15t-41 15t-16 35z" />
    <glyph glyph-name="onequarter" unicode="&#xbc;" horiz-adv-x="694" 
d="M308 135v7q38 80 69 145q13 28 26 55t23.5 49.5t18 38t9.5 20.5l33 -33q-23 -12 -42 -35.5t-38 -57.5t-39.5 -79.5t-47.5 -100.5l-1 -2h195v71q0 34 8 64t26 51.5t47 32t72 5.5v-42q-42 26 -66 26q-20 0 -29.5 -15t-13.5 -37.5t-3.5 -50t-0.5 -51.5v-54h22v-7h-22v-84
q0 -31 26 -46v-4h-92v4q26 15 26 46v84h-206zM27 207q26 16 26 43v381h-17v4l57 26v-412q2 -27 26 -42v-3h-92v3zM93 3l311 660h21l-311 -660h-21z" />
    <glyph glyph-name="onehalf" unicode="&#xbd;" horiz-adv-x="739" 
d="M352 12q46 56 95.5 108t90.5 95.5t69 76.5t31 53q3 19 -2 38t-19.5 34t-39 24t-59.5 9q-39 -1 -59.5 -15t-29.5 -31q-11 -20 -10 -46h-42v2q0 3 1 5q0 2 2 10q3 11 11.5 25.5t25 27t43.5 21.5t68 9q47 0 76.5 -12.5t45 -31.5t19 -41t0.5 -40q-5 -27 -22 -50.5t-50 -57.5
t-83.5 -85t-120.5 -133h108q22 0 49 0.5t53.5 4.5t50.5 11.5t41 21.5q2 -8 5.5 -15.5t5.5 -14.5q3 -8 6 -15h-360v12zM27 203v4q26 15 26 43v380h-17v4l57 27v-413q2 -26 26 -41v-4h-92zM384 662h21l-311 -660h-21z" />
    <glyph glyph-name="threequarters" unicode="&#xbe;" horiz-adv-x="942" 
d="M42 261q-8 11 -12 22l-3 9h42q4 -22 19 -40q13 -15 38.5 -28t71.5 -12q20 0 44 8t43.5 25.5t31 46.5t8.5 72q-2 30 -15.5 52t-34.5 35.5t-47.5 19t-55.5 3.5v25l192 156h-113q-23 0 -49.5 -1t-53 -5t-50.5 -12t-41 -22q-5 14 -10.5 29.5t-6.5 17.5h376q-8 -7 -25.5 -20.5
t-40 -30.5t-46.5 -36t-46.5 -36t-40 -31t-25.5 -20q71 3 119 -30.5t54 -100.5q1 -27 -6 -51q-9 -25 -27 -44t-42.5 -32t-53 -19.5t-57.5 -6.5q-42 0 -79 14t-58 43zM556 134v7q38 80 69 145q13 28 26 55t23.5 49.5t18 38t9.5 20.5l33 -33q-23 -12 -42 -35.5t-38 -57.5
t-39.5 -79.5t-47.5 -100.5l-1 -2h195v71q0 34 8 64t26 51.5t47 32t72 5.5v-42q-42 26 -66 26q-20 0 -29.5 -15t-13.5 -37.5t-3.5 -50t-0.5 -51.5v-54h22v-7h-22v-84q0 -31 26 -46v-4h-92v4q26 15 26 46v84h-206zM641 662h21l-311 -660h-21z" />
    <glyph glyph-name="multiply" unicode="&#xd7;" horiz-adv-x="331" 
d="M304 258l-13 -13l-125 122l-108 -110l-14 14l108 110l-125 123l13 14l125 -124l102 103l14 -14l-101 -103z" />
    <glyph glyph-name="uniF201" unicode="&#xf201;" horiz-adv-x="902" 
d="M440 -386q-91 0 -170.5 26.5t-138.5 74.5t-93 113.5t-34 143.5q0 68 25.5 130t72.5 110.5t113 80t148 39.5q29 63 59 126.5t55 116.5t41.5 88t19.5 41q11 -23 33.5 -70.5t51.5 -107t61.5 -126t62.5 -129t55 -114t40 -81.5q13 -27 22.5 -42t27.5 -28v-6h-143v6
q19 11 27.5 29t-2.5 41q-13 27 -28 58t-29 62q-12 22 -39 44t-64.5 39.5t-84 28.5t-95.5 11q-33 0 -67 -6q-14 -29 -29 -62t-30 -64.5t-28.5 -60t-23.5 -49.5q-6 -13 -3 -25t10 -22t16.5 -16.5t17.5 -7.5v-6h-143v6q23 5 48 21t41 50q1 2 10 21.5t24 51.5t34.5 73t40.5 87
q-61 -13 -113 -44.5t-89.5 -77.5t-57.5 -103.5t-18 -123.5q1 -72 30.5 -132t76.5 -104t107 -70t122 -29q121 -6 221 16t189.5 59t174 81.5t176 83.5t194.5 65.5t229 26.5q104 0 197.5 -18.5t189.5 -57.5l-2 -81q-21 24 -48 44t-55.5 35t-56.5 24.5t-52 13.5q-62 9 -119 9
q-99 0 -191.5 -23t-183.5 -58t-184 -75.5t-194 -75.5t-213 -58t-242 -23zM514 625q-38 -82 -63 -135t-40.5 -85.5t-23 -48t-10.5 -23.5q41 3 84.5 -1t85.5 -15.5t80.5 -30.5t68.5 -46q-19 39 -28 58.5t-15.5 33t-13 28t-21 44t-39 81.5t-65.5 140z" />
    <glyph glyph-name="Adieresis" unicode="&#xc4;" horiz-adv-x="758" 
d="M10 0v6q23 5 47.5 21t41.5 51l175 372q22 48 43 92t37.5 78.5t27 57t12.5 26.5q10 -21 28.5 -60t43 -90t52.5 -109.5t57 -116.5l122 -252q14 -26 23.5 -41t27.5 -29v-6h-143v6q19 11 27.5 29.5t-2.5 41.5q-14 27 -28.5 58t-28.5 62q-26 36 -66 62.5t-85.5 43.5t-94.5 25
t-93 8l-122 -259q-6 -13 -3.5 -25t10 -22t17 -16.5t16.5 -7.5v-6h-142zM280 434q-10 -20 -22 -46t-20 -42q40 0 84 -6.5t86 -20t80 -35t67 -50.5q-11 23 -20 43.5t-17 35.5q-9 18 -16 33l-5 11q-25 53 -48 100.5t-40 85.5q-21 43 -39 82l-53 -113q-13 -26 -20 -41.5
t-11 -23.5q-4 -10 -6 -13zM306 743q-25 0 -41 15t-16 35q0 21 17 35.5t40 14.5q24 0 39.5 -14t15.5 -36q0 -20 -15 -35t-40 -15zM398 793q0 21 16.5 35.5t39.5 14.5q24 0 39.5 -14t15.5 -36q0 -20 -15 -35t-40 -15t-40.5 15t-15.5 35z" />
    <glyph glyph-name="Aring" unicode="&#xc5;" horiz-adv-x="758" 
d="M379 696q-28 0 -53.5 10t-44.5 27t-30 40t-11 49t10.5 48.5t29 39.5t43 27t52.5 10t54 -10t45.5 -27t31 -39.5t11.5 -48.5q0 -24 -9 -45.5t-25 -38t-38 -27.5t-48 -14q11 -23 30 -62.5t42.5 -89t51 -105.5t54.5 -112l122 -252q14 -26 23.5 -41t27.5 -29v-6h-143v6
q19 11 27.5 29.5t-2.5 41.5q-14 27 -28.5 58t-28.5 62q-26 36 -66 62.5t-85.5 43.5t-94.5 25t-93 8l-122 -259q-6 -13 -3.5 -25t10 -22t17 -16.5t16.5 -7.5v-6h-142v6q23 5 47.5 21t41.5 51l175 372q20 43 38.5 82.5t34 72.5t27 56.5t16.5 34.5h-11zM280 434
q-10 -20 -22 -46t-20 -42q40 0 84 -6.5t86 -20t80 -35t67 -50.5q-11 23 -20 43.5t-17 35.5q-9 18 -16 33l-5 11q-25 53 -48 100.5t-40 85.5q-21 43 -39 82l-53 -113q-13 -26 -20 -41.5t-11 -23.5q-4 -10 -6 -13zM356 939q-21 -2 -38.5 -13t-29.5 -29t-17.5 -40.5t-2.5 -46.5
q7 -47 41.5 -78t83.5 -29l1 1v-1q2 0 3 0.5t3 0.5q21 2 38.5 13.5t29.5 29t17 39.5t2 46q-4 24 -15.5 44.5t-28.5 35t-39.5 22t-47.5 5.5z" />
    <glyph glyph-name="Ccedilla" unicode="&#xc7;" horiz-adv-x="730" 
d="M347 -200q-22 0 -43 4.5t-36 12.5l21 59q16 -8 46 -15.5t57 -7.5q20 0 33 5t13 19q0 10 -13.5 17t-33 12t-42.5 7.5t-43 4.5l47 74q-78 10 -140.5 42.5t-106.5 80.5t-67.5 108t-23.5 126q0 78 34 143.5t93 113.5t138.5 74.5t170.5 26.5q80 0 130.5 -13.5t80.5 -30.5
q34 -19 53 -43h-70q-16 22 -46 40q-26 14 -69 25.5t-109 9.5q-62 -3 -120.5 -28.5t-104 -70t-73.5 -104.5t-30 -132q-2 -70 21.5 -134.5t70 -114t114.5 -79.5t155 -30q32 0 67.5 7t69.5 19t63.5 29t50.5 37l10 -6q-50 -48 -126 -74.5t-168 -26.5q-4 0 -7.5 0.5t-6.5 0.5
l-37 -39q43 -2 67 -21t24 -47q0 -22 -10 -37.5t-26 -25t-36.5 -14t-41.5 -4.5z" />
    <glyph glyph-name="Eacute" unicode="&#xc9;" horiz-adv-x="571" 
d="M27 6q19 11 29.5 30.5t10.5 41.5v544q0 22 -10.5 41t-29.5 30v6h517q-5 -12 -9 -24q-4 -11 -8.5 -23.5t-9.5 -23.5q-27 22 -64 34t-78 17.5t-82 7t-76 1.5h-88v-328q79 16 144 28q28 5 55 10t50 9.5t39 7.5t21 4q-6 -17 -13 -34q-4 -9 -6 -17q-17 14 -36 20t-41 2
l-213 -41v-338h87q49 1 107.5 4t110.5 17q23 6 43.5 15t37.5 22l29 -69h-517v6zM371 821l-166 -75l-6 5l130 110z" />
    <glyph glyph-name="Ntilde" unicode="&#xd1;" horiz-adv-x="757" 
d="M27 0v6q26 5 47 24t21 47v622h34l527 -646v570q0 26 -20 45t-48 25v6h142v-6q-28 -6 -43.5 -24t-16.5 -43v-626h-34l-527 646v-569q0 -26 15.5 -45.5t44.5 -25.5v-6h-142zM199 801q15 14 37 25.5t57 11.5q34 0 53.5 -9.5t35.5 -21t34.5 -21t50.5 -9.5q31 0 49 7.5
t35 16.5l7 -11q-14 -13 -36.5 -27t-56.5 -14q-35 0 -54 10t-35 22.5t-34.5 22.5t-51.5 10q-31 0 -49 -7t-35 -17z" />
    <glyph glyph-name="Odieresis" unicode="&#xd6;" horiz-adv-x="853" 
d="M427 -13q-86 0 -161 28.5t-130.5 77.5t-88 115t-32.5 141t32.5 141t88 115.5t130.5 78t161 28.5q85 0 160 -28.5t130.5 -78t88 -115.5t32.5 -141t-32.5 -141t-88 -115t-130.5 -77.5t-160 -28.5zM94 438q-21 -65 -17 -132t31 -125t75.5 -101.5t116.5 -61.5q46 -13 97 -13
q58 0 114.5 17t105 50t86 81t57.5 109q21 65 17 132t-31 124.5t-75.5 100.5t-117.5 61q-46 13 -98 13q-58 0 -114.5 -17t-104.5 -49.5t-85 -80t-57 -108.5zM353 743q-25 0 -41 15t-16 35q0 21 17 35.5t40 14.5q24 0 39.5 -14t15.5 -36q0 -20 -15 -35t-40 -15zM445 793
q0 21 16.5 35.5t39.5 14.5q24 0 39.5 -14t15.5 -36q0 -20 -15 -35t-40 -15t-40.5 15t-15.5 35z" />
    <glyph glyph-name="Udieresis" unicode="&#xdc;" horiz-adv-x="657" 
d="M169 699v-6q-18 -11 -28.5 -30t-11.5 -40v-392q0 -112 63.5 -172t183.5 -59q46 0 89.5 14t77 42.5t53.5 72.5t20 105v287q-2 45 -14 67t-25 31q-16 11 -34 10v70q23 -1 41 -17q16 -14 29.5 -44.5t15.5 -89.5q0 -7 1 -11v-303q0 -17 -3 -42t-12.5 -52.5t-28 -55t-49 -49
t-75 -35t-107.5 -13.5t-109 12t-77.5 32t-51.5 45.5t-30.5 53t-14.5 53.5t-4 48v392q-1 21 -11.5 40t-29.5 30v6h142zM255 743q-25 0 -41 15t-16 35q0 21 17 35.5t40 14.5q24 0 39.5 -14t15.5 -36q0 -20 -15 -35t-40 -15zM347 793q0 21 16.5 35.5t39.5 14.5q24 0 39.5 -14
t15.5 -36q0 -20 -15 -35t-40 -15t-40.5 15t-15.5 35z" />
    <glyph glyph-name="aacute" unicode="&#xe1;" horiz-adv-x="494" 
d="M187 -13q-32 0 -61 6.5t-51 20.5t-35 35.5t-13 52.5q0 26 25.5 44.5t63.5 34t82 31.5t82 36.5t63 49t24 69.5q-6 49 -29.5 76t-83.5 26q-33 -1 -51.5 -10t-27.5 -20q-11 -13 -13 -29h-67l4 9t17 20.5t38.5 22.5t67.5 15q9 2 19.5 2h21.5q48 0 80 -11t50.5 -34t26 -57.5
t7.5 -80.5v-221q1 -21 11.5 -39.5t28.5 -29.5v-6h-46q-23 0 -36 15q-15 15 -15 36q-8 -5 -25.5 -16t-42 -21.5t-54.5 -18.5t-61 -8zM370 320q-14 -31 -41 -52t-58.5 -36.5t-64.5 -27.5t-59.5 -25.5t-42.5 -30t-14 -40.5q5 -56 37.5 -78t75.5 -22q23 0 46.5 5t46 13
t41.5 18.5t33 21.5v254zM333 598l-166 -75l-6 5l130 110z" />
    <glyph glyph-name="agrave" unicode="&#xe0;" horiz-adv-x="494" 
d="M187 -13q-32 0 -61 6.5t-51 20.5t-35 35.5t-13 52.5q0 26 25.5 44.5t63.5 34t82 31.5t82 36.5t63 49t24 69.5q-6 49 -29.5 76t-83.5 26q-33 -1 -51.5 -10t-27.5 -20q-11 -13 -13 -29h-67l4 9t17 20.5t38.5 22.5t67.5 15q9 2 19.5 2h21.5q48 0 80 -11t50.5 -34t26 -57.5
t7.5 -80.5v-221q1 -21 11.5 -39.5t28.5 -29.5v-6h-46q-23 0 -36 15q-15 15 -15 36q-8 -5 -25.5 -16t-42 -21.5t-54.5 -18.5t-61 -8zM370 320q-14 -31 -41 -52t-58.5 -36.5t-64.5 -27.5t-59.5 -25.5t-42.5 -30t-14 -40.5q5 -56 37.5 -78t75.5 -22q23 0 46.5 5t46 13
t41.5 18.5t33 21.5v254zM333 529l-6 -5l-166 76l42 40z" />
    <glyph glyph-name="acircumflex" unicode="&#xe2;" horiz-adv-x="494" 
d="M187 -13q-32 0 -61 6.5t-51 20.5t-35 35.5t-13 52.5q0 26 25.5 44.5t63.5 34t82 31.5t82 36.5t63 49t24 69.5q-6 49 -29.5 76t-83.5 26q-33 -1 -51.5 -10t-27.5 -20q-11 -13 -13 -29h-67l4 9t17 20.5t38.5 22.5t67.5 15q9 2 19.5 2h21.5q48 0 80 -11t50.5 -34t26 -57.5
t7.5 -80.5v-221q1 -21 11.5 -39.5t28.5 -29.5v-6h-46q-23 0 -36 15q-15 15 -15 36q-8 -5 -25.5 -16t-42 -21.5t-54.5 -18.5t-61 -8zM370 320q-14 -31 -41 -52t-58.5 -36.5t-64.5 -27.5t-59.5 -25.5t-42.5 -30t-14 -40.5q5 -56 37.5 -78t75.5 -22q23 0 46.5 5t46 13
t41.5 18.5t33 21.5v254zM373 529l-11 -3l-95 130l-136 -130l-11 3l126 175z" />
    <glyph glyph-name="adieresis" unicode="&#xe4;" horiz-adv-x="494" 
d="M187 -13q-32 0 -61 6.5t-51 20.5t-35 35.5t-13 52.5q0 26 25.5 44.5t63.5 34t82 31.5t82 36.5t63 49t24 69.5q-6 49 -29.5 76t-83.5 26q-33 -1 -51.5 -10t-27.5 -20q-11 -13 -13 -29h-67l4 9t17 20.5t38.5 22.5t67.5 15q9 2 19.5 2h21.5q48 0 80 -11t50.5 -34t26 -57.5
t7.5 -80.5v-221q1 -21 11.5 -39.5t28.5 -29.5v-6h-46q-23 0 -36 15q-15 15 -15 36q-8 -5 -25.5 -16t-42 -21.5t-54.5 -18.5t-61 -8zM370 320q-14 -31 -41 -52t-58.5 -36.5t-64.5 -27.5t-59.5 -25.5t-42.5 -30t-14 -40.5q5 -56 37.5 -78t75.5 -22q23 0 46.5 5t46 13
t41.5 18.5t33 21.5v254zM174 520q-25 0 -41 15t-16 35q0 21 17 35.5t40 14.5q24 0 39.5 -14t15.5 -36q0 -20 -15 -35t-40 -15zM266 570q0 21 16.5 35.5t39.5 14.5q24 0 39.5 -14t15.5 -36q0 -20 -15 -35t-40 -15t-40.5 15t-15.5 35z" />
    <glyph glyph-name="atilde" unicode="&#xe3;" horiz-adv-x="494" 
d="M187 -13q-32 0 -61 6.5t-51 20.5t-35 35.5t-13 52.5q0 26 25.5 44.5t63.5 34t82 31.5t82 36.5t63 49t24 69.5q-6 49 -29.5 76t-83.5 26q-33 -1 -51.5 -10t-27.5 -20q-11 -13 -13 -29h-67l4 9t17 20.5t38.5 22.5t67.5 15q9 2 19.5 2h21.5q48 0 80 -11t50.5 -34t26 -57.5
t7.5 -80.5v-221q1 -21 11.5 -39.5t28.5 -29.5v-6h-46q-23 0 -36 15q-15 15 -15 36q-8 -5 -25.5 -16t-42 -21.5t-54.5 -18.5t-61 -8zM370 320q-14 -31 -41 -52t-58.5 -36.5t-64.5 -27.5t-59.5 -25.5t-42.5 -30t-14 -40.5q5 -56 37.5 -78t75.5 -22q23 0 46.5 5t46 13
t41.5 18.5t33 21.5v254zM67 578q15 14 37 25.5t57 11.5q34 0 53.5 -9.5t35.5 -21t34.5 -21t50.5 -9.5q31 0 49 7.5t35 16.5l7 -11q-14 -13 -36.5 -27t-56.5 -14q-35 0 -54 10t-35 22.5t-34.5 22.5t-51.5 10q-31 0 -49 -7t-35 -17z" />
    <glyph glyph-name="aring" unicode="&#xe5;" horiz-adv-x="494" 
d="M187 -13q-32 0 -61 6.5t-51 20.5t-35 35.5t-13 52.5q0 26 25.5 44.5t63.5 34t82 31.5t82 36.5t63 49t24 69.5q-6 49 -29.5 76t-83.5 26q-33 -1 -51.5 -10t-27.5 -20q-11 -13 -13 -29h-67l3.5 8.5t16 20t36.5 22t64 15.5q-23 5 -42.5 16.5t-33.5 28t-22.5 36.5t-8.5 42
q0 26 10.5 48.5t29 39.5t43 27t52.5 10t54 -10t45.5 -27t31 -39.5t11.5 -48.5q0 -43 -27.5 -76.5t-70.5 -44.5q41 -3 68 -15.5t43 -35t22.5 -55.5t6.5 -76v-221q1 -21 11.5 -39.5t28.5 -29.5v-6h-46q-23 0 -36 15q-15 15 -15 36q-8 -5 -25.5 -16t-42 -21.5t-54.5 -18.5
t-61 -8zM370 320q-14 -31 -41 -52t-58.5 -36.5t-64.5 -27.5t-59.5 -25.5t-42.5 -30t-14 -40.5q5 -56 37.5 -78t75.5 -22q23 0 46.5 5t46 13t41.5 18.5t33 21.5v254zM224 716q-21 -2 -38.5 -13t-29.5 -29t-17.5 -40.5t-2.5 -46.5q4 -24 15.5 -44.5t28.5 -35t39.5 -22
t48.5 -4.5q21 2 38.5 13.5t29.5 29t17 39.5t2 46q-4 24 -15.5 44.5t-28.5 35t-39.5 22t-47.5 5.5z" />
    <glyph glyph-name="ccedilla" unicode="&#xe7;" horiz-adv-x="508" 
d="M236 -203q-22 0 -43 4.5t-36 12.5l21 59q16 -8 46 -15.5t57 -7.5q20 0 33 5t13 19q0 10 -13.5 17t-33 12t-42.5 7.5t-43 4.5l48 76q-48 7 -89.5 26.5t-72.5 50t-48.5 72.5t-17.5 93q0 49 23.5 94t64 78.5t94.5 53.5t114 20q54 0 89.5 -11t55.5 -24q24 -15 37 -34h-66
q-7 16 -24 28q-14 11 -41 19.5t-72 8.5q-43 0 -81 -15.5t-66 -45t-44.5 -70.5t-16.5 -92q0 -58 19.5 -103t52.5 -75.5t75.5 -46.5t88.5 -16q20 0 43 4t45 11.5t41.5 18.5t33.5 25l9 -6q-32 -32 -80.5 -49.5t-111.5 -18.5l-39 -41q43 -2 67 -21t24 -47q0 -22 -10 -37.5
t-26 -25t-36.5 -14t-41.5 -4.5z" />
    <glyph glyph-name="eacute" unicode="&#xe9;" horiz-adv-x="539" 
d="M17 214q-5 49 10 97t49 86t87.5 61.5t127.5 23.5q53 0 96 -15.5t73 -39.5t46.5 -53.5t16.5 -57.5q1 -20 -10.5 -34.5t-27.5 -24.5q-23 -14 -56.5 -24.5t-70.5 -21t-75 -21.5t-69 -26t-51.5 -35.5t-24.5 -48.5q34 -38 79.5 -55.5t93.5 -17.5q57 0 109 21t83 58l8 -6
q-20 -27 -53 -47q-28 -18 -71 -32.5t-103 -13.5q-62 0 -110 19.5t-82 51t-52.5 72t-22.5 84.5zM278 469q-42 0 -79.5 -18.5t-64.5 -50t-42 -73t-13 -87.5q3 -49 16.5 -86.5t35.5 -65.5q2 27 20 47.5t45.5 35.5t61 26.5t67 22.5t62.5 22t47 25q17 13 23.5 33.5t1.5 40.5
q-16 60 -61.5 94t-119.5 34zM355 598l-166 -75l-6 5l130 110z" />
    <glyph glyph-name="egrave" unicode="&#xe8;" horiz-adv-x="539" 
d="M17 214q-5 49 10 97t49 86t87.5 61.5t127.5 23.5q53 0 96 -15.5t73 -39.5t46.5 -53.5t16.5 -57.5q1 -20 -10.5 -34.5t-27.5 -24.5q-23 -14 -56.5 -24.5t-70.5 -21t-75 -21.5t-69 -26t-51.5 -35.5t-24.5 -48.5q34 -38 79.5 -55.5t93.5 -17.5q57 0 109 21t83 58l8 -6
q-20 -27 -53 -47q-28 -18 -71 -32.5t-103 -13.5q-62 0 -110 19.5t-82 51t-52.5 72t-22.5 84.5zM278 469q-42 0 -79.5 -18.5t-64.5 -50t-42 -73t-13 -87.5q3 -49 16.5 -86.5t35.5 -65.5q2 27 20 47.5t45.5 35.5t61 26.5t67 22.5t62.5 22t47 25q17 13 23.5 33.5t1.5 40.5
q-16 60 -61.5 94t-119.5 34zM355 529l-6 -5l-166 76l42 40z" />
    <glyph glyph-name="ecircumflex" unicode="&#xea;" horiz-adv-x="539" 
d="M17 214q-5 49 10 97t49 86t87.5 61.5t127.5 23.5q53 0 96 -15.5t73 -39.5t46.5 -53.5t16.5 -57.5q1 -20 -10.5 -34.5t-27.5 -24.5q-23 -14 -56.5 -24.5t-70.5 -21t-75 -21.5t-69 -26t-51.5 -35.5t-24.5 -48.5q34 -38 79.5 -55.5t93.5 -17.5q57 0 109 21t83 58l8 -6
q-20 -27 -53 -47q-28 -18 -71 -32.5t-103 -13.5q-62 0 -110 19.5t-82 51t-52.5 72t-22.5 84.5zM278 469q-42 0 -79.5 -18.5t-64.5 -50t-42 -73t-13 -87.5q3 -49 16.5 -86.5t35.5 -65.5q2 27 20 47.5t45.5 35.5t61 26.5t67 22.5t62.5 22t47 25q17 13 23.5 33.5t1.5 40.5
q-16 60 -61.5 94t-119.5 34zM396 529l-11 -3l-95 130l-136 -130l-11 3l126 175z" />
    <glyph glyph-name="edieresis" unicode="&#xeb;" horiz-adv-x="539" 
d="M17 214q-5 49 10 97t49 86t87.5 61.5t127.5 23.5q53 0 96 -15.5t73 -39.5t46.5 -53.5t16.5 -57.5q1 -20 -10.5 -34.5t-27.5 -24.5q-23 -14 -56.5 -24.5t-70.5 -21t-75 -21.5t-69 -26t-51.5 -35.5t-24.5 -48.5q34 -38 79.5 -55.5t93.5 -17.5q57 0 109 21t83 58l8 -6
q-20 -27 -53 -47q-28 -18 -71 -32.5t-103 -13.5q-62 0 -110 19.5t-82 51t-52.5 72t-22.5 84.5zM278 469q-42 0 -79.5 -18.5t-64.5 -50t-42 -73t-13 -87.5q3 -49 16.5 -86.5t35.5 -65.5q2 27 20 47.5t45.5 35.5t61 26.5t67 22.5t62.5 22t47 25q17 13 23.5 33.5t1.5 40.5
q-16 60 -61.5 94t-119.5 34zM196 520q-25 0 -41 15t-16 35q0 21 17 35.5t40 14.5q24 0 39.5 -14t15.5 -36q0 -20 -15 -35t-40 -15zM288 570q0 21 16.5 35.5t39.5 14.5q24 0 39.5 -14t15.5 -36q0 -20 -15 -35t-40 -15t-40.5 15t-15.5 35z" />
    <glyph glyph-name="iacute" unicode="&#xed;" horiz-adv-x="197" 
d="M27 468h143v-6q-17 -8 -28.5 -25.5t-11.5 -39.5v-329q5 -41 40 -62l-1 -6h-142l1 6q17 10 28.5 26.5t11.5 36.5v329q-1 20 -12 36.5t-29 27.5v6zM185 598l-166 -75l-6 5l130 110z" />
    <glyph glyph-name="igrave" unicode="&#xec;" horiz-adv-x="197" 
d="M27 468h143v-6q-17 -8 -28.5 -25.5t-11.5 -39.5v-329q5 -41 40 -62l-1 -6h-142l1 6q17 10 28.5 26.5t11.5 36.5v329q-1 20 -12 36.5t-29 27.5v6zM185 529l-6 -5l-166 76l42 40z" />
    <glyph glyph-name="icircumflex" unicode="&#xee;" horiz-adv-x="197" 
d="M27 468h143v-6q-17 -8 -28.5 -25.5t-11.5 -39.5v-329q5 -41 40 -62l-1 -6h-142l1 6q17 10 28.5 26.5t11.5 36.5v329q-1 20 -12 36.5t-29 27.5v6zM225 529l-11 -3l-95 130l-136 -130l-11 3l126 175z" />
    <glyph glyph-name="idieresis" unicode="&#xef;" horiz-adv-x="197" 
d="M27 468h143v-6q-17 -8 -28.5 -25.5t-11.5 -39.5v-329q5 -41 40 -62l-1 -6h-142l1 6q17 10 28.5 26.5t11.5 36.5v329q-1 20 -12 36.5t-29 27.5v6zM26 520q-25 0 -41 15t-16 35q0 21 17 35.5t40 14.5q24 0 39.5 -14t15.5 -36q0 -20 -15 -35t-40 -15zM118 570
q0 21 16.5 35.5t39.5 14.5q24 0 39.5 -14t15.5 -36q0 -20 -15 -35t-40 -15t-40.5 15t-15.5 35z" />
    <glyph glyph-name="ntilde" unicode="&#xf1;" horiz-adv-x="542" 
d="M27 474q26 5 51.5 14.5t50.5 22.5v-315q13 72 33.5 125t45.5 88.5t53 54t55 21.5q24 3 54 -3t57 -22t47.5 -42.5t27.5 -65.5q4 -21 1 -46l-12 -122t-11 -122q0 -40 35 -56v-6h-142v6q17 10 30 24.5t16 32.5q3 32 7 73.5t7.5 79.5t6.5 67t3 37q2 30 -6.5 57.5t-24 48
t-37.5 32.5t-47 12q-28 0 -58 -19.5t-57 -61.5t-49 -109t-35 -163v-49q2 -19 12.5 -35.5t27.5 -26.5v-6h-142v6q18 11 29 27.5t12 36.5v334q-3 40 -41 64v6zM91 578q15 14 37 25.5t57 11.5q34 0 53.5 -9.5t35.5 -21t34.5 -21t50.5 -9.5q31 0 49 7.5t35 16.5l7 -11
q-14 -13 -36.5 -27t-56.5 -14q-35 0 -54 10t-35 22.5t-34.5 22.5t-51.5 10q-31 0 -49 -7t-35 -17z" />
    <glyph glyph-name="oacute" unicode="&#xf3;" 
d="M292 -13q-56 0 -106.5 19t-88.5 52.5t-60 78.5t-22 96t20.5 96t56.5 78t85 52.5t105 19.5q57 0 107.5 -19.5t88.5 -52.5t60 -78t22 -96t-20.5 -96t-56.5 -78.5t-85 -52.5t-106 -19zM196 429q-42 -22 -73 -56t-47 -75t-15 -87.5t22 -92.5q23 -53 73.5 -81.5t109.5 -28.5
q56 0 110 27q43 22 74 56t47 75.5t16 87.5t-20 93q-23 53 -73 81.5t-110 28.5q-59 0 -114 -28zM373 598l-166 -75l-6 5l130 110z" />
    <glyph glyph-name="ograve" unicode="&#xf2;" 
d="M292 -13q-56 0 -106.5 19t-88.5 52.5t-60 78.5t-22 96t20.5 96t56.5 78t85 52.5t105 19.5q57 0 107.5 -19.5t88.5 -52.5t60 -78t22 -96t-20.5 -96t-56.5 -78.5t-85 -52.5t-106 -19zM196 429q-42 -22 -73 -56t-47 -75t-15 -87.5t22 -92.5q23 -53 73.5 -81.5t109.5 -28.5
q56 0 110 27q43 22 74 56t47 75.5t16 87.5t-20 93q-23 53 -73 81.5t-110 28.5q-59 0 -114 -28zM373 529l-6 -5l-166 76l42 40z" />
    <glyph glyph-name="ocircumflex" unicode="&#xf4;" 
d="M292 -13q-56 0 -106.5 19t-88.5 52.5t-60 78.5t-22 96t20.5 96t56.5 78t85 52.5t105 19.5q57 0 107.5 -19.5t88.5 -52.5t60 -78t22 -96t-20.5 -96t-56.5 -78.5t-85 -52.5t-106 -19zM196 429q-42 -22 -73 -56t-47 -75t-15 -87.5t22 -92.5q23 -53 73.5 -81.5t109.5 -28.5
q56 0 110 27q43 22 74 56t47 75.5t16 87.5t-20 93q-23 53 -73 81.5t-110 28.5q-59 0 -114 -28zM414 529l-11 -3l-95 130l-136 -130l-11 3l126 175z" />
    <glyph glyph-name="odieresis" unicode="&#xf6;" 
d="M292 -13q-56 0 -106.5 19t-88.5 52.5t-60 78.5t-22 96t20.5 96t56.5 78t85 52.5t105 19.5q57 0 107.5 -19.5t88.5 -52.5t60 -78t22 -96t-20.5 -96t-56.5 -78.5t-85 -52.5t-106 -19zM196 429q-42 -22 -73 -56t-47 -75t-15 -87.5t22 -92.5q23 -53 73.5 -81.5t109.5 -28.5
q56 0 110 27q43 22 74 56t47 75.5t16 87.5t-20 93q-23 53 -73 81.5t-110 28.5q-59 0 -114 -28zM214 520q-25 0 -41 15t-16 35q0 21 17 35.5t40 14.5q24 0 39.5 -14t15.5 -36q0 -20 -15 -35t-40 -15zM306 570q0 21 16.5 35.5t39.5 14.5q24 0 39.5 -14t15.5 -36q0 -20 -15 -35
t-40 -15t-40.5 15t-15.5 35z" />
    <glyph glyph-name="otilde" unicode="&#xf5;" 
d="M292 -13q-56 0 -106.5 19t-88.5 52.5t-60 78.5t-22 96t20.5 96t56.5 78t85 52.5t105 19.5q57 0 107.5 -19.5t88.5 -52.5t60 -78t22 -96t-20.5 -96t-56.5 -78.5t-85 -52.5t-106 -19zM196 429q-42 -22 -73 -56t-47 -75t-15 -87.5t22 -92.5q23 -53 73.5 -81.5t109.5 -28.5
q56 0 110 27q43 22 74 56t47 75.5t16 87.5t-20 93q-23 53 -73 81.5t-110 28.5q-59 0 -114 -28zM108 578q15 14 37 25.5t57 11.5q34 0 53.5 -9.5t35.5 -21t34.5 -21t50.5 -9.5q31 0 49 7.5t35 16.5l7 -11q-14 -13 -36.5 -27t-56.5 -14q-35 0 -54 10t-35 22.5t-34.5 22.5
t-51.5 10q-31 0 -49 -7t-35 -17z" />
    <glyph glyph-name="uacute" unicode="&#xfa;" horiz-adv-x="542" 
d="M130 475q-4 -37 -9 -89t-10 -101t-8.5 -86.5t-3.5 -44.5q-2 -31 6.5 -58t24.5 -47.5t37.5 -32.5t46.5 -12q28 0 58 18.5t57 60t49 108t35 162.5v53q-5 41 -40 63v6h102v-405q1 -21 12 -37t28 -27v-6h-102v284q-12 -72 -32.5 -126t-46 -91t-53.5 -56.5t-55 -22.5
q-24 -3 -54 3.5t-57 22.5t-47.5 42.5t-27.5 64.5q-2 12 -2.5 23.5t1.5 23.5q0 6 1 13q1 6 1.5 15t2.5 20l3 32q4 37 8 83.5t8 80.5q0 41 -36 57v6h103zM357 598l-166 -75l-6 5l130 110z" />
    <glyph glyph-name="ugrave" unicode="&#xf9;" horiz-adv-x="542" 
d="M130 475q-4 -37 -9 -89t-10 -101t-8.5 -86.5t-3.5 -44.5q-2 -31 6.5 -58t24.5 -47.5t37.5 -32.5t46.5 -12q28 0 58 18.5t57 60t49 108t35 162.5v53q-5 41 -40 63v6h102v-405q1 -21 12 -37t28 -27v-6h-102v284q-12 -72 -32.5 -126t-46 -91t-53.5 -56.5t-55 -22.5
q-24 -3 -54 3.5t-57 22.5t-47.5 42.5t-27.5 64.5q-2 12 -2.5 23.5t1.5 23.5q0 6 1 13q1 6 1.5 15t2.5 20l3 32q4 37 8 83.5t8 80.5q0 41 -36 57v6h103zM357 529l-6 -5l-166 76l42 40z" />
    <glyph glyph-name="ucircumflex" unicode="&#xfb;" horiz-adv-x="542" 
d="M130 475q-4 -37 -9 -89t-10 -101t-8.5 -86.5t-3.5 -44.5q-2 -31 6.5 -58t24.5 -47.5t37.5 -32.5t46.5 -12q28 0 58 18.5t57 60t49 108t35 162.5v53q-5 41 -40 63v6h102v-405q1 -21 12 -37t28 -27v-6h-102v284q-12 -72 -32.5 -126t-46 -91t-53.5 -56.5t-55 -22.5
q-24 -3 -54 3.5t-57 22.5t-47.5 42.5t-27.5 64.5q-2 12 -2.5 23.5t1.5 23.5q0 6 1 13q1 6 1.5 15t2.5 20l3 32q4 37 8 83.5t8 80.5q0 41 -36 57v6h103zM397 529l-11 -3l-95 130l-136 -130l-11 3l126 175z" />
    <glyph glyph-name="udieresis" unicode="&#xfc;" horiz-adv-x="542" 
d="M130 475q-4 -37 -9 -89t-10 -101t-8.5 -86.5t-3.5 -44.5q-2 -31 6.5 -58t24.5 -47.5t37.5 -32.5t46.5 -12q28 0 58 18.5t57 60t49 108t35 162.5v53q-5 41 -40 63v6h102v-405q1 -21 12 -37t28 -27v-6h-102v284q-12 -72 -32.5 -126t-46 -91t-53.5 -56.5t-55 -22.5
q-24 -3 -54 3.5t-57 22.5t-47.5 42.5t-27.5 64.5q-2 12 -2.5 23.5t1.5 23.5q0 6 1 13q1 6 1.5 15t2.5 20l3 32q4 37 8 83.5t8 80.5q0 41 -36 57v6h103zM198 520q-25 0 -41 15t-16 35q0 21 17 35.5t40 14.5q24 0 39.5 -14t15.5 -36q0 -20 -15 -35t-40 -15zM290 570
q0 21 16.5 35.5t39.5 14.5q24 0 39.5 -14t15.5 -36q0 -20 -15 -35t-40 -15t-40.5 15t-15.5 35z" />
    <glyph glyph-name="dagger" unicode="&#x2020;" horiz-adv-x="366" 
d="M173 23v301h-183v10h183v350h20v-350h184v-10h-184v-301h-20z" />
    <glyph glyph-name="AE" unicode="&#xc6;" horiz-adv-x="1185" 
d="M10 0v6q23 5 47.5 21t41.5 51l175 372q22 48 43 92t37.5 78.5t27 57t12.5 26.5q10 -21 28.5 -60t43 -90t52.5 -109.5t57 -116.5l106 -219v513q0 22 -10.5 41t-29.5 30v6h517q-5 -12 -9 -24q-4 -11 -8.5 -23.5t-9.5 -23.5q-27 22 -64 34t-78 17.5t-82 7t-76 1.5h-88v-328
q79 16 144 28q28 5 55 10t50 9.5t39 7.5t21 4q-6 -17 -13 -34q-4 -9 -6 -17q-17 14 -36 20t-41 2l-213 -41v-338h87q49 1 107.5 4t110.5 17q23 6 43.5 15t37.5 22l29 -69h-553v6q19 11 27.5 29.5t-2.5 41.5q-14 27 -28.5 58t-28.5 62q-26 36 -66 62.5t-85.5 43.5t-94.5 25
t-93 8l-122 -259q-6 -13 -3.5 -25t10 -22t17 -16.5t16.5 -7.5v-6h-142zM280 434q-10 -20 -22 -46t-20 -42q40 0 84 -6.5t86 -20t80 -35t67 -50.5q-11 23 -20 43.5t-17 35.5q-9 18 -16 33l-5 11q-25 53 -48 100.5t-40 85.5q-21 43 -39 82l-53 -113q-13 -26 -20 -41.5
t-11 -23.5q-4 -10 -6 -13z" />
    <glyph glyph-name="ae" unicode="&#xe6;" horiz-adv-x="898" 
d="M187 -13q-32 0 -61 6.5t-51 20.5t-35 35.5t-13 52.5q0 26 25.5 44.5t63.5 34t82 31.5t82 36.5t63 49t24 69.5q-6 49 -29.5 76t-83.5 26q-33 -1 -51.5 -10t-27.5 -20q-11 -13 -13 -29h-67l4 9t17 20.5t38.5 22.5t67.5 15q9 2 19.5 2h21.5q72 0 108 -25t48 -77
q33 46 90.5 75.5t140.5 29.5q53 0 96 -15.5t73 -39.5t46.5 -53.5t16.5 -57.5q1 -20 -10.5 -34.5t-27.5 -24.5q-23 -14 -56.5 -24.5t-70.5 -21t-75 -21.5t-69 -26t-51.5 -35.5t-24.5 -48.5q34 -38 79.5 -55.5t93.5 -17.5q57 0 109 21t83 58l8 -6q-20 -27 -53 -47
q-28 -18 -71 -32.5t-103 -13.5q-75 1 -129 27.5t-87 69.5v-9q1 -21 11.5 -39.5t28.5 -29.5v-6h-46q-23 0 -36 15q-15 15 -15 36q-8 -5 -25.5 -16t-42 -21.5t-54.5 -18.5t-61 -8zM637 469q-42 0 -79.5 -18.5t-64.5 -50t-42 -73t-13 -87.5q3 -49 16.5 -86.5t35.5 -65.5
q2 27 20 47.5t45.5 35.5t61 26.5t67 22.5t62.5 22t47 25q17 13 23.5 33.5t1.5 40.5q-16 60 -61.5 94t-119.5 34zM370 320q-14 -31 -41 -52t-58.5 -36.5t-64.5 -27.5t-59.5 -25.5t-42.5 -30t-14 -40.5q5 -56 37.5 -78t75.5 -22q23 0 46.5 5t46 13t41.5 18.5t33 21.5v254z" />
    <glyph glyph-name="Oslash" unicode="&#xd8;" horiz-adv-x="853" 
d="M636 733l-32 -57q52 -22 95 -55.5t74 -76t48 -92t17 -103.5q0 -75 -32.5 -141t-88 -115t-130.5 -77.5t-160 -28.5q-97 0 -182 37l-27 -50h-16l30 56q-48 23 -88 56t-68.5 74.5t-44.5 89t-16 99.5q0 75 32.5 141t88 115.5t130.5 78t161 28.5q44 0 85 -8t79 -22l28 51h17z
M760 262q19 60 17.5 121t-22.5 115.5t-60.5 98t-96.5 67.5l-347 -629q12 -5 24 -9.5t25 -7.5q46 -13 97 -13q58 0 114.5 17t105 50t86 81t57.5 109zM94 438q-19 -57 -18 -116t20 -112.5t55 -97.5t88 -71l345 629q-8 3 -15.5 5.5t-15.5 4.5q-46 13 -98 13q-58 0 -114.5 -17
t-104.5 -49.5t-85 -80t-57 -108.5z" />
    <glyph glyph-name="yen" unicode="&#xa5;" horiz-adv-x="561" 
d="M279 296l-226 349q-10 16 -20.5 29t-22.5 19v6h142v-6q-23 -11 -22.5 -34t13.5 -44l194 -297q2 5 6 10l18 27l105 161q24 36 29.5 60.5t1.5 40.5q-4 18 -17 30l45 54q16 -8 22 -25q5 -14 1.5 -38t-27.5 -62l-176 -269v-11h158v-11h-158v-98h158v-10h-158v-100
q1 -21 11.5 -40.5t29.5 -30.5v-6h-143v6q19 11 29 30.5t11 40.5v100h-140v10h140v98h-140v11h136z" />
    <glyph glyph-name="oslash" unicode="&#xf8;" 
d="M452 581l-58 -123q36 -15 66.5 -37.5t52.5 -52t34.5 -64t12.5 -71.5q0 -51 -20.5 -96t-56.5 -78.5t-85 -52.5t-106 -19q-29 0 -57 5.5t-54 15.5l-41 -87h-12l43 91q-35 15 -63.5 37.5t-49 51t-32 62t-11.5 70.5q0 51 20.5 96t56.5 78t85 52.5t105 19.5q52 0 101 -17
l56 119h13zM493 347q-15 35 -43 59t-63 37l-200 -421q39 -14 79 -14q56 0 110 27q43 22 74 56t47 75.5t16 87.5t-20 93zM196 429q-42 -22 -73 -56t-47 -75t-15 -87.5t22 -92.5q14 -32 38.5 -55t55.5 -37l199 421q-16 5 -32.5 7.5t-33.5 2.5q-59 0 -114 -28z" />
    <glyph glyph-name="Agrave" unicode="&#xc0;" horiz-adv-x="758" 
d="M10 0v6q23 5 47.5 21t41.5 51l175 372q22 48 43 92t37.5 78.5t27 57t12.5 26.5q10 -21 28.5 -60t43 -90t52.5 -109.5t57 -116.5l122 -252q14 -26 23.5 -41t27.5 -29v-6h-143v6q19 11 27.5 29.5t-2.5 41.5q-14 27 -28.5 58t-28.5 62q-26 36 -66 62.5t-85.5 43.5t-94.5 25
t-93 8l-122 -259q-6 -13 -3.5 -25t10 -22t17 -16.5t16.5 -7.5v-6h-142zM280 434q-10 -20 -22 -46t-20 -42q40 0 84 -6.5t86 -20t80 -35t67 -50.5q-11 23 -20 43.5t-17 35.5q-9 18 -16 33l-5 11q-25 53 -48 100.5t-40 85.5q-21 43 -39 82l-53 -113q-13 -26 -20 -41.5
t-11 -23.5q-4 -10 -6 -13zM465 752l-6 -5l-166 76l42 40z" />
    <glyph glyph-name="Atilde" unicode="&#xc3;" horiz-adv-x="758" 
d="M10 0v6q23 5 47.5 21t41.5 51l175 372q22 48 43 92t37.5 78.5t27 57t12.5 26.5q10 -21 28.5 -60t43 -90t52.5 -109.5t57 -116.5l122 -252q14 -26 23.5 -41t27.5 -29v-6h-143v6q19 11 27.5 29.5t-2.5 41.5q-14 27 -28.5 58t-28.5 62q-26 36 -66 62.5t-85.5 43.5t-94.5 25
t-93 8l-122 -259q-6 -13 -3.5 -25t10 -22t17 -16.5t16.5 -7.5v-6h-142zM280 434q-10 -20 -22 -46t-20 -42q40 0 84 -6.5t86 -20t80 -35t67 -50.5q-11 23 -20 43.5t-17 35.5q-9 18 -16 33l-5 11q-25 53 -48 100.5t-40 85.5q-21 43 -39 82l-53 -113q-13 -26 -20 -41.5
t-11 -23.5q-4 -10 -6 -13zM199 801q15 14 37 25.5t57 11.5q34 0 53.5 -9.5t35.5 -21t34.5 -21t50.5 -9.5q31 0 49 7.5t35 16.5l7 -11q-14 -13 -36.5 -27t-56.5 -14q-35 0 -54 10t-35 22.5t-34.5 22.5t-51.5 10q-31 0 -49 -7t-35 -17z" />
    <glyph glyph-name="Otilde" unicode="&#xd5;" horiz-adv-x="853" 
d="M427 -13q-86 0 -161 28.5t-130.5 77.5t-88 115t-32.5 141t32.5 141t88 115.5t130.5 78t161 28.5q85 0 160 -28.5t130.5 -78t88 -115.5t32.5 -141t-32.5 -141t-88 -115t-130.5 -77.5t-160 -28.5zM94 438q-21 -65 -17 -132t31 -125t75.5 -101.5t116.5 -61.5q46 -13 97 -13
q58 0 114.5 17t105 50t86 81t57.5 109q21 65 17 132t-31 124.5t-75.5 100.5t-117.5 61q-46 13 -98 13q-58 0 -114.5 -17t-104.5 -49.5t-85 -80t-57 -108.5zM247 801q15 14 37 25.5t57 11.5q34 0 53.5 -9.5t35.5 -21t34.5 -21t50.5 -9.5q31 0 49 7.5t35 16.5l7 -11
q-14 -13 -36.5 -27t-56.5 -14q-35 0 -54 10t-35 22.5t-34.5 22.5t-51.5 10q-31 0 -49 -7t-35 -17z" />
    <glyph glyph-name="OE" unicode="&#x152;" horiz-adv-x="1286" 
d="M742 6q19 11 29.5 30.5t10.5 41.5v88q-27 -40 -64.5 -73t-83.5 -56.5t-98 -36.5t-109 -13q-86 0 -161 28.5t-130.5 77.5t-88 115t-32.5 141t32.5 141t88 115.5t130.5 78t161 28.5q57 0 109 -13t98 -37t83.5 -57.5t64.5 -73.5v91q0 22 -10.5 41t-29.5 30v6h517
q-5 -12 -9 -24q-4 -11 -8.5 -23.5t-9.5 -23.5q-27 22 -64 34t-78 17.5t-82 7t-76 1.5h-88v-328q79 16 144 28q28 5 55 10t50 9.5t39 7.5t21 4q-6 -17 -13 -34q-4 -9 -6 -17q-17 14 -36 20t-41 2l-213 -41v-338h87q49 1 107.5 4t110.5 17q23 6 43.5 15t37.5 22l29 -69h-517v6
zM94 438q-21 -65 -17 -132t31 -125t75.5 -101.5t116.5 -61.5q46 -13 97 -13q58 0 114.5 17t105 50t86 81t57.5 109q21 65 17 132t-31 124.5t-75.5 100.5t-117.5 61q-46 13 -98 13q-58 0 -114.5 -17t-104.5 -49.5t-85 -80t-57 -108.5z" />
    <glyph glyph-name="oe" unicode="&#x153;" horiz-adv-x="1041" 
d="M292 -13q-56 0 -106.5 19t-88.5 52.5t-60 78.5t-22 96t20.5 96t56.5 78t85 52.5t105 19.5q42 0 81 -11t72 -30.5t59 -46.5t43 -60q13 31 35.5 59t54.5 48t73.5 32t92.5 12q53 0 96 -15.5t73 -39.5t46.5 -53.5t16.5 -57.5q1 -20 -10.5 -34.5t-27.5 -24.5
q-23 -14 -56.5 -24.5t-70.5 -21t-75 -21.5t-69 -26t-51.5 -35.5t-24.5 -48.5q34 -38 79.5 -55.5t93.5 -17.5q57 0 109 21t83 58l8 -6q-20 -27 -53 -47q-28 -18 -71 -32.5t-103 -13.5q-96 1 -158 43.5t-89 104.5q-31 -66 -96.5 -107t-150.5 -41zM196 429q-42 -22 -73 -56
t-47 -75t-15 -87.5t22 -92.5q23 -53 73.5 -81.5t109.5 -28.5q56 0 110 27q43 22 74 56t47 75.5t16 87.5t-20 93q-23 53 -73 81.5t-110 28.5q-59 0 -114 -28zM780 469q-42 0 -79.5 -18.5t-64.5 -50t-42 -73t-13 -87.5q3 -49 16.5 -86.5t35.5 -65.5q2 27 20 47.5t45.5 35.5
t61 26.5t67 22.5t62.5 22t47 25q17 13 23.5 33.5t1.5 40.5q-16 60 -61.5 94t-119.5 34z" />
    <glyph glyph-name="ydieresis" unicode="&#xff;" horiz-adv-x="447" 
d="M152 474v-6q-22 -11 -21 -31t11 -43q20 -44 44.5 -100t46.5 -107q26 -59 52 -119l103 243q11 30 9.5 49.5t-6.5 31.5q-6 13 -18 21l37 60q13 -6 20 -20q6 -12 6 -34.5t-14 -57.5q-17 -39 -37.5 -87.5t-41.5 -99t-42 -99.5t-38 -89q-11 -26 -20.5 -47.5t-16.5 -36.5
q-8 -18 -14 -32q-18 -42 -33.5 -65.5t-30.5 -34.5t-29.5 -13.5t-30.5 -3.5q2 4 5 14.5t7 21.5q4 13 10 29q12 -5 26 -1q12 3 26.5 13t30.5 36q14 24 28.5 56.5t32.5 75.5q-1 4 -4 10q-2 5 -5.5 12t-7.5 16q-14 30 -34.5 77.5t-43 99.5t-45 102.5t-38.5 87.5
q-5 10 -12.5 20.5t-16.5 19.5t-19 15.5t-18 9.5v6h142zM150 520q-25 0 -41 15t-16 35q0 21 17 35.5t40 14.5q24 0 39.5 -14t15.5 -36q0 -20 -15 -35t-40 -15zM242 570q0 21 16.5 35.5t39.5 14.5q24 0 39.5 -14t15.5 -36q0 -20 -15 -35t-40 -15t-40.5 15t-15.5 35z" />
    <glyph glyph-name="Ydieresis" unicode="&#x178;" horiz-adv-x="561" 
d="M152 699v-6q-23 -11 -22.5 -34t13.5 -44l194 -297q2 5 6 10l18 27l105 161q24 36 29.5 60.5t1.5 40.5q-4 18 -17 30l45 54q16 -8 22 -25q5 -14 1.5 -38t-27.5 -62l-176 -269v-230q1 -21 11.5 -40.5t29.5 -30.5v-6h-143v6q19 11 29 30.5t11 40.5v213q-9 13 -27 42
t-41.5 65t-49 75.5t-48.5 74.5t-40 61.5t-24 36.5q-10 16 -20.5 29t-22.5 19v6h142zM207 743q-25 0 -41 15t-16 35q0 21 17 35.5t40 14.5q24 0 39.5 -14t15.5 -36q0 -20 -15 -35t-40 -15zM299 793q0 21 16.5 35.5t39.5 14.5q24 0 39.5 -14t15.5 -36q0 -20 -15 -35t-40 -15
t-40.5 15t-15.5 35z" />
    <glyph glyph-name="Euro" unicode="&#x20ac;" horiz-adv-x="701" 
d="M317 -11q-69 6 -127 40t-99 87t-61 121t-13 143t35.5 138.5t76 108.5t112 68t142.5 16q69 -6 127 -40t99 -87t61.5 -120.5t13.5 -142.5q-7 -72 -37 -135.5t-78 -109.5t-112.5 -70t-139.5 -17zM74 372q-4 -70 12.5 -133t49.5 -111.5t81 -80.5t107 -40q51 -8 102 15t93 67
t70.5 105.5t34.5 130.5q7 78 -9.5 142.5t-51 112t-84 77t-107.5 37.5q-53 7 -104.5 -16t-93 -68t-69 -107t-31.5 -131zM530 446v-11h-360v11h360zM530 337v-10h-360v10h360z" />
    <glyph glyph-name="fl" unicode="&#xfb02;" horiz-adv-x="493" 
d="M324 6q17 11 28 26t13 35v562q-3 40 -41 64v6q26 5 51.5 14.5t50.5 22.5v-667q0 -14 10.5 -33t29.5 -30v-6h-142v6zM50 487q-17 39 -19.5 76t10 66.5t39.5 47.5t69 18q23 0 50.5 -3.5t52 -11.5t42.5 -21.5t23 -32.5h-67q-2 16 -13 29q-9 11 -28 20.5t-51 10.5
q-30 0 -50 -14.5t-29.5 -39t-8 -56t15.5 -64.5l22 -49h91v-11h-86q7 -15 13.5 -31t10.5 -35.5t6.5 -44t2.5 -56.5v-215q2 -20 12.5 -36.5t27.5 -27.5v-6h-142v6q19 11 29.5 28t11.5 39v231q0 30 -1 52t-3.5 38.5t-6 30t-9.5 27.5h-38v11h34z" />
    <glyph glyph-name="daggerdbl" unicode="&#x2021;" horiz-adv-x="366" 
d="M173 446v238h20v-238h170v-11h-170v-98h170v-10h-170v-304h-20v304h-170v10h170v98h-170v11h170z" />
    <glyph glyph-name="Acircumflex" unicode="&#xc2;" horiz-adv-x="758" 
d="M10 0v6q23 5 47.5 21t41.5 51l175 372q22 48 43 92t37.5 78.5t27 57t12.5 26.5q10 -21 28.5 -60t43 -90t52.5 -109.5t57 -116.5l122 -252q14 -26 23.5 -41t27.5 -29v-6h-143v6q19 11 27.5 29.5t-2.5 41.5q-14 27 -28.5 58t-28.5 62q-26 36 -66 62.5t-85.5 43.5t-94.5 25
t-93 8l-122 -259q-6 -13 -3.5 -25t10 -22t17 -16.5t16.5 -7.5v-6h-142zM280 434q-10 -20 -22 -46t-20 -42q40 0 84 -6.5t86 -20t80 -35t67 -50.5q-11 23 -20 43.5t-17 35.5q-9 18 -16 33l-5 11q-25 53 -48 100.5t-40 85.5q-21 43 -39 82l-53 -113q-13 -26 -20 -41.5
t-11 -23.5q-4 -10 -6 -13zM505 752l-11 -3l-95 130l-136 -130l-11 3l126 175z" />
    <glyph glyph-name="Ecircumflex" unicode="&#xca;" horiz-adv-x="571" 
d="M27 6q19 11 29.5 30.5t10.5 41.5v544q0 22 -10.5 41t-29.5 30v6h517q-5 -12 -9 -24q-4 -11 -8.5 -23.5t-9.5 -23.5q-27 22 -64 34t-78 17.5t-82 7t-76 1.5h-88v-328q79 16 144 28q28 5 55 10t50 9.5t39 7.5t21 4q-6 -17 -13 -34q-4 -9 -6 -17q-17 14 -36 20t-41 2
l-213 -41v-338h87q49 1 107.5 4t110.5 17q23 6 43.5 15t37.5 22l29 -69h-517v6zM412 752l-11 -3l-95 130l-136 -130l-11 3l126 175z" />
    <glyph glyph-name="Aacute" unicode="&#xc1;" horiz-adv-x="758" 
d="M10 0v6q23 5 47.5 21t41.5 51l175 372q22 48 43 92t37.5 78.5t27 57t12.5 26.5q10 -21 28.5 -60t43 -90t52.5 -109.5t57 -116.5l122 -252q14 -26 23.5 -41t27.5 -29v-6h-143v6q19 11 27.5 29.5t-2.5 41.5q-14 27 -28.5 58t-28.5 62q-26 36 -66 62.5t-85.5 43.5t-94.5 25
t-93 8l-122 -259q-6 -13 -3.5 -25t10 -22t17 -16.5t16.5 -7.5v-6h-142zM280 434q-10 -20 -22 -46t-20 -42q40 0 84 -6.5t86 -20t80 -35t67 -50.5q-11 23 -20 43.5t-17 35.5q-9 18 -16 33l-5 11q-25 53 -48 100.5t-40 85.5q-21 43 -39 82l-53 -113q-13 -26 -20 -41.5
t-11 -23.5q-4 -10 -6 -13zM465 821l-166 -75l-6 5l130 110z" />
    <glyph glyph-name="Edieresis" unicode="&#xcb;" horiz-adv-x="571" 
d="M27 6q19 11 29.5 30.5t10.5 41.5v544q0 22 -10.5 41t-29.5 30v6h517q-5 -12 -9 -24q-4 -11 -8.5 -23.5t-9.5 -23.5q-27 22 -64 34t-78 17.5t-82 7t-76 1.5h-88v-328q79 16 144 28q28 5 55 10t50 9.5t39 7.5t21 4q-6 -17 -13 -34q-4 -9 -6 -17q-17 14 -36 20t-41 2
l-213 -41v-338h87q49 1 107.5 4t110.5 17q23 6 43.5 15t37.5 22l29 -69h-517v6zM212 743q-25 0 -41 15t-16 35q0 21 17 35.5t40 14.5q24 0 39.5 -14t15.5 -36q0 -20 -15 -35t-40 -15zM304 793q0 21 16.5 35.5t39.5 14.5q24 0 39.5 -14t15.5 -36q0 -20 -15 -35t-40 -15
t-40.5 15t-15.5 35z" />
    <glyph glyph-name="Egrave" unicode="&#xc8;" horiz-adv-x="571" 
d="M27 6q19 11 29.5 30.5t10.5 41.5v544q0 22 -10.5 41t-29.5 30v6h517q-5 -12 -9 -24q-4 -11 -8.5 -23.5t-9.5 -23.5q-27 22 -64 34t-78 17.5t-82 7t-76 1.5h-88v-328q79 16 144 28q28 5 55 10t50 9.5t39 7.5t21 4q-6 -17 -13 -34q-4 -9 -6 -17q-17 14 -36 20t-41 2
l-213 -41v-338h87q49 1 107.5 4t110.5 17q23 6 43.5 15t37.5 22l29 -69h-517v6zM371 752l-6 -5l-166 76l42 40z" />
    <glyph glyph-name="Iacute" unicode="&#xcd;" horiz-adv-x="196" 
d="M27 0v6q39 24 41 70v546q0 22 -11 41t-30 30v6h142v-6q-38 -24 -40 -70v-545q0 -23 11 -42t29 -30v-6h-142zM184 821l-166 -75l-6 5l130 110z" />
    <glyph glyph-name="Icircumflex" unicode="&#xce;" horiz-adv-x="196" 
d="M27 0v6q39 24 41 70v546q0 22 -11 41t-30 30v6h142v-6q-38 -24 -40 -70v-545q0 -23 11 -42t29 -30v-6h-142zM225 752l-11 -3l-95 130l-136 -130l-11 3l126 175z" />
    <glyph glyph-name="Idieresis" unicode="&#xcf;" horiz-adv-x="196" 
d="M27 0v6q39 24 41 70v546q0 22 -11 41t-30 30v6h142v-6q-38 -24 -40 -70v-545q0 -23 11 -42t29 -30v-6h-142zM25 743q-25 0 -41 15t-16 35q0 21 17 35.5t40 14.5q24 0 39.5 -14t15.5 -36q0 -20 -15 -35t-40 -15zM117 793q0 21 16.5 35.5t39.5 14.5q24 0 39.5 -14t15.5 -36
q0 -20 -15 -35t-40 -15t-40.5 15t-15.5 35z" />
    <glyph glyph-name="Igrave" unicode="&#xcc;" horiz-adv-x="196" 
d="M27 0v6q39 24 41 70v546q0 22 -11 41t-30 30v6h142v-6q-38 -24 -40 -70v-545q0 -23 11 -42t29 -30v-6h-142zM184 752l-6 -5l-166 76l42 40z" />
    <glyph glyph-name="Oacute" unicode="&#xd3;" horiz-adv-x="853" 
d="M427 -13q-86 0 -161 28.5t-130.5 77.5t-88 115t-32.5 141t32.5 141t88 115.5t130.5 78t161 28.5q85 0 160 -28.5t130.5 -78t88 -115.5t32.5 -141t-32.5 -141t-88 -115t-130.5 -77.5t-160 -28.5zM94 438q-21 -65 -17 -132t31 -125t75.5 -101.5t116.5 -61.5q46 -13 97 -13
q58 0 114.5 17t105 50t86 81t57.5 109q21 65 17 132t-31 124.5t-75.5 100.5t-117.5 61q-46 13 -98 13q-58 0 -114.5 -17t-104.5 -49.5t-85 -80t-57 -108.5zM512 821l-166 -75l-6 5l130 110z" />
    <glyph glyph-name="Ocircumflex" unicode="&#xd4;" horiz-adv-x="853" 
d="M427 -13q-86 0 -161 28.5t-130.5 77.5t-88 115t-32.5 141t32.5 141t88 115.5t130.5 78t161 28.5q85 0 160 -28.5t130.5 -78t88 -115.5t32.5 -141t-32.5 -141t-88 -115t-130.5 -77.5t-160 -28.5zM94 438q-21 -65 -17 -132t31 -125t75.5 -101.5t116.5 -61.5q46 -13 97 -13
q58 0 114.5 17t105 50t86 81t57.5 109q21 65 17 132t-31 124.5t-75.5 100.5t-117.5 61q-46 13 -98 13q-58 0 -114.5 -17t-104.5 -49.5t-85 -80t-57 -108.5zM553 752l-11 -3l-95 130l-136 -130l-11 3l126 175z" />
    <glyph glyph-name="Ograve" unicode="&#xd2;" horiz-adv-x="853" 
d="M427 -13q-86 0 -161 28.5t-130.5 77.5t-88 115t-32.5 141t32.5 141t88 115.5t130.5 78t161 28.5q85 0 160 -28.5t130.5 -78t88 -115.5t32.5 -141t-32.5 -141t-88 -115t-130.5 -77.5t-160 -28.5zM94 438q-21 -65 -17 -132t31 -125t75.5 -101.5t116.5 -61.5q46 -13 97 -13
q58 0 114.5 17t105 50t86 81t57.5 109q21 65 17 132t-31 124.5t-75.5 100.5t-117.5 61q-46 13 -98 13q-58 0 -114.5 -17t-104.5 -49.5t-85 -80t-57 -108.5zM512 752l-6 -5l-166 76l42 40z" />
    <glyph glyph-name="Uacute" unicode="&#xda;" horiz-adv-x="657" 
d="M169 699v-6q-18 -11 -28.5 -30t-11.5 -40v-392q0 -112 63.5 -172t183.5 -59q46 0 89.5 14t77 42.5t53.5 72.5t20 105v287q-2 45 -14 67t-25 31q-16 11 -34 10v70q23 -1 41 -17q16 -14 29.5 -44.5t15.5 -89.5q0 -7 1 -11v-303q0 -17 -3 -42t-12.5 -52.5t-28 -55t-49 -49
t-75 -35t-107.5 -13.5t-109 12t-77.5 32t-51.5 45.5t-30.5 53t-14.5 53.5t-4 48v392q-1 21 -11.5 40t-29.5 30v6h142zM414 821l-166 -75l-6 5l130 110z" />
    <glyph glyph-name="Ucircumflex" unicode="&#xdb;" horiz-adv-x="657" 
d="M169 699v-6q-18 -11 -28.5 -30t-11.5 -40v-392q0 -112 63.5 -172t183.5 -59q46 0 89.5 14t77 42.5t53.5 72.5t20 105v287q-2 45 -14 67t-25 31q-16 11 -34 10v70q23 -1 41 -17q16 -14 29.5 -44.5t15.5 -89.5q0 -7 1 -11v-303q0 -17 -3 -42t-12.5 -52.5t-28 -55t-49 -49
t-75 -35t-107.5 -13.5t-109 12t-77.5 32t-51.5 45.5t-30.5 53t-14.5 53.5t-4 48v392q-1 21 -11.5 40t-29.5 30v6h142zM455 752l-11 -3l-95 130l-136 -130l-11 3l126 175z" />
    <glyph glyph-name="Ugrave" unicode="&#xd9;" horiz-adv-x="657" 
d="M169 699v-6q-18 -11 -28.5 -30t-11.5 -40v-392q0 -112 63.5 -172t183.5 -59q46 0 89.5 14t77 42.5t53.5 72.5t20 105v287q-2 45 -14 67t-25 31q-16 11 -34 10v70q23 -1 41 -17q16 -14 29.5 -44.5t15.5 -89.5q0 -7 1 -11v-303q0 -17 -3 -42t-12.5 -52.5t-28 -55t-49 -49
t-75 -35t-107.5 -13.5t-109 12t-77.5 32t-51.5 45.5t-30.5 53t-14.5 53.5t-4 48v392q-1 21 -11.5 40t-29.5 30v6h142zM414 752l-6 -5l-166 76l42 40z" />
    <glyph glyph-name="fi" unicode="&#xfb01;" horiz-adv-x="497" 
d="M50 487q-17 39 -19.5 76t10 66.5t39.5 47.5t69 18q23 0 50.5 -3.5t52 -11.5t42.5 -21.5t23 -32.5h-67q-2 16 -13 29q-9 11 -28 20.5t-51 10.5q-30 0 -50 -14.5t-29.5 -39t-8 -56t15.5 -64.5q6 -14 11.5 -26t10.5 -23h91v-11h-86q7 -15 13.5 -31t10.5 -35.5t6.5 -44
t2.5 -56.5v-215q2 -20 12.5 -36.5t27.5 -27.5v-6h-142v6q19 11 29.5 28t11.5 39v231q0 30 -1 52t-3.5 38.5t-6 30t-9.5 27.5h-38v11h34q-2 5 -5 11t-6 13zM327 468h143v-6q-17 -8 -28.5 -25.5t-11.5 -39.5v-329q5 -41 40 -62l-1 -6h-142l1 6q17 10 28.5 26.5t11.5 36.5v329
q-1 20 -12 36.5t-29 27.5v6zM401 558q-17 0 -29.5 11t-12.5 26q0 14 12.5 25.5t29.5 11.5t29.5 -11.5t12.5 -25.5q0 -15 -12.5 -26t-29.5 -11z" />
    </font>
</defs>
</svg>
