<?xml version="1.0" standalone="no"?>
<!DOCTYPE svg PUBLIC "-//W3C//DTD SVG 1.1//EN" "http://www.w3.org/Graphics/SVG/1.1/DTD/svg11.dtd" >
<svg xmlns="http://www.w3.org/2000/svg" xmlns:xlink="http://www.w3.org/1999/xlink" version="1.1">
<metadata>
Created by FontForge 20201107 at Tue Apr 23 22:35:10 2019
 By Unknown
Copyright (c) 2019 by Mega Type. All rights reserved.
</metadata>
<defs>
<font id="ArgentinaScript-Regular" horiz-adv-x="324" >
  <font-face 
    font-family="Argentina Script"
    font-weight="400"
    font-stretch="normal"
    units-per-em="1000"
    panose-1="2 0 5 7 0 0 0 2 0 4"
    ascent="800"
    descent="-200"
    x-height="217"
    cap-height="1038"
    bbox="-806.111 -535 2568.67 1166.25"
    underline-thickness="50"
    underline-position="-100"
    unicode-range="U+000D-E003"
  />
<missing-glyph horiz-adv-x="247" 
 />
    <glyph glyph-name=".notdef" horiz-adv-x="247" 
 />
    <glyph glyph-name="NULL" horiz-adv-x="0" 
 />
    <glyph glyph-name="nonmarkingreturn" unicode="&#xd;" horiz-adv-x="247" 
 />
    <glyph glyph-name="space" unicode=" " horiz-adv-x="247" 
 />
    <glyph glyph-name="d" unicode="d" horiz-adv-x="375" 
d="M377 208q2 4 6.5 0.5t2.5 -6.5q-15 -21 -41.5 -55t-58 -65.5t-64.5 -54.5t-60 -23q-30 0 -43 30.5t-13 80.5q0 25 3 54q-11 -19 -22.5 -38.5t-24.5 -35t-27 -25.5t-29 -10q-22 1 -31.5 15t-8.5 37q0 22 10 49t27 49.5t39.5 37.5t49.5 15q21 0 31 -11q5 24 18 68.5
t31.5 96.5t42.5 106t52 98t58.5 72t62.5 28q15 0 26.5 -6t19 -16.5t11 -24t3.5 -27.5q0 -30 -15.5 -67t-41 -77t-57.5 -81t-65 -79.5t-64.5 -72t-55.5 -58.5q-2 -7 -4.5 -20.5t-5 -30.5t-5 -36t-2.5 -37q0 -29 6.5 -51t25.5 -22q24 0 55 22.5t61.5 54t56.5 64t40 52.5z
M388 710q-29 0 -55.5 -29t-50.5 -74.5t-45 -101.5t-37.5 -109t-28 -96.5t-16.5 -65.5q24 26 54.5 59t62 69.5t61.5 75t53 76t37 71.5t14 62q0 24 -11.5 43.5t-37.5 19.5zM120 237q-3 6 -8 10.5t-13 4.5q-18 0 -36 -19t-33 -44.5t-25 -53t-10 -44.5q-1 -7 1.5 -13t10.5 -6
q14 0 29 13t29 32.5t26.5 42l22.5 40.5z" />
    <glyph glyph-name="e" unicode="e" horiz-adv-x="239" 
d="M241 208q3 4 7.5 0.5t2.5 -6.5q-15 -22 -41 -51t-56 -55t-61.5 -44t-59.5 -18q-32 0 -47.5 22t-15.5 54q0 25 8.5 52.5t25 50t40.5 37.5t54 15q22 0 34.5 -11t12.5 -30q0 -11 -6.5 -21.5t-21.5 -19.5t-39.5 -14t-60.5 -5q-12 -35 -12 -68q0 -22 7 -36.5t23 -14.5
q25 0 55 18t59 43.5t53.5 53.5t38.5 48zM106 253q-29 0 -50 -23t-35 -55q32 0 54 4.5t35 12t18.5 16.5t5.5 18q-1 11 -9 19t-19 8z" />
    <glyph glyph-name="f" unicode="f" horiz-adv-x="273" 
d="M275 208q3 4 7 0.5t2 -6.5q-39 -57 -87 -113t-97 -106q26 -14 41.5 -45t15.5 -83q0 -26 -8.5 -65.5t-25.5 -77t-42.5 -64t-59.5 -26.5q-26 0 -40.5 24.5t-21 57t-8 65t-1.5 49.5v35q-33 -23 -63 -36t-56 -13q-12 0 -20.5 6t-8.5 20q0 20 13 42t35 43t50.5 38.5t59.5 28.5
q3 25 10 70.5t18.5 102t27 120.5t35 127t43 120.5t51 102t58.5 70.5t66 26q32 1 47 -21.5t15 -52.5t-15.5 -66.5t-40 -75.5t-56 -79.5t-64.5 -78.5t-64.5 -72t-55.5 -59q-12 -57 -21.5 -113t-16.5 -110q23 5 42 5q28 0 51 -10q49 51 97 106.5t88 113.5zM270 710
q-30 1 -57 -28t-51 -74.5t-44.5 -101t-36 -108t-26 -96.5t-15.5 -65q25 26 55 59t61 69.5t60.5 74.5t52.5 75t37 70.5t14 61.5q0 24 -11.5 43.5t-38.5 19.5zM140 -146q1 49 -12.5 77.5t-36.5 42.5q-26 -26 -53 -51t-54 -45q-2 -25 -3 -48t-1 -44v-36t4 -51t12.5 -46
t25.5 -20q19 0 35.5 12t29.5 32t23 45t16.5 49.5t10 46.5t3.5 36zM-49 -134q1 25 3 51t4 53q-28 -11 -54 -28t-46.5 -36t-32.5 -39t-12 -37q0 -8 5 -11t13 -4q26 0 56 14t64 37zM-5 -18q-3 -23 -5.5 -45.5t-4.5 -43.5q24 19 48 41t48 45q-21 8 -43 8q-11 0 -21.5 -1.5
t-21.5 -3.5z" />
    <glyph glyph-name="g" unicode="g" 
d="M326 208q3 4 7.5 0.5t2.5 -6.5q-47 -66 -107 -114t-126 -88q-8 -36 -21 -89.5t-31.5 -112t-44 -117t-58.5 -104.5t-74 -75t-90 -28q-29 0 -51 12.5t-37 32t-22.5 44.5t-7.5 52q0 60 25 105.5t67 83t97 70t116 65.5q24 13 48.5 26.5t49.5 27.5q15 56 27 105.5t23 88.5
q-11 -20 -24 -42.5t-27.5 -41.5t-30 -31t-32.5 -12q-21 1 -30.5 15t-8.5 37q0 22 10 49t27 49.5t39.5 37.5t49.5 15q15 0 24 -5.5t15 -17.5q2 -5 -2.5 -7.5t-8.5 3.5q-7 16 -21 16q-18 0 -36.5 -19t-33.5 -44.5t-25 -53t-10 -44.5q0 -7 2 -13t10 -6q18 0 36 19t34.5 45.5
t30.5 52.5t23 40q0 4 7 4q8 0 6 -5q-5 -38 -14 -93t-22 -120q63 38 119 84.5t100 108.5zM-219 -515q40 0 74.5 28.5t63.5 73.5t52.5 100.5t42 110.5t31 103t20.5 77q-22 -13 -44 -25t-45 -24q-60 -32 -114 -63.5t-95 -68t-65.5 -81t-24.5 -101.5q0 -23 7 -46t20 -41.5
t32.5 -30.5t44.5 -12z" />
    <glyph glyph-name="h" unicode="h" horiz-adv-x="342" 
d="M344 207q2 5 6.5 1.5t2.5 -7.5q-10 -14 -25.5 -37t-34 -49t-39.5 -52t-42 -47t-41 -34t-37 -12q-24 1 -34 15.5t-10 37.5q0 25 6.5 50t14 49t14.5 46.5t7 42.5q2 20 -10 20q-17 0 -35.5 -19.5t-36 -46t-32 -53t-21.5 -41.5q-2 -3 -7.5 -2.5t-5.5 5.5q0 34 9.5 95.5
t26.5 133.5t41.5 146.5t56 135t69.5 98.5t82 38q32 0 47 -22t15 -52t-16 -67t-41.5 -77t-57.5 -81t-65 -79.5t-64.5 -72t-55.5 -58.5l-24 -98q11 21 24.5 43.5t29 41.5t32 31t33.5 12t27.5 -14.5t9.5 -35.5q0 -20 -6.5 -43.5t-14.5 -48t-14.5 -49t-6.5 -46.5q0 -8 3 -15.5
t13 -8.5q14 0 32.5 13t38.5 34t40 47t38.5 51t33.5 46.5t24 34.5zM270 710q-29 0 -55.5 -29t-50.5 -74.5t-45 -101t-37 -108.5t-27.5 -97t-17.5 -66q25 26 55.5 59t62 69.5t61 75t52.5 76t37.5 71.5t14.5 62q0 24 -11.5 43.5t-38.5 19.5z" />
    <glyph glyph-name="i" unicode="i" horiz-adv-x="209" 
d="M211 207q3 5 7.5 1.5t1.5 -7.5q-14 -20 -38.5 -48t-53 -53.5t-58 -43.5t-53.5 -18q-26 0 -34.5 19.5t-8.5 41.5q0 42 8.5 68t20.5 42q2 3 8.5 3t7.5 -3q1 -10 -1 -25.5t-5 -33.5t-5.5 -38t-2.5 -39q0 -8 2 -16t12 -8q20 0 48 18t56 43t52 52t36 45zM18 235q-8 0 -13 5
t-5 13t5 13t13 5t13 -5t5 -13t-5 -13t-13 -5z" />
    <glyph glyph-name="j" unicode="j" horiz-adv-x="199" 
d="M201 207q3 5 7 1.5t2 -7.5q-45 -63 -102.5 -110t-120.5 -86q-8 -36 -21.5 -90t-33.5 -113t-47 -117.5t-60.5 -105.5t-74.5 -76t-90 -29q-29 0 -51 12t-37 31.5t-23 45t-8 52.5q0 60 25 105.5t67 83t97 70t116 65.5q26 14 53 28.5t54 30.5q18 69 30 124.5t18 87.5q1 3 8 3
t7 -3q1 -23 -5.5 -73t-20.5 -116q60 37 114.5 82t96.5 104zM-344 -515q39 0 73.5 28.5t64.5 74.5t55 102.5t44.5 112t33.5 103.5t22 77q-25 -14 -49.5 -27.5t-48.5 -26.5q-60 -32 -114 -63.5t-95 -68t-65.5 -81t-24.5 -101.5q0 -23 6.5 -46t20 -41.5t32.5 -30.5t45 -12z
M10 235q-8 0 -13 5t-5 13t5 13t13 5t13 -5t5 -13t-5 -13t-13 -5z" />
    <glyph glyph-name="k" unicode="k" horiz-adv-x="349" 
d="M351 208q2 3 6.5 0t2.5 -6q-46 -65 -81.5 -107.5t-64.5 -67.5q-17 -17 -41 -32.5t-50 -14.5q-35 0 -53.5 23.5t-28.5 53.5q-9 25 -14.5 48t-13.5 34q-5 -22 -9.5 -39t-8.5 -28q0 -2 -5.5 -2t-5.5 3q0 34 9.5 95.5t26.5 134t41.5 147t56 135t69.5 98.5t82 38q32 0 47 -22
t15 -52t-16 -67t-41.5 -77t-57.5 -81t-65 -79.5t-64.5 -72t-55.5 -58.5l-12 -48q23 13 42.5 27.5t35.5 35.5q3 4 7 0t2 -7q-17 -23 -38 -38t-46 -29q19 -8 30.5 -32.5t21.5 -52.5q11 -30 22.5 -53.5t29.5 -23.5q21 0 44 15.5t37 28.5q28 25 63.5 67t80.5 106zM270 710
q-29 0 -56 -29t-51 -74.5t-44.5 -101.5t-36.5 -108.5t-27.5 -96.5t-17.5 -66q25 26 55.5 59t62 69.5t61 75t52.5 76t37.5 71.5t14.5 62q0 24 -11.5 43.5t-38.5 19.5z" />
    <glyph glyph-name="l" unicode="l" horiz-adv-x="258" 
d="M259 207q3 5 7.5 1.5t2.5 -7.5q-15 -21 -42 -54.5t-58.5 -65t-64 -54.5t-59.5 -23q-30 0 -43 30.5t-13 80.5q0 31 10.5 88t29.5 124.5t45 137.5t57 127t66.5 93t73.5 36q32 0 46 -22.5t14 -51.5q0 -30 -15.5 -67t-41 -77t-57.5 -81t-65 -79.5t-64.5 -72t-55.5 -58.5
q-2 -7 -4.5 -20.5t-5 -30.5t-5 -36t-2.5 -37q0 -29 6.5 -51t25.5 -22q24 0 54.5 22.5t61 54t56.5 63.5t40 52zM271 710q-29 0 -55.5 -29t-50.5 -74.5t-45 -101.5t-37.5 -109t-28 -96.5t-16.5 -65.5q24 26 54.5 59t62 69.5t61 75t53 76t37.5 71.5t14 62q0 24 -11.5 43.5
t-37.5 19.5z" />
    <glyph glyph-name="m" unicode="m" horiz-adv-x="469" 
d="M470 207q3 5 7.5 1.5t1.5 -6.5q-7 -11 -18.5 -25t-25.5 -30t-30.5 -32t-32.5 -30q-18 -15 -42 -30.5t-49 -15.5q-20 0 -31 9.5t-11 30.5q0 14 4 29.5t9 30.5t9.5 27.5t4.5 20.5t-7 8q-18 0 -37.5 -19t-37 -42t-30.5 -42.5t-19 -19.5q-9 0 -12.5 7.5t-3.5 19.5t2.5 26.5
t6 29.5t6 29t2.5 24q0 5 -1.5 10.5t-9.5 5.5q-12 0 -24 -12t-22 -28.5t-18 -33t-12 -25.5q-13 -27 -23.5 -47.5t-19.5 -20.5t-15 5t-9.5 12.5t-5 16t-1.5 15.5q-1 28 8 58t20 45q2 3 8 2.5t8 -2.5t0.5 -17t-4 -34.5t-5.5 -40t-3 -32.5q0 -2 0.5 -7.5t2.5 -5.5q1 0 5 7.5
t8.5 17.5t8.5 18.5t5 10.5q6 12 14.5 30.5t20.5 36t26 30t30 12.5q23 0 31.5 -15t7.5 -36q0 -20 -6.5 -43t-14.5 -40q8 13 21 31t29 34.5t33 28t33 11.5q31 0 31 -33q0 -12 -3.5 -27t-7.5 -29t-7.5 -27.5t-3.5 -22.5q-2 -17 13 -17q10 0 21 4.5t22 11t21 14t17 13.5
q16 14 32 29.5t29.5 31t25 29.5t18.5 24z" />
    <glyph glyph-name="n" unicode="n" horiz-adv-x="344" 
d="M346 208q3 3 7.5 -0.5t2.5 -6.5q-7 -10 -18.5 -24.5t-26 -30t-30.5 -31.5t-33 -30q-17 -15 -41.5 -30.5t-48.5 -15.5q-20 0 -31.5 11t-11.5 31q0 14 4 29.5t9.5 30t10 26.5t4.5 20t-7 8q-13 0 -28.5 -13.5t-30.5 -32t-27 -37t-19 -28.5l-11 -16.5t-15 -10.5
q-10 0 -16 5.5t-9.5 13.5t-4.5 17t-1 17q0 26 8.5 55.5t19.5 43.5q2 3 8 2.5t8 -2.5t0.5 -18t-4.5 -36t-5.5 -40.5t-2.5 -31.5t3 -11q2 0 6.5 8t6.5 10q8 12 21 32t28.5 38.5t32.5 32t34 13.5q31 0 31 -33q0 -12 -3.5 -27t-7.5 -29.5t-7.5 -28t-3.5 -22.5q0 -16 14 -16
q9 0 20.5 4.5t22.5 11.5t20.5 14t16.5 13q33 28 62 61t43 54z" />
    <glyph glyph-name="o" unicode="o" horiz-adv-x="306" 
d="M308 208q2 3 6.5 -0.5t2.5 -6.5q-14 -20 -33 -37.5t-42 -30t-47.5 -19.5t-48.5 -7q-20 0 -33 4q-11 -24 -30.5 -40.5t-47.5 -15.5q-35 0 -50.5 22.5t-14.5 51.5q0 24 10.5 47.5t29.5 37.5q8 6 14 -0.5t-2 -13.5q-7 -7 -11.5 -26t-4.5 -40q0 -26 7.5 -47.5t27.5 -21.5
q21 1 36.5 15t25.5 34q-27 11 -39.5 39.5t-11.5 56.5q1 22 10.5 38t27.5 16q22 0 32 -21t11 -50q0 -17 -3.5 -35.5t-11.5 -36.5q12 -3 28 -3q46 0 91 26t71 64zM107 125q8 18 11 36.5t3 32.5q0 25 -7 42t-24 17q-13 0 -20 -13.5t-7 -32.5q-1 -24 10 -48t34 -34z" />
    <glyph glyph-name="p" unicode="p" horiz-adv-x="327" 
d="M329 208q2 4 6.5 0.5t2.5 -6.5q-36 -54 -90 -77t-117 -28q-24 -35 -61.5 -54t-81.5 -17q-8 -32 -18.5 -65.5t-21.5 -67.5q-29 -88 -54 -169.5t-30 -144.5q-1 -6 -6 -6.5t-6 7.5q-4 31 -0.5 68t12 77.5t20.5 83t26 85.5q12 35 23.5 70.5t22.5 70.5q-10 5 -16 14t-5 20
q0 19 13.5 28.5t30.5 11.5q8 28 13.5 53t7.5 48q1 5 6.5 5t5.5 -5q4 -43 -5 -98q1 4 12.5 25t28.5 44.5t37.5 42t41.5 18.5q17 0 27.5 -14.5t10.5 -35.5t-7.5 -43t-18.5 -40q57 5 106.5 27.5t83.5 71.5zM134 211q0 20 -11 20q-12 0 -26 -11.5t-28 -29.5t-27 -39.5t-23 -40.5
q11 0 21.5 -0.5t20.5 -1.5q9 -1 18 -1h19q13 20 24 50.5t12 53.5zM-9 37q31 0 56 17t43 42h-15t-15 1q-11 1 -22.5 1.5t-24.5 0.5l-14 -27zM-40 45q4 14 8 27t8 25q-11 -2 -20 -8.5t-10 -18.5q-1 -15 14 -25z" />
    <glyph glyph-name="q" unicode="q" horiz-adv-x="329" 
d="M331 207q3 5 7 1t2 -7q-42 -60 -86 -117t-93 -110q38 -23 54.5 -66.5t15.5 -94.5q-1 -53 -17.5 -107.5t-42.5 -99.5t-58.5 -73t-65.5 -28q-29 0 -45 18.5t-21.5 48t-3 67t10 77t17 76.5t18.5 66q-27 -16 -53 -24.5t-51 -7.5q-26 0 -39 12.5t-12 30.5q0 19 14 41
t39.5 41.5t62.5 32.5t83 13q18 55 33.5 105.5t23.5 93.5q-11 -21 -24.5 -44.5t-28.5 -44t-31.5 -34t-34.5 -13.5q-21 1 -30.5 15t-8.5 37q0 22 10 49t27 49.5t39.5 37.5t49.5 15q15 0 24 -5.5t15 -17.5q3 -5 -2 -7.5t-8 3.5q-4 7 -9 11.5t-13 4.5q-18 0 -36.5 -19
t-33.5 -44.5t-25 -53t-10 -44.5q0 -7 2 -13t10 -6q18 0 36 19t34.5 45t30.5 52.5t23 40.5q2 3 6 2.5t5 -5.5q4 -48 -7.5 -107t-30.5 -124q27 -5 48 -15q50 53 94 110t86 117zM214 -187q1 48 -13 88.5t-49 63.5q-36 -38 -74 -68l-8 -6q-7 -22 -19.5 -58t-24 -78t-20 -84.5
t-8.5 -77t11 -56t38 -21.5q29 0 58.5 27.5t53 70.5t38.5 96t17 103zM-80 -163q25 -1 52 9t55 28l12 35q6 20 12 39t13 38q-42 -1 -76 -13t-58.5 -30t-37.5 -38t-13 -36q0 -14 9.5 -23t31.5 -9zM77 -90q17 14 32.5 29t32.5 32q-10 5 -20 8t-22 5z" />
    <glyph glyph-name="s" unicode="s" horiz-adv-x="284" 
d="M286 207q2 4 7 1t3 -6q-17 -24 -37 -40.5t-43 -27t-48 -17.5t-50 -13q7 -15 7 -38q0 -21 -8 -38.5t-21.5 -30t-31.5 -19.5t-38 -6q-23 1 -41 13t-18 37q0 21 11 35.5t27.5 24t36 15.5t36.5 10q-11 13 -25.5 25.5t-27 26.5t-21 31.5t-8.5 40.5q0 20 7.5 38t20 31.5t30 21
t37.5 7.5q32 0 47.5 -18.5t4.5 -48.5q-2 -5 -7.5 -4t-3.5 7q8 24 -3.5 38.5t-37.5 14.5q-15 0 -28 -5.5t-22.5 -15.5t-15 -23t-4.5 -28q0 -21 11 -37t25.5 -31t30 -30t25.5 -34q50 11 95.5 29.5t77.5 63.5zM24 -16q32 -1 52.5 20.5t19.5 53.5q0 22 -12 39q-15 -3 -33 -8.5
t-34.5 -14t-27.5 -21t-11 -31.5q0 -20 14.5 -29t31.5 -9z" />
    <glyph glyph-name="t" unicode="t" horiz-adv-x="258" 
d="M260 208q2 4 6.5 0.5t2.5 -6.5q-54 -76 -97 -125q-12 -14 -28.5 -31t-35 -31.5t-38.5 -24.5t-39 -10q-17 0 -27 8.5t-15 21t-7 27.5t-2 28q0 39 8.5 86t21.5 95.5t27.5 96t26.5 88.5q-21 -1 -41.5 -0.5t-37.5 2.5q-35 4 -57.5 15t-21.5 36q0 6 5.5 4.5t5.5 -4.5
q0 -20 19.5 -28.5t49.5 -11.5q17 -2 38.5 -2h42.5q7 22 12 41t7 33q1 4 6.5 3t5.5 -3q0 -24 -11 -74h49.5t48.5 -2q28 -3 45.5 -11.5t16.5 -26.5q0 -3 -5.5 -3.5t-5.5 4.5q-1 12 -15 18t-37 8q-24 2 -49 2h-50q-9 -45 -21.5 -100t-24.5 -110.5t-20 -105t-8 -82.5
q0 -6 0.5 -13.5t2.5 -14t6.5 -10.5t12.5 -4q17 0 35.5 10t36 24.5t33 30.5t26.5 28q20 23 44 54t52 70z" />
    <glyph glyph-name="u" unicode="u" horiz-adv-x="331" 
d="M333 208q2 4 6.5 0.5t2.5 -6.5q-10 -14 -25 -34t-35 -42q-35 -41 -74.5 -68t-70.5 -26q-21 0 -32 8t-15.5 20.5t-3.5 27t4 28.5q-14 -26 -32.5 -44t-41.5 -18q-26 0 -35.5 18.5t-9 44t9.5 51.5t21 41q2 3 8.5 3t6.5 -3q1 -11 -3 -35t-7 -48t-2 -42.5t13 -18.5
q21 0 36.5 17.5t28 41.5t23.5 49.5t23 40.5q4 5 9 3t5 -6q0 -12 -6.5 -40t-11 -56.5t-3 -50t16.5 -21.5q26 -1 62.5 25t71.5 65q20 22 35.5 42t24.5 33z" />
    <glyph glyph-name="v" unicode="v" horiz-adv-x="378" 
d="M380 208q2 3 6.5 0t2.5 -6q-12 -18 -30.5 -34t-40.5 -28t-46.5 -18.5t-47.5 -5.5q-20 0 -38.5 6t-32.5 20q-9 -14 -23.5 -33.5t-31.5 -37t-35.5 -30t-36.5 -12.5q-15 0 -24.5 8t-14 20t-5.5 25.5t-1 25.5q1 34 10 69t19 53q4 6 9 4t6 -5q1 -9 0 -26.5t-3.5 -38t-4 -42
t-1.5 -39.5q0 -5 0.5 -12t2 -13.5t5 -11.5t9.5 -5q13 0 29.5 13t32 30.5t29 36t21.5 29.5q-13 14 -18 35.5t-5 44.5q2 57 22 84.5t40 27.5q14 0 23 -12.5t9 -37.5q-1 -24 -13 -58.5t-44 -81.5q14 -13 30.5 -19t34.5 -6q22 0 45 6t44 17.5t38.5 26t28.5 31.5zM152 160
q29 46 41 79t12 55q0 18 -6.5 27.5t-15.5 9.5q-15 0 -31.5 -25.5t-17.5 -77.5q-1 -20 3.5 -38t14.5 -30z" />
    <glyph glyph-name="w" unicode="w" horiz-adv-x="491" 
d="M493 208q3 5 7.5 1t2.5 -7q-13 -19 -33 -38t-44 -33.5t-50.5 -23.5t-52.5 -8q-34 0 -58 17q-9 -17 -21.5 -37.5t-28 -38.5t-34.5 -29.5t-40 -11.5t-33.5 9.5t-19 24.5t-7 34t2.5 39q-13 -25 -31 -46t-39 -21q-28 0 -38.5 16t-10.5 39q0 16 3.5 33.5t9 33.5t12 28.5
t12.5 19.5q2 3 8.5 3t7.5 -3q1 -10 -2 -26t-7 -34t-7 -36t-3 -32t3.5 -22.5t13.5 -8.5q16 0 29.5 17t25 40t22 47.5t19.5 39.5q3 6 9 3.5t6 -6.5q0 -10 -2.5 -27t-5 -37t-3.5 -40.5t1 -37.5t8.5 -28t20.5 -11q17 0 33.5 12.5t31 30t26 37t19.5 33.5q-20 17 -26.5 42t-5.5 49
q0 27 6.5 47.5t15.5 34.5t20 21t21 7q13 0 22 -12t8 -37q0 -17 -4.5 -36.5t-11.5 -39.5t-15.5 -38.5t-15.5 -33.5q22 -15 53 -17q24 0 49 9t48 23t42 31.5t31 34.5zM261 134q7 13 14.5 31t14.5 37.5t11.5 38.5t4.5 35q1 20 -5 28.5t-14 8.5q-16 0 -33.5 -26t-18.5 -73
q-1 -21 4.5 -43.5t21.5 -36.5z" />
    <glyph glyph-name="x" unicode="x" horiz-adv-x="297" 
d="M299 208q2 3 6.5 0t2.5 -6q-14 -21 -33.5 -47.5t-43 -50t-49.5 -40t-53 -16.5q-32 1 -55.5 14.5t-38.5 35.5q-20 -20 -34.5 -38t-13.5 -34q1 -7 -4.5 -7.5t-6.5 5.5q-2 20 14 40.5t38 43.5q-14 23 -20.5 52t-8.5 57q0 8 5 9t9 -4q11 -13 20 -37.5t21 -50.5q20 20 36.5 42
t24.5 46q1 4 6.5 2t4.5 -5q-8 -27 -26.5 -50.5t-39.5 -45.5q13 -26 30.5 -44.5t43.5 -18.5q23 0 47 16.5t46 40t41 48.5t31 43z" />
    <glyph glyph-name="y" unicode="y" horiz-adv-x="328" 
d="M330 208q3 4 7.5 0t2.5 -6q-47 -66 -107 -114t-126 -88q-8 -37 -20.5 -90t-31.5 -111.5t-44.5 -116.5t-58 -104t-73 -75t-89.5 -29q-29 0 -51.5 12t-37.5 31.5t-23 45t-8 52.5q0 60 25 105.5t67 83t97 70t116 65.5q24 13 48.5 26.5t49.5 27.5q14 54 25.5 101.5t22.5 85.5
q-6 -14 -17.5 -34.5t-25.5 -39.5t-30.5 -32t-33.5 -13q-23 0 -32 15t-9 36q2 27 12 56t18 43q3 2 7 3.5t10 -3.5q3 -11 1 -26.5t-5.5 -33t-7 -33.5t-3.5 -28q0 -6 1 -12t9 -6q18 0 35.5 19.5t33.5 45t28.5 51.5t21.5 39q2 2 7.5 1.5t4.5 -3.5q-5 -37 -14 -91.5t-22 -118.5
q63 38 119.5 84.5t100.5 108.5zM-214 -515q39 0 73.5 28.5t63.5 73.5t52.5 101t41.5 110.5t31 102.5t21 77l-89 -49q-60 -32 -114 -63.5t-95 -68t-65.5 -81t-24.5 -101.5q0 -23 7 -46.5t20 -42t32.5 -30t45.5 -11.5z" />
    <glyph glyph-name="z" unicode="z" horiz-adv-x="313" 
d="M315 207q3 5 7 1.5t2 -7.5q-32 -45 -77.5 -84.5t-99.5 -76.5q10 -23 14 -52.5t4 -63.5q-1 -41 -9 -88.5t-24 -94.5t-40.5 -91t-57 -78t-73.5 -54t-90 -19q-33 0 -60.5 11t-47 30.5t-30.5 47.5t-10 62q1 51 27 94.5t68 82.5t96.5 75.5t111.5 72.5q24 15 48.5 30t47.5 31
q-8 26 -22.5 41.5t-34.5 16.5q-10 0 -19.5 -3t-18.5 -8q-6 -3 -8 2t3 8q18 12 34.5 30.5t28.5 39t19.5 40.5t7.5 35q0 26 -19 26q-12 0 -24.5 -6.5t-24 -16.5t-21 -21.5t-16.5 -21.5q-2 -4 -7.5 -1.5t-1.5 7.5q17 25 41.5 47.5t56.5 22.5q20 0 34.5 -12.5t14.5 -38.5
q-1 -35 -28.5 -66t-59.5 -54q5 1 13 1q25 -1 43 -15t30 -39q52 36 96.5 74.5t75.5 82.5zM132 -63q2 52 -7 88q-23 -16 -46.5 -30.5t-46.5 -29.5q-57 -36 -110 -71.5t-94.5 -73.5t-67 -80t-26.5 -90q0 -30 9 -55.5t26.5 -44t41.5 -29t54 -11.5q45 -1 82 20.5t66.5 57.5t51 82
t36.5 93.5t22.5 93t8.5 80.5z" />
    <glyph glyph-name="c" unicode="c" horiz-adv-x="239" 
d="M241 208q3 3 7.5 0t2.5 -6q-15 -22 -41 -51t-56 -55t-61.5 -44t-59.5 -18q-32 0 -47.5 22t-15.5 54q0 25 8.5 52.5t25 50t40.5 37.5t54 15q21 0 34.5 -12t11.5 -38q-1 -7 -6.5 -6.5t-4.5 7.5q2 19 -6 28t-20 9q-23 0 -42 -16t-32.5 -39.5t-20.5 -51t-7 -50.5
q0 -22 7 -36.5t23 -14.5q25 0 55 18t59 43.5t53.5 53.5t38.5 48z" />
    <glyph glyph-name="A" unicode="A" horiz-adv-x="1395" 
d="M1383 -261q8 -2 7 -7.5t-9 -3.5q-45 9 -70.5 43.5t-38 79t-16 92t-3.5 82.5q1 66 7 139t14 150q-102 13 -189 12q-47 -83 -102 -165.5t-115 -159t-123 -143.5t-125.5 -118.5t-123 -85t-114.5 -41.5q-8 -1 -8 4.5t7 6.5q48 8 103.5 40.5t113.5 83t118 117t117.5 141.5
t112 156.5t101.5 162.5q-114 -5 -203 -31.5t-154 -65.5q-29 -18 -58.5 -42.5t-52 -55t-35 -65.5t-7.5 -72q6 -57 60 -97q8 -5 4.5 -9.5t-11.5 0.5q-56 43 -64 105q-5 39 7.5 75.5t36 68t54 57.5t61.5 44q66 41 158.5 67.5t210.5 31.5q42 74 77 145t60 134t39 116t14 92
q0 54 -16 91.5t-45 61.5t-69.5 35t-89.5 11q-82 1 -169.5 -22t-171.5 -61.5t-161.5 -87t-138.5 -99.5q-78 -64 -145.5 -141t-117.5 -164.5t-79 -185t-30 -202.5q0 -5 -5.5 -7t-5.5 7q1 107 30 205.5t80 187t119 166t147 142.5q62 51 140 100.5t163.5 88t173.5 62t171 22.5
q55 0 99 -12t75 -38.5t47.5 -67.5t16.5 -100q0 -43 -12 -97.5t-34.5 -116t-54 -128.5t-70.5 -136q43 0 89 -2.5t95 -9.5q10 97 19 191.5t9 179.5q0 41 -3 86t-14.5 87.5t-34 79t-61.5 60.5q-7 4 -4 8.5t9 1.5q47 -29 74 -77.5t40.5 -105t16.5 -115t3 -106.5q-1 -72 -6 -146
t-13 -149l34 -6q8 -2 7 -7.5t-8 -3.5l-34 6q-9 -96 -17 -185t-8 -163q0 -29 2.5 -64.5t12 -68t29 -57.5t55.5 -32z" />
    <glyph glyph-name="B" unicode="B" horiz-adv-x="1807" 
d="M1809 208q3 5 7 1t3 -6q-32 -48 -89.5 -81.5t-130.5 -56.5q-26 -83 -82 -164t-138.5 -144t-189 -101.5t-232.5 -35.5q-76 2 -152 24t-136 68q-69 -38 -140.5 -63t-147.5 -36q-6 -1 -6.5 4.5t4.5 6.5q73 10 142 35.5t134 63.5q-38 32 -59.5 69t-20.5 72q0 48 31.5 77
t76.5 44.5t94 20.5t84 5h107q56 74 101 154.5t78 165.5q-33 -3 -68 -3q-8 0 -20 0.5t-23 3.5t-19.5 9t-8.5 16q0 15 19 28.5t46.5 25t58 20t53.5 14.5q36 126 41 247q3 72 -11 133t-46.5 106t-84.5 70t-126 25q-76 0 -157 -24.5t-162 -68t-158.5 -103.5t-147 -131
t-128 -150.5t-101.5 -162t-67.5 -166t-25.5 -161.5q0 -8 -5.5 -7.5t-5.5 7.5q1 106 44 219.5t115 222t167 206t201 171t217 116.5t214 43q67 0 117.5 -18.5t86.5 -51.5t58.5 -79t31.5 -102q6 37 19.5 65.5t32.5 50.5q27 31 61.5 46.5t70.5 14.5q46 0 80.5 -17t57 -45.5
t34 -66.5t10.5 -80q0 -39 -11 -81t-32 -83t-53 -79.5t-75 -71.5q89 -30 131 -97.5t41 -152.5q0 -56 -16 -111q69 22 122 53.5t84 76.5zM957 -369q116 -3 214.5 33t175.5 96t131 137t81 157q-66 -18 -139.5 -28.5t-147 -16t-144.5 -7.5t-132 -2q-67 -86 -146.5 -157.5
t-170.5 -124.5q60 -43 132.5 -64t145.5 -23zM1584 193q0 81 -36.5 144t-114.5 92q-48 -34 -109.5 -58.5t-136.5 -35.5q-33 -86 -79 -167.5t-103 -156.5q62 0 132.5 2t143.5 8t145 16.5t137 28.5q19 64 21 127zM1259 681q-2 -57 -10.5 -114t-23.5 -115q25 4 51.5 6t52.5 1
q50 -1 92 -12q41 33 71.5 71.5t50.5 79.5t30 82.5t11 80.5q0 40 -9.5 75t-28 60.5t-46.5 40.5t-64 15q-34 1 -66 -14t-58 -44q-26 -31 -38.5 -69t-14.5 -79q1 -16 0.5 -32t-0.5 -33zM665 -271q85 51 158.5 120t136.5 151h-99q-32 0 -79 -4.5t-90.5 -18.5t-74.5 -41t-31 -72
q-1 -33 20 -68t59 -67zM1222 441q-14 -47 -30 -93q66 11 119.5 34t96.5 55q-38 10 -80 11q-26 1 -53 -1t-53 -6zM1079 339q19 0 37 1t35 3l16 44t15 45q-23 -5 -51 -13.5t-52.5 -18t-41.5 -21t-17 -22.5q0 -6 7 -9.5t17 -5.5t20 -2.5t15 -0.5z" />
    <glyph glyph-name="C" unicode="C" horiz-adv-x="1766" 
d="M1768 207q3 4 7 1t2 -7q-26 -38 -58.5 -82.5t-70 -92.5t-80 -96.5t-87.5 -93.5q-46 -46 -94.5 -86t-99 -69.5t-102 -47t-102.5 -18.5q-96 -1 -157.5 40t-94.5 111.5t-39 164.5t10.5 199.5t53 216.5t88 215.5t116.5 196.5t138 159q-73 25 -147 46t-157 21
q-105 -1 -211 -41t-204 -108.5t-183 -160t-148 -194.5t-99.5 -211.5t-37.5 -211.5q0 -6 -5.5 -5.5t-5.5 5.5q1 105 38 215t101 214t150 196t185 161.5t206 110t214 41.5q43 0 83 -6t78.5 -16t76 -22.5t75.5 -24.5q67 60 139 94t146 33q39 0 67 -7.5t47 -19.5t27.5 -28
t8.5 -33q0 -20 -13 -39.5t-37 -34.5t-59 -24t-80 -7q-61 2 -117 16t-112 33q-69 -67 -131.5 -157.5t-113 -194t-87 -213.5t-54.5 -214t-15 -196.5t31 -162t84 -109t145 -37.5q50 1 100 18t99.5 46.5t97.5 69t94 84.5q45 45 86.5 93.5t79 96t70 92t58.5 81.5zM1492 1043
q-66 -1 -131.5 -34t-127.5 -91q54 -17 108 -30.5t112 -15.5q43 -2 76 6.5t56 22t34.5 31.5t11.5 36q-1 29 -34 52t-105 23z" />
    <glyph glyph-name="D" unicode="D" horiz-adv-x="1840" 
d="M1843 208q2 4 6.5 0t2.5 -6q-45 -65 -109 -96t-139 -41q-45 -92 -107.5 -173t-144.5 -141t-183 -95t-223 -35q-38 0 -74 7t-68 20.5t-58.5 34t-45.5 48.5q-75 -46 -154.5 -76.5t-164.5 -41.5q-6 -1 -6.5 4.5t4.5 6.5q84 11 162 42t150 79q-14 24 -21 52.5t-6 61.5
q1 62 27 111.5t68 84t96.5 53t112.5 19.5q38 0 77 -3q81 136 128.5 282.5t52.5 285.5q3 72 -11 133t-46.5 106t-84.5 70t-126 25q-76 0 -157 -24.5t-162 -68t-158.5 -103.5t-147 -131t-128 -150.5t-101.5 -162t-67.5 -166t-25.5 -161.5q0 -8 -5.5 -7.5t-5.5 7.5
q1 106 44 219.5t115 222t167 206t201 171t217 116.5t214 43q81 0 138 -26.5t93.5 -73t53.5 -110t16 -138.5q13 47 35 94.5t52 87.5q35 46 78.5 75t97.5 29q49 0 86.5 -31t63 -85.5t38 -128t12.5 -158.5q-1 -118 -28.5 -246t-84.5 -249q72 10 132 40t102 91zM676 -144
q-1 -31 5.5 -56.5t18.5 -48.5q101 68 186.5 161t151.5 202q-17 1 -35 1.5t-35 0.5q-56 -1 -108.5 -19t-93 -51.5t-65.5 -81.5t-25 -108zM946 -368q115 0 210.5 33.5t173 92t136.5 136.5t102 167q-63 -5 -124.5 0t-123 14t-123 19.5t-123.5 16.5q-71 -113 -163.5 -209
t-201.5 -165q18 -27 44 -46.5t57 -32.5t65.5 -19.5t70.5 -6.5zM1573 73q57 121 84 250t29 247q2 83 -8.5 155t-31.5 125t-52.5 83.5t-71.5 30.5q-51 0 -92.5 -28t-74.5 -71q-21 -27 -37.5 -59t-29.5 -64.5t-21 -64.5t-12 -60q-12 -125 -57 -251.5t-117 -244.5
q61 -6 122.5 -16t123 -19t123 -13.5t123.5 0.5z" />
    <glyph glyph-name="E" unicode="E" horiz-adv-x="1766" 
d="M1768 207q3 4 7 1t2 -7q-26 -38 -58.5 -82.5t-70 -92.5t-80 -96.5t-87.5 -93.5q-38 -38 -84.5 -77.5t-98.5 -72t-108 -52.5t-113 -19q-72 1 -124 27.5t-85.5 71.5t-49.5 104.5t-14 127.5q2 69 21 142.5t55 142.5t87.5 130.5t117.5 106.5q-48 30 -61 84t3.5 118t58 131
t101.5 122q-68 23 -139.5 42.5t-152.5 19.5q-78 -1 -156.5 -23.5t-154.5 -63t-147.5 -96t-134.5 -121.5q-64 -67 -117 -143t-91.5 -156.5t-60 -162t-22.5 -160.5q0 -7 -5.5 -7.5t-5.5 7.5q1 80 22.5 163t60.5 164t92.5 158t118.5 145q64 67 136 123t149 96.5t157 63.5
t158 24q82 1 154.5 -19t147.5 -46q62 55 137.5 89t158.5 34q77 0 113.5 -26.5t36.5 -59.5q0 -20 -12.5 -40t-36.5 -35.5t-59 -24.5t-81 -7q-65 2 -123.5 17.5t-116.5 35.5q-55 -53 -95 -117t-57 -125t-9 -113t49 -80q26 16 58 31.5t66.5 26.5t69.5 18t67 7q35 -1 51 -10.5
t16 -24.5q0 -14 -15 -29.5t-43.5 -28.5t-70 -21.5t-95.5 -7.5q-60 0 -100 18q-63 -47 -112 -109.5t-83 -133.5t-52.5 -145t-19.5 -143q-1 -62 12.5 -117t42.5 -95.5t74.5 -64.5t108.5 -24q56 0 111 19.5t106 51t96.5 70.5t83.5 77q45 45 87 93.5t79.5 96t70 92t58.5 81.5z
M1364 551q-31 0 -63.5 -6.5t-64.5 -17.5t-62 -26.5t-55 -32.5q36 -17 86 -17q51 -1 90.5 6.5t66.5 19t41.5 25t14.5 25.5q-1 11 -14 17.5t-40 6.5zM1492 1043q-75 0 -143.5 -33.5t-126.5 -86.5q57 -20 113 -34.5t118 -16.5q43 -2 76 6.5t55.5 22t34.5 31.5t12 36
q-1 29 -34 52t-105 23z" />
    <glyph glyph-name="F" unicode="F" horiz-adv-x="1312" 
d="M1868 1108q4 5 8 1t2 -7q-23 -31 -63.5 -52.5t-92 -35t-110.5 -20t-120.5 -9t-121 -2t-111.5 2.5q-19 -60 -32.5 -126t-23.5 -131.5t-18 -127.5t-15 -115q64 -5 108 -4t72 6.5t40.5 15.5t12.5 25q0 8 5 7.5t5 -6.5q0 -38 -57 -55t-189 -8q-25 -138 -56.5 -250t-73.5 -201
t-95.5 -157t-121.5 -118q-84 -61 -190 -94t-242 -35q-10 0 -10 5.5t10 5.5q133 1 234 33t179 91q66 49 116 117t89 157.5t69 200.5t56 248q-65 4 -105.5 0.5t-64 -14t-32 -27t-8.5 -37.5q0 -8 -5.5 -8t-5.5 8q0 24 10 44t35.5 33t69 18t109.5 1q9 52 19 113.5t23.5 126.5
t30 131t37.5 127q-30 1 -56 1.5t-46 0.5q-160 0 -316 -33t-295 -110q-108 -59 -199 -143.5t-159 -186.5t-110 -218t-52 -239q0 -6 -6 -6t-5 6q10 124 53 241.5t111.5 221t159 190t197.5 149.5q134 79 285.5 120t316.5 41q26 0 59.5 -2t72.5 -4q14 38 30 66.5t34 45.5
q7 6 10.5 1.5t-2.5 -9.5q-17 -16 -31.5 -43t-26.5 -62q52 -3 111 -5.5t118 -2t116 5t106.5 16t87.5 31t60 49.5z" />
    <glyph glyph-name="G" unicode="G" horiz-adv-x="1729" 
d="M1731 208q2 3 7 1t2 -7q-40 -58 -98 -94.5t-123 -59.5q-32 -117 -85 -221.5t-130.5 -182.5t-180 -124t-233.5 -46q-36 0 -79.5 6t-87.5 18.5t-85 32.5t-72.5 47.5t-50 63.5t-17.5 82q1 39 17 71t42 56.5t59.5 43.5t70 32.5t72.5 21.5t68 13q81 12 164.5 18.5t167 14
t166 19t160.5 35.5q28 88 46 176.5t29 172.5q-32 -40 -73 -72.5t-88.5 -55.5t-98 -35t-101.5 -12q-54 0 -98.5 14.5t-76.5 43t-49.5 71t-17.5 100.5q0 56 17.5 118.5t48.5 124.5t74 120t95 105q-73 24 -146 44t-151 21q-86 0 -169.5 -26t-160.5 -69.5t-146 -100t-125 -117.5
q-63 -68 -114.5 -144t-89 -155t-58 -158.5t-21.5 -155.5q0 -6 -5.5 -6t-5.5 6q0 77 21 158t58.5 161t90.5 156.5t116 144.5q57 62 126.5 119.5t148 101.5t163.5 70t172 26q81 -1 155.5 -21.5t150.5 -46.5q30 27 64 50t71 40t76.5 26.5t81.5 9.5q20 0 45.5 -4t48 -14
t38.5 -27t16 -43q0 -20 -12.5 -39.5t-36.5 -34.5t-59.5 -24t-81.5 -7q-63 2 -121 16.5t-115 34.5q-49 -47 -90 -105t-70.5 -119.5t-46.5 -123t-17 -116.5q-1 -103 53.5 -158t154.5 -56q51 0 102.5 13t99 38t88.5 59t71 76q3 3 6 3q6 0 6 -5q-3 -86 -15.5 -176.5
t-36.5 -180.5q61 22 116 57.5t93 89.5zM1496 1043q-39 0 -75.5 -9.5t-70.5 -26t-65.5 -39.5t-58.5 -48q56 -18 111.5 -32t115.5 -16q43 -2 76.5 6t56 21.5t34 31t11.5 35.5q0 23 -14 38t-35 23.5t-44.5 12t-41.5 3.5zM884 -514q122 0 217.5 46.5t168.5 123t124.5 176
t86.5 204.5q-78 -23 -159.5 -34.5t-164 -19t-165 -13.5t-163.5 -18q-45 -6 -100 -21.5t-103 -42t-81.5 -66.5t-35.5 -96q-1 -43 16.5 -77.5t48 -61t70 -45.5t81.5 -31.5t83.5 -18t75.5 -5.5z" />
    <glyph glyph-name="H" unicode="H" horiz-adv-x="1593" 
d="M1809 1094q10 2 10 -3.5t-8 -7.5q-25 -4 -49.5 -31.5t-47.5 -70.5t-44.5 -98.5t-40.5 -115t-35.5 -120.5t-29.5 -115t-22.5 -97.5t-14.5 -68.5q49 -1 80.5 8t39.5 35q3 10 8 8.5t3 -9.5q-8 -33 -43.5 -45t-91.5 -13q-7 -38 -18 -99t-21.5 -133.5t-18 -150t-8.5 -148
t7 -128t30 -89.5q5 -8 0.5 -11t-9.5 5q-23 34 -34 92t-13 128.5t2.5 147.5t12.5 149.5t17 134.5t17 102q-23 1 -46.5 2.5t-49.5 3.5q-45 3 -93.5 6t-99.5 3q-32 -91 -79.5 -178.5t-107.5 -167t-131 -148t-151 -122t-168 -89t-180 -47.5q-6 -1 -6.5 4.5t4.5 6.5
q89 12 172.5 47t159.5 88t143.5 121t124.5 146t102.5 164t77.5 175q-73 -2 -145.5 -15.5t-138 -47t-120.5 -90.5t-92 -147q-2 -7 -7.5 -5t-2.5 10q39 92 95.5 151.5t124 94t142.5 49t150 17.5q27 79 43 157t18 153q3 72 -11 133t-46.5 106t-84.5 70t-126 25
q-76 0 -157 -24.5t-162 -68t-158.5 -103.5t-147 -131t-128 -150.5t-101.5 -162t-67.5 -166t-25.5 -161.5q0 -8 -5.5 -7.5t-5.5 7.5q1 106 44 219.5t115 222t167 206t201 171t217 116.5t214 43q82 0 139.5 -27t94 -74.5t52.5 -113t15 -141.5q-2 -74 -16 -148.5t-39 -149.5
q50 0 97.5 -2.5t92.5 -6.5q26 -2 50 -3.5t46 -2.5q6 28 16.5 72.5t25 99.5t33 116t40 121t46 115.5t50 98.5t53 70.5t55.5 32.5z" />
    <glyph glyph-name="I" unicode="I" horiz-adv-x="507" 
d="M451 1038q30 -1 51 -19.5t34 -52t18.5 -80t3.5 -102.5q-2 -76 -16 -165t-37.5 -184t-55.5 -191.5t-70.5 -186.5t-82 -168.5t-90.5 -138t-96.5 -96t-98.5 -41.5q-11 -1 -11.5 4t10.5 7q47 5 94 42.5t91 98.5t85 141.5t77 172t65.5 189t51.5 192.5t35.5 183.5t16.5 161.5
q4 100 -14 160.5t-61 60.5q-36 0 -68 -24t-58 -58.5t-45.5 -73t-30.5 -66.5q-15 -36 -29.5 -85.5t-25 -102t-14 -103t4.5 -89.5q2 -10 -3.5 -11.5t-7.5 9.5q-8 40 -4.5 91.5t14 104.5t25.5 103t30 87q12 30 32.5 70t47.5 75.5t60.5 60t71.5 24.5z" />
    <glyph glyph-name="J" unicode="J" horiz-adv-x="1376" 
d="M1378 207q3 5 8 2t2 -7q-40 -58 -107.5 -97t-145.5 -65q-26 -62 -61.5 -129t-80 -131t-97 -121t-113.5 -99.5t-130 -67.5t-145 -25q-44 0 -90 12t-83.5 37t-61 62.5t-22.5 87.5q1 58 34 102.5t85.5 77.5t118.5 56.5t133 40t127.5 27t103.5 17.5q54 9 117.5 21.5
t127.5 31.5q57 138 89.5 282t36.5 274q1 46 -2.5 96t-13.5 98t-29 91.5t-48.5 76t-72 52t-99.5 20.5q-103 1 -213 -44t-215 -120.5t-199 -175t-165 -209t-113 -221t-43 -211.5q0 -8 -5.5 -8.5t-5.5 8.5q1 76 25.5 159.5t67.5 167.5t102 166t129 156t149 137.5t160.5 109
t164.5 71.5t162 25q61 0 107.5 -20.5t80 -54.5t55 -79t34 -96t17 -104.5t3.5 -104.5q-2 -125 -32 -261t-84 -267q74 25 136.5 62t100.5 91zM509 -522q71 1 134.5 26t120 67t106 97t90.5 115.5t74 123.5t58 120q-63 -18 -123.5 -30.5t-113.5 -20.5q-41 -7 -100.5 -17
t-125 -26t-130.5 -39t-117.5 -55t-85.5 -74.5t-34 -98.5q-1 -48 22 -83.5t59 -58.5t80 -34.5t86 -11.5z" />
    <glyph glyph-name="K" unicode="K" horiz-adv-x="1678" 
d="M1885 -246q5 2 7.5 -3.5t-4.5 -7.5q-51 -18 -103 -30t-106 -12q-73 0 -127 22t-93.5 59.5t-66.5 88t-46 106t-32 114t-25 112t-24 99.5t-29 77q-18 -6 -37 -9q-48 -137 -129.5 -265.5t-188 -231.5t-234 -172t-266.5 -88q-6 -1 -6.5 4.5t4.5 6.5q89 12 173 47t160 88
t143.5 121t124.5 146.5t102.5 164.5t77.5 175q-7 0 -17 0.5t-19.5 3t-16.5 7.5t-7 15q0 11 6.5 20t17 15.5t22 10t21.5 3.5h9t8 -1q37 129 42 252q3 72 -11 133t-46.5 106t-84.5 70t-126 25q-76 0 -157 -24.5t-162 -68t-158.5 -103.5t-147 -131t-128 -150.5t-101.5 -162
t-67.5 -166t-25.5 -161.5q0 -8 -5.5 -7.5t-5.5 7.5q1 106 44 219.5t115 222t167 206t201 171t217 116.5t214 43q82 0 139.5 -27t94 -74.5t52.5 -113t15 -141.5q-3 -124 -41 -253q17 -10 27 -23q46 23 94 65t97 91.5t98.5 100.5t99 92.5t99 67.5t98.5 26q22 0 40 -7
q7 -2 4.5 -7t-7.5 -3q-18 4 -36 6q-43 1 -87 -26.5t-90 -71t-93.5 -96.5t-97 -103t-101 -92t-104.5 -62q20 -32 35 -77.5t28 -99t27 -111t32 -112.5t43 -105t60.5 -87.5t84 -59.5t113.5 -22q51 0 103 12.5t100 29.5zM1165 380l8 24t7 25q-4 1 -13 1q-7 0 -17 -2.5
t-18.5 -7.5t-14.5 -12t-6 -16q0 -7 6.5 -10t15.5 -4t18 0t14 2zM1225 396q-3 5 -6 8t-6 7q-2 -6 -3.5 -11.5t-3.5 -10.5z" />
    <glyph glyph-name="L" unicode="L" horiz-adv-x="1264" 
d="M1606 -288q5 7 9.5 3.5t0.5 -8.5q-18 -27 -51.5 -44.5t-72.5 -28.5t-78 -15.5t-68 -4.5q-79 0 -155 19t-150 48t-145.5 62.5t-141.5 61.5q-38 -25 -84 -38t-100 -12q-15 0 -37.5 3.5t-43.5 11.5t-36.5 21.5t-15.5 33.5q0 16 11 25.5t27 14.5t33 7t28 2q58 1 113 -10.5
t109 -30.5q50 41 88 103.5t67.5 138.5t52 161.5t42.5 173.5t38.5 174.5t40 164t47.5 143t60 110.5q-39 5 -78.5 10.5t-81.5 5.5q-93 -1 -187 -24.5t-182.5 -64t-169.5 -94.5t-148 -116q-75 -70 -137 -149.5t-106 -164.5t-68 -172.5t-25 -173.5q0 -7 -5.5 -7.5t-5.5 7.5
q1 87 25.5 176t69 174.5t106.5 166t139 151.5q68 62 149.5 117t171 96t184.5 65t189 24q43 0 84.5 -6t83.5 -10q17 20 41 40t53 20q14 0 30 -8t16 -25q0 -12 -9 -20.5t-21 -13t-25.5 -6.5t-22.5 -2q-27 0 -52 3q-30 -45 -53 -110t-42 -143t-36.5 -165t-36.5 -175.5
t-42.5 -174.5t-54 -162.5t-71 -140t-94.5 -105.5q73 -27 147 -60.5t148 -63t149 -50t149 -20.5q26 0 59.5 4t66 13.5t61 25t44.5 38.5zM1296 1062q-26 0 -44 -16t-32 -35q11 -1 22 -1.5t22 -0.5q6 0 17.5 1.5t22.5 5t19 10t8 15.5q0 11 -13 16t-22 5zM569 -234q92 0 163 48
q-23 9 -49 17.5t-53 15t-54.5 11t-52.5 4.5q-8 0 -21 -1.5t-25 -5.5t-20.5 -11t-8.5 -18q0 -17 14.5 -28.5t34 -18.5t40 -10t32.5 -3z" />
    <glyph glyph-name="M" unicode="M" horiz-adv-x="2176" 
d="M2178 207q4 5 8 1t2 -7q-22 -32 -55.5 -75.5t-74 -90t-86.5 -91.5t-93 -80.5t-93.5 -56.5t-88.5 -20q-45 1 -73 24t-43 57.5t-19.5 75t-3.5 76.5q1 57 14 135.5t35 168t52.5 182.5t66 179t74.5 158t80 119l13 14q-29 -17 -62 -44.5t-67.5 -60.5t-67.5 -68.5t-62 -68
t-52 -59.5t-35 -43q-38 -49 -71 -98t-59 -96q2 -34 0 -67q0 -8 -2.5 -31.5t-7.5 -48.5t-14 -44t-22 -19q-7 0 -11 4.5t-6.5 11t-3 14t-0.5 12.5q-1 43 17 88t39 83q-5 74 -29.5 163.5t-62.5 174.5q-35 78 -79 140t-92 89q-11 6 -8 11t12 0q51 -29 96 -92t81 -144
q36 -80 60 -166t31 -159q26 44 57.5 89.5t66.5 91.5q15 19 43.5 53.5t65 74.5t77.5 82t81 76t76 57t63 25q6 1 6.5 -4.5t-6.5 -6.5q-25 -5 -57 -41q-36 -41 -71.5 -115t-68.5 -164.5t-62 -190t-50 -192.5t-33.5 -171.5t-13.5 -127.5q0 -29 3 -63t14.5 -63.5t34 -49.5
t60.5 -21q40 -1 85 21t91 57.5t91 80t84.5 90.5t72 88t53.5 73zM958 1037q82 0 139.5 -27t94 -74.5t52.5 -113t15 -141.5q-3 -115 -36 -235t-91 -233t-138 -215t-176.5 -182t-207 -133.5t-229.5 -69.5q-6 -1 -6.5 4.5t4.5 6.5q117 16 224 70.5t199.5 136t169 185
t131.5 216.5t87 231t36 229q3 72 -11 133t-46.5 106t-84.5 70t-126 25q-76 0 -157 -24.5t-162 -68t-158.5 -103.5t-147 -131t-128 -150.5t-101.5 -162t-67.5 -166t-25.5 -161.5q0 -8 -5.5 -7.5t-5.5 7.5q1 106 44 219.5t115 222t167 206t201 171t217 116.5t214 43zM1406 387
q1 8 1 16v16q-17 -32 -31.5 -71t-14.5 -76q0 -2 0.5 -7.5t1.5 -11t3 -10t5 -4.5q10 -1 16.5 20t10.5 47.5t6 50.5t2 30z" />
    <glyph glyph-name="N" unicode="N" horiz-adv-x="1600" 
d="M1864 1031q8 0 7.5 -5.5t-6.5 -6.5q-32 -3 -64 -38.5t-62.5 -93t-59.5 -132.5t-55 -156.5t-48.5 -164.5t-40.5 -157t-31 -134t-20 -95q3 -45 5 -90t1 -90q-1 -19 -2.5 -42t-5 -42.5t-9 -32.5t-14.5 -13q-13 0 -19 22t-7 62q-1 53 8 130t26 169q-6 62 -17 142.5t-29 168.5
t-43.5 177t-60 167t-79 139.5t-99.5 94.5q-8 5 -5.5 9.5t10.5 0.5q55 -33 99 -92.5t78.5 -135t60.5 -161.5t44.5 -171t30 -163t18.5 -138q7 37 20 94t30.5 124.5t39.5 141t47.5 145.5t55 137t61 115.5t65.5 81t70 33.5zM1478 -124q1 32 0.5 64t-2.5 64q-14 -73 -21.5 -129.5
t-6.5 -88.5q0 -37 11 -37q5 0 8.5 13t5.5 32.5t3.5 41.5t1.5 40zM958 1037q82 0 139.5 -27t94 -74.5t52.5 -113t15 -141.5q-3 -115 -36 -235t-91 -233t-138 -215t-176.5 -182t-207 -133.5t-229.5 -69.5q-6 -1 -6.5 4.5t4.5 6.5q117 16 224 70.5t199.5 136t169 185
t131.5 216.5t87 231t36 229q3 72 -11 133t-46.5 106t-84.5 70t-126 25q-76 0 -157 -24.5t-162 -68t-158.5 -103.5t-147 -131t-128 -150.5t-101.5 -162t-67.5 -166t-25.5 -161.5q0 -8 -5.5 -7.5t-5.5 7.5q1 106 44 219.5t115 222t167 206t201 171t217 116.5t214 43z" />
    <glyph glyph-name="O" unicode="O" horiz-adv-x="1749" 
d="M1760 654q1 -87 -17.5 -197t-55 -224t-90.5 -223t-124 -194t-156 -137t-186 -52q-69 0 -118.5 35.5t-82 96.5t-47.5 143t-15 176q0 103 18.5 214.5t53 218.5t85 203t114.5 168q-66 17 -132 32t-137 15q-89 0 -173.5 -28.5t-161.5 -75t-144.5 -106.5t-122.5 -125
q-54 -65 -102.5 -141.5t-84 -160.5t-55 -171.5t-14.5 -173.5q1 -11 -4.5 -11t-6.5 11q-5 87 14.5 175.5t55.5 173t84.5 162.5t103.5 143q55 66 124 127t147.5 108t164 75.5t175.5 28.5q73 1 141 -15t136 -34q63 69 138 108.5t161 39.5q68 -1 100.5 -25.5t31.5 -56.5
q0 -20 -13.5 -40.5t-39 -37t-63 -27t-86.5 -10.5q-55 0 -107.5 9.5t-104.5 23.5q-63 -74 -112 -174t-83 -211t-51 -226t-15 -220q1 -86 15 -160t42 -128.5t70.5 -86t100.5 -31.5q74 0 140 30t124 82t107 121.5t88.5 149.5t69.5 166t50.5 170t30 162.5t8.5 142.5
q-1 52 -9 109.5t-28 110t-54.5 95t-87.5 64.5q-12 5 -9.5 10.5t13.5 0.5q56 -23 92 -67.5t56.5 -100t29 -115.5t8.5 -115zM1446 1027q-78 1 -147 -37.5t-127 -105.5q51 -13 101 -22t103 -9q46 0 81.5 9.5t59.5 24.5t37 33.5t13 36.5q0 28 -29.5 49t-91.5 21z" />
    <glyph glyph-name="P" unicode="P" horiz-adv-x="1402" 
d="M1303 916q46 0 80.5 -21t57 -56.5t33 -83t10.5 -100.5q-1 -52 -11.5 -106.5t-31.5 -106.5t-51.5 -98t-70 -80.5t-88.5 -55t-106 -20.5q-40 0 -72 12t-55 34q-20 -74 -46.5 -144.5t-64 -134t-88.5 -119.5t-120 -100.5t-157 -76t-200 -46.5q-8 -1 -9 4.5t7 6.5
q112 15 198.5 47.5t153 79t115 105t83.5 125t59 139.5t42 149q-25 44 -25 102q0 5 5.5 5t5.5 -5q0 -24 5 -45.5t13 -39.5q14 58 24.5 116.5t21.5 116.5q13 70 27.5 138t34 130t46 117t64.5 100l-66 10t-67 5q-99 0 -195.5 -22t-187.5 -61.5t-174.5 -95t-155.5 -121.5
q-75 -70 -137 -149.5t-106 -164.5t-68 -172.5t-25 -173.5q0 -7 -5.5 -7t-5.5 8q1 87 25.5 176t69 174.5t106.5 166t139 150.5q73 67 157 123t175.5 96t189.5 62t198 22q36 0 71 -5.5t70 -10.5q18 20 42.5 39.5t52.5 19.5q14 0 30 -8t16 -25q0 -12 -9 -20.5t-21.5 -13
t-26 -6.5t-22.5 -2q-26 0 -51 3q-29 -41 -50.5 -88.5t-38.5 -100.5q30 45 77 74.5t103 29.5zM1296 1062q-26 0 -44 -16t-33 -34q22 -3 44 -3q6 0 17.5 1.5t23 5t19.5 9.5t8 16q0 11 -13 16t-22 5zM1125 199q52 0 96 20.5t80 56t63.5 81.5t46 98.5t28 107t9.5 105.5
q0 49 -8.5 92t-26.5 75.5t-45.5 51t-64.5 18.5q-34 0 -65.5 -12.5t-57 -33.5t-45 -49.5t-29.5 -59.5q-14 -55 -25.5 -113t-22.5 -118q-13 -68 -26.5 -136t-30.5 -136q45 -48 124 -48z" />
    <glyph glyph-name="Q" unicode="Q" horiz-adv-x="858" 
d="M1229 -319q4 4 7.5 -0.5t0.5 -7.5q-67 -66 -137.5 -93t-142.5 -26q-60 0 -120 14.5t-118.5 37.5t-116 50.5t-112.5 53.5q-51 -43 -112 -70t-129 -27q-23 0 -48 6.5t-45.5 19t-34.5 32.5t-14 47q0 26 12 42.5t31.5 25.5t42 12.5t43.5 3.5q66 1 130 -17t129 -44
q49 50 90.5 114.5t74 138t57 153t40.5 159t24 156t7 145.5q-1 38 -4.5 83.5t-13.5 90.5t-26.5 87t-42.5 74t-63 51.5t-87 19.5q-83 0 -154.5 -39t-131 -106t-106 -155.5t-79 -188.5t-50 -205t-19 -204.5t13.5 -187t48 -152.5q5 -9 0 -11.5t-10 6.5q-34 66 -49 155
t-13.5 189.5t19 207t50.5 207.5t80.5 191t108.5 157.5t135 107t159 39.5q57 0 99 -21t72 -56.5t49 -81.5t30.5 -96t15.5 -101t4 -95q0 -68 -9 -143.5t-26 -152.5t-43 -154t-60 -147.5t-76.5 -132.5t-93.5 -110q58 -25 116.5 -52t116.5 -50t116.5 -38.5t118.5 -15.5
q65 0 126.5 23.5t119.5 80.5zM248 -376q63 0 119.5 26.5t102.5 67.5q-67 31 -130 52t-123 21q-17 0 -34.5 -4t-32 -13t-23.5 -23t-9 -33q0 -24 13 -41.5t32 -29.5t41.5 -17.5t43.5 -5.5z" />
    <glyph glyph-name="R" unicode="R" horiz-adv-x="1471" 
d="M1503 -304q6 2 7 -3.5t-4 -6.5q-26 -7 -49.5 -9.5t-44.5 -2.5q-51 0 -86 17.5t-58 47t-36 68t-21 81.5t-13 88t-11.5 86t-17 76t-29.5 59q-7 -1 -18 -1.5t-25 -0.5q-16 0 -33 1t-31.5 4t-23.5 8t-9 14q0 7 7 12t16.5 7.5t19 3.5t14.5 1q32 0 56.5 -9t42.5 -26
q82 13 143 56.5t101.5 103.5t60.5 129.5t20 136.5q0 52 -11.5 98.5t-34.5 81.5t-57.5 55.5t-80.5 19.5q-32 0 -62 -10.5t-55 -29t-44 -43.5t-29 -55q-15 -56 -26.5 -115t-22.5 -120q-18 -98 -38.5 -197.5t-53 -193.5t-82 -179t-125 -153t-182.5 -115.5t-255 -67.5
q-8 -1 -9 4.5t7 6.5q142 19 244 66.5t174 114.5t118.5 151t77 177t50 191t37.5 195q13 70 27.5 138t34 130t46 117t64.5 100l-66 10t-67 5q-99 0 -195.5 -22t-187.5 -61.5t-174.5 -95t-155.5 -121.5q-75 -70 -137 -149.5t-106 -164.5t-68 -172.5t-25 -173.5q0 -7 -5.5 -7
t-5.5 8q1 87 25.5 176t69 174.5t106.5 166t139 150.5q73 67 157 123t175.5 96t189.5 62t198 22q36 0 71 -5.5t70 -10.5q18 20 42.5 39.5t52.5 19.5q14 0 30 -8t16 -25q0 -12 -9 -20.5t-21.5 -13t-26 -6.5t-22.5 -2q-26 0 -51 3q-29 -42 -51 -90t-39 -102q30 42 75.5 67.5
t99.5 26.5q54 0 95 -22.5t68.5 -60t41.5 -87t14 -104.5q0 -68 -21 -139t-64.5 -131t-109.5 -103.5t-155 -56.5q28 -33 41.5 -84t22 -107.5t16.5 -114t26 -103.5t51 -75.5t91 -30.5q38 -1 89 12zM1296 1062q-26 0 -44 -16t-33 -34q22 -3 44 -3q6 0 17.5 1.5t23 5t19.5 9.5
t8 16q0 11 -13 16t-22 5zM1094 206q12 0 21.5 0.5t14.5 1.5q-14 13 -31.5 20t-41.5 7q-3 0 -10 -0.5t-15 -2t-14 -4t-6 -6.5q0 -5 7.5 -8t19.5 -5t26.5 -2.5t28.5 -0.5z" />
    <glyph glyph-name="S" unicode="S" horiz-adv-x="1456" 
d="M1458 207q2 4 6.5 0.5t2.5 -7.5q-26 -38 -63 -63t-80 -41t-88.5 -25t-88.5 -13q-1 -80 -9 -155t-27.5 -141t-52.5 -120.5t-83.5 -94t-120.5 -61t-164 -21.5q-63 0 -120 20t-101 56.5t-70.5 89t-26.5 118.5q-1 70 24.5 120.5t68.5 85t99 55.5t117 32.5t122 15t114 3.5
q49 0 97.5 1t94.5 4q0 83 -1.5 169.5t-1.5 170.5t2.5 163.5t11 150t25 129t43.5 100.5q-35 7 -69.5 10t-69.5 3q-120 1 -243 -35.5t-238 -102t-216 -156t-176.5 -197t-119.5 -225.5t-45 -242q0 -6 -5.5 -6.5t-5.5 7.5q1 124 45.5 244.5t121 228.5t178.5 199t218.5 157
t241 103t246.5 36q36 -1 72 -4t72 -10q13 18 33 32t43 23.5t47 15t45 5.5q35 0 53 -13t19 -30q1 -21 -26 -39.5t-85 -19.5q-34 0 -66 4.5t-49 7.5q-25 -40 -39 -97.5t-21 -127t-8 -148.5t0.5 -163t3.5 -170t2 -170q42 4 86.5 12.5t85.5 24t77 40t62 61.5zM1362 1024
q-18 0 -39 -5t-41 -13.5t-37.5 -21.5t-29.5 -29q15 -3 46 -7t63 -4q51 1 75 15.5t24 30.5q0 14 -15.5 24t-45.5 10zM690 -523q87 0 151.5 20.5t111 59t76.5 91.5t47.5 117.5t24.5 138t8 151.5q-47 -3 -95 -4t-97 -1q-51 0 -110.5 -3.5t-118.5 -14t-114 -30t-97.5 -52.5
t-68 -81.5t-25.5 -116.5q0 -64 25 -115t67.5 -86.5t98 -54.5t116.5 -19z" />
    <glyph glyph-name="T" unicode="T" horiz-adv-x="1117" 
d="M1868 1082q4 5 8 1t2 -7q-28 -39 -76.5 -60.5t-109 -30t-128.5 -8t-135.5 6t-129.5 12.5t-111 10q-18 -37 -32.5 -88.5t-26 -108.5t-20 -117.5t-16 -116.5t-14 -104t-12.5 -81q-32 -164 -89 -302t-148 -239.5t-221 -159t-308 -58.5q-10 0 -10 5.5t11 5.5
q118 1 212.5 27.5t168 74.5t129 115.5t97 150.5t71 180t50.5 204q6 32 13.5 78.5t16.5 101.5t20.5 114.5t25.5 117t30.5 109.5t37.5 91q-9 1 -17 1h-15q-160 0 -316 -33t-295 -110q-108 -59 -199 -143.5t-159 -186.5t-110 -218.5t-52 -239.5q0 -5 -6 -5t-5 6
q10 124 53 241.5t111.5 221t159 190t197.5 149.5q134 79 291 119.5t322 40.5q13 0 27 -0.5t31 -1.5q12 18 26 32q7 6 10.5 1.5t-2.5 -9.5q-12 -12 -21 -25q51 -5 113 -12t128 -13t131 -8t122 4.5t101 24t68 50.5z" />
    <glyph glyph-name="U" unicode="U" horiz-adv-x="1721" 
d="M1882 906q0 -37 -13 -90t-34 -114.5t-47 -126.5t-52 -124.5t-50 -110t-40 -82.5q-26 -113 -42.5 -219.5t-16.5 -193.5q0 -47 5.5 -85.5t18 -66.5t32 -44t48.5 -17q7 0 7 -5.5t-7 -5.5q-34 1 -58.5 19.5t-40 50t-23 75t-8.5 96.5q-2 63 5.5 135t21.5 150
q-50 -90 -107 -175.5t-118.5 -152t-125 -106.5t-127.5 -40q-55 1 -88 31t-50.5 74t-23.5 94.5t-6 92.5q-1 72 9 160t28 182t43.5 189t56 182t65 161.5t71.5 126.5q-11 2 -22.5 3.5t-22.5 3.5q-26 4 -53.5 7.5t-56.5 3.5q-99 0 -195.5 -22t-187.5 -62t-174.5 -95t-155.5 -122
q-75 -69 -137 -149t-106 -165t-68 -173t-25 -174q0 -5 -5.5 -5t-5.5 6q1 87 25.5 176t69 175t106.5 166.5t139 150.5q73 67 157 123t175.5 96t189.5 62.5t198 22.5q29 0 57 -3.5t55 -7.5q13 -2 25.5 -4t25.5 -3q7 9 16.5 19.5t20 19.5t22.5 15t25 6q14 -1 24.5 -8.5
t10.5 -21.5q0 -13 -8.5 -21.5t-20.5 -13.5t-25.5 -7t-23.5 -2h-14t-14 1q-34 -52 -66 -126.5t-61 -162.5t-53 -184.5t-41.5 -191t-28 -182.5t-10.5 -159q0 -35 3 -81.5t16.5 -89t40.5 -72.5t75 -31q64 -1 128.5 41.5t127 113t120 160.5t107.5 183q3 15 12.5 55.5t24 97
t33 123t39 133.5t42.5 130t43.5 111.5t41 77.5t36.5 29q5 0 8.5 -4t5 -9t2 -10.5t0.5 -9.5zM1865 928q-7 0 -19 -24.5t-27 -65.5t-32.5 -93.5t-34.5 -108.5t-33 -111t-29 -100.5t-21.5 -77t-10.5 -40.5q15 31 36.5 77.5t45 101.5t47 114.5t42 116t30 105.5t12.5 83
q0 3 -1 13t-5 10zM1307 1026q-10 0 -19 -5.5t-17.5 -13t-15.5 -16.5t-12 -16q5 -1 10.5 -1h10.5q7 0 18.5 1.5t22.5 5.5t18.5 10.5t7.5 16.5q0 9 -8 13t-16 5z" />
    <glyph glyph-name="V" unicode="V" horiz-adv-x="1593" 
d="M1973 1159q9 2 10 -3.5t-7 -7.5q-39 -10 -75 -44t-70 -86t-66 -119t-63 -144.5t-61 -162t-60 -170.5l-28 -84t-39 -112.5t-48.5 -129t-57.5 -132.5t-65.5 -124.5t-72.5 -104.5t-79 -71t-85 -26q-37 0 -63 16.5t-44.5 43.5t-29.5 61t-17 69.5t-8 69t-2 60.5q0 83 11 177
t30.5 191t46 192t57 179.5t63.5 153.5t65 115q-11 2 -22.5 3.5t-22.5 3.5q-26 4 -53.5 7.5t-56.5 3.5q-99 0 -195.5 -22t-187.5 -62t-174.5 -95t-155.5 -122q-75 -69 -137 -149t-106 -165t-68 -173t-25 -174q0 -5 -5.5 -5t-5.5 6q1 87 25.5 176t69 175t106.5 166.5
t139 150.5q73 67 157 123t176 96t189.5 62.5t197.5 22.5q29 0 57 -3.5t55 -7.5q13 -2 25.5 -4t25.5 -3q7 9 16.5 19.5t20 19.5t22.5 15t25 6q14 -1 24.5 -8.5t10.5 -21.5q0 -13 -8.5 -21.5t-20.5 -13.5t-25.5 -7t-23.5 -2h-14t-14 1q-30 -45 -61 -117.5t-60.5 -162
t-55.5 -190.5t-45 -202.5t-30 -199t-9 -179.5q0 -21 2 -48.5t6.5 -57t13.5 -57.5t23.5 -50.5t35.5 -36.5t50 -14q42 0 82 26t77 71t71 104t64.5 124t56.5 131.5t47.5 127.5t38 111t27.5 81q46 131 92 256t95 226t102.5 168.5t113.5 83.5zM1307 1026q-10 0 -19 -5.5
t-17.5 -13t-15.5 -16.5t-12 -16q5 -1 10.5 -1h10.5q7 0 19 1.5t22.5 5.5t18 10.5t7.5 16.5q0 9 -8 13t-16 5z" />
    <glyph glyph-name="W" unicode="W" horiz-adv-x="2244" 
d="M2373 1118q5 -17 5 -48q0 -46 -10 -122t-29.5 -171t-47.5 -203t-65 -218q-17 -51 -44 -123.5t-63.5 -151t-81.5 -156.5t-98.5 -139.5t-114.5 -100t-128 -38.5q-40 0 -66 19.5t-41.5 52.5t-22 76t-6.5 89q0 39 3 78t7.5 74t9.5 63.5t8 47.5q-50 -90 -107 -175.5
t-118.5 -152t-125 -106.5t-127.5 -40q-55 1 -88 31t-50.5 74t-23.5 94.5t-6 92.5q-1 72 9 160t28 182t43.5 189t56 182t65 161.5t71.5 126.5q-11 2 -22.5 3.5t-22.5 3.5q-26 4 -53.5 7.5t-56.5 3.5q-99 0 -195.5 -22t-187.5 -62t-174.5 -95t-155.5 -122q-75 -69 -137 -149
t-106 -165t-68 -173t-25 -174q0 -5 -5.5 -5t-5.5 6q1 87 25.5 176t69 175t106.5 166.5t139 150.5q73 67 157 123t176 96t189.5 62.5t197.5 22.5q29 0 57 -3.5t55 -7.5q13 -2 25.5 -4t25.5 -3q7 9 16.5 19.5t20 19.5t22.5 15t25 6q14 -1 24.5 -8.5t10.5 -21.5
q0 -13 -8.5 -21.5t-20.5 -13.5t-25.5 -7t-23.5 -2h-14t-14 1q-34 -52 -66 -126.5t-61 -162.5t-53 -184.5t-41.5 -191t-28 -182.5t-10.5 -159q0 -35 3 -81.5t16.5 -89t40.5 -72.5t75 -31q64 -1 128.5 41.5t127 113t120 160.5t107.5 183q3 15 12.5 55.5t24 97t33 123t39 133.5
t42.5 130t43.5 111.5t41 77.5t36.5 29q5 0 8.5 -4t5 -9t2 -10.5t0.5 -9.5q0 -37 -13 -90t-34 -114.5t-47 -126.5t-52 -124.5t-50 -110t-40 -82.5q-5 -21 -14.5 -63.5t-19 -96.5t-17.5 -114.5t-8 -117.5q0 -43 5 -80.5t17.5 -66t33 -45t52.5 -16.5q66 -1 125.5 37.5t112 100
t97.5 139t80.5 155.5t62.5 149.5t43 120.5q36 109 64.5 216.5t47.5 202t29 170.5t10 121q0 30 -5 45q-2 5 3.5 7.5t7.5 -4.5zM1865 928q-7 0 -19 -24.5t-27 -65.5t-32.5 -93.5t-34.5 -108.5t-33 -111t-29 -100.5t-21.5 -77t-10.5 -40.5q15 31 36.5 77.5t45 101.5t47 114.5
t42 116t30 105.5t12.5 83q0 3 -1 13t-5 10zM1307 1026q-10 0 -19 -5.5t-17.5 -13t-15.5 -16.5t-12 -16q5 -1 10.5 -1h10.5q7 0 19 1.5t22.5 5.5t18 10.5t7.5 16.5q0 9 -8 13t-16 5z" />
    <glyph glyph-name="X" unicode="X" horiz-adv-x="1365" 
d="M1879 1026q8 0 8 -5.5t-8 -5.5q-105 -2 -201.5 -50t-180.5 -127.5t-152.5 -183.5t-118 -216.5t-78 -227t-30.5 -214.5q-2 -79 16 -148t54.5 -120t90.5 -80.5t124 -29.5q23 0 48.5 3.5t51 10t49 17t42.5 24.5q7 5 10.5 0.5t-4.5 -9.5q-20 -15 -44 -25.5t-49.5 -17.5
t-51.5 -10.5t-50 -3.5q-75 0 -134.5 31.5t-101 85.5t-62.5 126.5t-20 155.5q0 73 15 151q-60 -104 -138 -196.5t-170.5 -164.5t-196.5 -120t-216 -63q-6 -1 -6.5 4.5t4.5 6.5q117 16 224 70.5t199.5 136t169 185t131.5 216.5t87 231t36 229q3 72 -11 133t-46.5 106t-84.5 70
t-126 25q-76 0 -157 -24.5t-162 -68t-158.5 -103.5t-147 -131t-128 -150.5t-101.5 -162t-67.5 -166t-25.5 -161.5q0 -8 -5.5 -7.5t-5.5 7.5q1 106 44 219.5t115 222t167 206t201 171t217 116.5t214 43q82 0 139.5 -27t94 -74.5t52.5 -113t15 -141.5q-2 -63 -12 -126
q53 96 121.5 181t148.5 149t171.5 102t190.5 39z" />
    <glyph glyph-name="Y" unicode="Y" horiz-adv-x="1827" 
d="M1830 208q2 3 7 1t2 -7q-20 -29 -48 -52.5t-60.5 -42t-67 -33.5t-66.5 -26q-38 -116 -90 -220t-127 -182.5t-176 -125t-237 -46.5q-36 0 -79.5 6t-87 18.5t-85 32.5t-73 47.5t-50 64t-17.5 82.5q2 58 36 100t83.5 70t106 44t104.5 23q81 12 164 18.5t166 13.5t165 19
t160 35q25 73 47 148.5t41 148.5t35 141t28 125q-17 -41 -41 -87.5t-53 -93.5t-63.5 -93.5t-72.5 -87.5q-28 -30 -60.5 -58.5t-69 -51t-76.5 -36t-83 -12.5q-51 0 -85 20t-54.5 53t-28.5 75.5t-8 87.5q0 56 10 117.5t26 124t37 123t43 113t43.5 94.5t39.5 67
q-11 2 -22.5 3.5t-22.5 3.5q-26 4 -53.5 7.5t-56.5 3.5q-99 0 -195.5 -22t-187.5 -62t-174.5 -95t-155.5 -122q-75 -69 -137 -149t-106 -165t-68 -173t-25 -174q0 -5 -5.5 -5t-5.5 6q1 87 25.5 176t69 175t106.5 166.5t139 150.5q73 67 157 123t176 96t189.5 62.5
t197.5 22.5q29 0 57 -3.5t55 -7.5q13 -2 25.5 -4t25.5 -3q7 9 16.5 19.5t20 19.5t22.5 15t25 6q14 -1 24.5 -8.5t10.5 -21.5q0 -13 -8.5 -21.5t-20.5 -13.5t-25.5 -7t-23.5 -2h-14t-14 1q-15 -22 -34.5 -63t-40.5 -95t-41 -117t-35.5 -128.5t-24.5 -130t-8 -120.5
q0 -37 6.5 -74t22.5 -66.5t44 -48.5t72 -19q40 0 78.5 13.5t73.5 35.5t66.5 50t57.5 55q43 47 82 101t70.5 108t55.5 105.5t39 92.5q2 5 8.5 3.5t5.5 -5.5q-9 -56 -21.5 -126.5t-29 -149t-37 -161t-45.5 -162.5q30 11 62.5 25t63.5 32t57.5 40t45.5 49zM1307 1026
q-10 0 -19 -5.5t-17.5 -13t-15.5 -16.5t-12 -16q5 -1 10.5 -1h10.5q7 0 19 1.5t22.5 5.5t18 10.5t7.5 16.5q0 9 -8 13t-16 5zM961 -514q127 0 221.5 46.5t165 123t120.5 175.5t87 204q-78 -23 -159 -34t-163 -18.5t-164.5 -13.5t-162.5 -18q-45 -6 -100 -21.5t-103 -42
t-81.5 -66.5t-34.5 -96q-1 -43 16.5 -77.5t48 -61t70 -45.5t81 -31.5t83 -18t75.5 -5.5z" />
    <glyph glyph-name="Z" unicode="Z" horiz-adv-x="1468" 
d="M1470 208q3 5 7 1t2 -7q-37 -54 -105 -86.5t-155 -49.5q-17 -89 -59.5 -167.5t-104 -144.5t-138 -118.5t-161.5 -88.5t-174 -55.5t-175 -18.5q-61 0 -120 16t-104.5 49t-72 83.5t-23.5 120.5q3 81 42.5 140.5t100 98.5t134.5 58.5t146 19.5q59 0 139.5 -3.5t171 -4.5
t184 2.5t178.5 17.5q4 19 5.5 37.5t1.5 35.5q0 107 -61 164.5t-164 57.5q-33 0 -63 -6.5t-60 -20.5q-5 -2 -7 3t2 7q47 23 100.5 47t106.5 51t101.5 59.5t85.5 73t59.5 91t22.5 114.5q0 63 -21.5 108.5t-59 75t-88.5 43t-110 13.5q-79 0 -164 -18t-168.5 -49t-161 -71.5
t-142.5 -84.5q-69 -47 -131 -101.5t-112.5 -114.5t-87.5 -125t-56 -132q-2 -8 -7.5 -7t-3.5 9q20 69 57.5 135t88.5 126.5t113.5 115.5t132.5 103q66 45 144.5 85.5t162.5 71.5t169.5 49.5t165.5 18.5q60 0 116.5 -14t100.5 -44t71 -77.5t27 -114.5q0 -54 -18.5 -100
t-50.5 -85t-74.5 -71.5t-90 -60.5t-97 -51.5t-96.5 -43.5q22 3 44 3q57 0 104.5 -15t82.5 -45.5t54 -76t19 -105.5q0 -14 -1.5 -28.5t-3.5 -28.5q84 17 149 48t100 82zM410 -516q84 0 168.5 19.5t164 55t151 87t129.5 115t98.5 139t59.5 159.5q-85 -14 -178.5 -17t-183 -2
t-170 4.5t-139.5 3.5q-70 0 -142 -18.5t-131 -56.5t-97.5 -96t-41.5 -136q-3 -68 23.5 -116.5t71 -80t101.5 -46t116 -14.5z" />
    <glyph glyph-name="zero" unicode="0" horiz-adv-x="453" 
d="M325 703q27 -19 42.5 -49.5t24 -66.5t10 -72.5t-0.5 -67.5q-2 -33 -10 -80t-23 -98.5t-36.5 -102t-50 -90t-64 -64.5t-78.5 -24q-44 0 -71 21.5t-42.5 54.5t-21 71.5t-4.5 73.5q1 73 22.5 153t59.5 151t90.5 124t117.5 71q-18 5 -37 5q-26 0 -50 -8.5t-46 -23
t-40.5 -33.5t-32.5 -38q-5 -7 -9.5 -3.5t0.5 9.5q15 21 35 40.5t42.5 35t48 24.5t52.5 9q33 -2 56 -13q15 3 32 3q6 1 6 -4.5t-6 -6.5h-8t-8 -1zM390 447q1 30 -0.5 67.5t-10 73.5t-25.5 66t-46 46q-39 -10 -74.5 -37t-65.5 -66t-54 -87.5t-41 -101t-27 -105.5t-11 -101
q-1 -27 1.5 -62t13.5 -66t32.5 -52.5t57.5 -22.5q41 -1 75 23.5t61 63.5t47.5 89t34.5 100t22 95.5t10 76.5z" />
    <glyph glyph-name="one" unicode="1" horiz-adv-x="243" 
d="M213 719q5 5 14.5 3.5t7.5 -7.5q-56 -177 -107 -363t-74 -373q0 -5 -5.5 -4.5t-5.5 5.5q0 92 12 183t34 181t51 177.5t64 171.5q-15 -16 -35.5 -36.5t-45 -42.5t-53 -44.5t-61.5 -43.5q-5 -4 -8 0.5t3 8.5q36 23 67 48.5t57 49.5t46.5 45t34.5 36l4 5v0z" />
    <glyph glyph-name="two" unicode="2" horiz-adv-x="502" 
d="M439 577q0 -43 -15.5 -92t-41.5 -99.5t-59.5 -101t-70.5 -96.5t-75.5 -85t-73.5 -66q-17 -12 -32.5 -23t-31.5 -20q45 8 83 13t76 3.5t79 -10t91 -27.5q7 -3 5 -8.5t-9 -3.5q-52 15 -94.5 21t-83 6t-83.5 -3.5t-96 -7.5q-5 -1 -6.5 4.5t3.5 7.5q23 11 46 25.5t46 31.5
q35 27 71 66.5t70 86.5t64.5 99t53 104t36 101t14.5 91q1 57 -26 89.5t-84 32.5q-46 0 -80.5 -18t-57 -48t-34 -69t-11.5 -80q0 -6 -5.5 -6t-5.5 5q0 44 12 85.5t36.5 73t61 50.5t84.5 18q33 0 59.5 -11.5t45.5 -31.5t29 -47.5t10 -59.5z" />
    <glyph glyph-name="three" unicode="3" horiz-adv-x="493" 
d="M290 411q38 -1 66 -14.5t46 -35t27 -50.5t9 -60q0 -47 -19 -95.5t-56.5 -88t-92.5 -64t-127 -22.5q-69 2 -105 44t-38 108q-1 26 7.5 56t31.5 46q5 3 7.5 -2t-1.5 -8q-20 -14 -27 -41.5t-7 -50.5q2 -61 35.5 -100t96.5 -41t111.5 22t81 62t49.5 85t18 92q0 29 -6.5 55.5
t-20.5 46.5t-35.5 32t-50.5 13q-22 1 -44 -3t-42 -12q-5 -2 -7 3.5t3 7.5q33 19 68 41.5t64.5 50t48.5 62t20 77.5q1 34 -17.5 60.5t-55.5 26.5q-30 0 -53 -11t-38.5 -27.5t-24.5 -36t-10 -37.5q-1 -17 4 -30t16 -18q7 -3 5.5 -8t-8.5 -3q-14 6 -21.5 21t-6.5 34
q0 20 9 42.5t26.5 41t43 31t58.5 12.5q23 0 43 -7t34.5 -20t22.5 -32t8 -43q-1 -39 -17.5 -71t-43 -58.5t-59 -47t-65.5 -37.5q10 2 19.5 2h19.5z" />
    <glyph glyph-name="four" unicode="4" horiz-adv-x="422" 
d="M385 719q4 5 14 3.5t8 -7.5q-29 -89 -56.5 -180.5t-51.5 -185.5l53 -9q8 -2 6.5 -7.5t-9.5 -3.5l-53 9q-23 -90 -41 -179.5t-29 -179.5q-1 -5 -6.5 -4.5t-5.5 5.5q0 100 12.5 189t34.5 174q-23 2 -44.5 3.5t-43.5 1.5q-83 1 -165 -24q-5 -2 -7 2.5t0 8.5q25 39 48 83
t42.5 90t35 92.5t26.5 89.5q2 5 7 4.5t5 -5.5q0 -47 -9.5 -94t-27.5 -92t-44.5 -86.5t-60.5 -76.5q72 21 150 19q23 0 45.5 -1.5t45.5 -3.5q23 90 54.5 179t66.5 186z" />
    <glyph glyph-name="five" unicode="5" horiz-adv-x="431" 
d="M378 706q5 2 8.5 -1.5t-0.5 -7.5q-16 -15 -37 -15.5t-45 4.5t-51.5 12t-55.5 7q-35 2 -66 -11q-6 -2 -9 2t4 9q20 14 40 19t40 6q27 0 52.5 -7t47.5 -14t40.5 -9.5t31.5 6.5zM246 479q34 0 58.5 -13t40 -35.5t22.5 -52t7 -63.5q-1 -32 -8.5 -69t-22.5 -73t-36 -69.5
t-48.5 -58.5t-60 -40t-70.5 -14q-32 1 -56 13.5t-40 33.5t-24 48.5t-8 57.5q0 27 6 51q1 5 6.5 3.5t4.5 -5.5q-6 -24 -6 -49q0 -27 7 -52.5t21.5 -45t36.5 -31.5t52 -13q52 -1 91.5 34t65.5 86t39.5 107.5t13.5 98.5q0 59 -21.5 99t-70.5 41q-22 0 -43.5 -8t-39.5 -22
t-30 -33.5t-14 -42.5q-1 -5 -8 -4t-7 6q8 84 25 165.5t38 162.5q2 6 10 4.5t8 -6.5q2 -66 -15 -133t-37 -133q20 26 50.5 40.5t62.5 14.5z" />
    <glyph glyph-name="six" unicode="6" horiz-adv-x="410" 
d="M375 741q5 1 6.5 -4t-3.5 -7q-50 -14 -94.5 -52t-82.5 -90.5t-68 -115.5t-50 -127q28 31 60 46.5t64 15.5q37 0 64 -14.5t44 -38.5t25 -56t8 -66q-1 -44 -15 -88.5t-39.5 -80t-63 -57.5t-84.5 -21q-38 1 -63 17.5t-39.5 42t-20.5 57.5t-6 65q-4 -27 -6 -58
q0 -6 -5.5 -5.5t-5.5 5.5q3 72 21 126q7 51 23 105t40 106.5t55.5 101t68.5 88t79 67t88 38.5zM207 396q-34 -1 -68.5 -20.5t-63.5 -57.5q-5 -20 -11.5 -51.5t-10 -67t-2.5 -71.5t11 -65t30 -48t55 -19q39 0 69.5 22t52 57.5t32.5 79.5t11 86q0 31 -6 59t-19 49.5t-33 34
t-47 12.5z" />
    <glyph glyph-name="seven" unicode="7" horiz-adv-x="323" 
d="M276 709q-15 -16 -37.5 -20t-49.5 -2.5t-56.5 5t-58.5 1.5q-16 -1 -32 -5t-32 -12q-6 -3 -9 1t2 9q20 16 39.5 23t39.5 9q27 3 54.5 -1t52.5 -7.5t45.5 -3.5t32.5 10q5 4 9 0.5t0 -7.5zM288 719q4 5 14 3.5t8 -7.5q-25 -78 -49.5 -158.5t-47.5 -163.5q19 -1 38 -6.5
t38 -19.5q6 -4 3 -8.5t-9 -2.5q-19 8 -38 10.5t-38 1.5q-26 -97 -46.5 -194.5t-31.5 -194.5q-1 -5 -6.5 -4.5t-5.5 5.5q1 107 15 200t38 184q-18 -3 -35.5 -5.5t-33 -2.5t-29 3.5t-24.5 14.5q-4 4 -0.5 7.5t8.5 0.5q10 -7 23 -7t28.5 2.5t33 7t36.5 6.5q23 81 51 160.5
t60 167.5z" />
    <glyph glyph-name="eight" unicode="8" horiz-adv-x="417" 
d="M406 578q0 -36 -10 -72.5t-28 -70.5t-43.5 -62.5t-56.5 -48.5q21 -38 33.5 -79t12.5 -82q0 -40 -14.5 -73.5t-39 -58.5t-58.5 -38.5t-73 -12.5q-65 2 -97 44t-32 104q0 40 11.5 81.5t32.5 80t50 70.5t65 54q-23 34 -37.5 71.5t-14.5 76.5q1 35 13.5 66t34 54t51.5 36
t66 13q33 0 58.5 -12t42 -32.5t25 -48.5t8.5 -60zM286 142q0 41 -13.5 83.5t-35.5 81.5l-13 -6q-6 -2 -8 3t4 7q8 4 12 5q-16 26 -32.5 46t-33.5 43q-35 -21 -63.5 -52.5t-49 -68.5t-31.5 -77t-11 -79q0 -57 29 -96t89 -41q34 -1 63 9.5t50 30t32.5 48t11.5 63.5zM129 582
q0 -39 18 -78t44 -74q33 14 66 17q8 1 8.5 -4.5t-7.5 -6.5q-32 -3 -60 -15q17 -23 33.5 -42.5t31.5 -45.5q30 19 54 47t41 60t26.5 67t10.5 70q0 30 -7 56t-22.5 45.5t-39 30.5t-54.5 11q-27 0 -53 -11t-46 -30t-32 -44t-12 -53z" />
    <glyph glyph-name="nine" unicode="9" horiz-adv-x="365" 
d="M236 741q34 -1 58 -15t40 -38t23.5 -57t7.5 -72q0 -52 -12.5 -111t-35.5 -119t-55 -116.5t-72 -103t-86 -79t-97 -44.5q-6 -2 -7 3.5t4 7.5q49 13 94 51t83 90.5t68 115.5t50 127q-29 -31 -61 -46t-63 -15q-37 0 -64 14t-44.5 38t-25.5 55.5t-7 66.5q0 44 14 88.5t40 80
t63.5 57.5t84.5 21zM175 331q33 0 67.5 19.5t63.5 58.5q8 27 16.5 74.5t8.5 96.5q0 29 -4.5 56t-15.5 48t-29.5 33.5t-46.5 12.5q-39 0 -69.5 -22t-52 -57.5t-33 -79t-11.5 -85.5q0 -31 6.5 -59t19.5 -49.5t33 -34t47 -12.5z" />
    <glyph glyph-name="asciitilde" unicode="~" horiz-adv-x="398" 
d="M349 268q6 3 8.5 -2t-2.5 -8q-37 -23 -64 -31.5t-48 -8.5q-23 1 -40 9.5t-32 18.5t-30.5 18.5t-34.5 8.5q-20 0 -45 -11q-7 -4 -11 1q-2 5 5 9q23 14 40 20t32 6q20 0 35.5 -8t31.5 -17.5t33.5 -17.5t41.5 -8q17 0 36 4.5t44 16.5z" />
    <glyph glyph-name="hyphen" unicode="-" horiz-adv-x="410" 
d="M353 283q6 0 9.5 -4t3.5 -9.5t-3.5 -9.5t-10.5 -4l-260 1q-7 0 -10.5 4t-3.5 9.5t3.5 9.5t10.5 4l261 -1v0z" />
    <glyph glyph-name="question" unicode="?" horiz-adv-x="349" 
d="M57 18q8 0 13 -5t5 -13t-5 -13t-13 -5t-13 5t-5 13t5 13t13 5zM107 522q2 -4 -3 -7t-7 1q-29 52 -29 101q0 36 14.5 65.5t38.5 50t55.5 31.5t66.5 11q61 0 99.5 -32t39.5 -95q0 -47 -23.5 -92.5t-58.5 -92.5t-76.5 -95.5t-76.5 -101t-59 -109.5t-25 -121q0 -6 -5.5 -6
t-5.5 6q0 61 22 118t54.5 111.5t70.5 106.5t70.5 101.5t54.5 97.5t23 95q1 48 -30.5 73t-77.5 25q-32 0 -60.5 -10.5t-51 -30t-35.5 -46.5t-13 -60q0 -22 6.5 -45.5t21.5 -49.5z" />
    <glyph glyph-name="exclam" unicode="!" horiz-adv-x="234" 
d="M199 724q3 5 9.5 6t13 -0.5t10.5 -5t2 -9.5q-24 -70 -48 -135t-46 -141t-41.5 -172.5t-35.5 -229.5q-1 -5 -6.5 -4.5t-5.5 5.5q0 105 10.5 189t29.5 162.5t46 158.5t62 176zM57 18q8 0 13 -5t5 -13t-5 -13t-13 -5t-13 5t-5 13t5 13t13 5z" />
    <glyph glyph-name="at" unicode="@" horiz-adv-x="608" 
d="M523 142q5 3 8.5 -1t-0.5 -8q-40 -32 -89.5 -47.5t-101.5 -15t-101.5 16t-88.5 46t-62.5 76t-23.5 105.5q0 66 26 118t67 88t92 55t101 19q40 0 76 -12.5t63.5 -38t44 -65.5t16.5 -95q0 -39 -10.5 -76t-30 -66.5t-47.5 -47.5t-63 -18q-20 0 -34 8t-22.5 21t-12.5 29.5
t-4 33.5q0 19 3 36t8 34q-18 -29 -38.5 -50.5t-43.5 -21.5q-22 0 -31.5 14.5t-8.5 36.5q0 22 10 49t27 49.5t39.5 38t49.5 15.5q15 -1 24.5 -6t14.5 -18q3 -5 -2 -7.5t-8 4.5q-4 6 -9 10.5t-13 4.5q-18 0 -36 -18.5t-33 -44.5t-25 -53.5t-10 -44.5q-1 -7 1.5 -13t10.5 -6
q15 0 29.5 13.5t29 33.5t27 43t22.5 41q10 21 18 30q2 2 6.5 -0.5t4.5 -4.5q0 -12 -6 -35.5t-12.5 -51t-12 -56t-5.5 -51.5q1 -20 9.5 -35.5t31.5 -16.5q26 -1 47.5 16t37 45.5t23.5 64.5t8 74q0 52 -13.5 89.5t-36 61.5t-52 35t-62.5 11q-44 0 -88.5 -19.5t-80.5 -55
t-58.5 -85.5t-22.5 -112q0 -57 21 -100t55.5 -72t79 -43.5t91.5 -14t93 15.5t83 45z" />
    <glyph glyph-name="numbersign" unicode="#" horiz-adv-x="448" 
d="M380 425q6 0 9.5 -4t3.5 -9t-3.5 -9t-10.5 -4h-55l-18 -82h48q6 0 9.5 -4t3.5 -9.5t-3.5 -9.5t-10.5 -4h-52q-8 -42 -14.5 -82.5t-11.5 -82.5q-1 -5 -6.5 -4.5t-5.5 5.5q0 43 2.5 84t7.5 80l-98 1q-17 -85 -27 -166q0 -5 -5.5 -4.5t-5.5 5.5q0 44 2.5 84.5t7.5 80.5h-54
q-7 0 -10.5 4t-3.5 9.5t3.5 9.5t10.5 4h57q3 20 6 41t8 41h-46q-7 0 -10 4t-3 9t3.5 9t10.5 4h50q9 42 20 82.5t23 81.5q3 10 10 15t13.5 5t10.5 -6t1 -16q-12 -41 -22.5 -81t-20.5 -81h91q9 42 20 82t24 82q3 10 10 15t13.5 5t10 -6t0.5 -16q-11 -41 -21.5 -81t-21.5 -82
h50zM276 317q3 21 6.5 41.5t7.5 40.5h-92q-11 -42 -18 -82h96z" />
    <glyph glyph-name="dollar" unicode="$" horiz-adv-x="490" 
d="M367 727q30 -8 50 -26t31 -42.5t14 -52.5t0 -56q-1 -6 -6.5 -6.5t-4.5 6.5q3 25 0.5 51.5t-12.5 49.5t-28.5 40.5t-46.5 24.5q-22 -71 -44.5 -152.5t-43.5 -168.5q41 -50 68.5 -108t27.5 -124q0 -39 -14 -72.5t-38.5 -58t-57.5 -38.5t-71 -14q-6 -35 -9 -67
q-1 -5 -6.5 -4.5t-5.5 5.5q0 17 0.5 33.5t1.5 33.5q-34 4 -56.5 19.5t-36 39t-18.5 52.5t-2 59q1 6 6.5 6t4.5 -6q-2 -28 2 -55t16 -48.5t32.5 -36.5t52.5 -19q5 97 22.5 195.5t42.5 198.5q-29 38 -51.5 82.5t-21.5 93.5q1 37 14.5 69t37.5 55.5t56 35.5t70 9q4 11 7.5 21.5
t8.5 21.5q4 5 13.5 3.5t7.5 -8.5q-3 -10 -6 -20.5t-7 -21.5zM344 142q0 54 -22.5 110t-56.5 99q-22 -94 -41 -185.5t-32 -174.5q33 0 61 10.5t48 30.5t31.5 47.5t11.5 62.5zM249 429q20 76 43 149t47 142q-29 1 -56 -9t-48.5 -29t-34.5 -45t-13 -56q0 -40 19.5 -80t42.5 -72
z" />
    <glyph glyph-name="percent" unicode="%" horiz-adv-x="375" 
d="M265 146q26 0 46 -13.5t20 -42.5q0 -20 -8.5 -34.5t-21.5 -24.5t-30 -15t-33 -5q-26 0 -45.5 13.5t-19.5 41.5q0 19 8.5 34t21.5 25t29.5 15.5t32.5 5.5zM241 23q19 0 37 18.5t18 51.5q0 21 -9.5 31t-22.5 10q-19 0 -37 -19t-18 -53q0 -20 9.5 -30t22.5 -9zM223 648
q0 -20 -8.5 -34.5t-21.5 -25t-30 -15.5t-33 -5q-26 0 -45.5 13.5t-19.5 42.5q0 19 8 34t21 25t29.5 15t32.5 5q26 0 46.5 -13t20.5 -42zM101 620q0 -20 9 -30t23 -10q19 0 37 18.5t18 52.5q0 21 -9.5 31t-22.5 10q-19 -1 -37 -19.5t-18 -52.5zM287 719q4 5 13.5 3.5
t7.5 -7.5q-56 -177 -107 -363t-74 -373q0 -5 -5.5 -4.5t-5.5 5.5q0 105 13.5 197.5t37 181t54.5 176.5t66 184z" />
    <glyph glyph-name="asciicircum" unicode="^" horiz-adv-x="252" 
d="M260 650q2 -7 -3 -11.5t-12.5 -5.5t-14 2t-6.5 10t-2 16.5t-5 19.5t-6 18.5t-6 13.5q-5 -5 -12 -13.5t-14.5 -18.5t-14 -19.5t-9.5 -16.5t-11 -10t-15 -2t-10 5.5t3 11.5q3 4 15.5 16.5t26.5 25t27 22.5t17 10t12 -10t16.5 -22.5t15 -25t8.5 -16.5z" />
    <glyph glyph-name="asterisk" unicode="*" horiz-adv-x="332" 
d="M305 646q14 0 13.5 -11t-14.5 -11h-65l36 -55q4 -6 3 -10.5t-4.5 -7t-8 -1.5t-8.5 7l-39 58l-38 -58q-4 -6 -8.5 -7t-8 1.5t-4.5 7t2 10.5l36 55l-68 1q-11 0 -11 11t12 11h67l-37 57q-3 4 -1.5 8.5t5 6.5t8 1.5t7.5 -5.5l39 -59l38 59q7 10 16 4t4 -15l-38 -58h67v0z
" />
    <glyph glyph-name="ampersand" unicode="&#x26;" horiz-adv-x="632" 
d="M516 208q0 -29 -9 -56t-25.5 -50.5t-38.5 -44t-48 -35.5q8 -44 3 -84t-33 -78q-5 -6 -9 -3t1 10q24 35 29 71.5t-3 76.5q-30 -17 -63 -26t-65 -9q-35 0 -65.5 10.5t-54 30.5t-37 49t-14.5 66q-1 42 15 81t43.5 76t63 71.5t72.5 66.5q-1 8 -1 16v16q0 23 4 51.5t12 57.5
t21 57t31 49.5t40.5 34.5t51.5 13q26 0 40 -15t15 -40q1 -37 -20.5 -74t-53 -71t-66 -64t-59.5 -52q7 -75 25.5 -139t38.5 -121q11 -32 20.5 -60.5t15.5 -56.5q48 30 79.5 74.5t32.5 98.5q1 43 -22.5 75t-58.5 53q-5 3 -2.5 7.5t7.5 2.5q38 -23 62.5 -56.5t24.5 -79.5z
M437 715q-40 0 -67.5 -27.5t-45 -66.5t-25.5 -82.5t-8 -75.5v-10t1 -10q20 18 52 44.5t62.5 58t52 64t20.5 62.5q0 20 -11 31.5t-31 11.5zM253 -9q32 -1 64.5 8.5t63.5 26.5q-6 28 -16 58t-21 62q-20 55 -38 117t-26 135q-32 -29 -61.5 -60t-52 -64.5t-35.5 -70t-12 -77.5
q2 -63 37 -99t97 -36z" />
    <glyph glyph-name="plus" unicode="+" horiz-adv-x="455" 
d="M379 378q6 0 9.5 -4t3.5 -9.5t-3.5 -9.5t-10.5 -4l-121 1q-8 -34 -15.5 -68t-14.5 -68q-1 -5 -6 -8t-10.5 -3t-9.5 2.5t-3 8.5q9 69 24 136l-104 1q-7 0 -10.5 4t-3.5 9t3.5 9t10.5 4h110q8 32 16.5 63t18.5 63q3 11 10 16t13 4.5t10 -6.5t1 -16q-9 -31 -17.5 -62
t-16.5 -62l116 -1v0z" />
    <glyph glyph-name="equal" unicode="=" horiz-adv-x="493" 
d="M370 332q11 -1 17.5 -6.5t7.5 -11.5t-3.5 -11t-15.5 -5q-37 2 -68.5 3t-62.5 1.5t-62.5 -0.5t-68.5 -2q-5 0 -9 4t-5.5 9t0.5 9.5t8 5.5q38 4 70 6t62.5 2.5t61.5 -0.5t68 -4zM393 431q11 -1 17.5 -6.5t7.5 -11.5t-3.5 -11t-14.5 -5q-37 2 -69 3t-63 1.5t-62.5 -0.5
t-68.5 -2q-5 0 -8.5 4t-5 9t0 9.5t7.5 5.5q38 4 70 6t62.5 2.5t61.5 -0.5t68 -4z" />
    <glyph glyph-name="slash" unicode="/" horiz-adv-x="224" 
d="M184 761q2 8 8.5 12t13.5 4t11.5 -4.5t2.5 -13.5l-184 -777q-1 -6 -7.5 -9t-13 -3.5t-12 2.5t-3.5 11l184 778v0z" />
    <glyph glyph-name="backslash" unicode="\" horiz-adv-x="222" 
d="M220 -17q2 -8 -3 -11t-11.5 -2.5t-13.5 3.5t-8 9l-183 777q-2 9 2.5 13.5t11 4.5t13 -4t8.5 -12l184 -778v0z" />
    <glyph glyph-name="bar" unicode="|" horiz-adv-x="196" 
d="M76 782q0 9 5.5 13.5t12.5 4.5t12.5 -4.5t5.5 -13.5v-818q0 -8 -5.5 -12.5t-12.5 -4.5t-12.5 4.5t-5.5 13.5v817v0z" />
    <glyph glyph-name="parenleft" unicode="(" horiz-adv-x="321" 
d="M321 855q6 1 4 -4.5t-6 -6.5q-33 -2 -66.5 -43.5t-64 -108.5t-58 -152t-48.5 -175q-15 -63 -26 -126t-17 -120t-7 -107t4.5 -87t17 -59t31.5 -24q5 -1 4 -6.5t-7 -4.5q-40 3 -59.5 50.5t-22 122.5t9.5 169.5t35 191.5q22 92 52.5 179.5t66.5 155.5t76 110.5t81 44.5z" />
    <glyph glyph-name="parenright" unicode=")" horiz-adv-x="325" 
d="M243 855q26 -2 43.5 -24t27 -59.5t11 -88.5t-3 -109.5t-15.5 -123t-26 -129.5q-22 -92 -52.5 -179t-66.5 -155.5t-76 -111t-81 -44.5q-6 0 -4 5.5t6 5.5q33 3 66.5 44.5t64 108t58 151.5t48.5 175q22 95 35.5 187.5t14.5 166t-11.5 120t-41.5 50.5q-5 0 -4 5.5t7 4.5z
" />
    <glyph glyph-name="braceleft" unicode="{" horiz-adv-x="349" 
d="M349 855q5 0 5 -5t-5 -6q-33 -3 -60.5 -35.5t-52.5 -81t-49 -106t-49.5 -110t-54.5 -93t-64 -54.5q20 -11 30 -34.5t14 -55.5t3 -70t-3.5 -78.5t-5.5 -80t-3 -74.5q0 -27 2.5 -50.5t9 -40.5t18 -27.5t28.5 -11.5q6 0 5.5 -5.5t-5.5 -5.5q-28 1 -45.5 15t-28 37t-14.5 54
t-4 66q0 54 5.5 113t8 110t-3 88t-27.5 46q-3 1 -3 6t3 6q28 11 52 51t48 94t49 113.5t54 109.5t64 82.5t79 33.5z" />
    <glyph glyph-name="braceright" unicode="}" horiz-adv-x="335" 
d="M350 371q3 -1 3.5 -5.5t-3.5 -6.5q-27 -11 -51.5 -54.5t-48 -102t-48.5 -123.5t-54 -120.5t-64 -91.5t-79 -37q-5 0 -5 5.5t5 5.5q32 3 59.5 39t52.5 89.5t49 116.5t50 120.5t55 101t64 58.5q-30 16 -39 53t-8 85t6.5 103t5.5 108q0 27 -3 50t-9.5 40.5t-17.5 27.5
t-29 11q-5 1 -5 6.5t5 4.5q28 -1 45.5 -15t28 -37t14.5 -54t4 -66q0 -54 -5.5 -106t-8 -95t3 -72.5t27.5 -38.5z" />
    <glyph glyph-name="bracketleft" unicode="[" horiz-adv-x="312" 
d="M291 799q7 6 14 5t10.5 -6t3.5 -12t-7 -12l-78 -62l-198 -834l50 -57q8 -9 8 -17t-4.5 -12t-12 -3.5t-14.5 8.5l-63 72l204 862l87 68v0z" />
    <glyph glyph-name="bracketright" unicode="]" horiz-adv-x="320" 
d="M320 723l-204 -862l-87 -68q-8 -6 -15 -5t-10.5 6t-3.5 12t7 13l79 61l197 835l-50 57q-8 9 -7.5 16.5t5 12t12 3.5t13.5 -8z" />
    <glyph glyph-name="quotesingle" unicode="'" horiz-adv-x="148" 
d="M145 755q7 0 12.5 -4.5t5.5 -13.5q0 -12 -12.5 -26t-35.5 -25q-5 -2 -6 1.5t3 6.5q11 6 17 14t8 14q-5 -2 -8.5 2t-3.5 10q-1 11 5.5 16t14.5 5z" />
    <glyph glyph-name="quotedbl" unicode="&#x22;" horiz-adv-x="227" 
d="M155 755q7 0 13 -4.5t6 -13.5q0 -12 -13 -26t-36 -25q-5 -2 -6 1.5t3 6.5q11 6 17 14t8 14q-5 -2 -8.5 2t-3.5 10q-1 11 5.5 16t14.5 5zM227 755q7 0 13 -4.5t6 -13.5q0 -12 -13 -26t-36 -25q-5 -2 -6 1.5t3 6.5q11 6 17 14t8 14q-5 -2 -8.5 2t-3.5 10q-1 11 5.5 16
t14.5 5z" />
    <glyph glyph-name="period" unicode="." horiz-adv-x="167" 
d="M76 36q8 0 13 -5t5 -13t-5 -13t-13 -5t-13 5t-5 13t5 13t13 5z" />
    <glyph glyph-name="comma" unicode="," horiz-adv-x="148" 
d="M81 39q7 0 12.5 -4.5t5.5 -13.5q0 -12 -12.5 -26t-35.5 -25q-5 -2 -6 2t3 6q11 7 17 15t8 13q-5 -2 -8.5 2.5t-3.5 9.5q-1 11 5.5 16t14.5 5z" />
    <glyph glyph-name="colon" unicode=":" horiz-adv-x="174" 
d="M100 244q8 0 13 -5t5 -13t-5 -13t-13 -5t-13 5t-5 13t5 13t13 5zM130 390q8 0 13 -5t5 -13t-5 -13t-13 -5t-13 5t-5 13t5 13t13 5z" />
    <glyph glyph-name="semicolon" unicode=";" horiz-adv-x="181" 
d="M92 243q7 0 13 -4.5t6 -12.5q0 -13 -13 -26.5t-36 -24.5q-5 -2 -6 1.5t3 5.5q11 7 17 15t8 14q-5 -2 -8.5 2t-3.5 9q-1 11 5.5 16t14.5 5zM126 389q8 0 13 -5t5 -13t-5 -13t-13 -5t-13 5t-5 13t5 13t13 5z" />
    <glyph glyph-name="germandbls" unicode="&#xdf;" horiz-adv-x="457" 
d="M259 412q132 -57 129 -213q-1 -44 -15 -86t-40 -75.5t-64.5 -54t-88.5 -20.5q-26 0 -47 9.5t-35.5 24t-22.5 33t-8 36.5q0 19 8 35.5t26 27.5q3 2 5.5 -1t-2.5 -6q-15 -11 -22 -25.5t-7 -31.5t7.5 -33.5t21 -29.5t33 -21.5t43.5 -8.5q44 0 78 20t56.5 53t34.5 75t12 85
q0 69 -26.5 121t-92.5 79q-19 -7 -37 -11t-35 -4q-6 0 -17.5 2t-11.5 11q0 7 6.5 11.5t14.5 7.5t16.5 4t13.5 1q23 0 49 -8q32 13 62 32.5t53 45t37 56.5t14 69q0 19 -4.5 37.5t-15 33t-26 23t-37.5 8.5q-50 -1 -89.5 -47t-71 -118.5t-55.5 -161t-42 -173.5t-31.5 -156
t-22.5 -109h-12q4 42 14 116t27 160t42 174.5t60 160.5t80 117.5t102 45.5q50 0 79.5 -31t29.5 -80q0 -38 -15 -70.5t-40 -59t-56.5 -47t-63.5 -33.5zM170 401q24 0 54 11q-15 4 -32 4q-2 0 -8.5 -1t-13 -2.5t-12 -3.5t-5.5 -5q0 -2 8 -2.5t9 -0.5z" />
    <glyph glyph-name="less" unicode="&#x3c;" horiz-adv-x="358" 
d="M308 539q5 4 10 2.5t8 -5.5t3 -9.5t-6 -9.5l-197 -144l129 -144q6 -4 6 -9.5t-3 -9.5t-8 -5t-11 3l-137 148q-14 15 -12 20t16 15l202 148v0z" />
    <glyph glyph-name="greater" unicode="&#x3e;" horiz-adv-x="340" 
d="M322 391q14 -15 11.5 -20.5t-16.5 -15.5l-202 -148q-5 -3 -10 -1.5t-8 5.5t-3 9t6 9l197 145l-129 143q-6 4 -6 9.5t3 9.5t8 5.5t11 -2.5l138 -148v0z" />
    <glyph glyph-name="plusminus" unicode="&#xb1;" horiz-adv-x="511" 
d="M383 191q6 0 9.5 -4t3.5 -9.5t-3.5 -9.5t-10.5 -4l-260 1q-7 0 -10.5 4t-3.5 9.5t3.5 9.5t10.5 4zM431 391q6 0 9 -4t3 -9.5t-3 -9.5t-10 -4l-122 1q-8 -34 -15.5 -68t-14.5 -68q-1 -5 -6 -8t-10.5 -3t-9.5 2.5t-3 8.5q9 69 24 136l-104 1q-7 0 -10.5 4t-3.5 9t3.5 9
t10.5 4h110q8 32 16.5 63t18.5 63q3 11 10 16t13.5 4.5t10 -6.5t0.5 -16q-9 -31 -17 -62t-16 -63h116z" />
    <glyph glyph-name="multiply" unicode="&#xd7;" horiz-adv-x="394" 
d="M332 430q-51 -49 -100 -100q16 -30 29.5 -61.5t25.5 -64.5q2 -5 -1.5 -9t-8.5 -6t-10.5 -1.5t-7.5 4.5q-13 28 -27 55l-28 54q-26 -27 -51 -54t-50 -55q-3 -4 -9 -4.5t-10.5 1.5t-6 6t2.5 9q26 33 53 64.5t56 61.5q-14 26 -28 50.5t-29 49.5q-5 8 -2 14.5t9 9.5t14 1
t13 -10q14 -21 26.5 -42.5t24.5 -43.5q21 22 42.5 43.5t44.5 42.5q9 8 17.5 10t14 -1t5.5 -9.5t-9 -14.5z" />
    <glyph glyph-name="divide" unicode="&#xf7;" horiz-adv-x="356" 
d="M169 247q8 0 13 -5t5 -13t-5 -13t-13 -5t-13 5t-5 13t5 13t13 5zM200 357q-8 0 -13 5t-5 13t5 13t13 5t13 -5t5 -13t-5 -13t-13 -5zM285 315q6 0 9.5 -4t3.5 -9.5t-3 -9.5t-10 -4l-200 1q-7 0 -10.5 4t-3.5 9.5t3.5 9.5t10.5 4z" />
    <glyph glyph-name="underscore" unicode="_" horiz-adv-x="535" 
d="M368 -1q6 0 9.5 -4t3.5 -9.5t-3.5 -9.5t-10.5 -4l-306 1q-7 0 -10.5 4t-3.5 9.5t3.5 9.5t10.5 4l307 -1v0z" />
    <glyph glyph-name="Euro" unicode="&#x20ac;" horiz-adv-x="471" 
d="M378 721q21 0 37 -10.5t26 -27t12.5 -36.5t-1.5 -39q-1 -5 -6.5 -4t-3.5 6q3 16 0.5 34t-10.5 32.5t-21.5 24t-32.5 9.5q-32 0 -62 -22.5t-57 -60t-51 -87.5t-42 -105l135 -1q6 0 9.5 -4t3.5 -9.5t-3.5 -9.5t-10.5 -4l-142 1q-6 -20 -11 -41t-10 -41l138 -1q6 0 9.5 -4
t3.5 -9t-3.5 -9t-10.5 -4h-142q-11 -57 -13 -110t5.5 -93t26 -64t50.5 -24q44 0 77 28t44 70q2 5 7.5 3.5t3.5 -5.5q-6 -23 -18.5 -42.5t-30 -33.5t-38.5 -22.5t-45 -8.5q-41 0 -66 25t-37.5 66.5t-12.5 96.5t10 115h-81q-7 0 -10.5 4t-3.5 9.5t3.5 9.5t10.5 4l86 -1
q9 40 21 82l-82 1q-7 0 -10 4t-3 9t3.5 9t10.5 4h90q19 57 46 109t58.5 91.5t68 62.5t75.5 23z" />
    <glyph glyph-name="sterling" unicode="&#xa3;" horiz-adv-x="502" 
d="M408 721q21 0 37 -10.5t26 -27t13 -36.5t-1 -39q-2 -5 -7.5 -4t-3.5 6q3 16 0.5 34t-10.5 32.5t-21.5 24t-32.5 9.5q-44 0 -79 -30t-62 -80t-48.5 -114t-38.5 -131l139 -1q6 0 9.5 -4.5t3.5 -10.5t-3.5 -10.5t-10.5 -4.5l-145 1q-11 -45 -20.5 -89t-19 -83.5t-18.5 -73
t-18 -57.5q31 1 68 4t73 3.5t69 -3t57 -15.5q8 -4 5.5 -9t-10.5 -3q-24 5 -56 3.5t-67 -5.5t-71 -7t-67.5 -1.5t-57 11.5t-38.5 32q-5 7 -0.5 9.5t11.5 -3.5q16 -13 52 -15q9 24 17 57t16 72.5t16.5 83.5t18.5 89l-75 1q-7 0 -10.5 4.5t-3.5 10t3.5 10t10.5 4.5h82
q16 69 37.5 135t53 117t75 82.5t102.5 31.5z" />
    <glyph glyph-name="yen" unicode="&#xa5;" horiz-adv-x="483" 
d="M427 690q2 5 7 3.5t5 -5.5q-3 -36 -9 -87.5t-15.5 -110t-23.5 -120.5t-34 -120h68q6 0 9 -4t3 -9.5t-3 -9.5t-10 -4l-77 1q-8 -22 -17 -42.5t-20 -39.5l89 -1q6 0 9.5 -4t3.5 -9t-3.5 -9t-10.5 -4h-103q-35 -55 -79.5 -88t-104.5 -33q-51 0 -80 26.5t-31 77.5q0 5 5.5 5
t5.5 -5q2 -46 28 -69.5t72 -23.5q47 1 83.5 31t65.5 79l-123 1q-7 0 -10 4t-3 9t3.5 9t10.5 4h137q10 19 18.5 39.5t16.5 42.5h-147q-7 0 -10.5 4t-3.5 9.5t3.5 9.5t10.5 4l156 -1q23 66 39 136t30 134q-14 -38 -32.5 -73t-43 -61.5t-57 -42t-74.5 -14.5q-35 1 -59.5 15
t-40.5 36.5t-23.5 51.5t-8.5 60q-2 55 9.5 111.5t23.5 98.5q1 2 5 2.5t8.5 0t8 -2t3.5 -3.5q-2 -18 -5.5 -42.5t-7.5 -53t-6.5 -58.5t-2.5 -59q1 -25 5.5 -51t16 -47t31 -34.5t49.5 -13.5q57 -1 96.5 33.5t66 85t43 108.5t29.5 105l5 18v0z" />
    <glyph glyph-name="cent" unicode="&#xa2;" 
d="M290 208q3 3 7.5 0t2.5 -6q-14 -20 -36 -45t-48 -49t-54 -43.5t-54 -26.5q-6 -32 -10.5 -63.5t-8.5 -63.5q-1 -5 -6.5 -4.5t-5.5 5.5q0 62 6 122h-1q-32 0 -47.5 22t-15.5 54q0 22 7 46t20 45.5t32 37.5t43 23q7 29 15 57t17 57q3 10 10 15t13 5t10 -6t1 -16l-30 -110
q17 -2 27.5 -14t8.5 -35q-1 -7 -6.5 -6.5t-4.5 7.5q2 19 -6 28t-20 9h-1q-14 -51 -25 -102t-20 -102q24 8 50.5 27.5t51 43t45.5 47.5t33 41zM84 45q5 51 12.5 98.5t18.5 94.5q-14 -11 -25.5 -28t-19.5 -36.5t-12 -39.5t-4 -38q0 -22 7 -36.5t23 -14.5z" />
    <glyph glyph-name="cedilla" unicode="&#xb8;" horiz-adv-x="243" 
d="M137 -4q26 0 38 -13t12 -30q0 -12 -6 -25t-16.5 -23.5t-26.5 -17.5t-35 -7q-16 0 -29 7t-20 22q-2 5 3 7.5t8 -3.5q10 -21 33 -21q13 0 23 6.5t17 16t10.5 21t3.5 21.5q0 11 -4.5 18.5t-14.5 7.5q-9 0 -25 -7q-4 -2 -6.5 0.5t-0.5 6.5q2 9 4 18.5t4 18.5l13 -2
q-1 -7 -2.5 -13.5t-3.5 -12.5q5 2 10 3t11 1z" />
    <glyph glyph-name="grave" unicode="`" horiz-adv-x="146" 
d="M149 682q3 -4 1 -8t-9 1q-6 4 -14.5 13t-18 19.5t-18 21t-12.5 18.5q-4 7 0 12t11.5 6t14.5 -2t9 -10q2 -8 6.5 -18t10 -20.5t11 -19.5t8.5 -13z" />
    <glyph glyph-name="acute" unicode="&#xb4;" horiz-adv-x="142" 
d="M71 682q3 4 8.5 13t11 19.5t10 20.5t6.5 18q2 7 9 10t14.5 2t11.5 -6t0 -12q-5 -8 -13 -18.5t-17.5 -21t-18 -19.5t-14.5 -13q-7 -5 -9 -1t1 8z" />
    <glyph glyph-name="circumflex" unicode="&#x2c6;" horiz-adv-x="203" 
d="M203 700q2 -6 -2.5 -9.5t-10.5 -4.5t-11.5 1.5t-5.5 8.5q-1 11 -6 29.5t-10 26.5q-4 -4 -9.5 -11t-11.5 -15.5t-11.5 -16t-8.5 -13.5t-9.5 -8.5t-12.5 -1.5t-8.5 4.5t2.5 9.5q3 3 13 13.5t22 21.5t23 19t14 8t10 -8t13.5 -19t12 -21t7.5 -14z" />
    <glyph glyph-name="tilde" unicode="&#x2dc;" horiz-adv-x="276" 
d="M221 711q5 2 8 -2t-1 -7q-15 -12 -26.5 -16.5t-20.5 -4.5q-17 1 -30 10t-31 10q-11 0 -22 -4q-5 -2 -8 2.5t2 7.5q14 10 24.5 13.5t19.5 3.5t16.5 -3t14.5 -6.5t14 -6.5t15 -3q6 0 12 1t13 5z" />
    <glyph glyph-name="dieresis" unicode="&#xa8;" horiz-adv-x="219" 
d="M98 721q8 0 11.5 -5t1.5 -13t-8 -13t-14 -5t-12 5t-2 13t8.5 13t14.5 5zM165 721q8 0 11.5 -5t1.5 -13t-8 -13t-14 -5t-11.5 5t-1.5 13t8 13t14 5z" />
    <glyph glyph-name="ring" unicode="&#x2da;" horiz-adv-x="214" 
d="M142 739q17 -1 24.5 -10t7.5 -20q1 -14 -10.5 -25.5t-33.5 -12.5q-17 0 -25 9t-8 20q0 14 11 26.5t34 12.5zM129 678q13 1 19.5 12t7.5 22q0 8 -3 14t-11 6q-12 0 -19 -12t-7 -24q0 -8 3 -13t10 -5z" />
    <glyph glyph-name="caron" unicode="&#x2c7;" horiz-adv-x="200" 
d="M80 743q-2 6 2.5 9.5t10.5 4.5t11.5 -1.5t5.5 -8.5q1 -11 6 -29.5t10 -26.5q4 4 9.5 11t11.5 15.5t11.5 16t8.5 13.5t9.5 8.5t12.5 1.5t8.5 -4.5t-2.5 -9.5q-3 -3 -13 -13.5t-22 -21.5t-23 -19t-14 -8t-10 8t-13.5 19t-12.5 21t-7 14z" />
    <glyph glyph-name="a.1" unicode="&#xe000;" horiz-adv-x="640" 
d="M640 354q1 -81 -31.5 -157.5t-88.5 -136t-130.5 -95t-157.5 -34.5q-82 1 -117.5 34.5t-37.5 87.5q-1 35 11 80q-18 -29 -38.5 -50.5t-43.5 -21.5q-22 0 -31.5 14t-8.5 37q0 22 10 49t27 49.5t39.5 37.5t49.5 15q28 0 40 -23q2 -5 -3 -7.5t-8 3.5q-7 16 -22 16
q-18 0 -36 -18.5t-33 -44.5t-25 -53.5t-10 -44.5q-1 -7 1.5 -13t10.5 -6q15 0 29.5 13.5t29 33.5t27 43t22.5 41q5 10 9.5 17.5t8.5 12.5q2 2 6.5 -0.5t4.5 -4.5q0 -18 -5.5 -41t-12 -48t-11.5 -51t-4 -50q0 -21 6 -38.5t20.5 -30t37.5 -20t58 -7.5q81 -1 153.5 34t127 93.5
t85.5 133.5t30 154q-2 95 -59.5 149t-151.5 55q-5 0 -5.5 5.5t5.5 5.5q50 0 90.5 -15.5t70 -43.5t45.5 -68.5t16 -90.5z" />
    <glyph glyph-name="g.1" unicode="&#xe001;" horiz-adv-x="193" 
d="M1059 -91q3 3 7 -0.5t1 -7.5q-61 -59 -137 -82t-163 -23q-88 0 -174 15t-171.5 34t-170.5 34.5t-172 15.5q-11 -43 -26 -91.5t-34.5 -95t-43.5 -89.5t-53 -75.5t-63.5 -51.5t-74.5 -18q-29 0 -51 12t-36.5 31.5t-22.5 44.5t-8 51q-1 74 34.5 127.5t91.5 89t123.5 53.5
t130.5 22q20 70 37 140.5t36 141.5q-11 -20 -24 -42.5t-27.5 -41t-30 -30.5t-32.5 -12q-21 0 -30.5 14t-8.5 37q0 22 10 49t27 49.5t39.5 37.5t49.5 15q15 0 24 -5.5t15 -17.5q2 -5 -2.5 -7.5t-7.5 3.5q-4 7 -9 11.5t-13 4.5q-18 0 -36.5 -18.5t-33.5 -44.5t-25 -53.5
t-10 -44.5q0 -7 2 -13t10 -6q18 0 36 19t34.5 45.5t30.5 52.5t23 40q0 4 7 4q8 0 6 -5q-11 -81 -26 -161.5t-35 -160.5q85 0 170 -15.5t170 -34t171 -34t173 -15.5q85 1 159.5 23t133.5 79zM-219 -515q32 0 61 19.5t54.5 52t47.5 74.5t40 87.5t33 90.5t26 84
q-60 -4 -124.5 -21t-118.5 -50.5t-89 -84.5t-34 -122q0 -23 7 -46t19.5 -41.5t32 -30.5t45.5 -12z" />
    <glyph glyph-name="r.1" unicode="&#xe002;" horiz-adv-x="315" 
d="M317 208q3 4 7.5 0.5t2.5 -7.5q-11 -15 -29 -40.5t-41 -55t-48.5 -59.5t-50.5 -54t-48 -39.5t-41 -14.5q-23 1 -33 17t-10 38q0 30 8.5 60t18.5 57.5t18.5 52t8.5 42.5t-7 34t-18 30q-21 -38 -46.5 -72t-57.5 -64q-21 -20 -43.5 -36.5t-45.5 -24.5q-5 -2 -6.5 3.5
t3.5 7.5q21 8 42.5 23t41.5 35q32 30 58 65t47 73q-19 24 -36.5 49.5t-17.5 58.5q0 26 14.5 40t32.5 14q26 0 40 -21t14 -44q0 -22 -10.5 -47t-21.5 -45q16 -21 28 -44.5t11 -54.5q0 -26 -7.5 -53t-15.5 -54t-14.5 -53.5t-6.5 -50.5q0 -8 2.5 -16.5t13.5 -8.5q15 0 36 15.5
t45 39.5t48.5 54t46.5 58.5t39.5 53zM7 387q0 -26 15 -48.5t34 -45.5q8 17 17.5 40.5t9.5 42.5q0 18 -10 35.5t-31 17.5q-14 0 -24.5 -11t-10.5 -31z" />
    <glyph glyph-name="t.1" unicode="&#xe003;" horiz-adv-x="258" 
d="M170 422q-43 1 -85 9q-9 -45 -21.5 -100t-24.5 -110.5t-20 -105t-8 -82.5q0 -13 3 -27.5t20 -14.5q16 0 34.5 10t36 24.5t33 30.5t26.5 28q20 23 44 54t52 70q2 4 6.5 0.5t2.5 -6.5q-28 -39 -52 -70t-44 -55q-12 -14 -28.5 -31t-35 -31.5t-38.5 -24.5t-39 -10
q-17 0 -27 8.5t-15.5 21t-7 27.5t-1.5 28q0 42 8.5 90t21.5 96t28 95t27 88l-51 11q-39 9 -79 16t-84 7q-35 0 -70.5 -6t-65.5 -24q-5 -3 -8.5 1.5t3.5 8.5q32 18 68.5 24.5t72.5 6.5q45 0 85.5 -7.5t79.5 -15.5q13 -3 25.5 -6t26.5 -5q12 42 18 72q1 3 6.5 2t4.5 -3
q0 -17 -3.5 -37t-7.5 -37q40 -7 83 -9q60 0 105 13.5t74.5 36t44 51.5t14.5 61q0 34 -18 68t-53 60.5t-87 43.5t-121 17q-54 0 -112 -10.5t-106 -35.5q8 -12 11 -26.5t3 -28.5q0 -20 -7 -36t-17.5 -26.5t-23 -16t-24.5 -5.5q-14 1 -24.5 10.5t-10.5 29.5q0 35 24 60.5
t52 41.5q-17 21 -48.5 29.5t-73.5 8.5t-92 -7t-103 -17t-106.5 -21.5t-103 -21t-92.5 -14t-74 -0.5q-8 2 -7 7.5t8 3.5q31 -4 74 0.5t92 14t102.5 21t106 22t103 17.5t93.5 7q45 -1 78.5 -11t52.5 -33q50 26 109.5 37t115.5 11q72 0 126 -18t90.5 -46t55 -64t18.5 -72
q0 -34 -15.5 -65.5t-46 -55.5t-77.5 -38.5t-110 -13.5zM-86 682q0 29 -13 51q-13 -7 -25.5 -16.5t-23 -21.5t-17 -26t-6.5 -30q0 -15 7 -22t18 -7q9 0 19.5 5t19.5 14t15 22.5t6 30.5z" />
    <glyph glyph-name="fraction" unicode="&#x2044;" horiz-adv-x="247" 
d="M213 1029q2 8 8.5 12t13.5 4t11.5 -4.5t2.5 -13.5l-225 -952q-1 -6 -7.5 -9t-13 -3.5t-12 2.5t-3.5 11l225 953v0z" />
    <glyph glyph-name="Lslash" unicode="&#x141;" horiz-adv-x="1348" 
d="M1264 283q6 0 9.5 -4t3.5 -9.5t-3.5 -9.5t-10.5 -4h-256q-18 -68 -39.5 -131t-49 -118.5t-61 -102t-75.5 -79.5q73 -27 147 -60.5t148 -63t149 -50t149 -20.5q26 0 59.5 4t66 13.5t61 25t44.5 38.5q5 7 9.5 3.5t0.5 -8.5q-18 -27 -51.5 -44.5t-72.5 -28.5t-78 -15.5
t-68 -4.5q-79 0 -155 19t-150 48t-145.5 62.5t-141.5 61.5q-38 -25 -84 -38t-100 -12q-15 0 -37.5 3.5t-43.5 11.5t-36.5 21.5t-15.5 33.5q0 16 11 25.5t27 14.5t33 7t28 2q58 1 113 -10.5t109 -30.5q39 32 70.5 77.5t57.5 100t46.5 117t38.5 128.5l-163 1q-7 0 -10.5 4
t-3.5 9.5t3.5 9.5t10.5 4l170 -1q26 102 47.5 206.5t45.5 200.5t53 177t70 135q-39 5 -78.5 10.5t-81.5 5.5q-93 -1 -187 -24.5t-182.5 -64t-169.5 -94.5t-148 -116q-75 -70 -137 -149.5t-106 -164.5t-68 -172.5t-25 -173.5q0 -7 -5.5 -7.5t-5.5 7.5q1 87 25.5 176t69 174.5
t106.5 166t139 151.5q68 62 149.5 117t171 96t184.5 65t189 24q43 0 84.5 -6t83.5 -10q17 20 41 40t53 20q14 0 30 -8t16 -25q0 -12 -9 -20.5t-21 -13t-25.5 -6.5t-22.5 -2q-27 0 -52 3q-36 -53 -61.5 -133.5t-47.5 -176t-42.5 -201t-46.5 -207.5h250zM569 -234q92 0 163 48
q-23 9 -49 17.5t-53 15t-54.5 11t-52.5 4.5q-8 0 -21 -1.5t-25 -5.5t-20.5 -11t-8.5 -18q0 -17 14.5 -28.5t34 -18.5t40 -10t32.5 -3zM1296 1062q-26 0 -44 -16t-32 -35q11 -1 22 -1.5t22 -0.5q6 0 17.5 1.5t22.5 5t19 10t8 15.5q0 11 -13 16t-22 5z" />
    <glyph glyph-name="lslash" unicode="&#x142;" horiz-adv-x="258" 
d="M259 207q3 5 7.5 1.5t2.5 -7.5q-15 -21 -42 -54.5t-58.5 -65t-64 -54.5t-59.5 -23q-30 0 -43 30.5t-13 80.5q1 25 7.5 67t18.5 93l-66 1q-7 0 -10.5 4t-3.5 9.5t3.5 9.5t10.5 4l73 -1q18 69 44 143.5t58.5 135.5t69.5 100.5t77 39.5q32 0 46 -22.5t14 -51.5
q0 -34 -20 -77t-51 -89t-69 -92t-75 -87h94q6 0 9.5 -4t3.5 -9.5t-3.5 -9.5t-10.5 -4h-118l-59 -63q-2 -7 -4.5 -20.5t-5 -30.5t-5 -36t-2.5 -37q0 -29 6.5 -51t25.5 -22q24 0 54.5 22.5t61 54t56.5 63.5t40 52zM271 710q-24 0 -46.5 -20t-43.5 -53.5t-39.5 -76.5
t-34.5 -88.5t-29.5 -90t-22.5 -79.5h46q37 40 75.5 86.5t70.5 92.5t52.5 89t20.5 77q0 24 -11.5 43.5t-37.5 19.5zM38 234l39 41h-29z" />
    <glyph glyph-name="Zcaron" unicode="&#x17d;" horiz-adv-x="1468" 
d="M1097 1140q-2 6 2.5 9.5t10.5 4.5t11.5 -1.5t5.5 -8.5q1 -11 6 -29.5t10 -26.5q4 4 9.5 11t11.5 15.5t11.5 16t8.5 13.5t9.5 8.5t12.5 1.5t8.5 -4.5t-2.5 -9.5q-3 -3 -13 -13.5t-22 -21.5t-23 -19t-14 -8t-10 8t-13.5 19t-12.5 21t-7 14zM1470 208q3 5 7 1t2 -7
q-37 -54 -105 -86.5t-155 -49.5q-17 -89 -59.5 -167.5t-104 -144.5t-138 -118.5t-161.5 -88.5t-174 -55.5t-175 -18.5q-61 0 -120 16t-104.5 49t-72 83.5t-23.5 120.5q3 81 42.5 140.5t100 98.5t134.5 58.5t146 19.5q59 0 139.5 -3.5t171 -4.5t184 2.5t178.5 17.5
q4 19 5.5 37.5t1.5 35.5q0 107 -61 164.5t-164 57.5q-33 0 -63 -6.5t-60 -20.5q-5 -2 -7 3t2 7q47 23 100.5 47t106.5 51t101.5 59.5t85.5 73t59.5 91t22.5 114.5q0 63 -21.5 108.5t-59 75t-88.5 43t-110 13.5q-79 0 -164 -18t-168.5 -49t-161 -71.5t-142.5 -84.5
q-69 -47 -131 -101.5t-112.5 -114.5t-87.5 -125t-56 -132q-2 -8 -7.5 -7t-3.5 9q20 69 57.5 135t88.5 126.5t113.5 115.5t132.5 103q66 45 144.5 85.5t162.5 71.5t169.5 49.5t165.5 18.5q60 0 116.5 -14t100.5 -44t71 -77.5t27 -114.5q0 -54 -18.5 -100t-50.5 -85
t-74.5 -71.5t-90 -60.5t-97 -51.5t-96.5 -43.5q22 3 44 3q57 0 104.5 -15t82.5 -45.5t54 -76t19 -105.5q0 -14 -1.5 -28.5t-3.5 -28.5q84 17 149 48t100 82zM410 -516q84 0 168.5 19.5t164 55t151 87t129.5 115t98.5 139t59.5 159.5q-85 -14 -178.5 -17t-183 -2t-170 4.5
t-139.5 3.5q-70 0 -142 -18.5t-131 -56.5t-97.5 -96t-41.5 -136q-3 -68 23.5 -116.5t71 -80t101.5 -46t116 -14.5z" />
    <glyph glyph-name="zcaron" unicode="&#x17e;" horiz-adv-x="313" 
d="M63 351q-2 6 2.5 9.5t10.5 4.5t11.5 -1.5t5.5 -8.5q1 -11 6 -29.5t10 -26.5q4 4 9.5 11t11.5 15.5t11.5 16t8.5 13.5t9.5 8.5t12.5 1.5t8.5 -4.5t-2.5 -9.5q-3 -3 -13 -13.5t-22 -21.5t-23 -19t-14 -8t-10 8t-13.5 19t-12.5 21t-7 14zM315 207q3 5 7 1.5t2 -7.5
q-32 -45 -77.5 -84.5t-99.5 -76.5q10 -23 14 -52.5t4 -63.5q-1 -41 -9 -88.5t-24 -94.5t-40.5 -91t-57 -78t-73.5 -54t-90 -19q-33 0 -60.5 11t-47 30.5t-30.5 47.5t-10 62q1 51 27 94.5t68 82.5t96.5 75.5t111.5 72.5q24 15 48.5 30t47.5 31q-8 26 -22.5 41.5t-34.5 16.5
q-10 0 -19.5 -3t-18.5 -8q-6 -3 -8 2t3 8q18 12 34.5 30.5t28.5 39t19.5 40.5t7.5 35q0 26 -19 26q-12 0 -24.5 -6.5t-24 -16.5t-21 -21.5t-16.5 -21.5q-2 -4 -7.5 -1.5t-1.5 7.5q17 25 41.5 47.5t56.5 22.5q20 0 34.5 -12.5t14.5 -38.5q-1 -35 -28.5 -66t-59.5 -54
q5 1 13 1q25 -1 43 -15t30 -39q52 36 96.5 74.5t75.5 82.5zM132 -63q2 52 -7 88q-23 -16 -46.5 -30.5t-46.5 -29.5q-57 -36 -110 -71.5t-94.5 -73.5t-67 -80t-26.5 -90q0 -30 9 -55.5t26.5 -44t41.5 -29t54 -11.5q45 -1 82 20.5t66.5 57.5t51 82t36.5 93.5t22.5 93t8.5 80.5
z" />
    <glyph glyph-name="quotesinglbase" unicode="&#x201a;" horiz-adv-x="144" 
d="M81 39q7 0 12.5 -4.5t5.5 -13.5q0 -12 -12.5 -26t-35.5 -25q-5 -2 -6 2t3 6q11 7 17 15t8 13q-5 -2 -8.5 2.5t-3.5 9.5q-1 11 5.5 16t14.5 5z" />
    <glyph glyph-name="quotedblbase" unicode="&#x201e;" horiz-adv-x="231" 
d="M172 39q7 0 12.5 -4.5t5.5 -13.5q0 -12 -12.5 -26t-35.5 -25q-5 -2 -6 2t3 6q11 7 17 15t8 13q-5 -2 -8.5 2.5t-3.5 9.5q-1 11 5.5 16t14.5 5zM81 39q7 0 12.5 -4.5t5.5 -13.5q0 -12 -12.5 -26t-35.5 -25q-5 -2 -6 2t3 6q11 7 17 15t8 13q-5 -2 -8.5 2.5t-3.5 9.5
q-1 11 5.5 16t14.5 5z" />
    <glyph glyph-name="ellipsis" unicode="&#x2026;" horiz-adv-x="337" 
d="M76 36q8 0 13 -5t5 -13t-5 -13t-13 -5t-13 5t-5 13t5 13t13 5zM175 36q8 0 13 -5t5 -13t-5 -13t-13 -5t-13 5t-5 13t5 13t13 5zM264 36q8 0 13 -5t5 -13t-5 -13t-13 -5t-13 5t-5 13t5 13t13 5z" />
    <glyph glyph-name="Scaron" unicode="&#x160;" horiz-adv-x="1456" 
d="M1303 1125q-2 6 2.5 9.5t10.5 4.5t11.5 -1.5t5.5 -8.5q1 -11 6 -29.5t10 -26.5q4 4 9.5 11t11.5 15.5t11.5 16t8.5 13.5t9.5 8.5t12.5 1.5t8.5 -4.5t-2.5 -9.5q-3 -3 -13 -13.5t-22 -21.5t-23 -19t-14 -8t-10 8t-13.5 19t-12.5 21t-7 14zM1458 207q2 4 6.5 0.5t2.5 -7.5
q-26 -38 -63 -63t-80 -41t-88.5 -25t-88.5 -13q-1 -80 -9 -155t-27.5 -141t-52.5 -120.5t-83.5 -94t-120.5 -61t-164 -21.5q-63 0 -120 20t-101 56.5t-70.5 89t-26.5 118.5q-1 70 24.5 120.5t68.5 85t99 55.5t117 32.5t122 15t114 3.5q49 0 97.5 1t94.5 4q0 83 -1.5 169.5
t-1.5 170.5t2.5 163.5t11 150t25 129t43.5 100.5q-35 7 -69.5 10t-69.5 3q-120 1 -243 -35.5t-238 -102t-216 -156t-176.5 -197t-119.5 -225.5t-45 -242q0 -6 -5.5 -6.5t-5.5 7.5q1 124 45.5 244.5t121 228.5t178.5 199t218.5 157t241 103t246.5 36q36 -1 72 -4t72 -10
q13 18 33 32t43 23.5t47 15t45 5.5q35 0 53 -13t19 -30q1 -21 -26 -39.5t-85 -19.5q-34 0 -66 4.5t-49 7.5q-25 -40 -39 -97.5t-21 -127t-8 -148.5t0.5 -163t3.5 -170t2 -170q42 4 86.5 12.5t85.5 24t77 40t62 61.5zM1362 1024q-18 0 -39 -5t-41 -13.5t-37.5 -21.5
t-29.5 -29q15 -3 46 -7t63 -4q51 1 75 15.5t24 30.5q0 14 -15.5 24t-45.5 10zM690 -523q87 0 151.5 20.5t111 59t76.5 91.5t47.5 117.5t24.5 138t8 151.5q-47 -3 -95 -4t-97 -1q-51 0 -110.5 -3.5t-118.5 -14t-114 -30t-97.5 -52.5t-68 -81.5t-25.5 -116.5q0 -64 25 -115
t67.5 -86.5t98 -54.5t116.5 -19z" />
    <glyph glyph-name="guilsinglleft" unicode="&#x2039;" horiz-adv-x="375" 
d="M308 539q5 4 10 2.5t8 -5.5t3 -9.5t-6 -9.5l-197 -144l129 -144q6 -4 6 -9.5t-3 -9.5t-8 -5t-11 3l-137 148q-14 15 -12 20t16 15l202 148v0z" />
    <glyph glyph-name="guillemotleft" unicode="&#xab;" horiz-adv-x="490" 
d="M443 539q5 4 10 2.5t8 -5.5t3 -9.5t-6 -9.5l-197 -144l129 -144q6 -4 6 -9.5t-3 -9.5t-8 -5t-11 3l-137 148q-14 15 -12 20t16 15zM308 539q5 4 10 2.5t8 -5.5t3 -9.5t-6 -9.5l-197 -144l129 -144q6 -4 6 -9.5t-3 -9.5t-8 -5t-11 3l-137 148q-14 15 -12 20t16 15z" />
    <glyph glyph-name="guillemotright" unicode="&#xbb;" horiz-adv-x="486" 
d="M113 207q-5 -4 -10 -2.5t-8 5.5t-3 9.5t6 9.5l197 144l-129 144q-6 4 -6 9.5t3 9.5t8 5t11 -3l137 -148q14 -15 12 -20t-16 -15zM248 207q-5 -4 -10 -2.5t-8 5.5t-3 9.5t6 9.5l197 144l-129 144q-6 4 -6 9.5t3 9.5t8 5t11 -3l137 -148q14 -15 12 -20t-16 -15z" />
    <glyph glyph-name="guilsinglright" unicode="&#x203a;" horiz-adv-x="354" 
d="M113 207q-5 -4 -10 -2.5t-8 5.5t-3 9.5t6 9.5l197 144l-129 144q-6 4 -6 9.5t3 9.5t8 5t11 -3l137 -148q14 -15 12 -20t-16 -15z" />
    <glyph glyph-name="OE" unicode="&#x152;" horiz-adv-x="2557" 
d="M2559 207q3 4 7 1t2 -7q-26 -38 -58.5 -82.5t-70 -92.5t-80 -96.5t-87.5 -93.5q-38 -38 -84.5 -77.5t-98.5 -72t-108 -52.5t-113 -19q-72 1 -124 27.5t-85.5 71.5t-49.5 104.5t-14 127.5q0 19 2 37.5t5 36.5q-41 -81 -91 -153t-109 -125t-127 -84t-144 -31
q-69 0 -118.5 35.5t-82 96.5t-47.5 143t-15 176q0 90 14 185.5t40 190.5q-56 -97 -87.5 -197.5t-32.5 -197.5q0 -7 -5.5 -7.5t-5.5 7.5q1 108 39.5 219.5t104.5 217.5q35 112 86 211.5t118 174.5q-66 17 -132 32t-137 15q-89 0 -173.5 -28.5t-161.5 -75t-144.5 -106.5
t-122.5 -125q-54 -65 -102.5 -141.5t-84 -160.5t-55 -171.5t-14.5 -173.5q1 -11 -4.5 -11t-6.5 11q-5 87 14.5 175.5t55.5 173t84.5 162.5t103.5 143q55 66 124 127t147.5 108t164 75.5t175.5 28.5q73 1 141 -15t136 -34q63 69 138 108.5t161 39.5q54 -1 84.5 -17t41.5 -39
q17 4 34.5 6.5t34.5 4.5q-31 29 -71 47q-12 5 -9.5 10.5t13.5 0.5q47 -21 82 -57q7 0 14 0.5t15 0.5q82 1 154.5 -19t147.5 -46q62 55 137.5 89t158.5 34q77 0 113.5 -26.5t36.5 -59.5q0 -20 -12.5 -40t-36.5 -35.5t-59 -24.5t-81 -7q-65 2 -123.5 17.5t-116.5 35.5
q-55 -53 -95 -117t-57 -125t-9 -113t49 -80q26 16 58 31.5t66.5 26.5t69.5 18t67 7q35 -1 51 -10.5t16 -24.5q0 -14 -15 -29.5t-43.5 -28.5t-70 -21.5t-95.5 -7.5q-60 0 -100 18q-63 -47 -112 -109.5t-83 -133.5t-52.5 -145t-19.5 -143q-1 -62 12.5 -117t42.5 -95.5
t74.5 -64.5t108.5 -24q56 0 111 19.5t106 51t96.5 70.5t83.5 77q45 45 87 93.5t79.5 96t70 92t58.5 81.5zM1749 662q-1 40 -5.5 83.5t-16 86t-30 81.5t-46.5 70q-19 -2 -37.5 -4t-37.5 -6q2 -4 2 -8v-8q0 -20 -13.5 -40.5t-39 -37t-63 -27t-86.5 -10.5q-44 0 -86 6
q-105 -71 -197 -167q-53 -56 -101 -121q-45 -126 -68 -260t-21 -256q1 -86 15 -160t42 -128.5t70.5 -86t100.5 -31.5q79 0 148.5 33.5t129.5 91.5t110 134.5t90 163.5q11 48 28.5 96t43.5 93q35 113 52.5 220t15.5 192zM1760 654q1 -77 -13.5 -171.5t-43.5 -194.5
q34 52 77 98t96 82q-48 30 -61 84t3.5 118t58 131t101.5 122q-68 23 -139.5 42.5t-152.5 19.5h-10.5t-10.5 -1q28 -32 46 -72.5t29 -84t15.5 -88t4.5 -85.5zM2283 1043q-75 0 -143.5 -33.5t-126.5 -86.5q57 -20 113 -34.5t118 -16.5q43 -2 76 6.5t55.5 22t34.5 31.5t12 36
q-1 29 -34 52t-105 23zM1446 1027q-78 1 -147 -37.5t-127 -105.5q29 -8 57.5 -14t57.5 -11q66 44 135 75t139 47q-11 20 -39 33t-76 13zM2155 551q-31 0 -63.5 -6.5t-64.5 -17.5t-62 -26.5t-55 -32.5q36 -17 86 -17q51 -1 90.5 6.5t66.5 19t41.5 25t14.5 25.5
q-1 11 -14 17.5t-40 6.5zM1164 875q-48 -57 -87.5 -127.5t-71.5 -151.5q19 24 39 47t41 46q44 46 91 86t98 75q-28 5 -55.5 11t-54.5 14zM1567 957q0 5 -2 13q-66 -15 -132 -43.5t-129 -69.5q18 -2 36 -3t36 -1q46 0 81.5 9.5t59.5 24.5t37 33.5t13 36.5z" />
    <glyph glyph-name="quotedblright" unicode="&#x201d;" horiz-adv-x="245" 
d="M155 755q7 0 13 -4.5t6 -13.5q0 -12 -13 -26t-36 -25q-5 -2 -6 1.5t3 6.5q11 6 17 14t8 14q-5 -2 -8.5 2t-3.5 10q-1 11 5.5 16t14.5 5zM227 755q7 0 13 -4.5t6 -13.5q0 -12 -13 -26t-36 -25q-5 -2 -6 1.5t3 6.5q11 6 17 14t8 14q-5 -2 -8.5 2t-3.5 10q-1 11 5.5 16
t14.5 5z" />
    <glyph glyph-name="quotedblleft" unicode="&#x201c;" horiz-adv-x="240" 
d="M208 683q-7 0 -13 4.5t-6 13.5q0 12 13 26t36 25q5 2 6 -1.5t-3 -6.5q-11 -6 -17 -14t-8 -14q5 2 8.5 -2t3.5 -10q1 -11 -5.5 -16t-14.5 -5zM136 683q-7 0 -13 4.5t-6 13.5q0 12 13 26t36 25q5 2 6 -1.5t-3 -6.5q-11 -6 -17 -14t-8 -14q5 2 8.5 -2t3.5 -10
q1 -11 -5.5 -16t-14.5 -5z" />
    <glyph glyph-name="quoteright" unicode="&#x2019;" horiz-adv-x="174" 
d="M155 755q7 0 13 -4.5t6 -13.5q0 -12 -13 -26t-36 -25q-5 -2 -6 1.5t3 6.5q11 6 17 14t8 14q-5 -2 -8.5 2t-3.5 10q-1 11 5.5 16t14.5 5z" />
    <glyph glyph-name="quoteleft" unicode="&#x2018;" horiz-adv-x="170" 
d="M136 683q-7 0 -13 4.5t-6 13.5q0 12 13 26t36 25q5 2 6 -1.5t-3 -6.5q-11 -6 -17 -14t-8 -14q5 2 8.5 -2t3.5 -10q1 -11 -5.5 -16t-14.5 -5z" />
    <glyph glyph-name="bullet" unicode="&#x2022;" horiz-adv-x="225" 
d="M142 338q17 -1 24.5 -10t7.5 -20q1 -14 -10.5 -25.5t-33.5 -12.5q-17 0 -25 9t-8 20q0 14 11 26.5t34 12.5z" />
    <glyph glyph-name="endash" unicode="&#x2013;" horiz-adv-x="434" 
d="M353 312q6 0 9.5 -4t3.5 -9.5t-3.5 -9.5t-10.5 -4l-260 1q-7 0 -10.5 4t-3.5 9.5t3.5 9.5t10.5 4l261 -1v0z" />
    <glyph glyph-name="emdash" unicode="&#x2014;" horiz-adv-x="547" 
d="M456 312q6 0 9.5 -4t3.5 -9.5t-3.5 -9.5t-10.5 -4l-363 1q-7 0 -10.5 4t-3.5 9.5t3.5 9.5t10.5 4l364 -1v0z" />
    <glyph glyph-name="scaron" unicode="&#x161;" horiz-adv-x="284" 
d="M45 405q-2 6 2.5 9.5t10.5 4.5t11.5 -1.5t5.5 -8.5q1 -11 6 -29.5t10 -26.5q4 4 9.5 11t11.5 15.5t11.5 16t8.5 13.5t9.5 8.5t12.5 1.5t8.5 -4.5t-2.5 -9.5q-3 -3 -13 -13.5t-22 -21.5t-23 -19t-14 -8t-10 8t-13.5 19t-12.5 21t-7 14zM286 207q2 4 7 1t3 -6
q-17 -24 -37 -40.5t-43 -27t-48 -17.5t-50 -13q7 -15 7 -38q0 -21 -8 -38.5t-21.5 -30t-31.5 -19.5t-38 -6q-23 1 -41 13t-18 37q0 21 11 35.5t27.5 24t36 15.5t36.5 10q-11 13 -25.5 25.5t-27 26.5t-21 31.5t-8.5 40.5q0 20 7.5 38t20 31.5t30 21t37.5 7.5q32 0 47.5 -18.5
t4.5 -48.5q-2 -5 -7.5 -4t-3.5 7q8 24 -3.5 38.5t-37.5 14.5q-15 0 -28 -5.5t-22.5 -15.5t-15 -23t-4.5 -28q0 -21 11 -37t25.5 -31t30 -30t25.5 -34q50 11 95.5 29.5t77.5 63.5zM24 -16q32 -1 52.5 20.5t19.5 53.5q0 22 -12 39q-15 -3 -33 -8.5t-34.5 -14t-27.5 -21
t-11 -31.5q0 -20 14.5 -29t31.5 -9z" />
    <glyph glyph-name="oe" unicode="&#x153;" horiz-adv-x="545" 
d="M547 208q3 4 7.5 0.5t2.5 -6.5q-15 -22 -41 -51t-56 -55t-61.5 -44t-59.5 -18q-32 0 -47.5 22t-15.5 54q0 28 9 55q-29 -26 -66 -42.5t-73 -15.5q-20 0 -33 4q-11 -24 -30.5 -40.5t-47.5 -15.5q-35 0 -50.5 22.5t-14.5 51.5q0 24 10.5 47.5t29.5 37.5q8 6 14 -0.5
t-2 -13.5q-7 -7 -11.5 -26t-4.5 -40q0 -26 7.5 -47.5t27.5 -21.5q21 1 36.5 15t25.5 34q-27 11 -39.5 39.5t-11.5 56.5q1 22 10.5 38t27.5 16q22 0 32 -21t11 -50q0 -17 -3.5 -35.5t-11.5 -36.5q12 -3 28 -3q42 0 84 21.5t69 55.5q16 29 43 49.5t62 20.5q22 0 34.5 -11
t12.5 -30q0 -11 -6.5 -21.5t-21.5 -19.5t-39.5 -14t-60.5 -5q-12 -35 -12 -68q0 -22 7 -36.5t23 -14.5q25 0 55 18t59 43.5t53.5 53.5t38.5 48zM107 125q8 18 11 36.5t3 32.5q0 25 -7 42t-24 17q-13 0 -20 -13.5t-7 -32.5q-1 -24 10 -48t34 -34zM412 253q-29 0 -50 -23
t-35 -55q32 0 54 4.5t35 12t18.5 16.5t5.5 18q-1 11 -9 19t-19 8z" />
    <glyph glyph-name="Ydieresis" unicode="&#x178;" horiz-adv-x="1827" 
d="M1507 1034q8 0 11.5 -5t1.5 -13t-8 -13t-14 -5t-12 5t-2 13t8.5 13t14.5 5zM1574 1034q8 0 11.5 -5t1.5 -13t-8 -13t-14 -5t-11.5 5t-1.5 13t8 13t14 5zM1830 208q2 3 7 1t2 -7q-20 -29 -48 -52.5t-60.5 -42t-67 -33.5t-66.5 -26q-38 -116 -90 -220t-127 -182.5
t-176 -125t-237 -46.5q-36 0 -79.5 6t-87 18.5t-85 32.5t-73 47.5t-50 64t-17.5 82.5q2 58 36 100t83.5 70t106 44t104.5 23q81 12 164 18.5t166 13.5t165 19t160 35q25 73 47 148.5t41 148.5t35 141t28 125q-17 -41 -41 -87.5t-53 -93.5t-63.5 -93.5t-72.5 -87.5
q-28 -30 -60.5 -58.5t-69 -51t-76.5 -36t-83 -12.5q-51 0 -85 20t-54.5 53t-28.5 75.5t-8 87.5q0 56 10 117.5t26 124t37 123t43 113t43.5 94.5t39.5 67q-11 2 -22.5 3.5t-22.5 3.5q-26 4 -53.5 7.5t-56.5 3.5q-99 0 -195.5 -22t-187.5 -62t-174.5 -95t-155.5 -122
q-75 -69 -137 -149t-106 -165t-68 -173t-25 -174q0 -5 -5.5 -5t-5.5 6q1 87 25.5 176t69 175t106.5 166.5t139 150.5q73 67 157 123t176 96t189.5 62.5t197.5 22.5q29 0 57 -3.5t55 -7.5q13 -2 25.5 -4t25.5 -3q7 9 16.5 19.5t20 19.5t22.5 15t25 6q14 -1 24.5 -8.5
t10.5 -21.5q0 -13 -8.5 -21.5t-20.5 -13.5t-25.5 -7t-23.5 -2h-14t-14 1q-15 -22 -34.5 -63t-40.5 -95t-41 -117t-35.5 -128.5t-24.5 -130t-8 -120.5q0 -37 6.5 -74t22.5 -66.5t44 -48.5t72 -19q40 0 78.5 13.5t73.5 35.5t66.5 50t57.5 55q43 47 82 101t70.5 108t55.5 105.5
t39 92.5q2 5 8.5 3.5t5.5 -5.5q-9 -56 -21.5 -126.5t-29 -149t-37 -161t-45.5 -162.5q30 11 62.5 25t63.5 32t57.5 40t45.5 49zM1307 1026q-10 0 -19 -5.5t-17.5 -13t-15.5 -16.5t-12 -16q5 -1 10.5 -1h10.5q7 0 19 1.5t22.5 5.5t18 10.5t7.5 16.5q0 9 -8 13t-16 5z
M961 -514q127 0 221.5 46.5t165 123t120.5 175.5t87 204q-78 -23 -159 -34t-163 -18.5t-164.5 -13.5t-162.5 -18q-45 -6 -100 -21.5t-103 -42t-81.5 -66.5t-34.5 -96q-1 -43 16.5 -77.5t48 -61t70 -45.5t81 -31.5t83 -18t75.5 -5.5z" />
    <glyph glyph-name="exclamdown" unicode="&#xa1;" horiz-adv-x="234" 
d="M79 -5q-3 -5 -9.5 -6.5t-13 0t-10.5 5.5t-2 10q24 70 48 135t46 141t41.5 172.5t35.5 229.5q1 5 6.5 4.5t5.5 -5.5q0 -105 -10.5 -189t-29.5 -162.5t-46.5 -158.5t-61.5 -176zM221 701q-8 0 -13 5t-5 13t5 13t13 5t13 -5t5 -13t-5 -13t-13 -5z" />
    <glyph glyph-name="brokenbar" unicode="&#xa6;" horiz-adv-x="187" 
d="M76 799q0 9 5.5 13.5t12.5 4.5t12.5 -4.5t5.5 -13.5v-333q0 -8 -5.5 -12.5t-12.5 -4.5t-12.5 4.5t-5.5 13.5v332zM76 297q0 9 5.5 13.5t12.5 4.5t12.5 -4.5t5.5 -13.5v-333q0 -8 -5.5 -12.5t-12.5 -4.5t-12.5 4.5t-5.5 13.5v332z" />
    <glyph glyph-name="minus" unicode="&#x2212;" horiz-adv-x="454" 
d="M372 380q11 -1 17.5 -6.5t7.5 -11.5t-3.5 -11t-15.5 -5q-37 2 -68.5 3t-62.5 1.5t-62.5 -0.5t-68.5 -2q-5 0 -9 4t-5.5 9t0.5 9.5t8 5.5q38 4 70 6t62.5 2.5t61.5 -0.5t68 -4z" />
    <glyph glyph-name="questiondown" unicode="&#xbf;" horiz-adv-x="349" 
d="M364 739q-8 0 -13 5t-5 13t5 13t13 5t13 -5t5 -13t-5 -13t-13 -5zM314 235q-2 4 3 7t7 -1q29 -52 29 -101q0 -36 -14.5 -65.5t-38.5 -50t-56 -31.5t-66 -11q-61 0 -99.5 32t-39.5 95q0 47 23.5 92.5t58.5 92.5t76.5 95.5t76.5 101t59 109.5t25 121q0 6 5.5 6t5.5 -6
q0 -61 -22 -118t-54.5 -111.5t-70.5 -106.5t-70.5 -101.5t-54.5 -97.5t-23 -95q-1 -48 30.5 -73t77.5 -25q31 0 60 10.5t51.5 30t35.5 46.5t13 60q0 22 -6.5 45.5t-21.5 49.5z" />
    <glyph glyph-name="Agrave" unicode="&#xc0;" horiz-adv-x="1442" 
d="M1264 1063q3 -4 1 -8t-9 1q-6 4 -14.5 13t-18 19.5t-18 21t-12.5 18.5q-4 7 0 12t11.5 6t14.5 -2t9 -10q2 -8 6.5 -18t10 -20.5t11 -19.5t8.5 -13zM1383 -261q8 -2 7 -7.5t-9 -3.5q-45 9 -70.5 43.5t-38 79t-16 92t-3.5 82.5q1 66 7 139t14 150q-102 13 -189 12
q-47 -83 -102 -165.5t-115 -159t-123 -143.5t-125.5 -118.5t-123 -85t-114.5 -41.5q-8 -1 -8 4.5t7 6.5q48 8 103.5 40.5t113.5 83t118 117t117.5 141.5t112 156.5t101.5 162.5q-114 -5 -203 -31.5t-154 -65.5q-29 -18 -58.5 -42.5t-52 -55t-35 -65.5t-7.5 -72q6 -57 60 -97
q8 -5 4.5 -9.5t-11.5 0.5q-56 43 -64 105q-5 39 7.5 75.5t36 68t54 57.5t61.5 44q66 41 158.5 67.5t210.5 31.5q42 74 77 145t60 134t39 116t14 92q0 54 -16 91.5t-45 61.5t-69.5 35t-89.5 11q-82 1 -169.5 -22t-171.5 -61.5t-161.5 -87t-138.5 -99.5q-78 -64 -145.5 -141
t-117.5 -164.5t-79 -185t-30 -202.5q0 -5 -5.5 -7t-5.5 7q1 107 30 205.5t80 187t119 166t147 142.5q62 51 140 100.5t163.5 88t173.5 62t171 22.5q55 0 99 -12t75 -38.5t47.5 -67.5t16.5 -100q0 -43 -12 -97.5t-34.5 -116t-54 -128.5t-70.5 -136q43 0 89 -2.5t95 -9.5
q10 97 19 191.5t9 179.5q0 41 -3 86t-14.5 87.5t-34 79t-61.5 60.5q-7 4 -4 8.5t9 1.5q47 -29 74 -77.5t40.5 -105t16.5 -115t3 -106.5q-1 -72 -6 -146t-13 -149l34 -6q8 -2 7 -7.5t-8 -3.5l-34 6q-9 -96 -17 -185t-8 -163q0 -29 2.5 -64.5t12 -68t29 -57.5t55.5 -32z" />
    <glyph glyph-name="Aacute" unicode="&#xc1;" horiz-adv-x="1442" 
d="M1237 1056q3 4 8.5 13t11 19.5t10 20.5t6.5 18q2 7 9 10t14.5 2t11.5 -6t0 -12q-5 -8 -13 -18.5t-17.5 -21t-18 -19.5t-14.5 -13q-7 -5 -9 -1t1 8zM1383 -261q8 -2 7 -7.5t-9 -3.5q-45 9 -70.5 43.5t-38 79t-16 92t-3.5 82.5q1 66 7 139t14 150q-102 13 -189 12
q-47 -83 -102 -165.5t-115 -159t-123 -143.5t-125.5 -118.5t-123 -85t-114.5 -41.5q-8 -1 -8 4.5t7 6.5q48 8 103.5 40.5t113.5 83t118 117t117.5 141.5t112 156.5t101.5 162.5q-114 -5 -203 -31.5t-154 -65.5q-29 -18 -58.5 -42.5t-52 -55t-35 -65.5t-7.5 -72q6 -57 60 -97
q8 -5 4.5 -9.5t-11.5 0.5q-56 43 -64 105q-5 39 7.5 75.5t36 68t54 57.5t61.5 44q66 41 158.5 67.5t210.5 31.5q42 74 77 145t60 134t39 116t14 92q0 54 -16 91.5t-45 61.5t-69.5 35t-89.5 11q-82 1 -169.5 -22t-171.5 -61.5t-161.5 -87t-138.5 -99.5q-78 -64 -145.5 -141
t-117.5 -164.5t-79 -185t-30 -202.5q0 -5 -5.5 -7t-5.5 7q1 107 30 205.5t80 187t119 166t147 142.5q62 51 140 100.5t163.5 88t173.5 62t171 22.5q55 0 99 -12t75 -38.5t47.5 -67.5t16.5 -100q0 -43 -12 -97.5t-34.5 -116t-54 -128.5t-70.5 -136q43 0 89 -2.5t95 -9.5
q10 97 19 191.5t9 179.5q0 41 -3 86t-14.5 87.5t-34 79t-61.5 60.5q-7 4 -4 8.5t9 1.5q47 -29 74 -77.5t40.5 -105t16.5 -115t3 -106.5q-1 -72 -6 -146t-13 -149l34 -6q8 -2 7 -7.5t-8 -3.5l-34 6q-9 -96 -17 -185t-8 -163q0 -29 2.5 -64.5t12 -68t29 -57.5t55.5 -32z" />
    <glyph glyph-name="Acircumflex" unicode="&#xc2;" horiz-adv-x="1442" 
d="M1342 1082q2 -6 -2.5 -9.5t-10.5 -4.5t-11.5 1.5t-5.5 8.5q-1 11 -6 29.5t-10 26.5q-4 -4 -9.5 -11t-11.5 -15.5t-11.5 -16t-8.5 -13.5t-9.5 -8.5t-12.5 -1.5t-8.5 4.5t2.5 9.5q3 3 13 13.5t22 21.5t23 19t14 8t10 -8t13.5 -19t12 -21t7.5 -14zM1383 -261q8 -2 7 -7.5
t-9 -3.5q-45 9 -70.5 43.5t-38 79t-16 92t-3.5 82.5q1 66 7 139t14 150q-102 13 -189 12q-47 -83 -102 -165.5t-115 -159t-123 -143.5t-125.5 -118.5t-123 -85t-114.5 -41.5q-8 -1 -8 4.5t7 6.5q48 8 103.5 40.5t113.5 83t118 117t117.5 141.5t112 156.5t101.5 162.5
q-114 -5 -203 -31.5t-154 -65.5q-29 -18 -58.5 -42.5t-52 -55t-35 -65.5t-7.5 -72q6 -57 60 -97q8 -5 4.5 -9.5t-11.5 0.5q-56 43 -64 105q-5 39 7.5 75.5t36 68t54 57.5t61.5 44q66 41 158.5 67.5t210.5 31.5q42 74 77 145t60 134t39 116t14 92q0 54 -16 91.5t-45 61.5
t-69.5 35t-89.5 11q-82 1 -169.5 -22t-171.5 -61.5t-161.5 -87t-138.5 -99.5q-78 -64 -145.5 -141t-117.5 -164.5t-79 -185t-30 -202.5q0 -5 -5.5 -7t-5.5 7q1 107 30 205.5t80 187t119 166t147 142.5q62 51 140 100.5t163.5 88t173.5 62t171 22.5q55 0 99 -12t75 -38.5
t47.5 -67.5t16.5 -100q0 -43 -12 -97.5t-34.5 -116t-54 -128.5t-70.5 -136q43 0 89 -2.5t95 -9.5q10 97 19 191.5t9 179.5q0 41 -3 86t-14.5 87.5t-34 79t-61.5 60.5q-7 4 -4 8.5t9 1.5q47 -29 74 -77.5t40.5 -105t16.5 -115t3 -106.5q-1 -72 -6 -146t-13 -149l34 -6
q8 -2 7 -7.5t-8 -3.5l-34 6q-9 -96 -17 -185t-8 -163q0 -29 2.5 -64.5t12 -68t29 -57.5t55.5 -32z" />
    <glyph glyph-name="Atilde" unicode="&#xc3;" horiz-adv-x="1442" 
d="M1344 1107q5 2 8 -2t-1 -7q-15 -12 -26.5 -16.5t-20.5 -4.5q-17 1 -30 10t-31 10q-11 0 -22 -4q-5 -2 -8 2.5t2 7.5q14 10 24.5 13.5t19.5 3.5t16.5 -3t14.5 -6.5t14 -6.5t15 -3q6 0 12 1t13 5zM1383 -261q8 -2 7 -7.5t-9 -3.5q-45 9 -70.5 43.5t-38 79t-16 92t-3.5 82.5
q1 66 7 139t14 150q-102 13 -189 12q-47 -83 -102 -165.5t-115 -159t-123 -143.5t-125.5 -118.5t-123 -85t-114.5 -41.5q-8 -1 -8 4.5t7 6.5q48 8 103.5 40.5t113.5 83t118 117t117.5 141.5t112 156.5t101.5 162.5q-114 -5 -203 -31.5t-154 -65.5q-29 -18 -58.5 -42.5
t-52 -55t-35 -65.5t-7.5 -72q6 -57 60 -97q8 -5 4.5 -9.5t-11.5 0.5q-56 43 -64 105q-5 39 7.5 75.5t36 68t54 57.5t61.5 44q66 41 158.5 67.5t210.5 31.5q42 74 77 145t60 134t39 116t14 92q0 54 -16 91.5t-45 61.5t-69.5 35t-89.5 11q-82 1 -169.5 -22t-171.5 -61.5
t-161.5 -87t-138.5 -99.5q-78 -64 -145.5 -141t-117.5 -164.5t-79 -185t-30 -202.5q0 -5 -5.5 -7t-5.5 7q1 107 30 205.5t80 187t119 166t147 142.5q62 51 140 100.5t163.5 88t173.5 62t171 22.5q55 0 99 -12t75 -38.5t47.5 -67.5t16.5 -100q0 -43 -12 -97.5t-34.5 -116
t-54 -128.5t-70.5 -136q43 0 89 -2.5t95 -9.5q10 97 19 191.5t9 179.5q0 41 -3 86t-14.5 87.5t-34 79t-61.5 60.5q-7 4 -4 8.5t9 1.5q47 -29 74 -77.5t40.5 -105t16.5 -115t3 -106.5q-1 -72 -6 -146t-13 -149l34 -6q8 -2 7 -7.5t-8 -3.5l-34 6q-9 -96 -17 -185t-8 -163
q0 -29 2.5 -64.5t12 -68t29 -57.5t55.5 -32z" />
    <glyph glyph-name="Adieresis" unicode="&#xc4;" horiz-adv-x="1442" 
d="M1261 1103q8 0 11.5 -5t1.5 -13t-8 -13t-14 -5t-12 5t-2 13t8.5 13t14.5 5zM1328 1103q8 0 11.5 -5t1.5 -13t-8 -13t-14 -5t-11.5 5t-1.5 13t8 13t14 5zM1383 -261q8 -2 7 -7.5t-9 -3.5q-45 9 -70.5 43.5t-38 79t-16 92t-3.5 82.5q1 66 7 139t14 150q-102 13 -189 12
q-47 -83 -102 -165.5t-115 -159t-123 -143.5t-125.5 -118.5t-123 -85t-114.5 -41.5q-8 -1 -8 4.5t7 6.5q48 8 103.5 40.5t113.5 83t118 117t117.5 141.5t112 156.5t101.5 162.5q-114 -5 -203 -31.5t-154 -65.5q-29 -18 -58.5 -42.5t-52 -55t-35 -65.5t-7.5 -72q6 -57 60 -97
q8 -5 4.5 -9.5t-11.5 0.5q-56 43 -64 105q-5 39 7.5 75.5t36 68t54 57.5t61.5 44q66 41 158.5 67.5t210.5 31.5q42 74 77 145t60 134t39 116t14 92q0 54 -16 91.5t-45 61.5t-69.5 35t-89.5 11q-82 1 -169.5 -22t-171.5 -61.5t-161.5 -87t-138.5 -99.5q-78 -64 -145.5 -141
t-117.5 -164.5t-79 -185t-30 -202.5q0 -5 -5.5 -7t-5.5 7q1 107 30 205.5t80 187t119 166t147 142.5q62 51 140 100.5t163.5 88t173.5 62t171 22.5q55 0 99 -12t75 -38.5t47.5 -67.5t16.5 -100q0 -43 -12 -97.5t-34.5 -116t-54 -128.5t-70.5 -136q43 0 89 -2.5t95 -9.5
q10 97 19 191.5t9 179.5q0 41 -3 86t-14.5 87.5t-34 79t-61.5 60.5q-7 4 -4 8.5t9 1.5q47 -29 74 -77.5t40.5 -105t16.5 -115t3 -106.5q-1 -72 -6 -146t-13 -149l34 -6q8 -2 7 -7.5t-8 -3.5l-34 6q-9 -96 -17 -185t-8 -163q0 -29 2.5 -64.5t12 -68t29 -57.5t55.5 -32z" />
    <glyph glyph-name="Aring" unicode="&#xc5;" horiz-adv-x="1442" 
d="M1287 1104q17 -1 24.5 -10t7.5 -20q1 -14 -10.5 -25.5t-33.5 -12.5q-17 0 -25 9t-8 20q0 14 11 26.5t34 12.5zM1274 1043q13 1 19.5 12t7.5 22q0 8 -3 14t-11 6q-12 0 -19 -12t-7 -24q0 -8 3 -13t10 -5zM1383 -261q8 -2 7 -7.5t-9 -3.5q-45 9 -70.5 43.5t-38 79t-16 92
t-3.5 82.5q1 66 7 139t14 150q-102 13 -189 12q-47 -83 -102 -165.5t-115 -159t-123 -143.5t-125.5 -118.5t-123 -85t-114.5 -41.5q-8 -1 -8 4.5t7 6.5q48 8 103.5 40.5t113.5 83t118 117t117.5 141.5t112 156.5t101.5 162.5q-114 -5 -203 -31.5t-154 -65.5
q-29 -18 -58.5 -42.5t-52 -55t-35 -65.5t-7.5 -72q6 -57 60 -97q8 -5 4.5 -9.5t-11.5 0.5q-56 43 -64 105q-5 39 7.5 75.5t36 68t54 57.5t61.5 44q66 41 158.5 67.5t210.5 31.5q42 74 77 145t60 134t39 116t14 92q0 54 -16 91.5t-45 61.5t-69.5 35t-89.5 11
q-82 1 -169.5 -22t-171.5 -61.5t-161.5 -87t-138.5 -99.5q-78 -64 -145.5 -141t-117.5 -164.5t-79 -185t-30 -202.5q0 -5 -5.5 -7t-5.5 7q1 107 30 205.5t80 187t119 166t147 142.5q62 51 140 100.5t163.5 88t173.5 62t171 22.5q55 0 99 -12t75 -38.5t47.5 -67.5t16.5 -100
q0 -43 -12 -97.5t-34.5 -116t-54 -128.5t-70.5 -136q43 0 89 -2.5t95 -9.5q10 97 19 191.5t9 179.5q0 41 -3 86t-14.5 87.5t-34 79t-61.5 60.5q-7 4 -4 8.5t9 1.5q47 -29 74 -77.5t40.5 -105t16.5 -115t3 -106.5q-1 -72 -6 -146t-13 -149l34 -6q8 -2 7 -7.5t-8 -3.5l-34 6
q-9 -96 -17 -185t-8 -163q0 -29 2.5 -64.5t12 -68t29 -57.5t55.5 -32z" />
    <glyph glyph-name="AE" unicode="&#xc6;" horiz-adv-x="2283" 
d="M2285 207q3 4 7 1t2 -7q-26 -38 -58.5 -82.5t-70 -92.5t-80 -96.5t-87.5 -93.5q-38 -38 -84.5 -77.5t-98.5 -72t-108 -52.5t-113 -19q-78 1 -133 32t-88 83q-42 11 -66 45.5t-36 78.5t-15 90t-3 81q1 66 7 139t14 150q-102 13 -189 12q-47 -83 -102 -165.5t-115 -159
t-123 -143.5t-125.5 -118.5t-123 -85t-114.5 -41.5q-8 -1 -8 4.5t7 6.5q48 8 103.5 40.5t113.5 83t118 117t117.5 141.5t112 156.5t101.5 162.5q-114 -5 -203 -31.5t-154 -65.5q-29 -18 -58.5 -42.5t-52 -55t-35 -65.5t-7.5 -72q6 -57 60 -97q8 -5 4.5 -9.5t-11.5 0.5
q-56 43 -64 105q-5 39 7.5 75.5t36 68t54 57.5t61.5 44q66 41 158.5 67.5t210.5 31.5q42 74 77 145t60 134t39 116t14 92q0 76 -34 124q-106 -38 -206 -106.5t-185 -159.5q-64 -67 -117 -143t-91.5 -156.5t-60 -162t-22.5 -160.5q0 -7 -5.5 -7.5t-5.5 7.5q1 80 22.5 163
t60.5 164t92.5 158t118.5 145q86 91 185.5 160t205.5 107q-29 34 -74.5 49.5t-103.5 16.5q-82 1 -169.5 -22t-171.5 -61.5t-161.5 -87t-138.5 -99.5q-78 -64 -145.5 -141t-117.5 -164.5t-79 -185t-30 -202.5q0 -5 -5.5 -7t-5.5 7q1 107 30 205.5t80 187t119 166t147 142.5
q62 51 140 100.5t163.5 88t173.5 62t171 22.5q65 -1 114.5 -17.5t79.5 -54.5l19 6q-19 23 -47 42q-7 4 -4 8.5t9 1.5q31 -20 54 -48q41 11 81 17.5t81 7.5q82 1 154.5 -19t147.5 -46q62 55 137.5 89t158.5 34q77 0 113.5 -26.5t36.5 -59.5q0 -20 -12.5 -40t-36.5 -35.5
t-59 -24.5t-81 -7q-65 2 -123.5 17.5t-116.5 35.5q-55 -53 -95 -117t-57 -125t-9 -113t49 -80q26 16 58 31.5t66.5 26.5t69.5 18t67 7q35 -1 51 -10.5t16 -24.5q0 -14 -15 -29.5t-43.5 -28.5t-70 -21.5t-95.5 -7.5q-60 0 -100 18q-63 -47 -112 -109.5t-83 -133.5t-52.5 -145
t-19.5 -143q-1 -62 12.5 -117t42.5 -95.5t74.5 -64.5t108.5 -24q56 0 111 19.5t106 51t96.5 70.5t83.5 77q45 45 87 93.5t79.5 96t70 92t58.5 81.5zM1284 -39q0 -27 2 -60t9.5 -64t24 -56t45.5 -36q-23 42 -34.5 93t-9.5 108q2 69 21 142.5t55 142.5t87.5 130.5t117.5 106.5
q-48 30 -61 84t3.5 118t58 131t101.5 122q-68 23 -139.5 42.5t-152.5 19.5q-78 -2 -156 -24q25 -35 39.5 -79t22 -90.5t9.5 -92t2 -84.5q-1 -72 -6 -146t-13 -149l34 -6q8 -2 7 -7.5t-8 -3.5l-34 6q-9 -96 -17 -185t-8 -163zM1303 696q0 32 -2 66.5t-8 69t-17.5 67
t-31.5 59.5l-19 -6q37 -51 37 -137q0 -43 -12 -97.5t-34.5 -116t-54 -128.5t-70.5 -136q43 0 89 -2.5t95 -9.5q10 97 19 191.5t9 179.5zM2009 1043q-75 0 -143.5 -33.5t-126.5 -86.5q57 -20 113 -34.5t118 -16.5q43 -2 76 6.5t55.5 22t34.5 31.5t12 36q-1 29 -34 52t-105 23
zM1881 551q-31 0 -63.5 -6.5t-64.5 -17.5t-62 -26.5t-55 -32.5q36 -17 86 -17q51 -1 90.5 6.5t66.5 19t41.5 25t14.5 25.5q-1 11 -14 17.5t-40 6.5z" />
    <glyph glyph-name="Ccedilla" unicode="&#xc7;" horiz-adv-x="1766" 
d="M1768 207q3 4 7 1t2 -7q-26 -38 -58.5 -82.5t-70 -92.5t-80 -96.5t-87.5 -93.5q-46 -46 -94.5 -86t-99 -69.5t-102 -47t-102.5 -18.5q-4 0 -7.5 0.5t-6.5 0.5q-1 -7 -2.5 -13t-3.5 -12q5 2 10 3t11 1q26 0 38 -13t12 -30q0 -12 -6 -25t-16.5 -23.5t-26.5 -17.5t-35 -7
q-16 0 -29 7t-20 22q-2 5 3 7.5t8 -3.5q10 -21 33 -21q13 0 23 6.5t17 16t10.5 21t3.5 21.5q0 11 -4.5 18.5t-14.5 7.5q-9 0 -25 -7q-4 -2 -6.5 0.5t-0.5 6.5q2 8 3.5 17t3.5 17q-89 6 -145.5 50.5t-85.5 116.5t-32.5 165.5t14 197.5t54 213t87.5 211t115 192t136 156
q-73 25 -147 46t-157 21q-105 -1 -211 -41t-204 -108.5t-183 -160t-148 -194.5t-99.5 -211.5t-37.5 -211.5q0 -6 -5.5 -5.5t-5.5 5.5q1 105 38 215t101 214t150 196t185 161.5t206 110t214 41.5q43 0 83 -6t78.5 -16t76 -22.5t75.5 -24.5q67 60 139 94t146 33q39 0 67 -7.5
t47 -19.5t27.5 -28t8.5 -33q0 -20 -13 -39.5t-37 -34.5t-59 -24t-80 -7q-61 2 -117 16t-112 33q-69 -67 -131.5 -157.5t-113 -194t-87 -213.5t-54.5 -214t-15 -196.5t31 -162t84 -109t145 -37.5q50 1 100 18t99.5 46.5t97.5 69t94 84.5q45 45 86.5 93.5t79 96t70 92
t58.5 81.5zM1492 1043q-66 -1 -131.5 -34t-127.5 -91q54 -17 108 -30.5t112 -15.5q43 -2 76 6.5t56 22t34.5 31.5t11.5 36q-1 29 -34 52t-105 23z" />
    <glyph glyph-name="Egrave" unicode="&#xc8;" horiz-adv-x="1766" 
d="M1514 1080q3 -4 1 -8t-9 1q-6 4 -14.5 13t-18 19.5t-18 21t-12.5 18.5q-4 7 0 12t11.5 6t14.5 -2t9 -10q2 -8 6.5 -18t10 -20.5t11 -19.5t8.5 -13zM1768 207q3 4 7 1t2 -7q-26 -38 -58.5 -82.5t-70 -92.5t-80 -96.5t-87.5 -93.5q-38 -38 -84.5 -77.5t-98.5 -72
t-108 -52.5t-113 -19q-72 1 -124 27.5t-85.5 71.5t-49.5 104.5t-14 127.5q2 69 21 142.5t55 142.5t87.5 130.5t117.5 106.5q-48 30 -61 84t3.5 118t58 131t101.5 122q-68 23 -139.5 42.5t-152.5 19.5q-78 -1 -156.5 -23.5t-154.5 -63t-147.5 -96t-134.5 -121.5
q-64 -67 -117 -143t-91.5 -156.5t-60 -162t-22.5 -160.5q0 -7 -5.5 -7.5t-5.5 7.5q1 80 22.5 163t60.5 164t92.5 158t118.5 145q64 67 136 123t149 96.5t157 63.5t158 24q82 1 154.5 -19t147.5 -46q62 55 137.5 89t158.5 34q77 0 113.5 -26.5t36.5 -59.5q0 -20 -12.5 -40
t-36.5 -35.5t-59 -24.5t-81 -7q-65 2 -123.5 17.5t-116.5 35.5q-55 -53 -95 -117t-57 -125t-9 -113t49 -80q26 16 58 31.5t66.5 26.5t69.5 18t67 7q35 -1 51 -10.5t16 -24.5q0 -14 -15 -29.5t-43.5 -28.5t-70 -21.5t-95.5 -7.5q-60 0 -100 18q-63 -47 -112 -109.5
t-83 -133.5t-52.5 -145t-19.5 -143q-1 -62 12.5 -117t42.5 -95.5t74.5 -64.5t108.5 -24q56 0 111 19.5t106 51t96.5 70.5t83.5 77q45 45 87 93.5t79.5 96t70 92t58.5 81.5zM1364 551q-31 0 -63.5 -6.5t-64.5 -17.5t-62 -26.5t-55 -32.5q36 -17 86 -17q51 -1 90.5 6.5
t66.5 19t41.5 25t14.5 25.5q-1 11 -14 17.5t-40 6.5zM1492 1043q-75 0 -143.5 -33.5t-126.5 -86.5q57 -20 113 -34.5t118 -16.5q43 -2 76 6.5t55.5 22t34.5 31.5t12 36q-1 29 -34 52t-105 23z" />
    <glyph glyph-name="Eacute" unicode="&#xc9;" horiz-adv-x="1766" 
d="M1505 1083q3 4 8.5 13t11 19.5t10 20.5t6.5 18q2 7 9 10t14.5 2t11.5 -6t0 -12q-5 -8 -13 -18.5t-17.5 -21t-18 -19.5t-14.5 -13q-7 -5 -9 -1t1 8zM1768 207q3 4 7 1t2 -7q-26 -38 -58.5 -82.5t-70 -92.5t-80 -96.5t-87.5 -93.5q-38 -38 -84.5 -77.5t-98.5 -72
t-108 -52.5t-113 -19q-72 1 -124 27.5t-85.5 71.5t-49.5 104.5t-14 127.5q2 69 21 142.5t55 142.5t87.5 130.5t117.5 106.5q-48 30 -61 84t3.5 118t58 131t101.5 122q-68 23 -139.5 42.5t-152.5 19.5q-78 -1 -156.5 -23.5t-154.5 -63t-147.5 -96t-134.5 -121.5
q-64 -67 -117 -143t-91.5 -156.5t-60 -162t-22.5 -160.5q0 -7 -5.5 -7.5t-5.5 7.5q1 80 22.5 163t60.5 164t92.5 158t118.5 145q64 67 136 123t149 96.5t157 63.5t158 24q82 1 154.5 -19t147.5 -46q62 55 137.5 89t158.5 34q77 0 113.5 -26.5t36.5 -59.5q0 -20 -12.5 -40
t-36.5 -35.5t-59 -24.5t-81 -7q-65 2 -123.5 17.5t-116.5 35.5q-55 -53 -95 -117t-57 -125t-9 -113t49 -80q26 16 58 31.5t66.5 26.5t69.5 18t67 7q35 -1 51 -10.5t16 -24.5q0 -14 -15 -29.5t-43.5 -28.5t-70 -21.5t-95.5 -7.5q-60 0 -100 18q-63 -47 -112 -109.5
t-83 -133.5t-52.5 -145t-19.5 -143q-1 -62 12.5 -117t42.5 -95.5t74.5 -64.5t108.5 -24q56 0 111 19.5t106 51t96.5 70.5t83.5 77q45 45 87 93.5t79.5 96t70 92t58.5 81.5zM1364 551q-31 0 -63.5 -6.5t-64.5 -17.5t-62 -26.5t-55 -32.5q36 -17 86 -17q51 -1 90.5 6.5
t66.5 19t41.5 25t14.5 25.5q-1 11 -14 17.5t-40 6.5zM1492 1043q-75 0 -143.5 -33.5t-126.5 -86.5q57 -20 113 -34.5t118 -16.5q43 -2 76 6.5t55.5 22t34.5 31.5t12 36q-1 29 -34 52t-105 23z" />
    <glyph glyph-name="Ecircumflex" unicode="&#xca;" horiz-adv-x="1766" 
d="M1569 1095q2 -6 -2.5 -9.5t-10.5 -4.5t-11.5 1.5t-5.5 8.5q-1 11 -6 29.5t-10 26.5q-4 -4 -9.5 -11t-11.5 -15.5t-11.5 -16t-8.5 -13.5t-9.5 -8.5t-12.5 -1.5t-8.5 4.5t2.5 9.5q3 3 13 13.5t22 21.5t23 19t14 8t10 -8t13.5 -19t12 -21t7.5 -14zM1768 207q3 4 7 1t2 -7
q-26 -38 -58.5 -82.5t-70 -92.5t-80 -96.5t-87.5 -93.5q-38 -38 -84.5 -77.5t-98.5 -72t-108 -52.5t-113 -19q-72 1 -124 27.5t-85.5 71.5t-49.5 104.5t-14 127.5q2 69 21 142.5t55 142.5t87.5 130.5t117.5 106.5q-48 30 -61 84t3.5 118t58 131t101.5 122
q-68 23 -139.5 42.5t-152.5 19.5q-78 -1 -156.5 -23.5t-154.5 -63t-147.5 -96t-134.5 -121.5q-64 -67 -117 -143t-91.5 -156.5t-60 -162t-22.5 -160.5q0 -7 -5.5 -7.5t-5.5 7.5q1 80 22.5 163t60.5 164t92.5 158t118.5 145q64 67 136 123t149 96.5t157 63.5t158 24
q82 1 154.5 -19t147.5 -46q62 55 137.5 89t158.5 34q77 0 113.5 -26.5t36.5 -59.5q0 -20 -12.5 -40t-36.5 -35.5t-59 -24.5t-81 -7q-65 2 -123.5 17.5t-116.5 35.5q-55 -53 -95 -117t-57 -125t-9 -113t49 -80q26 16 58 31.5t66.5 26.5t69.5 18t67 7q35 -1 51 -10.5t16 -24.5
q0 -14 -15 -29.5t-43.5 -28.5t-70 -21.5t-95.5 -7.5q-60 0 -100 18q-63 -47 -112 -109.5t-83 -133.5t-52.5 -145t-19.5 -143q-1 -62 12.5 -117t42.5 -95.5t74.5 -64.5t108.5 -24q56 0 111 19.5t106 51t96.5 70.5t83.5 77q45 45 87 93.5t79.5 96t70 92t58.5 81.5zM1364 551
q-31 0 -63.5 -6.5t-64.5 -17.5t-62 -26.5t-55 -32.5q36 -17 86 -17q51 -1 90.5 6.5t66.5 19t41.5 25t14.5 25.5q-1 11 -14 17.5t-40 6.5zM1492 1043q-75 0 -143.5 -33.5t-126.5 -86.5q57 -20 113 -34.5t118 -16.5q43 -2 76 6.5t55.5 22t34.5 31.5t12 36q-1 29 -34 52
t-105 23z" />
    <glyph glyph-name="Edieresis" unicode="&#xcb;" horiz-adv-x="1766" 
d="M1500 1121q8 0 11.5 -5t1.5 -13t-8 -13t-14 -5t-12 5t-2 13t8.5 13t14.5 5zM1567 1121q8 0 11.5 -5t1.5 -13t-8 -13t-14 -5t-11.5 5t-1.5 13t8 13t14 5zM1768 207q3 4 7 1t2 -7q-26 -38 -58.5 -82.5t-70 -92.5t-80 -96.5t-87.5 -93.5q-38 -38 -84.5 -77.5t-98.5 -72
t-108 -52.5t-113 -19q-72 1 -124 27.5t-85.5 71.5t-49.5 104.5t-14 127.5q2 69 21 142.5t55 142.5t87.5 130.5t117.5 106.5q-48 30 -61 84t3.5 118t58 131t101.5 122q-68 23 -139.5 42.5t-152.5 19.5q-78 -1 -156.5 -23.5t-154.5 -63t-147.5 -96t-134.5 -121.5
q-64 -67 -117 -143t-91.5 -156.5t-60 -162t-22.5 -160.5q0 -7 -5.5 -7.5t-5.5 7.5q1 80 22.5 163t60.5 164t92.5 158t118.5 145q64 67 136 123t149 96.5t157 63.5t158 24q82 1 154.5 -19t147.5 -46q62 55 137.5 89t158.5 34q77 0 113.5 -26.5t36.5 -59.5q0 -20 -12.5 -40
t-36.5 -35.5t-59 -24.5t-81 -7q-65 2 -123.5 17.5t-116.5 35.5q-55 -53 -95 -117t-57 -125t-9 -113t49 -80q26 16 58 31.5t66.5 26.5t69.5 18t67 7q35 -1 51 -10.5t16 -24.5q0 -14 -15 -29.5t-43.5 -28.5t-70 -21.5t-95.5 -7.5q-60 0 -100 18q-63 -47 -112 -109.5
t-83 -133.5t-52.5 -145t-19.5 -143q-1 -62 12.5 -117t42.5 -95.5t74.5 -64.5t108.5 -24q56 0 111 19.5t106 51t96.5 70.5t83.5 77q45 45 87 93.5t79.5 96t70 92t58.5 81.5zM1364 551q-31 0 -63.5 -6.5t-64.5 -17.5t-62 -26.5t-55 -32.5q36 -17 86 -17q51 -1 90.5 6.5
t66.5 19t41.5 25t14.5 25.5q-1 11 -14 17.5t-40 6.5zM1492 1043q-75 0 -143.5 -33.5t-126.5 -86.5q57 -20 113 -34.5t118 -16.5q43 -2 76 6.5t55.5 22t34.5 31.5t12 36q-1 29 -34 52t-105 23z" />
    <glyph glyph-name="Igrave" unicode="&#xcc;" horiz-adv-x="549" 
d="M528 1075q3 -4 1 -8t-9 1q-6 4 -14.5 13t-18 19.5t-18 21t-12.5 18.5q-4 7 0 12t11.5 6t14.5 -2t9 -10q2 -8 6.5 -18t10 -20.5t11 -19.5t8.5 -13zM451 1038q30 -1 51 -19.5t34 -52t18.5 -80t3.5 -102.5q-2 -76 -16 -165t-37.5 -184t-55.5 -191.5t-70.5 -186.5t-82 -168.5
t-90.5 -138t-96.5 -96t-98.5 -41.5q-11 -1 -11.5 4t10.5 7q47 5 94 42.5t91 98.5t85 141.5t77 172t65.5 189t51.5 192.5t35.5 183.5t16.5 161.5q4 100 -14 160.5t-61 60.5q-36 0 -68 -24t-58 -58.5t-45.5 -73t-30.5 -66.5q-15 -36 -29.5 -85.5t-25 -102t-14 -103t4.5 -89.5
q2 -10 -3.5 -11.5t-7.5 9.5q-8 40 -4.5 91.5t14 104.5t25.5 103t30 87q12 30 32.5 70t47.5 75.5t60.5 60t71.5 24.5z" />
    <glyph glyph-name="Iacute" unicode="&#xcd;" horiz-adv-x="549" 
d="M485 1073q3 4 8.5 13t11 19.5t10 20.5t6.5 18q2 7 9 10t14.5 2t11.5 -6t0 -12q-5 -8 -13 -18.5t-17.5 -21t-18 -19.5t-14.5 -13q-7 -5 -9 -1t1 8zM451 1038q30 -1 51 -19.5t34 -52t18.5 -80t3.5 -102.5q-2 -76 -16 -165t-37.5 -184t-55.5 -191.5t-70.5 -186.5t-82 -168.5
t-90.5 -138t-96.5 -96t-98.5 -41.5q-11 -1 -11.5 4t10.5 7q47 5 94 42.5t91 98.5t85 141.5t77 172t65.5 189t51.5 192.5t35.5 183.5t16.5 161.5q4 100 -14 160.5t-61 60.5q-36 0 -68 -24t-58 -58.5t-45.5 -73t-30.5 -66.5q-15 -36 -29.5 -85.5t-25 -102t-14 -103t4.5 -89.5
q2 -10 -3.5 -11.5t-7.5 9.5q-8 40 -4.5 91.5t14 104.5t25.5 103t30 87q12 30 32.5 70t47.5 75.5t60.5 60t71.5 24.5z" />
    <glyph glyph-name="Icircumflex" unicode="&#xce;" horiz-adv-x="549" 
d="M548 1084q2 -6 -2.5 -9.5t-10.5 -4.5t-11.5 1.5t-5.5 8.5q-1 11 -6 29.5t-10 26.5q-4 -4 -9.5 -11t-11.5 -15.5t-11.5 -16t-8.5 -13.5t-9.5 -8.5t-12.5 -1.5t-8.5 4.5t2.5 9.5q3 3 13 13.5t22 21.5t23 19t14 8t10 -8t13.5 -19t12 -21t7.5 -14zM451 1038q30 -1 51 -19.5
t34 -52t18.5 -80t3.5 -102.5q-2 -76 -16 -165t-37.5 -184t-55.5 -191.5t-70.5 -186.5t-82 -168.5t-90.5 -138t-96.5 -96t-98.5 -41.5q-11 -1 -11.5 4t10.5 7q47 5 94 42.5t91 98.5t85 141.5t77 172t65.5 189t51.5 192.5t35.5 183.5t16.5 161.5q4 100 -14 160.5t-61 60.5
q-36 0 -68 -24t-58 -58.5t-45.5 -73t-30.5 -66.5q-15 -36 -29.5 -85.5t-25 -102t-14 -103t4.5 -89.5q2 -10 -3.5 -11.5t-7.5 9.5q-8 40 -4.5 91.5t14 104.5t25.5 103t30 87q12 30 32.5 70t47.5 75.5t60.5 60t71.5 24.5z" />
    <glyph glyph-name="Idieresis" unicode="&#xcf;" horiz-adv-x="549" 
d="M468 1103q8 0 11.5 -5t1.5 -13t-8 -13t-14 -5t-12 5t-2 13t8.5 13t14.5 5zM535 1103q8 0 11.5 -5t1.5 -13t-8 -13t-14 -5t-11.5 5t-1.5 13t8 13t14 5zM451 1038q30 -1 51 -19.5t34 -52t18.5 -80t3.5 -102.5q-2 -76 -16 -165t-37.5 -184t-55.5 -191.5t-70.5 -186.5
t-82 -168.5t-90.5 -138t-96.5 -96t-98.5 -41.5q-11 -1 -11.5 4t10.5 7q47 5 94 42.5t91 98.5t85 141.5t77 172t65.5 189t51.5 192.5t35.5 183.5t16.5 161.5q4 100 -14 160.5t-61 60.5q-36 0 -68 -24t-58 -58.5t-45.5 -73t-30.5 -66.5q-15 -36 -29.5 -85.5t-25 -102t-14 -103
t4.5 -89.5q2 -10 -3.5 -11.5t-7.5 9.5q-8 40 -4.5 91.5t14 104.5t25.5 103t30 87q12 30 32.5 70t47.5 75.5t60.5 60t71.5 24.5z" />
    <glyph glyph-name="Ntilde" unicode="&#xd1;" horiz-adv-x="1652" 
d="M1574 1098q5 2 8 -2t-1 -7q-15 -12 -26.5 -16.5t-20.5 -4.5q-17 1 -30 10t-31 10q-11 0 -22 -4q-5 -2 -8 2.5t2 7.5q14 10 24.5 13.5t19.5 3.5t16.5 -3t14.5 -6.5t14 -6.5t15 -3q6 0 12 1t13 5zM1864 1031q8 0 7.5 -5.5t-6.5 -6.5q-32 -3 -64 -38.5t-62.5 -93
t-59.5 -132.5t-55 -156.5t-48.5 -164.5t-40.5 -157t-31 -134t-20 -95q3 -45 5 -90t1 -90q-1 -19 -2.5 -42t-5 -42.5t-9 -32.5t-14.5 -13q-13 0 -19 22t-7 62q-1 53 8 130t26 169q-6 62 -17 142.5t-29 168.5t-43.5 177t-60 167t-79 139.5t-99.5 94.5q-8 5 -5.5 9.5t10.5 0.5
q55 -33 99 -92.5t78.5 -135t60.5 -161.5t44.5 -171t30 -163t18.5 -138q7 37 20 94t30.5 124.5t39.5 141t47.5 145.5t55 137t61 115.5t65.5 81t70 33.5zM1478 -124q1 32 0.5 64t-2.5 64q-14 -73 -21.5 -129.5t-6.5 -88.5q0 -37 11 -37q5 0 8.5 13t5.5 32.5t3.5 41.5t1.5 40z
M958 1037q82 0 139.5 -27t94 -74.5t52.5 -113t15 -141.5q-3 -115 -36 -235t-91 -233t-138 -215t-176.5 -182t-207 -133.5t-229.5 -69.5q-6 -1 -6.5 4.5t4.5 6.5q117 16 224 70.5t199.5 136t169 185t131.5 216.5t87 231t36 229q3 72 -11 133t-46.5 106t-84.5 70t-126 25
q-76 0 -157 -24.5t-162 -68t-158.5 -103.5t-147 -131t-128 -150.5t-101.5 -162t-67.5 -166t-25.5 -161.5q0 -8 -5.5 -7.5t-5.5 7.5q1 106 44 219.5t115 222t167 206t201 171t217 116.5t214 43z" />
    <glyph glyph-name="Ograve" unicode="&#xd2;" horiz-adv-x="1782" 
d="M1608 1080q3 -4 1 -8t-9 1q-6 4 -14.5 13t-18 19.5t-18 21t-12.5 18.5q-4 7 0 12t11.5 6t14.5 -2t9 -10q2 -8 6.5 -18t10 -20.5t11 -19.5t8.5 -13zM1760 654q1 -87 -17.5 -197t-55 -224t-90.5 -223t-124 -194t-156 -137t-186 -52q-69 0 -118.5 35.5t-82 96.5t-47.5 143
t-15 176q0 103 18.5 214.5t53 218.5t85 203t114.5 168q-66 17 -132 32t-137 15q-89 0 -173.5 -28.5t-161.5 -75t-144.5 -106.5t-122.5 -125q-54 -65 -102.5 -141.5t-84 -160.5t-55 -171.5t-14.5 -173.5q1 -11 -4.5 -11t-6.5 11q-5 87 14.5 175.5t55.5 173t84.5 162.5
t103.5 143q55 66 124 127t147.5 108t164 75.5t175.5 28.5q73 1 141 -15t136 -34q63 69 138 108.5t161 39.5q68 -1 100.5 -25.5t31.5 -56.5q0 -20 -13.5 -40.5t-39 -37t-63 -27t-86.5 -10.5q-55 0 -107.5 9.5t-104.5 23.5q-63 -74 -112 -174t-83 -211t-51 -226t-15 -220
q1 -86 15 -160t42 -128.5t70.5 -86t100.5 -31.5q74 0 140 30t124 82t107 121.5t88.5 149.5t69.5 166t50.5 170t30 162.5t8.5 142.5q-1 52 -9 109.5t-28 110t-54.5 95t-87.5 64.5q-12 5 -9.5 10.5t13.5 0.5q56 -23 92 -67.5t56.5 -100t29 -115.5t8.5 -115zM1446 1027
q-78 1 -147 -37.5t-127 -105.5q51 -13 101 -22t103 -9q46 0 81.5 9.5t59.5 24.5t37 33.5t13 36.5q0 28 -29.5 49t-91.5 21z" />
    <glyph glyph-name="Oacute" unicode="&#xd3;" horiz-adv-x="1782" 
d="M1535 1082q3 4 8.5 13t11 19.5t10 20.5t6.5 18q2 7 9 10t14.5 2t11.5 -6t0 -12q-5 -8 -13 -18.5t-17.5 -21t-18 -19.5t-14.5 -13q-7 -5 -9 -1t1 8zM1760 654q1 -87 -17.5 -197t-55 -224t-90.5 -223t-124 -194t-156 -137t-186 -52q-69 0 -118.5 35.5t-82 96.5t-47.5 143
t-15 176q0 103 18.5 214.5t53 218.5t85 203t114.5 168q-66 17 -132 32t-137 15q-89 0 -173.5 -28.5t-161.5 -75t-144.5 -106.5t-122.5 -125q-54 -65 -102.5 -141.5t-84 -160.5t-55 -171.5t-14.5 -173.5q1 -11 -4.5 -11t-6.5 11q-5 87 14.5 175.5t55.5 173t84.5 162.5
t103.5 143q55 66 124 127t147.5 108t164 75.5t175.5 28.5q73 1 141 -15t136 -34q63 69 138 108.5t161 39.5q68 -1 100.5 -25.5t31.5 -56.5q0 -20 -13.5 -40.5t-39 -37t-63 -27t-86.5 -10.5q-55 0 -107.5 9.5t-104.5 23.5q-63 -74 -112 -174t-83 -211t-51 -226t-15 -220
q1 -86 15 -160t42 -128.5t70.5 -86t100.5 -31.5q74 0 140 30t124 82t107 121.5t88.5 149.5t69.5 166t50.5 170t30 162.5t8.5 142.5q-1 52 -9 109.5t-28 110t-54.5 95t-87.5 64.5q-12 5 -9.5 10.5t13.5 0.5q56 -23 92 -67.5t56.5 -100t29 -115.5t8.5 -115zM1446 1027
q-78 1 -147 -37.5t-127 -105.5q51 -13 101 -22t103 -9q46 0 81.5 9.5t59.5 24.5t37 33.5t13 36.5q0 28 -29.5 49t-91.5 21z" />
    <glyph glyph-name="Ocircumflex" unicode="&#xd4;" horiz-adv-x="1782" 
d="M1628 1096q2 -6 -2.5 -9.5t-10.5 -4.5t-11.5 1.5t-5.5 8.5q-1 11 -6 29.5t-10 26.5q-4 -4 -9.5 -11t-11.5 -15.5t-11.5 -16t-8.5 -13.5t-9.5 -8.5t-12.5 -1.5t-8.5 4.5t2.5 9.5q3 3 13 13.5t22 21.5t23 19t14 8t10 -8t13.5 -19t12 -21t7.5 -14zM1760 654
q1 -87 -17.5 -197t-55 -224t-90.5 -223t-124 -194t-156 -137t-186 -52q-69 0 -118.5 35.5t-82 96.5t-47.5 143t-15 176q0 103 18.5 214.5t53 218.5t85 203t114.5 168q-66 17 -132 32t-137 15q-89 0 -173.5 -28.5t-161.5 -75t-144.5 -106.5t-122.5 -125
q-54 -65 -102.5 -141.5t-84 -160.5t-55 -171.5t-14.5 -173.5q1 -11 -4.5 -11t-6.5 11q-5 87 14.5 175.5t55.5 173t84.5 162.5t103.5 143q55 66 124 127t147.5 108t164 75.5t175.5 28.5q73 1 141 -15t136 -34q63 69 138 108.5t161 39.5q68 -1 100.5 -25.5t31.5 -56.5
q0 -20 -13.5 -40.5t-39 -37t-63 -27t-86.5 -10.5q-55 0 -107.5 9.5t-104.5 23.5q-63 -74 -112 -174t-83 -211t-51 -226t-15 -220q1 -86 15 -160t42 -128.5t70.5 -86t100.5 -31.5q74 0 140 30t124 82t107 121.5t88.5 149.5t69.5 166t50.5 170t30 162.5t8.5 142.5
q-1 52 -9 109.5t-28 110t-54.5 95t-87.5 64.5q-12 5 -9.5 10.5t13.5 0.5q56 -23 92 -67.5t56.5 -100t29 -115.5t8.5 -115zM1446 1027q-78 1 -147 -37.5t-127 -105.5q51 -13 101 -22t103 -9q46 0 81.5 9.5t59.5 24.5t37 33.5t13 36.5q0 28 -29.5 49t-91.5 21z" />
    <glyph glyph-name="Otilde" unicode="&#xd5;" horiz-adv-x="1782" 
d="M1611 1117q5 2 8 -2t-1 -7q-15 -12 -26.5 -16.5t-20.5 -4.5q-17 1 -30 10t-31 10q-11 0 -22 -4q-5 -2 -8 2.5t2 7.5q14 10 24.5 13.5t19.5 3.5t16.5 -3t14.5 -6.5t14 -6.5t15 -3q6 0 12 1t13 5zM1760 654q1 -87 -17.5 -197t-55 -224t-90.5 -223t-124 -194t-156 -137
t-186 -52q-69 0 -118.5 35.5t-82 96.5t-47.5 143t-15 176q0 103 18.5 214.5t53 218.5t85 203t114.5 168q-66 17 -132 32t-137 15q-89 0 -173.5 -28.5t-161.5 -75t-144.5 -106.5t-122.5 -125q-54 -65 -102.5 -141.5t-84 -160.5t-55 -171.5t-14.5 -173.5q1 -11 -4.5 -11
t-6.5 11q-5 87 14.5 175.5t55.5 173t84.5 162.5t103.5 143q55 66 124 127t147.5 108t164 75.5t175.5 28.5q73 1 141 -15t136 -34q63 69 138 108.5t161 39.5q68 -1 100.5 -25.5t31.5 -56.5q0 -20 -13.5 -40.5t-39 -37t-63 -27t-86.5 -10.5q-55 0 -107.5 9.5t-104.5 23.5
q-63 -74 -112 -174t-83 -211t-51 -226t-15 -220q1 -86 15 -160t42 -128.5t70.5 -86t100.5 -31.5q74 0 140 30t124 82t107 121.5t88.5 149.5t69.5 166t50.5 170t30 162.5t8.5 142.5q-1 52 -9 109.5t-28 110t-54.5 95t-87.5 64.5q-12 5 -9.5 10.5t13.5 0.5q56 -23 92 -67.5
t56.5 -100t29 -115.5t8.5 -115zM1446 1027q-78 1 -147 -37.5t-127 -105.5q51 -13 101 -22t103 -9q46 0 81.5 9.5t59.5 24.5t37 33.5t13 36.5q0 28 -29.5 49t-91.5 21z" />
    <glyph glyph-name="Odieresis" unicode="&#xd6;" horiz-adv-x="1782" 
d="M1529 1119q8 0 11.5 -5t1.5 -13t-8 -13t-14 -5t-12 5t-2 13t8.5 13t14.5 5zM1596 1119q8 0 11.5 -5t1.5 -13t-8 -13t-14 -5t-11.5 5t-1.5 13t8 13t14 5zM1760 654q1 -87 -17.5 -197t-55 -224t-90.5 -223t-124 -194t-156 -137t-186 -52q-69 0 -118.5 35.5t-82 96.5
t-47.5 143t-15 176q0 103 18.5 214.5t53 218.5t85 203t114.5 168q-66 17 -132 32t-137 15q-89 0 -173.5 -28.5t-161.5 -75t-144.5 -106.5t-122.5 -125q-54 -65 -102.5 -141.5t-84 -160.5t-55 -171.5t-14.5 -173.5q1 -11 -4.5 -11t-6.5 11q-5 87 14.5 175.5t55.5 173
t84.5 162.5t103.5 143q55 66 124 127t147.5 108t164 75.5t175.5 28.5q73 1 141 -15t136 -34q63 69 138 108.5t161 39.5q68 -1 100.5 -25.5t31.5 -56.5q0 -20 -13.5 -40.5t-39 -37t-63 -27t-86.5 -10.5q-55 0 -107.5 9.5t-104.5 23.5q-63 -74 -112 -174t-83 -211t-51 -226
t-15 -220q1 -86 15 -160t42 -128.5t70.5 -86t100.5 -31.5q74 0 140 30t124 82t107 121.5t88.5 149.5t69.5 166t50.5 170t30 162.5t8.5 142.5q-1 52 -9 109.5t-28 110t-54.5 95t-87.5 64.5q-12 5 -9.5 10.5t13.5 0.5q56 -23 92 -67.5t56.5 -100t29 -115.5t8.5 -115z
M1446 1027q-78 1 -147 -37.5t-127 -105.5q51 -13 101 -22t103 -9q46 0 81.5 9.5t59.5 24.5t37 33.5t13 36.5q0 28 -29.5 49t-91.5 21z" />
    <glyph glyph-name="Oslash" unicode="&#xd8;" horiz-adv-x="1782" 
d="M1760 654q1 -63 -9 -139.5t-29.5 -158.5t-48.5 -165.5t-67 -162t-85 -148.5t-102.5 -123.5t-119.5 -87t-135 -40.5l-28 -123q-1 -6 -7.5 -9t-13 -3.5t-12 2.5t-3.5 11l27 120q-68 1 -117 37t-80.5 97t-46.5 142.5t-15 174.5q0 103 18.5 214.5t53 218.5t85 203t114.5 168
q-66 17 -132 32t-137 15q-89 0 -173.5 -28.5t-161.5 -75t-144.5 -106.5t-122.5 -125q-54 -65 -102.5 -141.5t-84 -160.5t-55 -171.5t-14.5 -173.5q1 -11 -4.5 -11t-6.5 11q-5 87 14.5 175.5t55.5 173t84.5 162.5t103.5 143q55 66 124 127t147.5 108t164 75.5t175.5 28.5
q73 1 141 -15t136 -34q63 69 138 108.5t161 39.5h5l26 111q2 8 8.5 12t13.5 4t11.5 -4.5t2.5 -13.5l-26 -113q47 -8 69.5 -29.5t21.5 -48.5q-1 -33 -34.5 -64.5t-99.5 -44.5l-277 -1207q93 10 173 66t145 142t115 192.5t83.5 216.5t50 215.5t15.5 188.5q-1 52 -9 109.5
t-28 110t-54.5 95t-87.5 64.5q-12 5 -9.5 10.5t13.5 0.5q56 -23 92 -67.5t56.5 -100t29 -115.5t8.5 -115zM903 44q1 -85 15 -159t41.5 -129t70 -86.5t100.5 -31.5l276 1205q-8 -1 -15 -1h-15q-55 0 -107.5 9.5t-104.5 23.5q-63 -74 -112 -174t-83 -211t-51 -226t-15 -220z
M1446 1027q-78 1 -147 -37.5t-127 -105.5q51 -13 101 -22t103 -9h16.5t16.5 1l39 173h-2zM1567 957q0 23 -20.5 42t-62.5 25l-38 -164q59 12 89.5 40t31.5 57z" />
    <glyph glyph-name="Ugrave" unicode="&#xd9;" horiz-adv-x="1744" 
d="M1637 1007q3 -4 1 -8t-9 1q-6 4 -14.5 13t-18 19.5t-18 21t-12.5 18.5q-4 7 0 12t11.5 6t14.5 -2t9 -10q2 -8 6.5 -18t10 -20.5t11 -19.5t8.5 -13zM1882 906q0 -37 -13 -90t-34 -114.5t-47 -126.5t-52 -124.5t-50 -110t-40 -82.5q-26 -113 -42.5 -219.5t-16.5 -193.5
q0 -47 5.5 -85.5t18 -66.5t32 -44t48.5 -17q7 0 7 -5.5t-7 -5.5q-34 1 -58.5 19.5t-40 50t-23 75t-8.5 96.5q-2 63 5.5 135t21.5 150q-50 -90 -107 -175.5t-118.5 -152t-125 -106.5t-127.5 -40q-55 1 -88 31t-50.5 74t-23.5 94.5t-6 92.5q-1 72 9 160t28 182t43.5 189
t56 182t65 161.5t71.5 126.5q-11 2 -22.5 3.5t-22.5 3.5q-26 4 -53.5 7.5t-56.5 3.5q-99 0 -195.5 -22t-187.5 -62t-174.5 -95t-155.5 -122q-75 -69 -137 -149t-106 -165t-68 -173t-25 -174q0 -5 -5.5 -5t-5.5 6q1 87 25.5 176t69 175t106.5 166.5t139 150.5q73 67 157 123
t175.5 96t189.5 62.5t198 22.5q29 0 57 -3.5t55 -7.5q13 -2 25.5 -4t25.5 -3q7 9 16.5 19.5t20 19.5t22.5 15t25 6q14 -1 24.5 -8.5t10.5 -21.5q0 -13 -8.5 -21.5t-20.5 -13.5t-25.5 -7t-23.5 -2h-14t-14 1q-34 -52 -66 -126.5t-61 -162.5t-53 -184.5t-41.5 -191t-28 -182.5
t-10.5 -159q0 -35 3 -81.5t16.5 -89t40.5 -72.5t75 -31q64 -1 128.5 41.5t127 113t120 160.5t107.5 183q3 15 12.5 55.5t24 97t33 123t39 133.5t42.5 130t43.5 111.5t41 77.5t36.5 29q5 0 8.5 -4t5 -9t2 -10.5t0.5 -9.5zM1865 928q-7 0 -19 -24.5t-27 -65.5t-32.5 -93.5
t-34.5 -108.5t-33 -111t-29 -100.5t-21.5 -77t-10.5 -40.5q15 31 36.5 77.5t45 101.5t47 114.5t42 116t30 105.5t12.5 83q0 3 -1 13t-5 10zM1307 1026q-10 0 -19 -5.5t-17.5 -13t-15.5 -16.5t-12 -16q5 -1 10.5 -1h10.5q7 0 18.5 1.5t22.5 5.5t18.5 10.5t7.5 16.5q0 9 -8 13
t-16 5z" />
    <glyph glyph-name="Uacute" unicode="&#xda;" horiz-adv-x="1744" 
d="M1580 1007q3 4 8.5 13t11 19.5t10 20.5t6.5 18q2 7 9 10t14.5 2t11.5 -6t0 -12q-5 -8 -13 -18.5t-17.5 -21t-18 -19.5t-14.5 -13q-7 -5 -9 -1t1 8zM1882 906q0 -37 -13 -90t-34 -114.5t-47 -126.5t-52 -124.5t-50 -110t-40 -82.5q-26 -113 -42.5 -219.5t-16.5 -193.5
q0 -47 5.5 -85.5t18 -66.5t32 -44t48.5 -17q7 0 7 -5.5t-7 -5.5q-34 1 -58.5 19.5t-40 50t-23 75t-8.5 96.5q-2 63 5.5 135t21.5 150q-50 -90 -107 -175.5t-118.5 -152t-125 -106.5t-127.5 -40q-55 1 -88 31t-50.5 74t-23.5 94.5t-6 92.5q-1 72 9 160t28 182t43.5 189
t56 182t65 161.5t71.5 126.5q-11 2 -22.5 3.5t-22.5 3.5q-26 4 -53.5 7.5t-56.5 3.5q-99 0 -195.5 -22t-187.5 -62t-174.5 -95t-155.5 -122q-75 -69 -137 -149t-106 -165t-68 -173t-25 -174q0 -5 -5.5 -5t-5.5 6q1 87 25.5 176t69 175t106.5 166.5t139 150.5q73 67 157 123
t175.5 96t189.5 62.5t198 22.5q29 0 57 -3.5t55 -7.5q13 -2 25.5 -4t25.5 -3q7 9 16.5 19.5t20 19.5t22.5 15t25 6q14 -1 24.5 -8.5t10.5 -21.5q0 -13 -8.5 -21.5t-20.5 -13.5t-25.5 -7t-23.5 -2h-14t-14 1q-34 -52 -66 -126.5t-61 -162.5t-53 -184.5t-41.5 -191t-28 -182.5
t-10.5 -159q0 -35 3 -81.5t16.5 -89t40.5 -72.5t75 -31q64 -1 128.5 41.5t127 113t120 160.5t107.5 183q3 15 12.5 55.5t24 97t33 123t39 133.5t42.5 130t43.5 111.5t41 77.5t36.5 29q5 0 8.5 -4t5 -9t2 -10.5t0.5 -9.5zM1865 928q-7 0 -19 -24.5t-27 -65.5t-32.5 -93.5
t-34.5 -108.5t-33 -111t-29 -100.5t-21.5 -77t-10.5 -40.5q15 31 36.5 77.5t45 101.5t47 114.5t42 116t30 105.5t12.5 83q0 3 -1 13t-5 10zM1307 1026q-10 0 -19 -5.5t-17.5 -13t-15.5 -16.5t-12 -16q5 -1 10.5 -1h10.5q7 0 18.5 1.5t22.5 5.5t18.5 10.5t7.5 16.5q0 9 -8 13
t-16 5z" />
    <glyph glyph-name="Ucircumflex" unicode="&#xdb;" horiz-adv-x="1744" 
d="M1659 1034q2 -6 -2.5 -9.5t-10.5 -4.5t-11.5 1.5t-5.5 8.5q-1 11 -6 29.5t-10 26.5q-4 -4 -9.5 -11t-11.5 -15.5t-11.5 -16t-8.5 -13.5t-9.5 -8.5t-12.5 -1.5t-8.5 4.5t2.5 9.5q3 3 13 13.5t22 21.5t23 19t14 8t10 -8t13.5 -19t12 -21t7.5 -14zM1882 906q0 -37 -13 -90
t-34 -114.5t-47 -126.5t-52 -124.5t-50 -110t-40 -82.5q-26 -113 -42.5 -219.5t-16.5 -193.5q0 -47 5.5 -85.5t18 -66.5t32 -44t48.5 -17q7 0 7 -5.5t-7 -5.5q-34 1 -58.5 19.5t-40 50t-23 75t-8.5 96.5q-2 63 5.5 135t21.5 150q-50 -90 -107 -175.5t-118.5 -152
t-125 -106.5t-127.5 -40q-55 1 -88 31t-50.5 74t-23.5 94.5t-6 92.5q-1 72 9 160t28 182t43.5 189t56 182t65 161.5t71.5 126.5q-11 2 -22.5 3.5t-22.5 3.5q-26 4 -53.5 7.5t-56.5 3.5q-99 0 -195.5 -22t-187.5 -62t-174.5 -95t-155.5 -122q-75 -69 -137 -149t-106 -165
t-68 -173t-25 -174q0 -5 -5.5 -5t-5.5 6q1 87 25.5 176t69 175t106.5 166.5t139 150.5q73 67 157 123t175.5 96t189.5 62.5t198 22.5q29 0 57 -3.5t55 -7.5q13 -2 25.5 -4t25.5 -3q7 9 16.5 19.5t20 19.5t22.5 15t25 6q14 -1 24.5 -8.5t10.5 -21.5q0 -13 -8.5 -21.5
t-20.5 -13.5t-25.5 -7t-23.5 -2h-14t-14 1q-34 -52 -66 -126.5t-61 -162.5t-53 -184.5t-41.5 -191t-28 -182.5t-10.5 -159q0 -35 3 -81.5t16.5 -89t40.5 -72.5t75 -31q64 -1 128.5 41.5t127 113t120 160.5t107.5 183q3 15 12.5 55.5t24 97t33 123t39 133.5t42.5 130
t43.5 111.5t41 77.5t36.5 29q5 0 8.5 -4t5 -9t2 -10.5t0.5 -9.5zM1865 928q-7 0 -19 -24.5t-27 -65.5t-32.5 -93.5t-34.5 -108.5t-33 -111t-29 -100.5t-21.5 -77t-10.5 -40.5q15 31 36.5 77.5t45 101.5t47 114.5t42 116t30 105.5t12.5 83q0 3 -1 13t-5 10zM1307 1026
q-10 0 -19 -5.5t-17.5 -13t-15.5 -16.5t-12 -16q5 -1 10.5 -1h10.5q7 0 18.5 1.5t22.5 5.5t18.5 10.5t7.5 16.5q0 9 -8 13t-16 5z" />
    <glyph glyph-name="Udieresis" unicode="&#xdc;" horiz-adv-x="1744" 
d="M1583 1081q8 0 11.5 -5t1.5 -13t-8 -13t-14 -5t-12 5t-2 13t8.5 13t14.5 5zM1650 1081q8 0 11.5 -5t1.5 -13t-8 -13t-14 -5t-11.5 5t-1.5 13t8 13t14 5zM1882 906q0 -37 -13 -90t-34 -114.5t-47 -126.5t-52 -124.5t-50 -110t-40 -82.5q-26 -113 -42.5 -219.5
t-16.5 -193.5q0 -47 5.5 -85.5t18 -66.5t32 -44t48.5 -17q7 0 7 -5.5t-7 -5.5q-34 1 -58.5 19.5t-40 50t-23 75t-8.5 96.5q-2 63 5.5 135t21.5 150q-50 -90 -107 -175.5t-118.5 -152t-125 -106.5t-127.5 -40q-55 1 -88 31t-50.5 74t-23.5 94.5t-6 92.5q-1 72 9 160t28 182
t43.5 189t56 182t65 161.5t71.5 126.5q-11 2 -22.5 3.5t-22.5 3.5q-26 4 -53.5 7.5t-56.5 3.5q-99 0 -195.5 -22t-187.5 -62t-174.5 -95t-155.5 -122q-75 -69 -137 -149t-106 -165t-68 -173t-25 -174q0 -5 -5.5 -5t-5.5 6q1 87 25.5 176t69 175t106.5 166.5t139 150.5
q73 67 157 123t175.5 96t189.5 62.5t198 22.5q29 0 57 -3.5t55 -7.5q13 -2 25.5 -4t25.5 -3q7 9 16.5 19.5t20 19.5t22.5 15t25 6q14 -1 24.5 -8.5t10.5 -21.5q0 -13 -8.5 -21.5t-20.5 -13.5t-25.5 -7t-23.5 -2h-14t-14 1q-34 -52 -66 -126.5t-61 -162.5t-53 -184.5
t-41.5 -191t-28 -182.5t-10.5 -159q0 -35 3 -81.5t16.5 -89t40.5 -72.5t75 -31q64 -1 128.5 41.5t127 113t120 160.5t107.5 183q3 15 12.5 55.5t24 97t33 123t39 133.5t42.5 130t43.5 111.5t41 77.5t36.5 29q5 0 8.5 -4t5 -9t2 -10.5t0.5 -9.5zM1865 928q-7 0 -19 -24.5
t-27 -65.5t-32.5 -93.5t-34.5 -108.5t-33 -111t-29 -100.5t-21.5 -77t-10.5 -40.5q15 31 36.5 77.5t45 101.5t47 114.5t42 116t30 105.5t12.5 83q0 3 -1 13t-5 10zM1307 1026q-10 0 -19 -5.5t-17.5 -13t-15.5 -16.5t-12 -16q5 -1 10.5 -1h10.5q7 0 18.5 1.5t22.5 5.5
t18.5 10.5t7.5 16.5q0 9 -8 13t-16 5z" />
    <glyph glyph-name="Yacute" unicode="&#xdd;" horiz-adv-x="1827" 
d="M1515 1034q3 4 8.5 13t11 19.5t10 20.5t6.5 18q2 7 9 10t14.5 2t11.5 -6t0 -12q-5 -8 -13 -18.5t-17.5 -21t-18 -19.5t-14.5 -13q-7 -5 -9 -1t1 8zM1830 208q2 3 7 1t2 -7q-20 -29 -48 -52.5t-60.5 -42t-67 -33.5t-66.5 -26q-38 -116 -90 -220t-127 -182.5t-176 -125
t-237 -46.5q-36 0 -79.5 6t-87 18.5t-85 32.5t-73 47.5t-50 64t-17.5 82.5q2 58 36 100t83.5 70t106 44t104.5 23q81 12 164 18.5t166 13.5t165 19t160 35q25 73 47 148.5t41 148.5t35 141t28 125q-17 -41 -41 -87.5t-53 -93.5t-63.5 -93.5t-72.5 -87.5q-28 -30 -60.5 -58.5
t-69 -51t-76.5 -36t-83 -12.5q-51 0 -85 20t-54.5 53t-28.5 75.5t-8 87.5q0 56 10 117.5t26 124t37 123t43 113t43.5 94.5t39.5 67q-11 2 -22.5 3.5t-22.5 3.5q-26 4 -53.5 7.5t-56.5 3.5q-99 0 -195.5 -22t-187.5 -62t-174.5 -95t-155.5 -122q-75 -69 -137 -149t-106 -165
t-68 -173t-25 -174q0 -5 -5.5 -5t-5.5 6q1 87 25.5 176t69 175t106.5 166.5t139 150.5q73 67 157 123t176 96t189.5 62.5t197.5 22.5q29 0 57 -3.5t55 -7.5q13 -2 25.5 -4t25.5 -3q7 9 16.5 19.5t20 19.5t22.5 15t25 6q14 -1 24.5 -8.5t10.5 -21.5q0 -13 -8.5 -21.5
t-20.5 -13.5t-25.5 -7t-23.5 -2h-14t-14 1q-15 -22 -34.5 -63t-40.5 -95t-41 -117t-35.5 -128.5t-24.5 -130t-8 -120.5q0 -37 6.5 -74t22.5 -66.5t44 -48.5t72 -19q40 0 78.5 13.5t73.5 35.5t66.5 50t57.5 55q43 47 82 101t70.5 108t55.5 105.5t39 92.5q2 5 8.5 3.5
t5.5 -5.5q-9 -56 -21.5 -126.5t-29 -149t-37 -161t-45.5 -162.5q30 11 62.5 25t63.5 32t57.5 40t45.5 49zM1307 1026q-10 0 -19 -5.5t-17.5 -13t-15.5 -16.5t-12 -16q5 -1 10.5 -1h10.5q7 0 19 1.5t22.5 5.5t18 10.5t7.5 16.5q0 9 -8 13t-16 5zM961 -514q127 0 221.5 46.5
t165 123t120.5 175.5t87 204q-78 -23 -159 -34t-163 -18.5t-164.5 -13.5t-162.5 -18q-45 -6 -100 -21.5t-103 -42t-81.5 -66.5t-34.5 -96q-1 -43 16.5 -77.5t48 -61t70 -45.5t81 -31.5t83 -18t75.5 -5.5z" />
    <glyph glyph-name="agrave" unicode="&#xe0;" 
d="M123 291q3 -4 1 -8t-9 1q-6 4 -14.5 13t-18 19.5t-18 21t-12.5 18.5q-4 7 0 12t11.5 6t14.5 -2t9 -10q2 -8 6.5 -18t10 -20.5t11 -19.5t8.5 -13zM325 207q3 5 7.5 1.5t1.5 -7.5q-14 -21 -40.5 -55t-57.5 -66.5t-62 -56t-55 -23.5q-13 0 -21 5.5t-13 14t-7 19.5t-2 22
q0 17 3.5 35t8.5 37q-18 -29 -38.5 -51t-43.5 -22q-22 1 -31.5 15t-8.5 37q0 22 10 49t27 49.5t39.5 37.5t49.5 15q29 0 39 -23q3 -5 -2 -7.5t-8 3.5q-4 7 -9 11.5t-13 4.5q-18 0 -36 -19t-33 -44.5t-25 -53t-10 -44.5q-1 -7 1.5 -13t10.5 -6q15 0 29.5 13.5t29 33.5t27 43
t22.5 41q5 10 9.5 17.5t8.5 12.5q2 2 6.5 -0.5t4.5 -4.5q1 -11 -4.5 -35.5t-12.5 -53t-13.5 -56.5t-6.5 -47q0 -8 2 -16.5t12 -8.5q20 0 49.5 23.5t59.5 56t56 65.5t39 51z" />
    <glyph glyph-name="aacute" unicode="&#xe1;" 
d="M88 293q3 4 8.5 13t11 19.5t10 20.5t6.5 18q2 7 9 10t14.5 2t11.5 -6t0 -12q-5 -8 -13 -18.5t-17.5 -21t-18 -19.5t-14.5 -13q-7 -5 -9 -1t1 8zM325 207q3 5 7.5 1.5t1.5 -7.5q-14 -21 -40.5 -55t-57.5 -66.5t-62 -56t-55 -23.5q-13 0 -21 5.5t-13 14t-7 19.5t-2 22
q0 17 3.5 35t8.5 37q-18 -29 -38.5 -51t-43.5 -22q-22 1 -31.5 15t-8.5 37q0 22 10 49t27 49.5t39.5 37.5t49.5 15q29 0 39 -23q3 -5 -2 -7.5t-8 3.5q-4 7 -9 11.5t-13 4.5q-18 0 -36 -19t-33 -44.5t-25 -53t-10 -44.5q-1 -7 1.5 -13t10.5 -6q15 0 29.5 13.5t29 33.5t27 43
t22.5 41q5 10 9.5 17.5t8.5 12.5q2 2 6.5 -0.5t4.5 -4.5q1 -11 -4.5 -35.5t-12.5 -53t-13.5 -56.5t-6.5 -47q0 -8 2 -16.5t12 -8.5q20 0 49.5 23.5t59.5 56t56 65.5t39 51z" />
    <glyph glyph-name="acircumflex" unicode="&#xe2;" 
d="M155 288q2 -6 -2.5 -9.5t-10.5 -4.5t-11.5 1.5t-5.5 8.5q-1 11 -6 29.5t-10 26.5q-4 -4 -9.5 -11t-11.5 -15.5t-11.5 -16t-8.5 -13.5t-9.5 -8.5t-12.5 -1.5t-8.5 4.5t2.5 9.5q3 3 13 13.5t22 21.5t23 19t14 8t10 -8t13.5 -19t12 -21t7.5 -14zM325 207q3 5 7.5 1.5
t1.5 -7.5q-14 -21 -40.5 -55t-57.5 -66.5t-62 -56t-55 -23.5q-13 0 -21 5.5t-13 14t-7 19.5t-2 22q0 17 3.5 35t8.5 37q-18 -29 -38.5 -51t-43.5 -22q-22 1 -31.5 15t-8.5 37q0 22 10 49t27 49.5t39.5 37.5t49.5 15q29 0 39 -23q3 -5 -2 -7.5t-8 3.5q-4 7 -9 11.5t-13 4.5
q-18 0 -36 -19t-33 -44.5t-25 -53t-10 -44.5q-1 -7 1.5 -13t10.5 -6q15 0 29.5 13.5t29 33.5t27 43t22.5 41q5 10 9.5 17.5t8.5 12.5q2 2 6.5 -0.5t4.5 -4.5q1 -11 -4.5 -35.5t-12.5 -53t-13.5 -56.5t-6.5 -47q0 -8 2 -16.5t12 -8.5q20 0 49.5 23.5t59.5 56t56 65.5t39 51z
" />
    <glyph glyph-name="atilde" unicode="&#xe3;" 
d="M153 303q5 2 8 -2t-1 -7q-15 -12 -26.5 -16.5t-20.5 -4.5q-17 1 -30 10t-31 10q-11 0 -22 -4q-5 -2 -8 2.5t2 7.5q14 10 24.5 13.5t19.5 3.5t16.5 -3t14.5 -6.5t14 -6.5t15 -3q6 0 12 1t13 5zM325 207q3 5 7.5 1.5t1.5 -7.5q-14 -21 -40.5 -55t-57.5 -66.5t-62 -56
t-55 -23.5q-13 0 -21 5.5t-13 14t-7 19.5t-2 22q0 17 3.5 35t8.5 37q-18 -29 -38.5 -51t-43.5 -22q-22 1 -31.5 15t-8.5 37q0 22 10 49t27 49.5t39.5 37.5t49.5 15q29 0 39 -23q3 -5 -2 -7.5t-8 3.5q-4 7 -9 11.5t-13 4.5q-18 0 -36 -19t-33 -44.5t-25 -53t-10 -44.5
q-1 -7 1.5 -13t10.5 -6q15 0 29.5 13.5t29 33.5t27 43t22.5 41q5 10 9.5 17.5t8.5 12.5q2 2 6.5 -0.5t4.5 -4.5q1 -11 -4.5 -35.5t-12.5 -53t-13.5 -56.5t-6.5 -47q0 -8 2 -16.5t12 -8.5q20 0 49.5 23.5t59.5 56t56 65.5t39 51z" />
    <glyph glyph-name="adieresis" unicode="&#xe4;" 
d="M72 314q8 0 11.5 -5t1.5 -13t-8 -13t-14 -5t-12 5t-2 13t8.5 13t14.5 5zM139 314q8 0 11.5 -5t1.5 -13t-8 -13t-14 -5t-11.5 5t-1.5 13t8 13t14 5zM325 207q3 5 7.5 1.5t1.5 -7.5q-14 -21 -40.5 -55t-57.5 -66.5t-62 -56t-55 -23.5q-13 0 -21 5.5t-13 14t-7 19.5t-2 22
q0 17 3.5 35t8.5 37q-18 -29 -38.5 -51t-43.5 -22q-22 1 -31.5 15t-8.5 37q0 22 10 49t27 49.5t39.5 37.5t49.5 15q29 0 39 -23q3 -5 -2 -7.5t-8 3.5q-4 7 -9 11.5t-13 4.5q-18 0 -36 -19t-33 -44.5t-25 -53t-10 -44.5q-1 -7 1.5 -13t10.5 -6q15 0 29.5 13.5t29 33.5t27 43
t22.5 41q5 10 9.5 17.5t8.5 12.5q2 2 6.5 -0.5t4.5 -4.5q1 -11 -4.5 -35.5t-12.5 -53t-13.5 -56.5t-6.5 -47q0 -8 2 -16.5t12 -8.5q20 0 49.5 23.5t59.5 56t56 65.5t39 51z" />
    <glyph glyph-name="aring" unicode="&#xe5;" 
d="M117 343q17 -1 24.5 -10t7.5 -20q1 -14 -10.5 -25.5t-33.5 -12.5q-17 0 -25 9t-8 20q0 14 11 26.5t34 12.5zM104 282q13 1 19.5 12t7.5 22q0 8 -3 14t-11 6q-12 0 -19 -12t-7 -24q0 -8 3 -13t10 -5zM325 207q3 5 7.5 1.5t1.5 -7.5q-14 -21 -40.5 -55t-57.5 -66.5t-62 -56
t-55 -23.5q-13 0 -21 5.5t-13 14t-7 19.5t-2 22q0 17 3.5 35t8.5 37q-18 -29 -38.5 -51t-43.5 -22q-22 1 -31.5 15t-8.5 37q0 22 10 49t27 49.5t39.5 37.5t49.5 15q29 0 39 -23q3 -5 -2 -7.5t-8 3.5q-4 7 -9 11.5t-13 4.5q-18 0 -36 -19t-33 -44.5t-25 -53t-10 -44.5
q-1 -7 1.5 -13t10.5 -6q15 0 29.5 13.5t29 33.5t27 43t22.5 41q5 10 9.5 17.5t8.5 12.5q2 2 6.5 -0.5t4.5 -4.5q1 -11 -4.5 -35.5t-12.5 -53t-13.5 -56.5t-6.5 -47q0 -8 2 -16.5t12 -8.5q20 0 49.5 23.5t59.5 56t56 65.5t39 51z" />
    <glyph glyph-name="ae" unicode="&#xe6;" horiz-adv-x="563" 
d="M565 208q3 4 7.5 0.5t2.5 -6.5q-15 -22 -41 -51t-56 -55t-61.5 -44t-59.5 -18q-32 0 -47.5 22t-15.5 54q0 22 6 46q-19 -25 -43 -52.5t-48.5 -50.5t-48 -38t-41.5 -15q-13 0 -21 5.5t-13 14t-7 19.5t-2 22q0 17 3.5 35t8.5 37q-18 -29 -38.5 -51t-43.5 -22
q-22 1 -31.5 15t-8.5 37q0 22 10 49t27 49.5t39.5 37.5t49.5 15q29 0 39 -23q3 -5 -2 -7.5t-8 3.5q-4 7 -9 11.5t-13 4.5q-18 0 -36 -19t-33 -44.5t-25 -53t-10 -44.5q-1 -7 1.5 -13t10.5 -6q15 0 29.5 13.5t29 33.5t27 43t22.5 41q5 10 9.5 17.5t8.5 12.5q2 2 6.5 -0.5
t4.5 -4.5q1 -11 -4.5 -35.5t-12.5 -53t-13.5 -56.5t-6.5 -47q0 -8 2 -16.5t12 -8.5q19 0 46 21t55.5 50.5t54 61t40.5 52.5q17 29 43.5 49t61.5 20q22 0 34.5 -11t12.5 -30q0 -11 -6.5 -21.5t-21.5 -19.5t-39.5 -14t-60.5 -5q-12 -35 -12 -68q0 -22 7 -36.5t23 -14.5
q25 0 55 18t59 43.5t53.5 53.5t38.5 48zM430 253q-29 0 -50 -23t-35 -55q32 0 54 4.5t35 12t18.5 16.5t5.5 18q-1 11 -9 19t-19 8z" />
    <glyph glyph-name="ccedilla" unicode="&#xe7;" horiz-adv-x="239" 
d="M241 208q3 3 7.5 0t2.5 -6q-15 -22 -40.5 -51t-55.5 -55t-61.5 -44t-59.5 -18l-5 -20q5 2 10 3t11 1q26 0 38 -13t12 -30q0 -12 -6 -25t-16.5 -23.5t-26.5 -17.5t-35 -7q-16 0 -29 7t-20 22q-2 5 3 7.5t8 -3.5q10 -21 33 -21q13 0 23 6.5t17 16t10.5 21t3.5 21.5
q0 11 -4.5 18.5t-14.5 7.5q-9 0 -25 -7q-4 -2 -6.5 0.5t-0.5 6.5l7 30q-26 4 -38.5 25t-12.5 50q0 25 8.5 52.5t25 50t40.5 37.5t54 15q21 0 34.5 -12t11.5 -38q-1 -7 -6.5 -6.5t-4.5 7.5q2 19 -6 28t-20 9q-23 0 -42 -16t-32.5 -39.5t-20.5 -51t-7 -50.5q0 -22 7 -36.5
t23 -14.5q25 0 55 18t59 43.5t53.5 53.5t38.5 48z" />
    <glyph glyph-name="egrave" unicode="&#xe8;" horiz-adv-x="239" 
d="M130 283q3 -4 1 -8t-9 1q-6 4 -14.5 13t-18 19.5t-18 21t-12.5 18.5q-4 7 0 12t11.5 6t14.5 -2t9 -10q2 -8 6.5 -18t10 -20.5t11 -19.5t8.5 -13zM241 208q3 4 7.5 0.5t2.5 -6.5q-15 -22 -41 -51t-56 -55t-61.5 -44t-59.5 -18q-32 0 -47.5 22t-15.5 54q0 25 8.5 52.5
t25 50t40.5 37.5t54 15q22 0 34.5 -11t12.5 -30q0 -11 -6.5 -21.5t-21.5 -19.5t-39.5 -14t-60.5 -5q-12 -35 -12 -68q0 -22 7 -36.5t23 -14.5q25 0 55 18t59 43.5t53.5 53.5t38.5 48zM106 253q-29 0 -50 -23t-35 -55q32 0 54 4.5t35 12t18.5 16.5t5.5 18q-1 11 -9 19t-19 8z
" />
    <glyph glyph-name="eacute" unicode="&#xe9;" horiz-adv-x="239" 
d="M92 285q3 4 8.5 13t11 19.5t10 20.5t6.5 18q2 7 9 10t14.5 2t11.5 -6t0 -12q-5 -8 -13 -18.5t-17.5 -21t-18 -19.5t-14.5 -13q-7 -5 -9 -1t1 8zM241 208q3 4 7.5 0.5t2.5 -6.5q-15 -22 -41 -51t-56 -55t-61.5 -44t-59.5 -18q-32 0 -47.5 22t-15.5 54q0 25 8.5 52.5t25 50
t40.5 37.5t54 15q22 0 34.5 -11t12.5 -30q0 -11 -6.5 -21.5t-21.5 -19.5t-39.5 -14t-60.5 -5q-12 -35 -12 -68q0 -22 7 -36.5t23 -14.5q25 0 55 18t59 43.5t53.5 53.5t38.5 48zM106 253q-29 0 -50 -23t-35 -55q32 0 54 4.5t35 12t18.5 16.5t5.5 18q-1 11 -9 19t-19 8z" />
    <glyph glyph-name="ecircumflex" unicode="&#xea;" horiz-adv-x="239" 
d="M165 293q2 -6 -2.5 -9.5t-10.5 -4.5t-11.5 1.5t-5.5 8.5q-1 11 -6 29.5t-10 26.5q-4 -4 -9.5 -11t-11.5 -15.5t-11.5 -16t-8.5 -13.5t-9.5 -8.5t-12.5 -1.5t-8.5 4.5t2.5 9.5q3 3 13 13.5t22 21.5t23 19t14 8t10 -8t13.5 -19t12 -21t7.5 -14zM241 208q3 4 7.5 0.5
t2.5 -6.5q-15 -22 -41 -51t-56 -55t-61.5 -44t-59.5 -18q-32 0 -47.5 22t-15.5 54q0 25 8.5 52.5t25 50t40.5 37.5t54 15q22 0 34.5 -11t12.5 -30q0 -11 -6.5 -21.5t-21.5 -19.5t-39.5 -14t-60.5 -5q-12 -35 -12 -68q0 -22 7 -36.5t23 -14.5q25 0 55 18t59 43.5t53.5 53.5
t38.5 48zM106 253q-29 0 -50 -23t-35 -55q32 0 54 4.5t35 12t18.5 16.5t5.5 18q-1 11 -9 19t-19 8z" />
    <glyph glyph-name="edieresis" unicode="&#xeb;" horiz-adv-x="239" 
d="M76 315q8 0 11.5 -5t1.5 -13t-8 -13t-14 -5t-12 5t-2 13t8.5 13t14.5 5zM143 315q8 0 11.5 -5t1.5 -13t-8 -13t-14 -5t-11.5 5t-1.5 13t8 13t14 5zM241 208q3 4 7.5 0.5t2.5 -6.5q-15 -22 -41 -51t-56 -55t-61.5 -44t-59.5 -18q-32 0 -47.5 22t-15.5 54q0 25 8.5 52.5
t25 50t40.5 37.5t54 15q22 0 34.5 -11t12.5 -30q0 -11 -6.5 -21.5t-21.5 -19.5t-39.5 -14t-60.5 -5q-12 -35 -12 -68q0 -22 7 -36.5t23 -14.5q25 0 55 18t59 43.5t53.5 53.5t38.5 48zM106 253q-29 0 -50 -23t-35 -55q32 0 54 4.5t35 12t18.5 16.5t5.5 18q-1 11 -9 19t-19 8z
" />
    <glyph glyph-name="igrave" unicode="&#xec;" horiz-adv-x="209" 
d="M211 207q3 5 7.5 1.5t1.5 -7.5q-14 -20 -38.5 -48t-53 -53.5t-58 -43.5t-53.5 -18q-26 0 -34.5 19.5t-8.5 41.5q0 42 8.5 68t20.5 42q2 3 8.5 3t7.5 -3q1 -10 -1 -25.5t-5 -33.5t-5.5 -38t-2.5 -39q0 -8 2 -16t12 -8q20 0 48 18t56 43t52 52t36 45zM49 236q3 -4 1 -8
t-9 1q-6 4 -14.5 13t-18 19.5t-18 21t-12.5 18.5q-4 7 0 12t11.5 6t14.5 -2t9 -10q2 -8 6.5 -18t10 -20.5t11 -19.5t8.5 -13z" />
    <glyph glyph-name="iacute" unicode="&#xed;" horiz-adv-x="209" 
d="M211 207q3 5 7.5 1.5t1.5 -7.5q-14 -20 -38.5 -48t-53 -53.5t-58 -43.5t-53.5 -18q-26 0 -34.5 19.5t-8.5 41.5q0 42 8.5 68t20.5 42q2 3 8.5 3t7.5 -3q1 -10 -1 -25.5t-5 -33.5t-5.5 -38t-2.5 -39q0 -8 2 -16t12 -8q20 0 48 18t56 43t52 52t36 45zM-16 221q3 4 8.5 13
t11 19.5t10 20.5t6.5 18q2 7 9 10t14.5 2t11.5 -6t0 -12q-5 -8 -13 -18.5t-17.5 -21t-18 -19.5t-14.5 -13q-7 -5 -9 -1t1 8z" />
    <glyph glyph-name="icircumflex" unicode="&#xee;" horiz-adv-x="209" 
d="M211 207q3 5 7.5 1.5t1.5 -7.5q-14 -20 -38.5 -48t-53 -53.5t-58 -43.5t-53.5 -18q-26 0 -34.5 19.5t-8.5 41.5q0 42 8.5 68t20.5 42q2 3 8.5 3t7.5 -3q1 -10 -1 -25.5t-5 -33.5t-5.5 -38t-2.5 -39q0 -8 2 -16t12 -8q20 0 48 18t56 43t52 52t36 45zM69 225
q2 -6 -2.5 -9.5t-10.5 -4.5t-11.5 1.5t-5.5 8.5q-1 11 -6 29.5t-10 26.5q-4 -4 -9.5 -11t-11.5 -15.5t-11.5 -16t-8.5 -13.5t-9.5 -8.5t-12.5 -1.5t-8.5 4.5t2.5 9.5q3 3 13 13.5t22 21.5t23 19t14 8t10 -8t13.5 -19t12 -21t7.5 -14z" />
    <glyph glyph-name="idieresis" unicode="&#xef;" horiz-adv-x="209" 
d="M211 207q3 5 7.5 1.5t1.5 -7.5q-14 -20 -38.5 -48t-53 -53.5t-58 -43.5t-53.5 -18q-26 0 -34.5 19.5t-8.5 41.5q0 42 8.5 68t20.5 42q2 3 8.5 3t7.5 -3q1 -10 -1 -25.5t-5 -33.5t-5.5 -38t-2.5 -39q0 -8 2 -16t12 -8q20 0 48 18t56 43t52 52t36 45zM-13 261q8 0 11.5 -5
t1.5 -13t-8 -13t-14 -5t-12 5t-2 13t8.5 13t14.5 5zM54 261q8 0 11.5 -5t1.5 -13t-8 -13t-14 -5t-11.5 5t-1.5 13t8 13t14 5z" />
    <glyph glyph-name="ntilde" unicode="&#xf1;" horiz-adv-x="344" 
d="M152 258q5 2 8 -2t-1 -7q-15 -12 -26.5 -16.5t-20.5 -4.5q-17 1 -30 10t-31 10q-11 0 -22 -4q-5 -2 -8 2.5t2 7.5q14 10 24.5 13.5t19.5 3.5t16.5 -3t14.5 -6.5t14 -6.5t15 -3q6 0 12 1t13 5zM346 208q3 3 7.5 -0.5t2.5 -6.5q-7 -10 -18.5 -24.5t-26 -30t-30.5 -31.5
t-33 -30q-17 -15 -41.5 -30.5t-48.5 -15.5q-20 0 -31.5 11t-11.5 31q0 14 4 29.5t9.5 30t10 26.5t4.5 20t-7 8q-13 0 -28.5 -13.5t-30.5 -32t-27 -37t-19 -28.5l-11 -16.5t-15 -10.5q-10 0 -16 5.5t-9.5 13.5t-4.5 17t-1 17q0 26 8.5 55.5t19.5 43.5q2 3 8 2.5t8 -2.5
t0.5 -18t-4.5 -36t-5.5 -40.5t-2.5 -31.5t3 -11q2 0 6.5 8t6.5 10q8 12 21 32t28.5 38.5t32.5 32t34 13.5q31 0 31 -33q0 -12 -3.5 -27t-7.5 -29.5t-7.5 -28t-3.5 -22.5q0 -16 14 -16q9 0 20.5 4.5t22.5 11.5t20.5 14t16.5 13q33 28 62 61t43 54z" />
    <glyph glyph-name="ograve" unicode="&#xf2;" horiz-adv-x="306" 
d="M115 281q3 -4 1 -8t-9 1q-6 4 -14.5 13t-18 19.5t-18 21t-12.5 18.5q-4 7 0 12t11.5 6t14.5 -2t9 -10q2 -8 6.5 -18t10 -20.5t11 -19.5t8.5 -13zM308 208q2 3 6.5 -0.5t2.5 -6.5q-14 -20 -33 -37.5t-42 -30t-47.5 -19.5t-48.5 -7q-20 0 -33 4q-11 -24 -30.5 -40.5
t-47.5 -15.5q-35 0 -50.5 22.5t-14.5 51.5q0 24 10.5 47.5t29.5 37.5q8 6 14 -0.5t-2 -13.5q-7 -7 -11.5 -26t-4.5 -40q0 -26 7.5 -47.5t27.5 -21.5q21 1 36.5 15t25.5 34q-27 11 -39.5 39.5t-11.5 56.5q1 22 10.5 38t27.5 16q22 0 32 -21t11 -50q0 -17 -3.5 -35.5
t-11.5 -36.5q12 -3 28 -3q46 0 91 26t71 64zM107 125q8 18 11 36.5t3 32.5q0 25 -7 42t-24 17q-13 0 -20 -13.5t-7 -32.5q-1 -24 10 -48t34 -34z" />
    <glyph glyph-name="oacute" unicode="&#xf3;" horiz-adv-x="306" 
d="M63 281q3 4 8.5 13t11 19.5t10 20.5t6.5 18q2 7 9 10t14.5 2t11.5 -6t0 -12q-5 -8 -13 -18.5t-17.5 -21t-18 -19.5t-14.5 -13q-7 -5 -9 -1t1 8zM308 208q2 3 6.5 -0.5t2.5 -6.5q-14 -20 -33 -37.5t-42 -30t-47.5 -19.5t-48.5 -7q-20 0 -33 4q-11 -24 -30.5 -40.5
t-47.5 -15.5q-35 0 -50.5 22.5t-14.5 51.5q0 24 10.5 47.5t29.5 37.5q8 6 14 -0.5t-2 -13.5q-7 -7 -11.5 -26t-4.5 -40q0 -26 7.5 -47.5t27.5 -21.5q21 1 36.5 15t25.5 34q-27 11 -39.5 39.5t-11.5 56.5q1 22 10.5 38t27.5 16q22 0 32 -21t11 -50q0 -17 -3.5 -35.5
t-11.5 -36.5q12 -3 28 -3q46 0 91 26t71 64zM107 125q8 18 11 36.5t3 32.5q0 25 -7 42t-24 17q-13 0 -20 -13.5t-7 -32.5q-1 -24 10 -48t34 -34z" />
    <glyph glyph-name="ocircumflex" unicode="&#xf4;" horiz-adv-x="306" 
d="M138 284q2 -6 -2.5 -9.5t-10.5 -4.5t-11.5 1.5t-5.5 8.5q-1 11 -6 29.5t-10 26.5q-4 -4 -9.5 -11t-11.5 -15.5t-11.5 -16t-8.5 -13.5t-9.5 -8.5t-12.5 -1.5t-8.5 4.5t2.5 9.5q3 3 13 13.5t22 21.5t23 19t14 8t10 -8t13.5 -19t12 -21t7.5 -14zM308 208q2 3 6.5 -0.5
t2.5 -6.5q-14 -20 -33 -37.5t-42 -30t-47.5 -19.5t-48.5 -7q-20 0 -33 4q-11 -24 -30.5 -40.5t-47.5 -15.5q-35 0 -50.5 22.5t-14.5 51.5q0 24 10.5 47.5t29.5 37.5q8 6 14 -0.5t-2 -13.5q-7 -7 -11.5 -26t-4.5 -40q0 -26 7.5 -47.5t27.5 -21.5q21 1 36.5 15t25.5 34
q-27 11 -39.5 39.5t-11.5 56.5q1 22 10.5 38t27.5 16q22 0 32 -21t11 -50q0 -17 -3.5 -35.5t-11.5 -36.5q12 -3 28 -3q46 0 91 26t71 64zM107 125q8 18 11 36.5t3 32.5q0 25 -7 42t-24 17q-13 0 -20 -13.5t-7 -32.5q-1 -24 10 -48t34 -34z" />
    <glyph glyph-name="otilde" unicode="&#xf5;" horiz-adv-x="306" 
d="M142 305q5 2 8 -2t-1 -7q-15 -12 -26.5 -16.5t-20.5 -4.5q-17 1 -30 10t-31 10q-11 0 -22 -4q-5 -2 -8 2.5t2 7.5q14 10 24.5 13.5t19.5 3.5t16.5 -3t14.5 -6.5t14 -6.5t15 -3q6 0 12 1t13 5zM308 208q2 3 6.5 -0.5t2.5 -6.5q-14 -20 -33 -37.5t-42 -30t-47.5 -19.5
t-48.5 -7q-20 0 -33 4q-11 -24 -30.5 -40.5t-47.5 -15.5q-35 0 -50.5 22.5t-14.5 51.5q0 24 10.5 47.5t29.5 37.5q8 6 14 -0.5t-2 -13.5q-7 -7 -11.5 -26t-4.5 -40q0 -26 7.5 -47.5t27.5 -21.5q21 1 36.5 15t25.5 34q-27 11 -39.5 39.5t-11.5 56.5q1 22 10.5 38t27.5 16
q22 0 32 -21t11 -50q0 -17 -3.5 -35.5t-11.5 -36.5q12 -3 28 -3q46 0 91 26t71 64zM107 125q8 18 11 36.5t3 32.5q0 25 -7 42t-24 17q-13 0 -20 -13.5t-7 -32.5q-1 -24 10 -48t34 -34z" />
    <glyph glyph-name="odieresis" unicode="&#xf6;" horiz-adv-x="306" 
d="M64 314q8 0 11.5 -5t1.5 -13t-8 -13t-14 -5t-12 5t-2 13t8.5 13t14.5 5zM131 314q8 0 11.5 -5t1.5 -13t-8 -13t-14 -5t-11.5 5t-1.5 13t8 13t14 5zM308 208q2 3 6.5 -0.5t2.5 -6.5q-14 -20 -33 -37.5t-42 -30t-47.5 -19.5t-48.5 -7q-20 0 -33 4q-11 -24 -30.5 -40.5
t-47.5 -15.5q-35 0 -50.5 22.5t-14.5 51.5q0 24 10.5 47.5t29.5 37.5q8 6 14 -0.5t-2 -13.5q-7 -7 -11.5 -26t-4.5 -40q0 -26 7.5 -47.5t27.5 -21.5q21 1 36.5 15t25.5 34q-27 11 -39.5 39.5t-11.5 56.5q1 22 10.5 38t27.5 16q22 0 32 -21t11 -50q0 -17 -3.5 -35.5
t-11.5 -36.5q12 -3 28 -3q46 0 91 26t71 64zM107 125q8 18 11 36.5t3 32.5q0 25 -7 42t-24 17q-13 0 -20 -13.5t-7 -32.5q-1 -24 10 -48t34 -34z" />
    <glyph glyph-name="oslash" unicode="&#xf8;" horiz-adv-x="306" 
d="M308 208q2 3 6.5 -0.5t2.5 -6.5q-14 -20 -33 -37.5t-42 -30t-47.5 -19.5t-48.5 -7q-20 0 -33 4q-11 -23 -29.5 -39t-44.5 -17l-17 -73q-1 -6 -5 -9t-8 -3.5t-7 2.5t-1 11l17 73q-26 6 -37.5 26.5t-10.5 46.5q0 24 10.5 47.5t29.5 37.5q8 6 14 -0.5t-2 -13.5
q-7 -7 -11.5 -26t-4.5 -40q0 -19 3.5 -35.5t12.5 -25.5l30 130v7q0 21 10 38l24 102q2 8 6.5 12t8 4t6 -4.5t0.5 -13.5l-20 -84h3q22 0 32 -21t11 -50q0 -17 -3.5 -35.5t-11.5 -36.5q12 -3 28 -3q46 0 91 26t71 64zM107 125q8 18 11 36.5t3 32.5q0 25 -7 42t-24 17
q-4 0 -5 -1l-18 -77q5 -17 14.5 -30.5t25.5 -19.5zM103 114q-14 6 -24 17t-17 25l-21 -91q21 1 36.5 15t25.5 34z" />
    <glyph glyph-name="ugrave" unicode="&#xf9;" horiz-adv-x="331" 
d="M114 236q3 -4 1 -8t-9 1q-6 4 -14.5 13t-18 19.5t-18 21t-12.5 18.5q-4 7 0 12t11.5 6t14.5 -2t9 -10q2 -8 6.5 -18t10 -20.5t11 -19.5t8.5 -13zM333 208q2 4 6.5 0.5t2.5 -6.5q-10 -14 -25 -34t-35 -42q-35 -41 -74.5 -68t-70.5 -26q-21 0 -32 8t-15.5 20.5t-3.5 27
t4 28.5q-14 -26 -32.5 -44t-41.5 -18q-26 0 -35.5 18.5t-9 44t9.5 51.5t21 41q2 3 8.5 3t6.5 -3q1 -11 -3 -35t-7 -48t-2 -42.5t13 -18.5q21 0 36.5 17.5t28 41.5t23.5 49.5t23 40.5q4 5 9 3t5 -6q0 -12 -6.5 -40t-11 -56.5t-3 -50t16.5 -21.5q26 -1 62.5 25t71.5 65
q20 22 35.5 42t24.5 33z" />
    <glyph glyph-name="uacute" unicode="&#xfa;" horiz-adv-x="331" 
d="M63 226q3 4 8.5 13t11 19.5t10 20.5t6.5 18q2 7 9 10t14.5 2t11.5 -6t0 -12q-5 -8 -13 -18.5t-17.5 -21t-18 -19.5t-14.5 -13q-7 -5 -9 -1t1 8zM333 208q2 4 6.5 0.5t2.5 -6.5q-10 -14 -25 -34t-35 -42q-35 -41 -74.5 -68t-70.5 -26q-21 0 -32 8t-15.5 20.5t-3.5 27
t4 28.5q-14 -26 -32.5 -44t-41.5 -18q-26 0 -35.5 18.5t-9 44t9.5 51.5t21 41q2 3 8.5 3t6.5 -3q1 -11 -3 -35t-7 -48t-2 -42.5t13 -18.5q21 0 36.5 17.5t28 41.5t23.5 49.5t23 40.5q4 5 9 3t5 -6q0 -12 -6.5 -40t-11 -56.5t-3 -50t16.5 -21.5q26 -1 62.5 25t71.5 65
q20 22 35.5 42t24.5 33z" />
    <glyph glyph-name="ucircumflex" unicode="&#xfb;" horiz-adv-x="331" 
d="M148 242q2 -6 -2.5 -9.5t-10.5 -4.5t-11.5 1.5t-5.5 8.5q-1 11 -6 29.5t-10 26.5q-4 -4 -9.5 -11t-11.5 -15.5t-11.5 -16t-8.5 -13.5t-9.5 -8.5t-12.5 -1.5t-8.5 4.5t2.5 9.5q3 3 13 13.5t22 21.5t23 19t14 8t10 -8t13.5 -19t12 -21t7.5 -14zM333 208q2 4 6.5 0.5
t2.5 -6.5q-10 -14 -25 -34t-35 -42q-35 -41 -74.5 -68t-70.5 -26q-21 0 -32 8t-15.5 20.5t-3.5 27t4 28.5q-14 -26 -32.5 -44t-41.5 -18q-26 0 -35.5 18.5t-9 44t9.5 51.5t21 41q2 3 8.5 3t6.5 -3q1 -11 -3 -35t-7 -48t-2 -42.5t13 -18.5q21 0 36.5 17.5t28 41.5t23.5 49.5
t23 40.5q4 5 9 3t5 -6q0 -12 -6.5 -40t-11 -56.5t-3 -50t16.5 -21.5q26 -1 62.5 25t71.5 65q20 22 35.5 42t24.5 33z" />
    <glyph glyph-name="udieresis" unicode="&#xfc;" horiz-adv-x="331" 
d="M61 262q8 0 11.5 -5t1.5 -13t-8 -13t-14 -5t-12 5t-2 13t8.5 13t14.5 5zM128 262q8 0 11.5 -5t1.5 -13t-8 -13t-14 -5t-11.5 5t-1.5 13t8 13t14 5zM333 208q2 4 6.5 0.5t2.5 -6.5q-10 -14 -25 -34t-35 -42q-35 -41 -74.5 -68t-70.5 -26q-21 0 -32 8t-15.5 20.5t-3.5 27
t4 28.5q-14 -26 -32.5 -44t-41.5 -18q-26 0 -35.5 18.5t-9 44t9.5 51.5t21 41q2 3 8.5 3t6.5 -3q1 -11 -3 -35t-7 -48t-2 -42.5t13 -18.5q21 0 36.5 17.5t28 41.5t23.5 49.5t23 40.5q4 5 9 3t5 -6q0 -12 -6.5 -40t-11 -56.5t-3 -50t16.5 -21.5q26 -1 62.5 25t71.5 65
q20 22 35.5 42t24.5 33z" />
    <glyph glyph-name="yacute" unicode="&#xfd;" horiz-adv-x="328" 
d="M65 236q3 4 8.5 13t11 19.5t10 20.5t6.5 18q2 7 9 10t14.5 2t11.5 -6t0 -12q-5 -8 -13 -18.5t-17.5 -21t-18 -19.5t-14.5 -13q-7 -5 -9 -1t1 8zM330 208q3 4 7.5 0t2.5 -6q-47 -66 -107 -114t-126 -88q-8 -37 -20.5 -90t-31.5 -111.5t-44.5 -116.5t-58 -104t-73 -75
t-89.5 -29q-29 0 -51.5 12t-37.5 31.5t-23 45t-8 52.5q0 60 25 105.5t67 83t97 70t116 65.5q24 13 48.5 26.5t49.5 27.5q14 54 25.5 101.5t22.5 85.5q-6 -14 -17.5 -34.5t-25.5 -39.5t-30.5 -32t-33.5 -13q-23 0 -32 15t-9 36q2 27 12 56t18 43q3 2 7 3.5t10 -3.5
q3 -11 1 -26.5t-5.5 -33t-7 -33.5t-3.5 -28q0 -6 1 -12t9 -6q18 0 35.5 19.5t33.5 45t28.5 51.5t21.5 39q2 2 7.5 1.5t4.5 -3.5q-5 -37 -14 -91.5t-22 -118.5q63 38 119.5 84.5t100.5 108.5zM-214 -515q39 0 73.5 28.5t63.5 73.5t52.5 101t41.5 110.5t31 102.5t21 77
l-89 -49q-60 -32 -114 -63.5t-95 -68t-65.5 -81t-24.5 -101.5q0 -23 7 -46.5t20 -42t32.5 -30t45.5 -11.5z" />
    <glyph glyph-name="ydieresis" unicode="&#xff;" horiz-adv-x="328" 
d="M59 271q8 0 11.5 -5t1.5 -13t-8 -13t-14 -5t-12 5t-2 13t8.5 13t14.5 5zM126 271q8 0 11.5 -5t1.5 -13t-8 -13t-14 -5t-11.5 5t-1.5 13t8 13t14 5zM330 208q3 4 7.5 0t2.5 -6q-47 -66 -107 -114t-126 -88q-8 -37 -20.5 -90t-31.5 -111.5t-44.5 -116.5t-58 -104t-73 -75
t-89.5 -29q-29 0 -51.5 12t-37.5 31.5t-23 45t-8 52.5q0 60 25 105.5t67 83t97 70t116 65.5q24 13 48.5 26.5t49.5 27.5q14 54 25.5 101.5t22.5 85.5q-6 -14 -17.5 -34.5t-25.5 -39.5t-30.5 -32t-33.5 -13q-23 0 -32 15t-9 36q2 27 12 56t18 43q3 2 7 3.5t10 -3.5
q3 -11 1 -26.5t-5.5 -33t-7 -33.5t-3.5 -28q0 -6 1 -12t9 -6q18 0 35.5 19.5t33.5 45t28.5 51.5t21.5 39q2 2 7.5 1.5t4.5 -3.5q-5 -37 -14 -91.5t-22 -118.5q63 38 119.5 84.5t100.5 108.5zM-214 -515q39 0 73.5 28.5t63.5 73.5t52.5 101t41.5 110.5t31 102.5t21 77
l-89 -49q-60 -32 -114 -63.5t-95 -68t-65.5 -81t-24.5 -101.5q0 -23 7 -46.5t20 -42t32.5 -30t45.5 -11.5z" />
    <glyph glyph-name="a" unicode="a" 
d="M325 207q3 5 7.5 1.5t1.5 -7.5q-14 -21 -40.5 -55t-57.5 -66.5t-62 -56t-55 -23.5q-13 0 -21 5.5t-13 14t-7 19.5t-2 22q0 17 3.5 35t8.5 37q-18 -29 -38.5 -51t-43.5 -22q-22 1 -31.5 15t-8.5 37q0 22 10 49t27 49.5t39.5 37.5t49.5 15q29 0 39 -23q3 -5 -2 -7.5t-8 3.5
q-4 7 -9 11.5t-13 4.5q-18 0 -36 -19t-33 -44.5t-25 -53t-10 -44.5q-1 -7 1.5 -13t10.5 -6q15 0 29.5 13.5t29 33.5t27 43t22.5 41q5 10 9.5 17.5t8.5 12.5q2 2 6.5 -0.5t4.5 -4.5q1 -11 -4.5 -35.5t-12.5 -53t-13.5 -56.5t-6.5 -47q0 -8 2 -16.5t12 -8.5q20 0 49.5 23.5
t59.5 56t56 65.5t39 51z" />
    <glyph glyph-name="b" unicode="b" horiz-adv-x="325" 
d="M327 207q3 5 7 1.5t2 -7.5q-36 -53 -90 -76t-116 -28q-23 -34 -58.5 -52.5t-77.5 -18.5q-10 0 -21 2t-20 7.5t-14.5 13.5t-5.5 20q0 21 17.5 30.5t35.5 10.5q3 33 13.5 91.5t27 126.5t40.5 138t54.5 126.5t67 92.5t80.5 36q32 0 47 -22t15 -52t-16 -67t-41.5 -77
t-57.5 -81t-65 -79.5t-64.5 -72t-55.5 -58.5l-24 -98q11 21 24.5 43.5t29 41.5t32 31t33.5 12t27.5 -14.5t9.5 -35.5q0 -31 -15 -62q-2 -5 -5 -10.5t-6 -10.5q57 5 106.5 27.5t83.5 70.5zM269 710q-29 0 -55.5 -29t-50.5 -74.5t-44.5 -101.5t-36.5 -108.5t-27.5 -96.5
t-17.5 -66q25 26 55.5 59t62 69.5t61 75t52.5 76t37.5 71.5t14.5 62q0 25 -12 44t-39 19zM132 211q2 20 -10 20q-13 0 -27 -11.5t-28 -29.5t-27 -39.5t-23 -40.5q20 0 39.5 -1.5t39.5 -1.5l16 29q9 21 14.5 41t5.5 34zM-13 37q32 -1 58 16.5t44 42.5q-20 0 -39 1.5t-38 1.5
q-5 -8 -9 -15.5t-6 -12.5q-2 -3 -7.5 -2.5t-5.5 5.5v11.5t1 13.5q-13 -1 -27 -7.5t-14 -23.5q0 -16 14.5 -23t28.5 -8z" />
    <glyph glyph-name="r" unicode="r" horiz-adv-x="315" 
d="M317 208q3 4 7 0.5t2 -7.5q-11 -15 -29 -40.5t-41 -55t-48 -59.5t-50 -54t-48 -39.5t-41 -14.5q-24 1 -33.5 17t-9.5 38q0 30 8 59.5t18 57.5t19 52.5t9 42.5t-7 33.5t-18 30.5q-21 -35 -45 -70q-4 -5 -8.5 -2t-1.5 8q28 39 47 74q-18 24 -35.5 49.5t-17.5 58.5
q0 26 14.5 39.5t32.5 13.5q26 0 39.5 -20.5t13.5 -43.5q0 -22 -10.5 -47.5t-20.5 -44.5q16 -21 27.5 -44.5t11.5 -54.5q0 -26 -7.5 -53t-16 -54t-15 -53.5t-6.5 -50.5q1 -9 3.5 -17t13.5 -8q15 0 36 15.5t45 39.5t48.5 54t46.5 58.5t39.5 53zM7 387q0 -27 15 -49t33 -45
q9 17 18.5 40.5t9.5 42.5q0 18 -10.5 35.5t-30.5 17.5q-14 0 -24.5 -11t-10.5 -31z" />
    </font>
</defs>
</svg>
